<?xml version="1.0" encoding="UTF-8" standalone="no"?>
<!DOCTYPE svg PUBLIC "-//W3C//DTD SVG 1.1//EN"
 "http://www.w3.org/Graphics/SVG/1.1/DTD/svg11.dtd">
<!-- Generated by graphviz version 2.26.3 (20100126.1600)
 -->
<!-- Title: g Pages: 1 -->
<svg width="346pt" height="194pt"
 viewBox="0.00 0.00 346.00 194.00" xmlns="http://www.w3.org/2000/svg" xmlns:xlink="http://www.w3.org/1999/xlink">
<g id="graph1" class="graph" transform="scale(1 1) rotate(0) translate(4 190)">
<title>g</title>
<polygon fill="white" stroke="white" points="-4,5 -4,-190 343,-190 343,5 -4,5"/>
<!-- A Relationship -->
<g id="node1" class="node"><title>A Relationship</title>
<polygon fill="#c1ffc1" stroke="#c1ffc1" points="157,-186 99,-186 87,-174 87,-162 99,-150 157,-150 169,-162 169,-174 157,-186"/>
<path fill="#c1ffc1" stroke="#c1ffc1" d="M99,-186C93,-186 87,-180 87,-174"/>
<path fill="#c1ffc1" stroke="#c1ffc1" d="M87,-162C87,-156 93,-150 99,-150"/>
<path fill="#c1ffc1" stroke="#c1ffc1" d="M157,-150C163,-150 169,-156 169,-162"/>
<path fill="#c1ffc1" stroke="#c1ffc1" d="M169,-174C169,-180 163,-186 157,-186"/>
<polyline fill="none" stroke="black" points="157,-186 99,-186 "/>
<path fill="none" stroke="black" d="M99,-186C93,-186 87,-180 87,-174"/>
<polyline fill="none" stroke="black" points="87,-174 87,-162 "/>
<path fill="none" stroke="black" d="M87,-162C87,-156 93,-150 99,-150"/>
<polyline fill="none" stroke="black" points="99,-150 157,-150 "/>
<path fill="none" stroke="black" d="M157,-150C163,-150 169,-156 169,-162"/>
<polyline fill="none" stroke="black" points="169,-162 169,-174 "/>
<path fill="none" stroke="black" d="M169,-174C169,-180 163,-186 157,-186"/>
<text text-anchor="middle" x="128" y="-165.5" font-family="FreeSans" font-size="10.00">A Relationship</text>
</g>
<!-- Start node -->
<g id="node2" class="node"><title>Start node</title>
<polygon fill="aquamarine" stroke="aquamarine" points="56,-100 12,-100 2.36848e-14,-88 1.18424e-14,-76 12,-64 56,-64 68,-76 68,-88 56,-100"/>
<path fill="aquamarine" stroke="aquamarine" d="M12,-100C6,-100 2.96059e-14,-94 2.36848e-14,-88"/>
<path fill="aquamarine" stroke="aquamarine" d="M1.18424e-14,-76C5.92119e-15,-70 6,-64 12,-64"/>
<path fill="aquamarine" stroke="aquamarine" d="M56,-64C62,-64 68,-70 68,-76"/>
<path fill="aquamarine" stroke="aquamarine" d="M68,-88C68,-94 62,-100 56,-100"/>
<polyline fill="none" stroke="black" points="56,-100 12,-100 "/>
<path fill="none" stroke="black" d="M12,-100C6,-100 2.96059e-14,-94 2.36848e-14,-88"/>
<polyline fill="none" stroke="black" points="2.36848e-14,-88 1.18424e-14,-76 "/>
<path fill="none" stroke="black" d="M1.18424e-14,-76C5.92119e-15,-70 6,-64 12,-64"/>
<polyline fill="none" stroke="black" points="12,-64 56,-64 "/>
<path fill="none" stroke="black" d="M56,-64C62,-64 68,-70 68,-76"/>
<polyline fill="none" stroke="black" points="68,-76 68,-88 "/>
<path fill="none" stroke="black" d="M68,-88C68,-94 62,-100 56,-100"/>
<text text-anchor="middle" x="34" y="-79.5" font-family="FreeSans" font-size="10.00">Start node</text>
</g>
<!-- A Relationship&#45;&gt;Start node -->
<g id="edge2" class="edge"><title>A Relationship&#45;&gt;Start node</title>
<path fill="none" stroke="black" d="M108.065,-149.762C93.9823,-136.877 74.9818,-119.494 59.7517,-105.56"/>
<polygon fill="black" stroke="black" points="53.9062,-100.212 61.718,-102.785 56.673,-102.743 59.4398,-105.275 59.4398,-105.275 59.4398,-105.275 56.673,-102.743 57.1616,-107.765 53.9062,-100.212 53.9062,-100.212"/>
<text text-anchor="middle" x="99.5" y="-122.5" font-family="FreeSans" font-size="10.00">has a</text>
</g>
<!-- End node -->
<g id="node5" class="node"><title>End node</title>
<polygon fill="#c6e2ff" stroke="#c6e2ff" points="147,-100 109,-100 97,-88 97,-76 109,-64 147,-64 159,-76 159,-88 147,-100"/>
<path fill="#c6e2ff" stroke="#c6e2ff" d="M109,-100C103,-100 97,-94 97,-88"/>
<path fill="#c6e2ff" stroke="#c6e2ff" d="M97,-76C97,-70 103,-64 109,-64"/>
<path fill="#c6e2ff" stroke="#c6e2ff" d="M147,-64C153,-64 159,-70 159,-76"/>
<path fill="#c6e2ff" stroke="#c6e2ff" d="M159,-88C159,-94 153,-100 147,-100"/>
<polyline fill="none" stroke="black" points="147,-100 109,-100 "/>
<path fill="none" stroke="black" d="M109,-100C103,-100 97,-94 97,-88"/>
<polyline fill="none" stroke="black" points="97,-88 97,-76 "/>
<path fill="none" stroke="black" d="M97,-76C97,-70 103,-64 109,-64"/>
<polyline fill="none" stroke="black" points="109,-64 147,-64 "/>
<path fill="none" stroke="black" d="M147,-64C153,-64 159,-70 159,-76"/>
<polyline fill="none" stroke="black" points="159,-76 159,-88 "/>
<path fill="none" stroke="black" d="M159,-88C159,-94 153,-100 147,-100"/>
<text text-anchor="middle" x="128" y="-79.5" font-family="FreeSans" font-size="10.00">End node</text>
</g>
<!-- A Relationship&#45;&gt;End node -->
<g id="edge4" class="edge"><title>A Relationship&#45;&gt;End node</title>
<path fill="none" stroke="black" d="M128,-149.762C128,-137.562 128,-121.327 128,-107.808"/>
<polygon fill="black" stroke="black" points="128,-100.212 131.375,-107.712 128,-103.962 128,-107.712 128,-107.712 128,-107.712 128,-103.962 124.625,-107.712 128,-100.212 128,-100.212"/>
<text text-anchor="middle" x="141.5" y="-122.5" font-family="FreeSans" font-size="10.00">has a</text>
</g>
<!-- Relationship type -->
<g id="node7" class="node"><title>Relationship type</title>
<polygon fill="#c6e2ff" stroke="#c6e2ff" points="274,-100 200,-100 188,-88 188,-76 200,-64 274,-64 286,-76 286,-88 274,-100"/>
<path fill="#c6e2ff" stroke="#c6e2ff" d="M200,-100C194,-100 188,-94 188,-88"/>
<path fill="#c6e2ff" stroke="#c6e2ff" d="M188,-76C188,-70 194,-64 200,-64"/>
<path fill="#c6e2ff" stroke="#c6e2ff" d="M274,-64C280,-64 286,-70 286,-76"/>
<path fill="#c6e2ff" stroke="#c6e2ff" d="M286,-88C286,-94 280,-100 274,-100"/>
<polyline fill="none" stroke="black" points="274,-100 200,-100 "/>
<path fill="none" stroke="black" d="M200,-100C194,-100 188,-94 188,-88"/>
<polyline fill="none" stroke="black" points="188,-88 188,-76 "/>
<path fill="none" stroke="black" d="M188,-76C188,-70 194,-64 200,-64"/>
<polyline fill="none" stroke="black" points="200,-64 274,-64 "/>
<path fill="none" stroke="black" d="M274,-64C280,-64 286,-70 286,-76"/>
<polyline fill="none" stroke="black" points="286,-76 286,-88 "/>
<path fill="none" stroke="black" d="M286,-88C286,-94 280,-100 274,-100"/>
<text text-anchor="middle" x="237" y="-79.5" font-family="FreeSans" font-size="10.00">Relationship type</text>
</g>
<!-- A Relationship&#45;&gt;Relationship type -->
<g id="edge6" class="edge"><title>A Relationship&#45;&gt;Relationship type</title>
<path fill="none" stroke="black" d="M150.85,-149.972C167.418,-136.899 189.959,-119.115 207.828,-105.017"/>
<polygon fill="black" stroke="black" points="214.18,-100.005 210.383,-107.3 211.236,-102.327 208.292,-104.65 208.292,-104.65 208.292,-104.65 211.236,-102.327 206.202,-102.001 214.18,-100.005 214.18,-100.005"/>
<text text-anchor="middle" x="202.5" y="-122.5" font-family="FreeSans" font-size="10.00">has a</text>
</g>
<!-- Name -->
<g id="node8" class="node"><title>Name</title>
<text text-anchor="middle" x="237" y="-4.5" font-family="FreeSans" font-size="10.00">Name</text>
</g>
<!-- Relationship type&#45;&gt;Name -->
<g id="edge8" class="edge"><title>Relationship type&#45;&gt;Name</title>
<path fill="none" stroke="mediumblue" d="M237,-63.8446C237,-51.0068 237,-34.0039 237,-21.9481"/>
<polygon fill="mediumblue" stroke="mediumblue" points="237,-14.1743 240.375,-21.6743 237,-17.9243 237,-21.6743 237,-21.6743 237,-21.6743 237,-17.9243 233.625,-21.6744 237,-14.1743 237,-14.1743"/>
<text text-anchor="middle" x="287.5" y="-36.5" font-family="FreeSans" font-size="10.00" fill="mediumblue">uniquely identified by</text>
</g>
</g>
</svg>
