<?xml version="1.0" encoding="UTF-8" standalone="no"?>
<!DOCTYPE svg PUBLIC "-//W3C//DTD SVG 1.1//EN"
 "http://www.w3.org/Graphics/SVG/1.1/DTD/svg11.dtd">
<!-- Generated by graphviz version 2.26.3 (20100126.1600)
 -->
<!-- Title: g Pages: 1 -->
<svg width="404pt" height="160pt"
 viewBox="0.00 0.00 404.00 160.00" xmlns="http://www.w3.org/2000/svg" xmlns:xlink="http://www.w3.org/1999/xlink">
<g id="graph1" class="graph" transform="scale(1 1) rotate(0) translate(4 156)">
<title>g</title>
<polygon fill="white" stroke="white" points="-4,5 -4,-156 401,-156 401,5 -4,5"/>
<!-- N1 -->
<g id="node1" class="node"><title>N1</title>
<polygon fill="#fffff0" stroke="#fffff0" points="11.5,-6 106.5,-6 118.5,-18 118.5,-40 106.5,-52 11.5,-52 -0.5,-40 -0.5,-18 11.5,-6"/>
<path fill="#fffff0" stroke="#fffff0" d="M106.5,-6C112.5,-6 118.5,-12 118.5,-18"/>
<path fill="#fffff0" stroke="#fffff0" d="M118.5,-40C118.5,-46 112.5,-52 106.5,-52"/>
<path fill="#fffff0" stroke="#fffff0" d="M11.5,-52C5.5,-52 -0.5,-46 -0.5,-40"/>
<path fill="#fffff0" stroke="#fffff0" d="M-0.5,-18C-0.5,-12 5.5,-6 11.5,-6"/>
<polyline fill="none" stroke="black" points="11.5,-6 106.5,-6 "/>
<path fill="none" stroke="black" d="M106.5,-6C112.5,-6 118.5,-12 118.5,-18"/>
<polyline fill="none" stroke="black" points="118.5,-18 118.5,-40 "/>
<path fill="none" stroke="black" d="M118.5,-40C118.5,-46 112.5,-52 106.5,-52"/>
<polyline fill="none" stroke="black" points="106.5,-52 11.5,-52 "/>
<path fill="none" stroke="black" d="M11.5,-52C5.5,-52 -0.5,-46 -0.5,-40"/>
<polyline fill="none" stroke="black" points="-0.5,-40 -0.5,-18 "/>
<path fill="none" stroke="black" d="M-0.5,-18C-0.5,-12 5.5,-6 11.5,-6"/>
<text text-anchor="middle" x="59" y="-40.8" font-family="FreeSans" font-size="8.00">Node[1]</text>
<polyline fill="none" stroke="black" points="-0.5,-34 118.5,-34 "/>
<text text-anchor="start" x="7.5" y="-22.8" font-family="FreeSans" font-size="8.00">&#39;name&#39; = &#39;D&#39; : String</text>
<text text-anchor="start" x="7.5" y="-12.8" font-family="FreeSans" font-size="8.00">&#39;eyes&#39; = &#39;brown&#39; : String</text>
</g>
<!-- N2 -->
<g id="node2" class="node"><title>N2</title>
<polygon fill="#fffff0" stroke="#fffff0" points="163,-105 241,-105 253,-117 253,-139 241,-151 163,-151 151,-139 151,-117 163,-105"/>
<path fill="#fffff0" stroke="#fffff0" d="M241,-105C247,-105 253,-111 253,-117"/>
<path fill="#fffff0" stroke="#fffff0" d="M253,-139C253,-145 247,-151 241,-151"/>
<path fill="#fffff0" stroke="#fffff0" d="M163,-151C157,-151 151,-145 151,-139"/>
<path fill="#fffff0" stroke="#fffff0" d="M151,-117C151,-111 157,-105 163,-105"/>
<polyline fill="none" stroke="black" points="163,-105 241,-105 "/>
<path fill="none" stroke="black" d="M241,-105C247,-105 253,-111 253,-117"/>
<polyline fill="none" stroke="black" points="253,-117 253,-139 "/>
<path fill="none" stroke="black" d="M253,-139C253,-145 247,-151 241,-151"/>
<polyline fill="none" stroke="black" points="241,-151 163,-151 "/>
<path fill="none" stroke="black" d="M163,-151C157,-151 151,-145 151,-139"/>
<polyline fill="none" stroke="black" points="151,-139 151,-117 "/>
<path fill="none" stroke="black" d="M151,-117C151,-111 157,-105 163,-105"/>
<text text-anchor="middle" x="202" y="-139.8" font-family="FreeSans" font-size="8.00">Node[2]</text>
<polyline fill="none" stroke="black" points="151,-133 253,-133 "/>
<text text-anchor="start" x="159" y="-121.8" font-family="FreeSans" font-size="8.00">&#39;name&#39; = &#39;A&#39; : String</text>
<text text-anchor="start" x="159" y="-111.8" font-family="FreeSans" font-size="8.00">&#39;property&#39; = 13 : int</text>
</g>
<!-- N2&#45;&gt;N1 -->
<g id="edge6" class="edge"><title>N2&#45;&gt;N1</title>
<path fill="none" stroke="black" d="M168.473,-104.789C147.585,-90.3283 120.607,-71.651 98.659,-56.4562"/>
<polygon fill="black" stroke="black" points="92.3171,-52.0657 100.405,-53.5599 95.4003,-54.2002 98.4836,-56.3348 98.4836,-56.3348 98.4836,-56.3348 95.4003,-54.2002 96.5624,-59.1097 92.3171,-52.0657 92.3171,-52.0657"/>
<text text-anchor="middle" x="155.5" y="-78.8" font-family="FreeSans" font-size="8.00">KNOWS</text>
</g>
<!-- N3 -->
<g id="node4" class="node"><title>N3</title>
<polygon fill="#fffff0" stroke="#fffff0" points="158.5,-1 245.5,-1 257.5,-13 257.5,-45 245.5,-57 158.5,-57 146.5,-45 146.5,-13 158.5,-1"/>
<path fill="#fffff0" stroke="#fffff0" d="M245.5,-1C251.5,-1 257.5,-7 257.5,-13"/>
<path fill="#fffff0" stroke="#fffff0" d="M257.5,-45C257.5,-51 251.5,-57 245.5,-57"/>
<path fill="#fffff0" stroke="#fffff0" d="M158.5,-57C152.5,-57 146.5,-51 146.5,-45"/>
<path fill="#fffff0" stroke="#fffff0" d="M146.5,-13C146.5,-7 152.5,-1 158.5,-1"/>
<polyline fill="none" stroke="black" points="158.5,-1 245.5,-1 "/>
<path fill="none" stroke="black" d="M245.5,-1C251.5,-1 257.5,-7 257.5,-13"/>
<polyline fill="none" stroke="black" points="257.5,-13 257.5,-45 "/>
<path fill="none" stroke="black" d="M257.5,-45C257.5,-51 251.5,-57 245.5,-57"/>
<polyline fill="none" stroke="black" points="245.5,-57 158.5,-57 "/>
<path fill="none" stroke="black" d="M158.5,-57C152.5,-57 146.5,-51 146.5,-45"/>
<polyline fill="none" stroke="black" points="146.5,-45 146.5,-13 "/>
<path fill="none" stroke="black" d="M146.5,-13C146.5,-7 152.5,-1 158.5,-1"/>
<text text-anchor="middle" x="202" y="-45.8" font-family="FreeSans" font-size="8.00">Node[3]</text>
<polyline fill="none" stroke="black" points="146.5,-39 257.5,-39 "/>
<text text-anchor="start" x="154.5" y="-27.8" font-family="FreeSans" font-size="8.00">&#39;name&#39; = &#39;B&#39; : String</text>
<text text-anchor="start" x="154.5" y="-17.8" font-family="FreeSans" font-size="8.00">&#39;property&#39; = 33 : int</text>
<text text-anchor="start" x="154.5" y="-7.8" font-family="FreeSans" font-size="8.00">&#39;eyes&#39; = &#39;blue&#39; : String</text>
</g>
<!-- N2&#45;&gt;N3 -->
<g id="edge2" class="edge"><title>N2&#45;&gt;N3</title>
<path fill="none" stroke="black" d="M202,-104.789C202,-92.8452 202,-78.0249 202,-64.6661"/>
<polygon fill="black" stroke="black" points="202,-57.0024 205.375,-64.5023 202,-60.7524 202,-64.5024 202,-64.5024 202,-64.5024 202,-60.7524 198.625,-64.5024 202,-57.0024 202,-57.0024"/>
<text text-anchor="middle" x="217.5" y="-78.8" font-family="FreeSans" font-size="8.00">KNOWS</text>
</g>
<!-- N4 -->
<g id="node6" class="node"><title>N4</title>
<polygon fill="#fffff0" stroke="#fffff0" points="297.5,-1 384.5,-1 396.5,-13 396.5,-45 384.5,-57 297.5,-57 285.5,-45 285.5,-13 297.5,-1"/>
<path fill="#fffff0" stroke="#fffff0" d="M384.5,-1C390.5,-1 396.5,-7 396.5,-13"/>
<path fill="#fffff0" stroke="#fffff0" d="M396.5,-45C396.5,-51 390.5,-57 384.5,-57"/>
<path fill="#fffff0" stroke="#fffff0" d="M297.5,-57C291.5,-57 285.5,-51 285.5,-45"/>
<path fill="#fffff0" stroke="#fffff0" d="M285.5,-13C285.5,-7 291.5,-1 297.5,-1"/>
<polyline fill="none" stroke="black" points="297.5,-1 384.5,-1 "/>
<path fill="none" stroke="black" d="M384.5,-1C390.5,-1 396.5,-7 396.5,-13"/>
<polyline fill="none" stroke="black" points="396.5,-13 396.5,-45 "/>
<path fill="none" stroke="black" d="M396.5,-45C396.5,-51 390.5,-57 384.5,-57"/>
<polyline fill="none" stroke="black" points="384.5,-57 297.5,-57 "/>
<path fill="none" stroke="black" d="M297.5,-57C291.5,-57 285.5,-51 285.5,-45"/>
<polyline fill="none" stroke="black" points="285.5,-45 285.5,-13 "/>
<path fill="none" stroke="black" d="M285.5,-13C285.5,-7 291.5,-1 297.5,-1"/>
<text text-anchor="middle" x="341" y="-45.8" font-family="FreeSans" font-size="8.00">Node[4]</text>
<polyline fill="none" stroke="black" points="285.5,-39 396.5,-39 "/>
<text text-anchor="start" x="293.5" y="-27.8" font-family="FreeSans" font-size="8.00">&#39;name&#39; = &#39;C&#39; : String</text>
<text text-anchor="start" x="293.5" y="-17.8" font-family="FreeSans" font-size="8.00">&#39;property&#39; = 44 : int</text>
<text text-anchor="start" x="293.5" y="-7.8" font-family="FreeSans" font-size="8.00">&#39;eyes&#39; = &#39;blue&#39; : String</text>
</g>
<!-- N2&#45;&gt;N4 -->
<g id="edge4" class="edge"><title>N2&#45;&gt;N4</title>
<path fill="none" stroke="black" d="M234.589,-104.789C252.691,-91.8964 275.499,-75.6521 295.351,-61.5123"/>
<polygon fill="black" stroke="black" points="301.684,-57.0024 297.533,-64.1024 298.629,-59.1779 295.575,-61.3534 295.575,-61.3534 295.575,-61.3534 298.629,-59.1779 293.617,-58.6044 301.684,-57.0024 301.684,-57.0024"/>
<text text-anchor="middle" x="286.5" y="-78.8" font-family="FreeSans" font-size="8.00">KNOWS</text>
</g>
</g>
</svg>
