<?xml version="1.0" encoding="UTF-8" standalone="no"?>
<!DOCTYPE svg PUBLIC "-//W3C//DTD SVG 1.1//EN"
 "http://www.w3.org/Graphics/SVG/1.1/DTD/svg11.dtd">
<!-- Generated by graphviz version 2.26.3 (20100126.1600)
 -->
<!-- Title: g Pages: 1 -->
<svg width="381pt" height="298pt"
 viewBox="0.00 0.00 381.00 298.00" xmlns="http://www.w3.org/2000/svg" xmlns:xlink="http://www.w3.org/1999/xlink">
<g id="graph1" class="graph" transform="scale(1 1) rotate(0) translate(4 294)">
<title>g</title>
<polygon fill="white" stroke="white" points="-4,5 -4,-294 378,-294 378,5 -4,5"/>
<!-- N1 -->
<g id="node1" class="node"><title>N1</title>
<polygon fill="#fffff0" stroke="#fffff0" points="53,-85 139,-85 151,-97 151,-109 139,-121 53,-121 41,-109 41,-97 53,-85"/>
<path fill="#fffff0" stroke="#fffff0" d="M139,-85C145,-85 151,-91 151,-97"/>
<path fill="#fffff0" stroke="#fffff0" d="M151,-109C151,-115 145,-121 139,-121"/>
<path fill="#fffff0" stroke="#fffff0" d="M53,-121C47,-121 41,-115 41,-109"/>
<path fill="#fffff0" stroke="#fffff0" d="M41,-97C41,-91 47,-85 53,-85"/>
<polyline fill="none" stroke="black" points="53,-85 139,-85 "/>
<path fill="none" stroke="black" d="M139,-85C145,-85 151,-91 151,-97"/>
<polyline fill="none" stroke="black" points="151,-97 151,-109 "/>
<path fill="none" stroke="black" d="M151,-109C151,-115 145,-121 139,-121"/>
<polyline fill="none" stroke="black" points="139,-121 53,-121 "/>
<path fill="none" stroke="black" d="M53,-121C47,-121 41,-115 41,-109"/>
<polyline fill="none" stroke="black" points="41,-109 41,-97 "/>
<path fill="none" stroke="black" d="M41,-97C41,-91 47,-85 53,-85"/>
<text text-anchor="middle" x="96" y="-109.8" font-family="FreeSans" font-size="8.00">Node[1]</text>
<polyline fill="none" stroke="black" points="41,-103 151,-103 "/>
<text text-anchor="start" x="49" y="-91.8" font-family="FreeSans" font-size="8.00">&#39;name&#39; = &#39;Bill&#39; : String</text>
</g>
<!-- N3 -->
<g id="node3" class="node"><title>N3</title>
<polygon fill="#fffff0" stroke="#fffff0" points="11.5,-1 114.5,-1 126.5,-13 126.5,-25 114.5,-37 11.5,-37 -0.5,-25 -0.5,-13 11.5,-1"/>
<path fill="#fffff0" stroke="#fffff0" d="M114.5,-1C120.5,-1 126.5,-7 126.5,-13"/>
<path fill="#fffff0" stroke="#fffff0" d="M126.5,-25C126.5,-31 120.5,-37 114.5,-37"/>
<path fill="#fffff0" stroke="#fffff0" d="M11.5,-37C5.5,-37 -0.5,-31 -0.5,-25"/>
<path fill="#fffff0" stroke="#fffff0" d="M-0.5,-13C-0.5,-7 5.5,-1 11.5,-1"/>
<polyline fill="none" stroke="black" points="11.5,-1 114.5,-1 "/>
<path fill="none" stroke="black" d="M114.5,-1C120.5,-1 126.5,-7 126.5,-13"/>
<polyline fill="none" stroke="black" points="126.5,-13 126.5,-25 "/>
<path fill="none" stroke="black" d="M126.5,-25C126.5,-31 120.5,-37 114.5,-37"/>
<polyline fill="none" stroke="black" points="114.5,-37 11.5,-37 "/>
<path fill="none" stroke="black" d="M11.5,-37C5.5,-37 -0.5,-31 -0.5,-25"/>
<polyline fill="none" stroke="black" points="-0.5,-25 -0.5,-13 "/>
<path fill="none" stroke="black" d="M-0.5,-13C-0.5,-7 5.5,-1 11.5,-1"/>
<text text-anchor="middle" x="63" y="-25.8" font-family="FreeSans" font-size="8.00">Node[3]</text>
<polyline fill="none" stroke="black" points="-0.5,-19 126.5,-19 "/>
<text text-anchor="start" x="7.5" y="-7.8" font-family="FreeSans" font-size="8.00">&#39;name&#39; = &#39;Derrick&#39; : String</text>
</g>
<!-- N1&#45;&gt;N3 -->
<g id="edge2" class="edge"><title>N1&#45;&gt;N3</title>
<path fill="none" stroke="black" d="M87.8013,-84.6487C85.227,-78.728 82.4255,-72.1151 80,-66 77.2747,-59.129 74.4807,-51.6264 71.9655,-44.6734"/>
<polygon fill="black" stroke="black" points="69.3622,-37.4004 75.0673,-43.3242 70.626,-40.931 71.8898,-44.4616 71.8898,-44.4616 71.8898,-44.4616 70.626,-40.931 68.7122,-45.5991 69.3622,-37.4004 69.3622,-37.4004"/>
<text text-anchor="middle" x="94" y="-58.8" font-family="FreeSans" font-size="8.00">knows</text>
</g>
<!-- N4 -->
<g id="node5" class="node"><title>N4</title>
<polygon fill="#fffff0" stroke="#fffff0" points="167,-1 253,-1 265,-13 265,-25 253,-37 167,-37 155,-25 155,-13 167,-1"/>
<path fill="#fffff0" stroke="#fffff0" d="M253,-1C259,-1 265,-7 265,-13"/>
<path fill="#fffff0" stroke="#fffff0" d="M265,-25C265,-31 259,-37 253,-37"/>
<path fill="#fffff0" stroke="#fffff0" d="M167,-37C161,-37 155,-31 155,-25"/>
<path fill="#fffff0" stroke="#fffff0" d="M155,-13C155,-7 161,-1 167,-1"/>
<polyline fill="none" stroke="black" points="167,-1 253,-1 "/>
<path fill="none" stroke="black" d="M253,-1C259,-1 265,-7 265,-13"/>
<polyline fill="none" stroke="black" points="265,-13 265,-25 "/>
<path fill="none" stroke="black" d="M265,-25C265,-31 259,-37 253,-37"/>
<polyline fill="none" stroke="black" points="253,-37 167,-37 "/>
<path fill="none" stroke="black" d="M167,-37C161,-37 155,-31 155,-25"/>
<polyline fill="none" stroke="black" points="155,-25 155,-13 "/>
<path fill="none" stroke="black" d="M155,-13C155,-7 161,-1 167,-1"/>
<text text-anchor="middle" x="210" y="-25.8" font-family="FreeSans" font-size="8.00">Node[4]</text>
<polyline fill="none" stroke="black" points="155,-19 265,-19 "/>
<text text-anchor="start" x="163" y="-7.8" font-family="FreeSans" font-size="8.00">&#39;name&#39; = &#39;Ian&#39; : String</text>
</g>
<!-- N1&#45;&gt;N4 -->
<g id="edge4" class="edge"><title>N1&#45;&gt;N4</title>
<path fill="none" stroke="black" d="M120.456,-84.9799C137.619,-72.3331 160.703,-55.3239 179.134,-41.7431"/>
<polygon fill="black" stroke="black" points="185.191,-37.2801 181.155,-44.4463 182.172,-39.5047 179.153,-41.7292 179.153,-41.7292 179.153,-41.7292 182.172,-39.5047 177.151,-39.0121 185.191,-37.2801 185.191,-37.2801"/>
<text text-anchor="middle" x="170" y="-58.8" font-family="FreeSans" font-size="8.00">knows</text>
</g>
<!-- N2 -->
<g id="node6" class="node"><title>N2</title>
<polygon fill="#fffff0" stroke="#fffff0" points="163.5,-169 256.5,-169 268.5,-181 268.5,-193 256.5,-205 163.5,-205 151.5,-193 151.5,-181 163.5,-169"/>
<path fill="#fffff0" stroke="#fffff0" d="M256.5,-169C262.5,-169 268.5,-175 268.5,-181"/>
<path fill="#fffff0" stroke="#fffff0" d="M268.5,-193C268.5,-199 262.5,-205 256.5,-205"/>
<path fill="#fffff0" stroke="#fffff0" d="M163.5,-205C157.5,-205 151.5,-199 151.5,-193"/>
<path fill="#fffff0" stroke="#fffff0" d="M151.5,-181C151.5,-175 157.5,-169 163.5,-169"/>
<polyline fill="none" stroke="black" points="163.5,-169 256.5,-169 "/>
<path fill="none" stroke="black" d="M256.5,-169C262.5,-169 268.5,-175 268.5,-181"/>
<polyline fill="none" stroke="black" points="268.5,-181 268.5,-193 "/>
<path fill="none" stroke="black" d="M268.5,-193C268.5,-199 262.5,-205 256.5,-205"/>
<polyline fill="none" stroke="black" points="256.5,-205 163.5,-205 "/>
<path fill="none" stroke="black" d="M163.5,-205C157.5,-205 151.5,-199 151.5,-193"/>
<polyline fill="none" stroke="black" points="151.5,-193 151.5,-181 "/>
<path fill="none" stroke="black" d="M151.5,-181C151.5,-175 157.5,-169 163.5,-169"/>
<text text-anchor="middle" x="210" y="-193.8" font-family="FreeSans" font-size="8.00">Node[2]</text>
<polyline fill="none" stroke="black" points="151.5,-187 268.5,-187 "/>
<text text-anchor="start" x="159.5" y="-175.8" font-family="FreeSans" font-size="8.00">&#39;name&#39; = &#39;Sara&#39; : String</text>
</g>
<!-- N2&#45;&gt;N1 -->
<g id="edge6" class="edge"><title>N2&#45;&gt;N1</title>
<path fill="none" stroke="black" d="M185.544,-168.98C168.381,-156.333 145.297,-139.324 126.866,-125.743"/>
<polygon fill="black" stroke="black" points="120.809,-121.28 128.849,-123.012 123.828,-123.505 126.847,-125.729 126.847,-125.729 126.847,-125.729 123.828,-123.505 124.845,-128.446 120.809,-121.28 120.809,-121.28"/>
<text text-anchor="middle" x="170" y="-142.8" font-family="FreeSans" font-size="8.00">knows</text>
</g>
<!-- N2&#45;&gt;N4 -->
<g id="edge8" class="edge"><title>N2&#45;&gt;N4</title>
<path fill="none" stroke="black" d="M210,-168.701C210,-138.705 210,-78.99 210,-44.7399"/>
<polygon fill="black" stroke="black" points="210,-37.0219 213.375,-44.5219 210,-40.7719 210,-44.5219 210,-44.5219 210,-44.5219 210,-40.7719 206.625,-44.522 210,-37.0219 210,-37.0219"/>
<text text-anchor="middle" x="224" y="-100.8" font-family="FreeSans" font-size="8.00">knows</text>
</g>
<!-- N5 -->
<g id="node10" class="node"><title>N5</title>
<polygon fill="#fffff0" stroke="#fffff0" points="279,-85 361,-85 373,-97 373,-109 361,-121 279,-121 267,-109 267,-97 279,-85"/>
<path fill="#fffff0" stroke="#fffff0" d="M361,-85C367,-85 373,-91 373,-97"/>
<path fill="#fffff0" stroke="#fffff0" d="M373,-109C373,-115 367,-121 361,-121"/>
<path fill="#fffff0" stroke="#fffff0" d="M279,-121C273,-121 267,-115 267,-109"/>
<path fill="#fffff0" stroke="#fffff0" d="M267,-97C267,-91 273,-85 279,-85"/>
<polyline fill="none" stroke="black" points="279,-85 361,-85 "/>
<path fill="none" stroke="black" d="M361,-85C367,-85 373,-91 373,-97"/>
<polyline fill="none" stroke="black" points="373,-97 373,-109 "/>
<path fill="none" stroke="black" d="M373,-109C373,-115 367,-121 361,-121"/>
<polyline fill="none" stroke="black" points="361,-121 279,-121 "/>
<path fill="none" stroke="black" d="M279,-121C273,-121 267,-115 267,-109"/>
<polyline fill="none" stroke="black" points="267,-109 267,-97 "/>
<path fill="none" stroke="black" d="M267,-97C267,-91 273,-85 279,-85"/>
<text text-anchor="middle" x="320" y="-109.8" font-family="FreeSans" font-size="8.00">Node[5]</text>
<polyline fill="none" stroke="black" points="267,-103 373,-103 "/>
<text text-anchor="start" x="275" y="-91.8" font-family="FreeSans" font-size="8.00">&#39;name&#39; = &#39;Jill&#39; : String</text>
</g>
<!-- N2&#45;&gt;N5 -->
<g id="edge10" class="edge"><title>N2&#45;&gt;N5</title>
<path fill="none" stroke="black" d="M233.598,-168.98C250.015,-156.443 272.046,-139.619 289.752,-126.098"/>
<polygon fill="black" stroke="black" points="296.062,-121.28 292.149,-128.514 293.081,-123.556 290.101,-125.832 290.101,-125.832 290.101,-125.832 293.081,-123.556 288.053,-123.15 296.062,-121.28 296.062,-121.28"/>
<text text-anchor="middle" x="282" y="-142.8" font-family="FreeSans" font-size="8.00">knows</text>
</g>
<!-- N6 -->
<g id="node11" class="node"><title>N6</title>
<polygon fill="#fffff0" stroke="#fffff0" points="93,-253 179,-253 191,-265 191,-277 179,-289 93,-289 81,-277 81,-265 93,-253"/>
<path fill="#fffff0" stroke="#fffff0" d="M179,-253C185,-253 191,-259 191,-265"/>
<path fill="#fffff0" stroke="#fffff0" d="M191,-277C191,-283 185,-289 179,-289"/>
<path fill="#fffff0" stroke="#fffff0" d="M93,-289C87,-289 81,-283 81,-277"/>
<path fill="#fffff0" stroke="#fffff0" d="M81,-265C81,-259 87,-253 93,-253"/>
<polyline fill="none" stroke="black" points="93,-253 179,-253 "/>
<path fill="none" stroke="black" d="M179,-253C185,-253 191,-259 191,-265"/>
<polyline fill="none" stroke="black" points="191,-265 191,-277 "/>
<path fill="none" stroke="black" d="M191,-277C191,-283 185,-289 179,-289"/>
<polyline fill="none" stroke="black" points="179,-289 93,-289 "/>
<path fill="none" stroke="black" d="M93,-289C87,-289 81,-283 81,-277"/>
<polyline fill="none" stroke="black" points="81,-277 81,-265 "/>
<path fill="none" stroke="black" d="M81,-265C81,-259 87,-253 93,-253"/>
<text text-anchor="middle" x="136" y="-277.8" font-family="FreeSans" font-size="8.00">Node[6]</text>
<polyline fill="none" stroke="black" points="81,-271 191,-271 "/>
<text text-anchor="start" x="89" y="-259.8" font-family="FreeSans" font-size="8.00">&#39;name&#39; = &#39;Joe&#39; : String</text>
</g>
<!-- N6&#45;&gt;N1 -->
<g id="edge12" class="edge"><title>N6&#45;&gt;N1</title>
<path fill="none" stroke="black" d="M127.371,-252.916C121.602,-240.095 114.307,-222.336 110,-206 103.187,-180.16 99.5713,-149.75 97.7338,-128.704"/>
<polygon fill="black" stroke="black" points="97.1137,-121.125 101.089,-128.324 97.4196,-124.862 97.7254,-128.6 97.7254,-128.6 97.7254,-128.6 97.4196,-124.862 94.3617,-128.875 97.1137,-121.125 97.1137,-121.125"/>
<text text-anchor="middle" x="124" y="-184.8" font-family="FreeSans" font-size="8.00">knows</text>
</g>
<!-- N6&#45;&gt;N2 -->
<g id="edge14" class="edge"><title>N6&#45;&gt;N2</title>
<path fill="none" stroke="black" d="M152.057,-252.773C162.821,-240.555 177.11,-224.334 188.806,-211.059"/>
<polygon fill="black" stroke="black" points="193.974,-205.191 191.549,-213.05 191.496,-208.005 189.017,-210.819 189.017,-210.819 189.017,-210.819 191.496,-208.005 186.484,-208.588 193.974,-205.191 193.974,-205.191"/>
<text text-anchor="middle" x="189" y="-226.8" font-family="FreeSans" font-size="8.00">knows</text>
</g>
</g>
</svg>
