<?xml version="1.0" encoding="UTF-8" standalone="no"?>
<!DOCTYPE svg PUBLIC "-//W3C//DTD SVG 1.1//EN"
 "http://www.w3.org/Graphics/SVG/1.1/DTD/svg11.dtd">
<!-- Generated by graphviz version 2.26.3 (20100126.1600)
 -->
<!-- Title: g Pages: 1 -->
<svg width="337pt" height="284pt"
 viewBox="0.00 0.00 337.00 284.00" xmlns="http://www.w3.org/2000/svg" xmlns:xlink="http://www.w3.org/1999/xlink">
<g id="graph1" class="graph" transform="scale(1 1) rotate(0) translate(4 280)">
<title>g</title>
<polygon fill="white" stroke="white" points="-4,5 -4,-280 334,-280 334,5 -4,5"/>
<!-- N1 -->
<g id="node1" class="node"><title>N1</title>
<polygon fill="#fffff0" stroke="#fffff0" points="222.5,-6 317.5,-6 329.5,-18 329.5,-50 317.5,-62 222.5,-62 210.5,-50 210.5,-18 222.5,-6"/>
<path fill="#fffff0" stroke="#fffff0" d="M317.5,-6C323.5,-6 329.5,-12 329.5,-18"/>
<path fill="#fffff0" stroke="#fffff0" d="M329.5,-50C329.5,-56 323.5,-62 317.5,-62"/>
<path fill="#fffff0" stroke="#fffff0" d="M222.5,-62C216.5,-62 210.5,-56 210.5,-50"/>
<path fill="#fffff0" stroke="#fffff0" d="M210.5,-18C210.5,-12 216.5,-6 222.5,-6"/>
<polyline fill="none" stroke="black" points="222.5,-6 317.5,-6 "/>
<path fill="none" stroke="black" d="M317.5,-6C323.5,-6 329.5,-12 329.5,-18"/>
<polyline fill="none" stroke="black" points="329.5,-18 329.5,-50 "/>
<path fill="none" stroke="black" d="M329.5,-50C329.5,-56 323.5,-62 317.5,-62"/>
<polyline fill="none" stroke="black" points="317.5,-62 222.5,-62 "/>
<path fill="none" stroke="black" d="M222.5,-62C216.5,-62 210.5,-56 210.5,-50"/>
<polyline fill="none" stroke="black" points="210.5,-50 210.5,-18 "/>
<path fill="none" stroke="black" d="M210.5,-18C210.5,-12 216.5,-6 222.5,-6"/>
<text text-anchor="middle" x="270" y="-50.8" font-family="FreeSans" font-size="8.00">Node[1]</text>
<polyline fill="none" stroke="black" points="210.5,-44 329.5,-44 "/>
<text text-anchor="start" x="218.5" y="-32.8" font-family="FreeSans" font-size="8.00">&#39;name&#39; = &#39;D&#39; : String</text>
<text text-anchor="start" x="218.5" y="-22.8" font-family="FreeSans" font-size="8.00">&#39;age&#39; = 54 : int</text>
<text text-anchor="start" x="218.5" y="-12.8" font-family="FreeSans" font-size="8.00">&#39;eyes&#39; = &#39;brown&#39; : String</text>
</g>
<!-- N2 -->
<g id="node2" class="node"><title>N2</title>
<polygon fill="#fffff0" stroke="#fffff0" points="12,-1 170,-1 182,-13 182,-55 170,-67 12,-67 0,-55 0,-13 12,-1"/>
<path fill="#fffff0" stroke="#fffff0" d="M170,-1C176,-1 182,-7 182,-13"/>
<path fill="#fffff0" stroke="#fffff0" d="M182,-55C182,-61 176,-67 170,-67"/>
<path fill="#fffff0" stroke="#fffff0" d="M12,-67C6,-67 0,-61 0,-55"/>
<path fill="#fffff0" stroke="#fffff0" d="M0,-13C0,-7 6,-1 12,-1"/>
<polyline fill="none" stroke="black" points="12,-1 170,-1 "/>
<path fill="none" stroke="black" d="M170,-1C176,-1 182,-7 182,-13"/>
<polyline fill="none" stroke="black" points="182,-13 182,-55 "/>
<path fill="none" stroke="black" d="M182,-55C182,-61 176,-67 170,-67"/>
<polyline fill="none" stroke="black" points="170,-67 12,-67 "/>
<path fill="none" stroke="black" d="M12,-67C6,-67 0,-61 0,-55"/>
<polyline fill="none" stroke="black" points="0,-55 0,-13 "/>
<path fill="none" stroke="black" d="M0,-13C0,-7 6,-1 12,-1"/>
<text text-anchor="middle" x="91" y="-55.8" font-family="FreeSans" font-size="8.00">Node[2]</text>
<polyline fill="none" stroke="black" points="0,-49 182,-49 "/>
<text text-anchor="start" x="8" y="-37.8" font-family="FreeSans" font-size="8.00">&#39;name&#39; = &#39;E&#39; : String</text>
<text text-anchor="start" x="8" y="-27.8" font-family="FreeSans" font-size="8.00">&#39;age&#39; = 41 : int</text>
<text text-anchor="start" x="8" y="-17.8" font-family="FreeSans" font-size="8.00">&#39;eyes&#39; = &#39;blue&#39; : String</text>
<text text-anchor="start" x="8" y="-7.8" font-family="FreeSans" font-size="8.00">&#39;array&#39; = [&#39;one&#39;, &#39;two&#39;, &#39;three&#39;] : String[]</text>
</g>
<!-- N3 -->
<g id="node3" class="node"><title>N3</title>
<polygon fill="#fffff0" stroke="#fffff0" points="160.5,-219 255.5,-219 267.5,-231 267.5,-263 255.5,-275 160.5,-275 148.5,-263 148.5,-231 160.5,-219"/>
<path fill="#fffff0" stroke="#fffff0" d="M255.5,-219C261.5,-219 267.5,-225 267.5,-231"/>
<path fill="#fffff0" stroke="#fffff0" d="M267.5,-263C267.5,-269 261.5,-275 255.5,-275"/>
<path fill="#fffff0" stroke="#fffff0" d="M160.5,-275C154.5,-275 148.5,-269 148.5,-263"/>
<path fill="#fffff0" stroke="#fffff0" d="M148.5,-231C148.5,-225 154.5,-219 160.5,-219"/>
<polyline fill="none" stroke="black" points="160.5,-219 255.5,-219 "/>
<path fill="none" stroke="black" d="M255.5,-219C261.5,-219 267.5,-225 267.5,-231"/>
<polyline fill="none" stroke="black" points="267.5,-231 267.5,-263 "/>
<path fill="none" stroke="black" d="M267.5,-263C267.5,-269 261.5,-275 255.5,-275"/>
<polyline fill="none" stroke="black" points="255.5,-275 160.5,-275 "/>
<path fill="none" stroke="black" d="M160.5,-275C154.5,-275 148.5,-269 148.5,-263"/>
<polyline fill="none" stroke="black" points="148.5,-263 148.5,-231 "/>
<path fill="none" stroke="black" d="M148.5,-231C148.5,-225 154.5,-219 160.5,-219"/>
<text text-anchor="middle" x="208" y="-263.8" font-family="FreeSans" font-size="8.00">Node[3]</text>
<polyline fill="none" stroke="black" points="148.5,-257 267.5,-257 "/>
<text text-anchor="start" x="156.5" y="-245.8" font-family="FreeSans" font-size="8.00">&#39;name&#39; = &#39;A&#39; : String</text>
<text text-anchor="start" x="156.5" y="-235.8" font-family="FreeSans" font-size="8.00">&#39;age&#39; = 38 : int</text>
<text text-anchor="start" x="156.5" y="-225.8" font-family="FreeSans" font-size="8.00">&#39;eyes&#39; = &#39;brown&#39; : String</text>
</g>
<!-- N4 -->
<g id="node5" class="node"><title>N4</title>
<polygon fill="#fffff0" stroke="#fffff0" points="83.5,-115 170.5,-115 182.5,-127 182.5,-159 170.5,-171 83.5,-171 71.5,-159 71.5,-127 83.5,-115"/>
<path fill="#fffff0" stroke="#fffff0" d="M170.5,-115C176.5,-115 182.5,-121 182.5,-127"/>
<path fill="#fffff0" stroke="#fffff0" d="M182.5,-159C182.5,-165 176.5,-171 170.5,-171"/>
<path fill="#fffff0" stroke="#fffff0" d="M83.5,-171C77.5,-171 71.5,-165 71.5,-159"/>
<path fill="#fffff0" stroke="#fffff0" d="M71.5,-127C71.5,-121 77.5,-115 83.5,-115"/>
<polyline fill="none" stroke="black" points="83.5,-115 170.5,-115 "/>
<path fill="none" stroke="black" d="M170.5,-115C176.5,-115 182.5,-121 182.5,-127"/>
<polyline fill="none" stroke="black" points="182.5,-127 182.5,-159 "/>
<path fill="none" stroke="black" d="M182.5,-159C182.5,-165 176.5,-171 170.5,-171"/>
<polyline fill="none" stroke="black" points="170.5,-171 83.5,-171 "/>
<path fill="none" stroke="black" d="M83.5,-171C77.5,-171 71.5,-165 71.5,-159"/>
<polyline fill="none" stroke="black" points="71.5,-159 71.5,-127 "/>
<path fill="none" stroke="black" d="M71.5,-127C71.5,-121 77.5,-115 83.5,-115"/>
<text text-anchor="middle" x="127" y="-159.8" font-family="FreeSans" font-size="8.00">Node[4]</text>
<polyline fill="none" stroke="black" points="71.5,-153 182.5,-153 "/>
<text text-anchor="start" x="79.5" y="-141.8" font-family="FreeSans" font-size="8.00">&#39;name&#39; = &#39;B&#39; : String</text>
<text text-anchor="start" x="79.5" y="-131.8" font-family="FreeSans" font-size="8.00">&#39;age&#39; = 25 : int</text>
<text text-anchor="start" x="79.5" y="-121.8" font-family="FreeSans" font-size="8.00">&#39;eyes&#39; = &#39;blue&#39; : String</text>
</g>
<!-- N3&#45;&gt;N4 -->
<g id="edge2" class="edge"><title>N3&#45;&gt;N4</title>
<path fill="none" stroke="black" d="M186.08,-218.856C176.085,-206.023 164.163,-190.715 153.654,-177.223"/>
<polygon fill="black" stroke="black" points="148.937,-171.166 156.209,-175.01 151.242,-174.125 153.546,-177.083 153.546,-177.083 153.546,-177.083 151.242,-174.125 150.883,-179.157 148.937,-171.166 148.937,-171.166"/>
<text text-anchor="middle" x="184.5" y="-192.8" font-family="FreeSans" font-size="8.00">KNOWS</text>
</g>
<!-- N5 -->
<g id="node7" class="node"><title>N5</title>
<polygon fill="#fffff0" stroke="#fffff0" points="223,-115 317,-115 329,-127 329,-159 317,-171 223,-171 211,-159 211,-127 223,-115"/>
<path fill="#fffff0" stroke="#fffff0" d="M317,-115C323,-115 329,-121 329,-127"/>
<path fill="#fffff0" stroke="#fffff0" d="M329,-159C329,-165 323,-171 317,-171"/>
<path fill="#fffff0" stroke="#fffff0" d="M223,-171C217,-171 211,-165 211,-159"/>
<path fill="#fffff0" stroke="#fffff0" d="M211,-127C211,-121 217,-115 223,-115"/>
<polyline fill="none" stroke="black" points="223,-115 317,-115 "/>
<path fill="none" stroke="black" d="M317,-115C323,-115 329,-121 329,-127"/>
<polyline fill="none" stroke="black" points="329,-127 329,-159 "/>
<path fill="none" stroke="black" d="M329,-159C329,-165 323,-171 317,-171"/>
<polyline fill="none" stroke="black" points="317,-171 223,-171 "/>
<path fill="none" stroke="black" d="M223,-171C217,-171 211,-165 211,-159"/>
<polyline fill="none" stroke="black" points="211,-159 211,-127 "/>
<path fill="none" stroke="black" d="M211,-127C211,-121 217,-115 223,-115"/>
<text text-anchor="middle" x="270" y="-159.8" font-family="FreeSans" font-size="8.00">Node[5]</text>
<polyline fill="none" stroke="black" points="211,-153 329,-153 "/>
<text text-anchor="start" x="219" y="-141.8" font-family="FreeSans" font-size="8.00">&#39;name&#39; = &#39;C&#39; : String</text>
<text text-anchor="start" x="219" y="-131.8" font-family="FreeSans" font-size="8.00">&#39;age&#39; = 53 : int</text>
<text text-anchor="start" x="219" y="-121.8" font-family="FreeSans" font-size="8.00">&#39;eyes&#39; = &#39;green&#39; : String</text>
</g>
<!-- N3&#45;&gt;N5 -->
<g id="edge4" class="edge"><title>N3&#45;&gt;N5</title>
<path fill="none" stroke="black" d="M224.778,-218.856C232.291,-206.254 241.226,-191.266 249.162,-177.954"/>
<polygon fill="black" stroke="black" points="253.208,-171.166 252.267,-179.337 251.288,-174.387 249.368,-177.609 249.368,-177.609 249.368,-177.609 251.288,-174.387 246.469,-175.88 253.208,-171.166 253.208,-171.166"/>
<text text-anchor="middle" x="255.5" y="-192.8" font-family="FreeSans" font-size="8.00">KNOWS</text>
</g>
<!-- N4&#45;&gt;N1 -->
<g id="edge6" class="edge"><title>N4&#45;&gt;N1</title>
<path fill="none" stroke="black" d="M163.826,-114.93C183.025,-100.296 206.625,-82.3071 226.695,-67.0086"/>
<polygon fill="black" stroke="black" points="232.802,-62.3539 228.883,-69.5847 229.819,-64.6272 226.837,-66.9005 226.837,-66.9005 226.837,-66.9005 229.819,-64.6272 224.791,-64.2164 232.802,-62.3539 232.802,-62.3539"/>
<text text-anchor="middle" x="213.5" y="-88.8" font-family="FreeSans" font-size="8.00">KNOWS</text>
</g>
<!-- N4&#45;&gt;N2 -->
<g id="edge8" class="edge"><title>N4&#45;&gt;N2</title>
<path fill="none" stroke="black" d="M116.523,-114.746C114.312,-108.587 112.033,-102.091 110,-96 107.722,-89.1774 105.398,-81.8985 103.192,-74.816"/>
<polygon fill="black" stroke="black" points="100.853,-67.2387 106.29,-73.4095 101.959,-70.8219 103.066,-74.405 103.066,-74.405 103.066,-74.405 101.959,-70.8219 99.8407,-75.4006 100.853,-67.2387 100.853,-67.2387"/>
<text text-anchor="middle" x="128.5" y="-88.8" font-family="FreeSans" font-size="8.00">MARRIED</text>
</g>
<!-- N5&#45;&gt;N1 -->
<g id="edge10" class="edge"><title>N5&#45;&gt;N1</title>
<path fill="none" stroke="black" d="M270,-114.93C270,-101.305 270,-84.7723 270,-70.2102"/>
<polygon fill="black" stroke="black" points="270,-62.3539 273.375,-69.8539 270,-66.1039 270,-69.8539 270,-69.8539 270,-69.8539 270,-66.1039 266.625,-69.854 270,-62.3539 270,-62.3539"/>
<text text-anchor="middle" x="285.5" y="-88.8" font-family="FreeSans" font-size="8.00">KNOWS</text>
</g>
</g>
</svg>
