<?xml version="1.0" encoding="UTF-8" standalone="no"?>
<!DOCTYPE svg PUBLIC "-//W3C//DTD SVG 1.1//EN"
 "http://www.w3.org/Graphics/SVG/1.1/DTD/svg11.dtd">
<!-- Generated by graphviz version 2.26.3 (20100126.1600)
 -->
<!-- Title: g Pages: 1 -->
<svg width="504pt" height="106pt"
 viewBox="0.00 0.00 504.00 105.64" xmlns="http://www.w3.org/2000/svg" xmlns:xlink="http://www.w3.org/1999/xlink">
<g id="graph1" class="graph" transform="scale(0.493634 0.493634) rotate(0) translate(4 210)">
<title>g</title>
<polygon fill="white" stroke="white" points="-4,5 -4,-210 1018,-210 1018,5 -4,5"/>
<!-- N1 -->
<g id="node1" class="node"><title>N1</title>
<polygon fill="#fffff0" stroke="#fffff0" points="11.5,-85 116.5,-85 128.5,-97 128.5,-109 116.5,-121 11.5,-121 -0.5,-109 -0.5,-97 11.5,-85"/>
<path fill="#fffff0" stroke="#fffff0" d="M116.5,-85C122.5,-85 128.5,-91 128.5,-97"/>
<path fill="#fffff0" stroke="#fffff0" d="M128.5,-109C128.5,-115 122.5,-121 116.5,-121"/>
<path fill="#fffff0" stroke="#fffff0" d="M11.5,-121C5.5,-121 -0.5,-115 -0.5,-109"/>
<path fill="#fffff0" stroke="#fffff0" d="M-0.5,-97C-0.5,-91 5.5,-85 11.5,-85"/>
<polyline fill="none" stroke="black" points="11.5,-85 116.5,-85 "/>
<path fill="none" stroke="black" d="M116.5,-85C122.5,-85 128.5,-91 128.5,-97"/>
<polyline fill="none" stroke="black" points="128.5,-97 128.5,-109 "/>
<path fill="none" stroke="black" d="M128.5,-109C128.5,-115 122.5,-121 116.5,-121"/>
<polyline fill="none" stroke="black" points="116.5,-121 11.5,-121 "/>
<path fill="none" stroke="black" d="M11.5,-121C5.5,-121 -0.5,-115 -0.5,-109"/>
<polyline fill="none" stroke="black" points="-0.5,-109 -0.5,-97 "/>
<path fill="none" stroke="black" d="M-0.5,-97C-0.5,-91 5.5,-85 11.5,-85"/>
<text text-anchor="middle" x="64" y="-109.8" font-family="FreeSans" font-size="8.00">Node[1]</text>
<polyline fill="none" stroke="black" points="-0.5,-103 128.5,-103 "/>
<text text-anchor="start" x="7.5" y="-91.8" font-family="FreeSans" font-size="8.00">&#39;name&#39; = &#39;SaunaX&#39; : String</text>
</g>
<!-- N2 -->
<g id="node2" class="node"><title>N2</title>
<polygon fill="#fffff0" stroke="#fffff0" points="169,-85 297,-85 309,-97 309,-109 297,-121 169,-121 157,-109 157,-97 169,-85"/>
<path fill="#fffff0" stroke="#fffff0" d="M297,-85C303,-85 309,-91 309,-97"/>
<path fill="#fffff0" stroke="#fffff0" d="M309,-109C309,-115 303,-121 297,-121"/>
<path fill="#fffff0" stroke="#fffff0" d="M169,-121C163,-121 157,-115 157,-109"/>
<path fill="#fffff0" stroke="#fffff0" d="M157,-97C157,-91 163,-85 169,-85"/>
<polyline fill="none" stroke="black" points="169,-85 297,-85 "/>
<path fill="none" stroke="black" d="M297,-85C303,-85 309,-91 309,-97"/>
<polyline fill="none" stroke="black" points="309,-97 309,-109 "/>
<path fill="none" stroke="black" d="M309,-109C309,-115 303,-121 297,-121"/>
<polyline fill="none" stroke="black" points="297,-121 169,-121 "/>
<path fill="none" stroke="black" d="M169,-121C163,-121 157,-115 157,-109"/>
<polyline fill="none" stroke="black" points="157,-109 157,-97 "/>
<path fill="none" stroke="black" d="M157,-97C157,-91 163,-85 169,-85"/>
<text text-anchor="middle" x="233" y="-109.8" font-family="FreeSans" font-size="8.00">Node[2]</text>
<polyline fill="none" stroke="black" points="157,-103 309,-103 "/>
<text text-anchor="start" x="165" y="-91.8" font-family="FreeSans" font-size="8.00">&#39;name&#39; = &#39;CoffeeShop1&#39; : String</text>
</g>
<!-- N5 -->
<g id="node4" class="node"><title>N5</title>
<polygon fill="#fffff0" stroke="#fffff0" points="560,-1 652,-1 664,-13 664,-25 652,-37 560,-37 548,-25 548,-13 560,-1"/>
<path fill="#fffff0" stroke="#fffff0" d="M652,-1C658,-1 664,-7 664,-13"/>
<path fill="#fffff0" stroke="#fffff0" d="M664,-25C664,-31 658,-37 652,-37"/>
<path fill="#fffff0" stroke="#fffff0" d="M560,-37C554,-37 548,-31 548,-25"/>
<path fill="#fffff0" stroke="#fffff0" d="M548,-13C548,-7 554,-1 560,-1"/>
<polyline fill="none" stroke="black" points="560,-1 652,-1 "/>
<path fill="none" stroke="black" d="M652,-1C658,-1 664,-7 664,-13"/>
<polyline fill="none" stroke="black" points="664,-13 664,-25 "/>
<path fill="none" stroke="black" d="M664,-25C664,-31 658,-37 652,-37"/>
<polyline fill="none" stroke="black" points="652,-37 560,-37 "/>
<path fill="none" stroke="black" d="M560,-37C554,-37 548,-31 548,-25"/>
<polyline fill="none" stroke="black" points="548,-25 548,-13 "/>
<path fill="none" stroke="black" d="M548,-13C548,-7 554,-1 560,-1"/>
<text text-anchor="middle" x="606" y="-25.8" font-family="FreeSans" font-size="8.00">Node[5]</text>
<polyline fill="none" stroke="black" points="548,-19 664,-19 "/>
<text text-anchor="start" x="556" y="-7.8" font-family="FreeSans" font-size="8.00">&#39;name&#39; = &#39;Cool&#39; : String</text>
</g>
<!-- N2&#45;&gt;N5 -->
<g id="edge2" class="edge"><title>N2&#45;&gt;N5</title>
<path fill="none" stroke="black" d="M309.044,-86.6026C313.761,-85.6921 318.441,-84.8167 323,-84 376.95,-74.3348 391.903,-79.5916 445,-66 457.397,-62.8267 459.821,-59.9288 472,-56 494.184,-48.8436 518.702,-41.8206 540.635,-35.849"/>
<polygon fill="black" stroke="black" points="547.967,-33.8655 541.609,-39.082 544.347,-34.8448 540.728,-35.8241 540.728,-35.8241 540.728,-35.8241 544.347,-34.8448 539.846,-32.5662 547.967,-33.8655 547.967,-33.8655"/>
<text text-anchor="middle" x="487" y="-58.8" font-family="FreeSans" font-size="8.00">tagged</text>
</g>
<!-- N8 -->
<g id="node6" class="node"><title>N8</title>
<polygon fill="#fffff0" stroke="#fffff0" points="367,-1 461,-1 473,-13 473,-25 461,-37 367,-37 355,-25 355,-13 367,-1"/>
<path fill="#fffff0" stroke="#fffff0" d="M461,-1C467,-1 473,-7 473,-13"/>
<path fill="#fffff0" stroke="#fffff0" d="M473,-25C473,-31 467,-37 461,-37"/>
<path fill="#fffff0" stroke="#fffff0" d="M367,-37C361,-37 355,-31 355,-25"/>
<path fill="#fffff0" stroke="#fffff0" d="M355,-13C355,-7 361,-1 367,-1"/>
<polyline fill="none" stroke="black" points="367,-1 461,-1 "/>
<path fill="none" stroke="black" d="M461,-1C467,-1 473,-7 473,-13"/>
<polyline fill="none" stroke="black" points="473,-13 473,-25 "/>
<path fill="none" stroke="black" d="M473,-25C473,-31 467,-37 461,-37"/>
<polyline fill="none" stroke="black" points="461,-37 367,-37 "/>
<path fill="none" stroke="black" d="M367,-37C361,-37 355,-31 355,-25"/>
<polyline fill="none" stroke="black" points="355,-25 355,-13 "/>
<path fill="none" stroke="black" d="M355,-13C355,-7 361,-1 367,-1"/>
<text text-anchor="middle" x="414" y="-25.8" font-family="FreeSans" font-size="8.00">Node[8]</text>
<polyline fill="none" stroke="black" points="355,-19 473,-19 "/>
<text text-anchor="start" x="363" y="-7.8" font-family="FreeSans" font-size="8.00">&#39;name&#39; = &#39;Cosy&#39; : String</text>
</g>
<!-- N2&#45;&gt;N8 -->
<g id="edge4" class="edge"><title>N2&#45;&gt;N8</title>
<path fill="none" stroke="black" d="M271.829,-84.9799C300.005,-71.9036 338.231,-54.1635 367.949,-40.3715"/>
<polygon fill="black" stroke="black" points="374.923,-37.135 369.541,-43.3537 371.522,-38.7137 368.12,-40.2923 368.12,-40.2923 368.12,-40.2923 371.522,-38.7137 366.699,-37.2309 374.923,-37.135 374.923,-37.135"/>
<text text-anchor="middle" x="344" y="-58.8" font-family="FreeSans" font-size="8.00">tagged</text>
</g>
<!-- N3 -->
<g id="node7" class="node"><title>N3</title>
<polygon fill="#fffff0" stroke="#fffff0" points="530.5,-85 645.5,-85 657.5,-97 657.5,-109 645.5,-121 530.5,-121 518.5,-109 518.5,-97 530.5,-85"/>
<path fill="#fffff0" stroke="#fffff0" d="M645.5,-85C651.5,-85 657.5,-91 657.5,-97"/>
<path fill="#fffff0" stroke="#fffff0" d="M657.5,-109C657.5,-115 651.5,-121 645.5,-121"/>
<path fill="#fffff0" stroke="#fffff0" d="M530.5,-121C524.5,-121 518.5,-115 518.5,-109"/>
<path fill="#fffff0" stroke="#fffff0" d="M518.5,-97C518.5,-91 524.5,-85 530.5,-85"/>
<polyline fill="none" stroke="black" points="530.5,-85 645.5,-85 "/>
<path fill="none" stroke="black" d="M645.5,-85C651.5,-85 657.5,-91 657.5,-97"/>
<polyline fill="none" stroke="black" points="657.5,-97 657.5,-109 "/>
<path fill="none" stroke="black" d="M657.5,-109C657.5,-115 651.5,-121 645.5,-121"/>
<polyline fill="none" stroke="black" points="645.5,-121 530.5,-121 "/>
<path fill="none" stroke="black" d="M530.5,-121C524.5,-121 518.5,-115 518.5,-109"/>
<polyline fill="none" stroke="black" points="518.5,-109 518.5,-97 "/>
<path fill="none" stroke="black" d="M518.5,-97C518.5,-91 524.5,-85 530.5,-85"/>
<text text-anchor="middle" x="588" y="-109.8" font-family="FreeSans" font-size="8.00">Node[3]</text>
<polyline fill="none" stroke="black" points="518.5,-103 657.5,-103 "/>
<text text-anchor="start" x="526.5" y="-91.8" font-family="FreeSans" font-size="8.00">&#39;name&#39; = &#39;MelsPlace&#39; : String</text>
</g>
<!-- N3&#45;&gt;N5 -->
<g id="edge8" class="edge"><title>N3&#45;&gt;N5</title>
<path fill="none" stroke="black" d="M591.906,-84.7733C594.406,-73.1053 597.688,-57.7874 600.456,-44.8699"/>
<polygon fill="black" stroke="black" points="602.102,-37.1912 603.83,-45.2319 601.316,-40.8579 600.53,-44.5247 600.53,-44.5247 600.53,-44.5247 601.316,-40.8579 597.23,-43.8175 602.102,-37.1912 602.102,-37.1912"/>
<text text-anchor="middle" x="612" y="-58.8" font-family="FreeSans" font-size="8.00">tagged</text>
</g>
<!-- N3&#45;&gt;N8 -->
<g id="edge6" class="edge"><title>N3&#45;&gt;N8</title>
<path fill="none" stroke="black" d="M560.107,-84.8681C545.259,-75.6141 526.497,-64.5396 509,-56 497.299,-50.2892 484.478,-44.8053 472.147,-39.8894"/>
<polygon fill="black" stroke="black" points="464.956,-37.0632 473.171,-36.6654 468.446,-38.4348 471.936,-39.8065 471.936,-39.8065 471.936,-39.8065 468.446,-38.4348 470.702,-42.9476 464.956,-37.0632 464.956,-37.0632"/>
<text text-anchor="middle" x="541" y="-58.8" font-family="FreeSans" font-size="8.00">tagged</text>
</g>
<!-- N4 -->
<g id="node10" class="node"><title>N4</title>
<polygon fill="#fffff0" stroke="#fffff0" points="350,-85 478,-85 490,-97 490,-109 478,-121 350,-121 338,-109 338,-97 350,-85"/>
<path fill="#fffff0" stroke="#fffff0" d="M478,-85C484,-85 490,-91 490,-97"/>
<path fill="#fffff0" stroke="#fffff0" d="M490,-109C490,-115 484,-121 478,-121"/>
<path fill="#fffff0" stroke="#fffff0" d="M350,-121C344,-121 338,-115 338,-109"/>
<path fill="#fffff0" stroke="#fffff0" d="M338,-97C338,-91 344,-85 350,-85"/>
<polyline fill="none" stroke="black" points="350,-85 478,-85 "/>
<path fill="none" stroke="black" d="M478,-85C484,-85 490,-91 490,-97"/>
<polyline fill="none" stroke="black" points="490,-97 490,-109 "/>
<path fill="none" stroke="black" d="M490,-109C490,-115 484,-121 478,-121"/>
<polyline fill="none" stroke="black" points="478,-121 350,-121 "/>
<path fill="none" stroke="black" d="M350,-121C344,-121 338,-115 338,-109"/>
<polyline fill="none" stroke="black" points="338,-109 338,-97 "/>
<path fill="none" stroke="black" d="M338,-97C338,-91 344,-85 350,-85"/>
<text text-anchor="middle" x="414" y="-109.8" font-family="FreeSans" font-size="8.00">Node[4]</text>
<polyline fill="none" stroke="black" points="338,-103 490,-103 "/>
<text text-anchor="start" x="346" y="-91.8" font-family="FreeSans" font-size="8.00">&#39;name&#39; = &#39;CoffeeShop3&#39; : String</text>
</g>
<!-- N4&#45;&gt;N8 -->
<g id="edge10" class="edge"><title>N4&#45;&gt;N8</title>
<path fill="none" stroke="black" d="M412.828,-84.9415C412.49,-78.9199 412.167,-72.1734 412,-66 411.816,-59.1932 411.964,-51.8348 412.247,-45.0061"/>
<polygon fill="black" stroke="black" points="412.63,-37.298 415.629,-44.9562 412.444,-41.0434 412.258,-44.7888 412.258,-44.7888 412.258,-44.7888 412.444,-41.0434 408.887,-44.6213 412.63,-37.298 412.63,-37.298"/>
<text text-anchor="middle" x="427" y="-58.8" font-family="FreeSans" font-size="8.00">tagged</text>
</g>
<!-- N6 -->
<g id="node12" class="node"><title>N6</title>
<polygon fill="#fffff0" stroke="#fffff0" points="698,-85 826,-85 838,-97 838,-109 826,-121 698,-121 686,-109 686,-97 698,-85"/>
<path fill="#fffff0" stroke="#fffff0" d="M826,-85C832,-85 838,-91 838,-97"/>
<path fill="#fffff0" stroke="#fffff0" d="M838,-109C838,-115 832,-121 826,-121"/>
<path fill="#fffff0" stroke="#fffff0" d="M698,-121C692,-121 686,-115 686,-109"/>
<path fill="#fffff0" stroke="#fffff0" d="M686,-97C686,-91 692,-85 698,-85"/>
<polyline fill="none" stroke="black" points="698,-85 826,-85 "/>
<path fill="none" stroke="black" d="M826,-85C832,-85 838,-91 838,-97"/>
<polyline fill="none" stroke="black" points="838,-97 838,-109 "/>
<path fill="none" stroke="black" d="M838,-109C838,-115 832,-121 826,-121"/>
<polyline fill="none" stroke="black" points="826,-121 698,-121 "/>
<path fill="none" stroke="black" d="M698,-121C692,-121 686,-115 686,-109"/>
<polyline fill="none" stroke="black" points="686,-109 686,-97 "/>
<path fill="none" stroke="black" d="M686,-97C686,-91 692,-85 698,-85"/>
<text text-anchor="middle" x="762" y="-109.8" font-family="FreeSans" font-size="8.00">Node[6]</text>
<polyline fill="none" stroke="black" points="686,-103 838,-103 "/>
<text text-anchor="start" x="694" y="-91.8" font-family="FreeSans" font-size="8.00">&#39;name&#39; = &#39;CoffeeShop2&#39; : String</text>
</g>
<!-- N6&#45;&gt;N5 -->
<g id="edge12" class="edge"><title>N6&#45;&gt;N5</title>
<path fill="none" stroke="black" d="M728.534,-84.9799C704.454,-72.0139 671.859,-54.4625 646.34,-40.7215"/>
<polygon fill="black" stroke="black" points="639.679,-37.135 647.883,-37.7192 642.981,-38.9129 646.283,-40.6908 646.283,-40.6908 646.283,-40.6908 642.981,-38.9129 644.683,-43.6624 639.679,-37.135 639.679,-37.135"/>
<text text-anchor="middle" x="703" y="-58.8" font-family="FreeSans" font-size="8.00">tagged</text>
</g>
<!-- N7 -->
<g id="node14" class="node"><title>N7</title>
<polygon fill="#fffff0" stroke="#fffff0" points="879,-85 1001,-85 1013,-97 1013,-109 1001,-121 879,-121 867,-109 867,-97 879,-85"/>
<path fill="#fffff0" stroke="#fffff0" d="M1001,-85C1007,-85 1013,-91 1013,-97"/>
<path fill="#fffff0" stroke="#fffff0" d="M1013,-109C1013,-115 1007,-121 1001,-121"/>
<path fill="#fffff0" stroke="#fffff0" d="M879,-121C873,-121 867,-115 867,-109"/>
<path fill="#fffff0" stroke="#fffff0" d="M867,-97C867,-91 873,-85 879,-85"/>
<polyline fill="none" stroke="black" points="879,-85 1001,-85 "/>
<path fill="none" stroke="black" d="M1001,-85C1007,-85 1013,-91 1013,-97"/>
<polyline fill="none" stroke="black" points="1013,-97 1013,-109 "/>
<path fill="none" stroke="black" d="M1013,-109C1013,-115 1007,-121 1001,-121"/>
<polyline fill="none" stroke="black" points="1001,-121 879,-121 "/>
<path fill="none" stroke="black" d="M879,-121C873,-121 867,-115 867,-109"/>
<polyline fill="none" stroke="black" points="867,-109 867,-97 "/>
<path fill="none" stroke="black" d="M867,-97C867,-91 873,-85 879,-85"/>
<text text-anchor="middle" x="940" y="-109.8" font-family="FreeSans" font-size="8.00">Node[7]</text>
<polyline fill="none" stroke="black" points="867,-103 1013,-103 "/>
<text text-anchor="start" x="875" y="-91.8" font-family="FreeSans" font-size="8.00">&#39;name&#39; = &#39;CoffeShop2&#39; : String</text>
</g>
<!-- N9 -->
<g id="node15" class="node"><title>N9</title>
<polygon fill="#fffff0" stroke="#fffff0" points="547,-169 629,-169 641,-181 641,-193 629,-205 547,-205 535,-193 535,-181 547,-169"/>
<path fill="#fffff0" stroke="#fffff0" d="M629,-169C635,-169 641,-175 641,-181"/>
<path fill="#fffff0" stroke="#fffff0" d="M641,-193C641,-199 635,-205 629,-205"/>
<path fill="#fffff0" stroke="#fffff0" d="M547,-205C541,-205 535,-199 535,-193"/>
<path fill="#fffff0" stroke="#fffff0" d="M535,-181C535,-175 541,-169 547,-169"/>
<polyline fill="none" stroke="black" points="547,-169 629,-169 "/>
<path fill="none" stroke="black" d="M629,-169C635,-169 641,-175 641,-181"/>
<polyline fill="none" stroke="black" points="641,-181 641,-193 "/>
<path fill="none" stroke="black" d="M641,-193C641,-199 635,-205 629,-205"/>
<polyline fill="none" stroke="black" points="629,-205 547,-205 "/>
<path fill="none" stroke="black" d="M547,-205C541,-205 535,-199 535,-193"/>
<polyline fill="none" stroke="black" points="535,-193 535,-181 "/>
<path fill="none" stroke="black" d="M535,-181C535,-175 541,-169 547,-169"/>
<text text-anchor="middle" x="588" y="-193.8" font-family="FreeSans" font-size="8.00">Node[9]</text>
<polyline fill="none" stroke="black" points="535,-187 641,-187 "/>
<text text-anchor="start" x="543" y="-175.8" font-family="FreeSans" font-size="8.00">&#39;name&#39; = &#39;Jill&#39; : String</text>
</g>
<!-- N9&#45;&gt;N2 -->
<g id="edge14" class="edge"><title>N9&#45;&gt;N2</title>
<path fill="none" stroke="black" d="M534.853,-174.424C477.21,-160.785 384.404,-138.825 316.899,-122.852"/>
<polygon fill="black" stroke="black" points="309.21,-121.033 317.286,-119.476 312.859,-121.896 316.509,-122.76 316.509,-122.76 316.509,-122.76 312.859,-121.896 315.731,-126.044 309.21,-121.033 309.21,-121.033"/>
<text text-anchor="middle" x="437.5" y="-142.8" font-family="FreeSans" font-size="8.00">favorite</text>
</g>
<!-- N9&#45;&gt;N3 -->
<g id="edge16" class="edge"><title>N9&#45;&gt;N3</title>
<path fill="none" stroke="black" d="M588,-168.773C588,-157.105 588,-141.787 588,-128.87"/>
<polygon fill="black" stroke="black" points="588,-121.191 591.375,-128.691 588,-124.941 588,-128.691 588,-128.691 588,-128.691 588,-124.941 584.625,-128.691 588,-121.191 588,-121.191"/>
<text text-anchor="middle" x="604.5" y="-142.8" font-family="FreeSans" font-size="8.00">favorite</text>
</g>
<!-- N9&#45;&gt;N7 -->
<g id="edge18" class="edge"><title>N9&#45;&gt;N7</title>
<path fill="none" stroke="black" d="M641.079,-174.333C698.963,-160.52 792.277,-138.252 859.253,-122.269"/>
<polygon fill="black" stroke="black" points="866.876,-120.45 860.364,-125.474 863.228,-121.321 859.581,-122.191 859.581,-122.191 859.581,-122.191 863.228,-121.321 858.797,-118.908 866.876,-120.45 866.876,-120.45"/>
<text text-anchor="middle" x="790.5" y="-142.8" font-family="FreeSans" font-size="8.00">favorite</text>
</g>
<!-- N10 -->
<g id="node19" class="node"><title>N10</title>
<polygon fill="#fffff0" stroke="#fffff0" points="190,-169 276,-169 288,-181 288,-193 276,-205 190,-205 178,-193 178,-181 190,-169"/>
<path fill="#fffff0" stroke="#fffff0" d="M276,-169C282,-169 288,-175 288,-181"/>
<path fill="#fffff0" stroke="#fffff0" d="M288,-193C288,-199 282,-205 276,-205"/>
<path fill="#fffff0" stroke="#fffff0" d="M190,-205C184,-205 178,-199 178,-193"/>
<path fill="#fffff0" stroke="#fffff0" d="M178,-181C178,-175 184,-169 190,-169"/>
<polyline fill="none" stroke="black" points="190,-169 276,-169 "/>
<path fill="none" stroke="black" d="M276,-169C282,-169 288,-175 288,-181"/>
<polyline fill="none" stroke="black" points="288,-181 288,-193 "/>
<path fill="none" stroke="black" d="M288,-193C288,-199 282,-205 276,-205"/>
<polyline fill="none" stroke="black" points="276,-205 190,-205 "/>
<path fill="none" stroke="black" d="M190,-205C184,-205 178,-199 178,-193"/>
<polyline fill="none" stroke="black" points="178,-193 178,-181 "/>
<path fill="none" stroke="black" d="M178,-181C178,-175 184,-169 190,-169"/>
<text text-anchor="middle" x="233" y="-193.8" font-family="FreeSans" font-size="8.00">Node[10]</text>
<polyline fill="none" stroke="black" points="178,-187 288,-187 "/>
<text text-anchor="start" x="186" y="-175.8" font-family="FreeSans" font-size="8.00">&#39;name&#39; = &#39;Joe&#39; : String</text>
</g>
<!-- N10&#45;&gt;N1 -->
<g id="edge22" class="edge"><title>N10&#45;&gt;N1</title>
<path fill="none" stroke="black" d="M196.745,-168.98C170.548,-155.959 135.047,-138.313 107.349,-124.546"/>
<polygon fill="black" stroke="black" points="100.486,-121.135 108.704,-121.451 103.844,-122.804 107.202,-124.473 107.202,-124.473 107.202,-124.473 103.844,-122.804 105.7,-127.496 100.486,-121.135 100.486,-121.135"/>
<text text-anchor="middle" x="170.5" y="-142.8" font-family="FreeSans" font-size="8.00">favorite</text>
</g>
<!-- N10&#45;&gt;N2 -->
<g id="edge20" class="edge"><title>N10&#45;&gt;N2</title>
<path fill="none" stroke="black" d="M233,-168.773C233,-157.105 233,-141.787 233,-128.87"/>
<polygon fill="black" stroke="black" points="233,-121.191 236.375,-128.691 233,-124.941 233,-128.691 233,-128.691 233,-128.691 233,-124.941 229.625,-128.691 233,-121.191 233,-121.191"/>
<text text-anchor="middle" x="249.5" y="-142.8" font-family="FreeSans" font-size="8.00">favorite</text>
</g>
<!-- N10&#45;&gt;N3 -->
<g id="edge24" class="edge"><title>N10&#45;&gt;N3</title>
<path fill="none" stroke="black" d="M274.286,-168.959C298.764,-158.965 330.648,-147.151 360,-140 423.094,-124.628 441.045,-133.26 505,-122 506.911,-121.664 508.844,-121.312 510.792,-120.947"/>
<polygon fill="black" stroke="black" points="518.364,-119.481 511.643,-124.22 514.682,-120.194 511.001,-120.906 511.001,-120.906 511.001,-120.906 514.682,-120.194 510.359,-117.593 518.364,-119.481 518.364,-119.481"/>
<text text-anchor="middle" x="376.5" y="-142.8" font-family="FreeSans" font-size="8.00">favorite</text>
</g>
</g>
</svg>
