<?xml version="1.0" encoding="UTF-8" standalone="no"?>
<!DOCTYPE svg PUBLIC "-//W3C//DTD SVG 1.1//EN"
 "http://www.w3.org/Graphics/SVG/1.1/DTD/svg11.dtd">
<!-- Generated by graphviz version 2.26.3 (20100126.1600)
 -->
<!-- Title: g Pages: 1 -->
<svg width="503pt" height="130pt"
 viewBox="0.00 0.00 503.00 130.00" xmlns="http://www.w3.org/2000/svg" xmlns:xlink="http://www.w3.org/1999/xlink">
<g id="graph1" class="graph" transform="scale(1 1) rotate(0) translate(4 126)">
<title>g</title>
<polygon fill="white" stroke="white" points="-4,5 -4,-126 500,-126 500,5 -4,5"/>
<!-- N1 -->
<g id="node1" class="node"><title>N1</title>
<polygon fill="#fffff0" stroke="#fffff0" points="11.5,-1 90.5,-1 102.5,-13 102.5,-25 90.5,-37 11.5,-37 -0.5,-25 -0.5,-13 11.5,-1"/>
<path fill="#fffff0" stroke="#fffff0" d="M90.5,-1C96.5,-1 102.5,-7 102.5,-13"/>
<path fill="#fffff0" stroke="#fffff0" d="M102.5,-25C102.5,-31 96.5,-37 90.5,-37"/>
<path fill="#fffff0" stroke="#fffff0" d="M11.5,-37C5.5,-37 -0.5,-31 -0.5,-25"/>
<path fill="#fffff0" stroke="#fffff0" d="M-0.5,-13C-0.5,-7 5.5,-1 11.5,-1"/>
<polyline fill="none" stroke="black" points="11.5,-1 90.5,-1 "/>
<path fill="none" stroke="black" d="M90.5,-1C96.5,-1 102.5,-7 102.5,-13"/>
<polyline fill="none" stroke="black" points="102.5,-13 102.5,-25 "/>
<path fill="none" stroke="black" d="M102.5,-25C102.5,-31 96.5,-37 90.5,-37"/>
<polyline fill="none" stroke="black" points="90.5,-37 11.5,-37 "/>
<path fill="none" stroke="black" d="M11.5,-37C5.5,-37 -0.5,-31 -0.5,-25"/>
<polyline fill="none" stroke="black" points="-0.5,-25 -0.5,-13 "/>
<path fill="none" stroke="black" d="M-0.5,-13C-0.5,-7 5.5,-1 11.5,-1"/>
<text text-anchor="middle" x="51" y="-25.8" font-family="FreeSans" font-size="8.00">Node[1]</text>
<polyline fill="none" stroke="black" points="-0.5,-19 102.5,-19 "/>
<text text-anchor="start" x="7.5" y="-7.8" font-family="FreeSans" font-size="8.00">&#39;name&#39; = &#39;D&#39; : String</text>
</g>
<!-- N2 -->
<g id="node2" class="node"><title>N2</title>
<polygon fill="#fffff0" stroke="#fffff0" points="143,-1 221,-1 233,-13 233,-25 221,-37 143,-37 131,-25 131,-13 143,-1"/>
<path fill="#fffff0" stroke="#fffff0" d="M221,-1C227,-1 233,-7 233,-13"/>
<path fill="#fffff0" stroke="#fffff0" d="M233,-25C233,-31 227,-37 221,-37"/>
<path fill="#fffff0" stroke="#fffff0" d="M143,-37C137,-37 131,-31 131,-25"/>
<path fill="#fffff0" stroke="#fffff0" d="M131,-13C131,-7 137,-1 143,-1"/>
<polyline fill="none" stroke="black" points="143,-1 221,-1 "/>
<path fill="none" stroke="black" d="M221,-1C227,-1 233,-7 233,-13"/>
<polyline fill="none" stroke="black" points="233,-13 233,-25 "/>
<path fill="none" stroke="black" d="M233,-25C233,-31 227,-37 221,-37"/>
<polyline fill="none" stroke="black" points="221,-37 143,-37 "/>
<path fill="none" stroke="black" d="M143,-37C137,-37 131,-31 131,-25"/>
<polyline fill="none" stroke="black" points="131,-25 131,-13 "/>
<path fill="none" stroke="black" d="M131,-13C131,-7 137,-1 143,-1"/>
<text text-anchor="middle" x="182" y="-25.8" font-family="FreeSans" font-size="8.00">Node[2]</text>
<polyline fill="none" stroke="black" points="131,-19 233,-19 "/>
<text text-anchor="start" x="139" y="-7.8" font-family="FreeSans" font-size="8.00">&#39;name&#39; = &#39;E&#39; : String</text>
</g>
<!-- N3 -->
<g id="node3" class="node"><title>N3</title>
<polygon fill="#fffff0" stroke="#fffff0" points="208,-85 286,-85 298,-97 298,-109 286,-121 208,-121 196,-109 196,-97 208,-85"/>
<path fill="#fffff0" stroke="#fffff0" d="M286,-85C292,-85 298,-91 298,-97"/>
<path fill="#fffff0" stroke="#fffff0" d="M298,-109C298,-115 292,-121 286,-121"/>
<path fill="#fffff0" stroke="#fffff0" d="M208,-121C202,-121 196,-115 196,-109"/>
<path fill="#fffff0" stroke="#fffff0" d="M196,-97C196,-91 202,-85 208,-85"/>
<polyline fill="none" stroke="black" points="208,-85 286,-85 "/>
<path fill="none" stroke="black" d="M286,-85C292,-85 298,-91 298,-97"/>
<polyline fill="none" stroke="black" points="298,-97 298,-109 "/>
<path fill="none" stroke="black" d="M298,-109C298,-115 292,-121 286,-121"/>
<polyline fill="none" stroke="black" points="286,-121 208,-121 "/>
<path fill="none" stroke="black" d="M208,-121C202,-121 196,-115 196,-109"/>
<polyline fill="none" stroke="black" points="196,-109 196,-97 "/>
<path fill="none" stroke="black" d="M196,-97C196,-91 202,-85 208,-85"/>
<text text-anchor="middle" x="247" y="-109.8" font-family="FreeSans" font-size="8.00">Node[3]</text>
<polyline fill="none" stroke="black" points="196,-103 298,-103 "/>
<text text-anchor="start" x="204" y="-91.8" font-family="FreeSans" font-size="8.00">&#39;name&#39; = &#39;A&#39; : String</text>
</g>
<!-- N3&#45;&gt;N1 -->
<g id="edge6" class="edge"><title>N3&#45;&gt;N1</title>
<path fill="none" stroke="black" d="M204.953,-84.9799C174.313,-71.8484 132.699,-54.0137 100.46,-40.1972"/>
<polygon fill="black" stroke="black" points="93.3151,-37.135 101.538,-36.9874 96.7619,-38.6123 100.209,-40.0895 100.209,-40.0895 100.209,-40.0895 96.7619,-38.6123 98.8792,-43.1916 93.3151,-37.135 93.3151,-37.135"/>
<text text-anchor="middle" x="170.5" y="-58.8" font-family="FreeSans" font-size="8.00">KNOWS</text>
</g>
<!-- N3&#45;&gt;N2 -->
<g id="edge8" class="edge"><title>N3&#45;&gt;N2</title>
<path fill="none" stroke="black" d="M232.896,-84.7733C223.526,-72.665 211.115,-56.6261 200.895,-43.4181"/>
<polygon fill="black" stroke="black" points="196.077,-37.1912 203.336,-41.0573 198.371,-40.157 200.666,-43.1227 200.666,-43.1227 200.666,-43.1227 198.371,-40.157 197.997,-45.1882 196.077,-37.1912 196.077,-37.1912"/>
<text text-anchor="middle" x="232.5" y="-58.8" font-family="FreeSans" font-size="8.00">KNOWS</text>
</g>
<!-- N4 -->
<g id="node5" class="node"><title>N4</title>
<polygon fill="#fffff0" stroke="#fffff0" points="273.5,-1 352.5,-1 364.5,-13 364.5,-25 352.5,-37 273.5,-37 261.5,-25 261.5,-13 273.5,-1"/>
<path fill="#fffff0" stroke="#fffff0" d="M352.5,-1C358.5,-1 364.5,-7 364.5,-13"/>
<path fill="#fffff0" stroke="#fffff0" d="M364.5,-25C364.5,-31 358.5,-37 352.5,-37"/>
<path fill="#fffff0" stroke="#fffff0" d="M273.5,-37C267.5,-37 261.5,-31 261.5,-25"/>
<path fill="#fffff0" stroke="#fffff0" d="M261.5,-13C261.5,-7 267.5,-1 273.5,-1"/>
<polyline fill="none" stroke="black" points="273.5,-1 352.5,-1 "/>
<path fill="none" stroke="black" d="M352.5,-1C358.5,-1 364.5,-7 364.5,-13"/>
<polyline fill="none" stroke="black" points="364.5,-13 364.5,-25 "/>
<path fill="none" stroke="black" d="M364.5,-25C364.5,-31 358.5,-37 352.5,-37"/>
<polyline fill="none" stroke="black" points="352.5,-37 273.5,-37 "/>
<path fill="none" stroke="black" d="M273.5,-37C267.5,-37 261.5,-31 261.5,-25"/>
<polyline fill="none" stroke="black" points="261.5,-25 261.5,-13 "/>
<path fill="none" stroke="black" d="M261.5,-13C261.5,-7 267.5,-1 273.5,-1"/>
<text text-anchor="middle" x="313" y="-25.8" font-family="FreeSans" font-size="8.00">Node[4]</text>
<polyline fill="none" stroke="black" points="261.5,-19 364.5,-19 "/>
<text text-anchor="start" x="269.5" y="-7.8" font-family="FreeSans" font-size="8.00">&#39;name&#39; = &#39;B&#39; : String</text>
</g>
<!-- N3&#45;&gt;N4 -->
<g id="edge2" class="edge"><title>N3&#45;&gt;N4</title>
<path fill="none" stroke="black" d="M261.321,-84.7733C270.835,-72.665 283.437,-56.6261 293.814,-43.4181"/>
<polygon fill="black" stroke="black" points="298.707,-37.1912 296.727,-45.1737 296.39,-40.1399 294.073,-43.0886 294.073,-43.0886 294.073,-43.0886 296.39,-40.1399 291.419,-41.0034 298.707,-37.1912 298.707,-37.1912"/>
<text text-anchor="middle" x="296.5" y="-58.8" font-family="FreeSans" font-size="8.00">KNOWS</text>
</g>
<!-- N5 -->
<g id="node7" class="node"><title>N5</title>
<polygon fill="#fffff0" stroke="#fffff0" points="404.5,-1 483.5,-1 495.5,-13 495.5,-25 483.5,-37 404.5,-37 392.5,-25 392.5,-13 404.5,-1"/>
<path fill="#fffff0" stroke="#fffff0" d="M483.5,-1C489.5,-1 495.5,-7 495.5,-13"/>
<path fill="#fffff0" stroke="#fffff0" d="M495.5,-25C495.5,-31 489.5,-37 483.5,-37"/>
<path fill="#fffff0" stroke="#fffff0" d="M404.5,-37C398.5,-37 392.5,-31 392.5,-25"/>
<path fill="#fffff0" stroke="#fffff0" d="M392.5,-13C392.5,-7 398.5,-1 404.5,-1"/>
<polyline fill="none" stroke="black" points="404.5,-1 483.5,-1 "/>
<path fill="none" stroke="black" d="M483.5,-1C489.5,-1 495.5,-7 495.5,-13"/>
<polyline fill="none" stroke="black" points="495.5,-13 495.5,-25 "/>
<path fill="none" stroke="black" d="M495.5,-25C495.5,-31 489.5,-37 483.5,-37"/>
<polyline fill="none" stroke="black" points="483.5,-37 404.5,-37 "/>
<path fill="none" stroke="black" d="M404.5,-37C398.5,-37 392.5,-31 392.5,-25"/>
<polyline fill="none" stroke="black" points="392.5,-25 392.5,-13 "/>
<path fill="none" stroke="black" d="M392.5,-13C392.5,-7 398.5,-1 404.5,-1"/>
<text text-anchor="middle" x="444" y="-25.8" font-family="FreeSans" font-size="8.00">Node[5]</text>
<polyline fill="none" stroke="black" points="392.5,-19 495.5,-19 "/>
<text text-anchor="start" x="400.5" y="-7.8" font-family="FreeSans" font-size="8.00">&#39;name&#39; = &#39;C&#39; : String</text>
</g>
<!-- N3&#45;&gt;N5 -->
<g id="edge4" class="edge"><title>N3&#45;&gt;N5</title>
<path fill="none" stroke="black" d="M289.261,-84.9799C320.058,-71.8484 361.885,-54.0137 394.288,-40.1972"/>
<polygon fill="black" stroke="black" points="401.469,-37.135 395.894,-43.1814 398.02,-38.6059 394.57,-40.0768 394.57,-40.0768 394.57,-40.0768 398.02,-38.6059 393.246,-36.9722 401.469,-37.135 401.469,-37.135"/>
<text text-anchor="middle" x="366.5" y="-58.8" font-family="FreeSans" font-size="8.00">KNOWS</text>
</g>
</g>
</svg>
