<?xml version="1.0" encoding="UTF-8" standalone="no"?>
<!DOCTYPE svg PUBLIC "-//W3C//DTD SVG 1.1//EN"
 "http://www.w3.org/Graphics/SVG/1.1/DTD/svg11.dtd">
<!-- Generated by graphviz version 2.26.3 (20100126.1600)
 -->
<!-- Title: g Pages: 1 -->
<svg width="279pt" height="160pt"
 viewBox="0.00 0.00 279.00 160.00" xmlns="http://www.w3.org/2000/svg" xmlns:xlink="http://www.w3.org/1999/xlink">
<g id="graph1" class="graph" transform="scale(1 1) rotate(0) translate(4 156)">
<title>g</title>
<polygon fill="white" stroke="white" points="-4,5 -4,-156 276,-156 276,5 -4,5"/>
<!-- N1 -->
<g id="node1" class="node"><title>N1</title>
<polygon fill="#fffff0" stroke="#fffff0" points="12,-1 112,-1 124,-13 124,-35 112,-47 12,-47 0,-35 0,-13 12,-1"/>
<path fill="#fffff0" stroke="#fffff0" d="M112,-1C118,-1 124,-7 124,-13"/>
<path fill="#fffff0" stroke="#fffff0" d="M124,-35C124,-41 118,-47 112,-47"/>
<path fill="#fffff0" stroke="#fffff0" d="M12,-47C6,-47 0,-41 0,-35"/>
<path fill="#fffff0" stroke="#fffff0" d="M0,-13C0,-7 6,-1 12,-1"/>
<polyline fill="none" stroke="black" points="12,-1 112,-1 "/>
<path fill="none" stroke="black" d="M112,-1C118,-1 124,-7 124,-13"/>
<polyline fill="none" stroke="black" points="124,-13 124,-35 "/>
<path fill="none" stroke="black" d="M124,-35C124,-41 118,-47 112,-47"/>
<polyline fill="none" stroke="black" points="112,-47 12,-47 "/>
<path fill="none" stroke="black" d="M12,-47C6,-47 0,-41 0,-35"/>
<polyline fill="none" stroke="black" points="0,-35 0,-13 "/>
<path fill="none" stroke="black" d="M0,-13C0,-7 6,-1 12,-1"/>
<text text-anchor="middle" x="62" y="-35.8" font-family="FreeSans" font-size="8.00">Node[1]</text>
<polyline fill="none" stroke="black" points="0,-29 124,-29 "/>
<text text-anchor="start" x="8" y="-17.8" font-family="FreeSans" font-size="8.00">&#39;name&#39; = &#39;Tobias&#39; : String</text>
<text text-anchor="start" x="8" y="-7.8" font-family="FreeSans" font-size="8.00">&#39;age&#39; = 25 : long</text>
</g>
<!-- N2 -->
<g id="node2" class="node"><title>N2</title>
<polygon fill="#fffff0" stroke="#fffff0" points="164.5,-1 259.5,-1 271.5,-13 271.5,-35 259.5,-47 164.5,-47 152.5,-35 152.5,-13 164.5,-1"/>
<path fill="#fffff0" stroke="#fffff0" d="M259.5,-1C265.5,-1 271.5,-7 271.5,-13"/>
<path fill="#fffff0" stroke="#fffff0" d="M271.5,-35C271.5,-41 265.5,-47 259.5,-47"/>
<path fill="#fffff0" stroke="#fffff0" d="M164.5,-47C158.5,-47 152.5,-41 152.5,-35"/>
<path fill="#fffff0" stroke="#fffff0" d="M152.5,-13C152.5,-7 158.5,-1 164.5,-1"/>
<polyline fill="none" stroke="black" points="164.5,-1 259.5,-1 "/>
<path fill="none" stroke="black" d="M259.5,-1C265.5,-1 271.5,-7 271.5,-13"/>
<polyline fill="none" stroke="black" points="271.5,-13 271.5,-35 "/>
<path fill="none" stroke="black" d="M271.5,-35C271.5,-41 265.5,-47 259.5,-47"/>
<polyline fill="none" stroke="black" points="259.5,-47 164.5,-47 "/>
<path fill="none" stroke="black" d="M164.5,-47C158.5,-47 152.5,-41 152.5,-35"/>
<polyline fill="none" stroke="black" points="152.5,-35 152.5,-13 "/>
<path fill="none" stroke="black" d="M152.5,-13C152.5,-7 158.5,-1 164.5,-1"/>
<text text-anchor="middle" x="212" y="-35.8" font-family="FreeSans" font-size="8.00">Node[2]</text>
<polyline fill="none" stroke="black" points="152.5,-29 271.5,-29 "/>
<text text-anchor="start" x="160.5" y="-17.8" font-family="FreeSans" font-size="8.00">&#39;name&#39; = &#39;Peter&#39; : String</text>
<text text-anchor="start" x="160.5" y="-7.8" font-family="FreeSans" font-size="8.00">&#39;age&#39; = 34 : long</text>
</g>
<!-- N3 -->
<g id="node3" class="node"><title>N3</title>
<polygon fill="#fffff0" stroke="#fffff0" points="85.5,-95 188.5,-95 200.5,-107 200.5,-139 188.5,-151 85.5,-151 73.5,-139 73.5,-107 85.5,-95"/>
<path fill="#fffff0" stroke="#fffff0" d="M188.5,-95C194.5,-95 200.5,-101 200.5,-107"/>
<path fill="#fffff0" stroke="#fffff0" d="M200.5,-139C200.5,-145 194.5,-151 188.5,-151"/>
<path fill="#fffff0" stroke="#fffff0" d="M85.5,-151C79.5,-151 73.5,-145 73.5,-139"/>
<path fill="#fffff0" stroke="#fffff0" d="M73.5,-107C73.5,-101 79.5,-95 85.5,-95"/>
<polyline fill="none" stroke="black" points="85.5,-95 188.5,-95 "/>
<path fill="none" stroke="black" d="M188.5,-95C194.5,-95 200.5,-101 200.5,-107"/>
<polyline fill="none" stroke="black" points="200.5,-107 200.5,-139 "/>
<path fill="none" stroke="black" d="M200.5,-139C200.5,-145 194.5,-151 188.5,-151"/>
<polyline fill="none" stroke="black" points="188.5,-151 85.5,-151 "/>
<path fill="none" stroke="black" d="M85.5,-151C79.5,-151 73.5,-145 73.5,-139"/>
<polyline fill="none" stroke="black" points="73.5,-139 73.5,-107 "/>
<path fill="none" stroke="black" d="M73.5,-107C73.5,-101 79.5,-95 85.5,-95"/>
<text text-anchor="middle" x="137" y="-139.8" font-family="FreeSans" font-size="8.00">Node[3]</text>
<polyline fill="none" stroke="black" points="73.5,-133 200.5,-133 "/>
<text text-anchor="start" x="81.5" y="-121.8" font-family="FreeSans" font-size="8.00">&#39;name&#39; = &#39;Andres&#39; : String</text>
<text text-anchor="start" x="81.5" y="-111.8" font-family="FreeSans" font-size="8.00">&#39;age&#39; = 36 : long</text>
<text text-anchor="start" x="81.5" y="-101.8" font-family="FreeSans" font-size="8.00">&#39;belt&#39; = &#39;white&#39; : String</text>
</g>
<!-- N3&#45;&gt;N1 -->
<g id="edge2" class="edge"><title>N3&#45;&gt;N1</title>
<path fill="none" stroke="black" d="M115.709,-94.8954C105.883,-81.926 94.2197,-66.53 84.2762,-53.4046"/>
<polygon fill="black" stroke="black" points="79.5487,-47.1642 86.7678,-51.1044 81.8131,-50.1533 84.0776,-53.1424 84.0776,-53.1424 84.0776,-53.1424 81.8131,-50.1533 81.3874,-55.1805 79.5487,-47.1642 79.5487,-47.1642"/>
<text text-anchor="middle" x="115.5" y="-68.8" font-family="FreeSans" font-size="8.00">KNOWS</text>
</g>
<!-- N3&#45;&gt;N2 -->
<g id="edge4" class="edge"><title>N3&#45;&gt;N2</title>
<path fill="none" stroke="black" d="M158.291,-94.8954C168.117,-81.926 179.78,-66.53 189.724,-53.4046"/>
<polygon fill="black" stroke="black" points="194.451,-47.1642 192.613,-55.1805 192.187,-50.1533 189.922,-53.1424 189.922,-53.1424 189.922,-53.1424 192.187,-50.1533 187.232,-51.1044 194.451,-47.1642 194.451,-47.1642"/>
<text text-anchor="middle" x="193.5" y="-68.8" font-family="FreeSans" font-size="8.00">KNOWS</text>
</g>
</g>
</svg>
