<?xml version="1.0" encoding="UTF-8" standalone="no"?>
<!DOCTYPE svg PUBLIC "-//W3C//DTD SVG 1.1//EN"
 "http://www.w3.org/Graphics/SVG/1.1/DTD/svg11.dtd">
<!-- Generated by graphviz version 2.26.3 (20100126.1600)
 -->
<!-- Title: g Pages: 1 -->
<svg width="295pt" height="298pt"
 viewBox="0.00 0.00 295.00 298.00" xmlns="http://www.w3.org/2000/svg" xmlns:xlink="http://www.w3.org/1999/xlink">
<g id="graph1" class="graph" transform="scale(1 1) rotate(0) translate(4 294)">
<title>g</title>
<polygon fill="white" stroke="white" points="-4,5 -4,-294 292,-294 292,5 -4,5"/>
<!-- N1 -->
<g id="node1" class="node"><title>N1</title>
<polygon fill="#fffff0" stroke="#fffff0" points="140,-253 236,-253 248,-265 248,-277 236,-289 140,-289 128,-277 128,-265 140,-253"/>
<path fill="#fffff0" stroke="#fffff0" d="M236,-253C242,-253 248,-259 248,-265"/>
<path fill="#fffff0" stroke="#fffff0" d="M248,-277C248,-283 242,-289 236,-289"/>
<path fill="#fffff0" stroke="#fffff0" d="M140,-289C134,-289 128,-283 128,-277"/>
<path fill="#fffff0" stroke="#fffff0" d="M128,-265C128,-259 134,-253 140,-253"/>
<polyline fill="none" stroke="black" points="140,-253 236,-253 "/>
<path fill="none" stroke="black" d="M236,-253C242,-253 248,-259 248,-265"/>
<polyline fill="none" stroke="black" points="248,-265 248,-277 "/>
<path fill="none" stroke="black" d="M248,-277C248,-283 242,-289 236,-289"/>
<polyline fill="none" stroke="black" points="236,-289 140,-289 "/>
<path fill="none" stroke="black" d="M140,-289C134,-289 128,-283 128,-277"/>
<polyline fill="none" stroke="black" points="128,-277 128,-265 "/>
<path fill="none" stroke="black" d="M128,-265C128,-259 134,-253 140,-253"/>
<text text-anchor="middle" x="188" y="-277.8" font-family="FreeSans" font-size="8.00">Node[1]</text>
<polyline fill="none" stroke="black" points="128,-271 248,-271 "/>
<text text-anchor="start" x="136" y="-259.8" font-family="FreeSans" font-size="8.00">&#39;name&#39; = &#39;David&#39; : String</text>
</g>
<!-- N3 -->
<g id="node3" class="node"><title>N3</title>
<polygon fill="#fffff0" stroke="#fffff0" points="46.5,-169 149.5,-169 161.5,-181 161.5,-193 149.5,-205 46.5,-205 34.5,-193 34.5,-181 46.5,-169"/>
<path fill="#fffff0" stroke="#fffff0" d="M149.5,-169C155.5,-169 161.5,-175 161.5,-181"/>
<path fill="#fffff0" stroke="#fffff0" d="M161.5,-193C161.5,-199 155.5,-205 149.5,-205"/>
<path fill="#fffff0" stroke="#fffff0" d="M46.5,-205C40.5,-205 34.5,-199 34.5,-193"/>
<path fill="#fffff0" stroke="#fffff0" d="M34.5,-181C34.5,-175 40.5,-169 46.5,-169"/>
<polyline fill="none" stroke="black" points="46.5,-169 149.5,-169 "/>
<path fill="none" stroke="black" d="M149.5,-169C155.5,-169 161.5,-175 161.5,-181"/>
<polyline fill="none" stroke="black" points="161.5,-181 161.5,-193 "/>
<path fill="none" stroke="black" d="M161.5,-193C161.5,-199 155.5,-205 149.5,-205"/>
<polyline fill="none" stroke="black" points="149.5,-205 46.5,-205 "/>
<path fill="none" stroke="black" d="M46.5,-205C40.5,-205 34.5,-199 34.5,-193"/>
<polyline fill="none" stroke="black" points="34.5,-193 34.5,-181 "/>
<path fill="none" stroke="black" d="M34.5,-181C34.5,-175 40.5,-169 46.5,-169"/>
<text text-anchor="middle" x="98" y="-193.8" font-family="FreeSans" font-size="8.00">Node[3]</text>
<polyline fill="none" stroke="black" points="34.5,-187 161.5,-187 "/>
<text text-anchor="start" x="42.5" y="-175.8" font-family="FreeSans" font-size="8.00">&#39;name&#39; = &#39;Anders&#39; : String</text>
</g>
<!-- N1&#45;&gt;N3 -->
<g id="edge2" class="edge"><title>N1&#45;&gt;N3</title>
<path fill="none" stroke="black" d="M168.471,-252.773C155.144,-240.335 137.373,-223.748 123.011,-210.344"/>
<polygon fill="black" stroke="black" points="117.491,-205.191 125.276,-207.841 120.232,-207.75 122.973,-210.309 122.973,-210.309 122.973,-210.309 120.232,-207.75 120.671,-212.776 117.491,-205.191 117.491,-205.191"/>
<text text-anchor="middle" x="161.5" y="-226.8" font-family="FreeSans" font-size="8.00">KNOWS</text>
</g>
<!-- N4 -->
<g id="node6" class="node"><title>N4</title>
<polygon fill="#fffff0" stroke="#fffff0" points="162.5,-85 275.5,-85 287.5,-97 287.5,-109 275.5,-121 162.5,-121 150.5,-109 150.5,-97 162.5,-85"/>
<path fill="#fffff0" stroke="#fffff0" d="M275.5,-85C281.5,-85 287.5,-91 287.5,-97"/>
<path fill="#fffff0" stroke="#fffff0" d="M287.5,-109C287.5,-115 281.5,-121 275.5,-121"/>
<path fill="#fffff0" stroke="#fffff0" d="M162.5,-121C156.5,-121 150.5,-115 150.5,-109"/>
<path fill="#fffff0" stroke="#fffff0" d="M150.5,-97C150.5,-91 156.5,-85 162.5,-85"/>
<polyline fill="none" stroke="black" points="162.5,-85 275.5,-85 "/>
<path fill="none" stroke="black" d="M275.5,-85C281.5,-85 287.5,-91 287.5,-97"/>
<polyline fill="none" stroke="black" points="287.5,-97 287.5,-109 "/>
<path fill="none" stroke="black" d="M287.5,-109C287.5,-115 281.5,-121 275.5,-121"/>
<polyline fill="none" stroke="black" points="275.5,-121 162.5,-121 "/>
<path fill="none" stroke="black" d="M162.5,-121C156.5,-121 150.5,-115 150.5,-109"/>
<polyline fill="none" stroke="black" points="150.5,-109 150.5,-97 "/>
<path fill="none" stroke="black" d="M150.5,-97C150.5,-91 156.5,-85 162.5,-85"/>
<text text-anchor="middle" x="219" y="-109.8" font-family="FreeSans" font-size="8.00">Node[4]</text>
<polyline fill="none" stroke="black" points="150.5,-103 287.5,-103 "/>
<text text-anchor="start" x="158.5" y="-91.8" font-family="FreeSans" font-size="8.00">&#39;name&#39; = &#39;Bossman&#39; : String</text>
</g>
<!-- N3&#45;&gt;N4 -->
<g id="edge4" class="edge"><title>N3&#45;&gt;N4</title>
<path fill="none" stroke="black" d="M123.958,-168.98C142.254,-156.278 166.889,-139.176 186.494,-125.566"/>
<polygon fill="black" stroke="black" points="192.668,-121.28 188.432,-128.33 189.587,-123.419 186.507,-125.557 186.507,-125.557 186.507,-125.557 189.587,-123.419 184.582,-122.785 192.668,-121.28 192.668,-121.28"/>
<text text-anchor="middle" x="178.5" y="-142.8" font-family="FreeSans" font-size="8.00">KNOWS</text>
</g>
<!-- N5 -->
<g id="node8" class="node"><title>N5</title>
<polygon fill="#fffff0" stroke="#fffff0" points="12,-85 110,-85 122,-97 122,-109 110,-121 12,-121 0,-109 0,-97 12,-85"/>
<path fill="#fffff0" stroke="#fffff0" d="M110,-85C116,-85 122,-91 122,-97"/>
<path fill="#fffff0" stroke="#fffff0" d="M122,-109C122,-115 116,-121 110,-121"/>
<path fill="#fffff0" stroke="#fffff0" d="M12,-121C6,-121 0,-115 0,-109"/>
<path fill="#fffff0" stroke="#fffff0" d="M0,-97C0,-91 6,-85 12,-85"/>
<polyline fill="none" stroke="black" points="12,-85 110,-85 "/>
<path fill="none" stroke="black" d="M110,-85C116,-85 122,-91 122,-97"/>
<polyline fill="none" stroke="black" points="122,-97 122,-109 "/>
<path fill="none" stroke="black" d="M122,-109C122,-115 116,-121 110,-121"/>
<polyline fill="none" stroke="black" points="110,-121 12,-121 "/>
<path fill="none" stroke="black" d="M12,-121C6,-121 0,-115 0,-109"/>
<polyline fill="none" stroke="black" points="0,-109 0,-97 "/>
<path fill="none" stroke="black" d="M0,-97C0,-91 6,-85 12,-85"/>
<text text-anchor="middle" x="61" y="-109.8" font-family="FreeSans" font-size="8.00">Node[5]</text>
<polyline fill="none" stroke="black" points="0,-103 122,-103 "/>
<text text-anchor="start" x="8" y="-91.8" font-family="FreeSans" font-size="8.00">&#39;name&#39; = &#39;Cesar&#39; : String</text>
</g>
<!-- N3&#45;&gt;N5 -->
<g id="edge6" class="edge"><title>N3&#45;&gt;N5</title>
<path fill="none" stroke="black" d="M87.4815,-168.827C84.2491,-162.916 80.807,-156.264 78,-150 74.925,-143.138 71.9839,-135.537 69.4383,-128.482"/>
<polygon fill="black" stroke="black" points="66.8438,-121.103 72.5155,-127.059 68.0877,-124.641 69.3316,-128.178 69.3316,-128.178 69.3316,-128.178 68.0877,-124.641 66.1476,-129.298 66.8438,-121.103 66.8438,-121.103"/>
<text text-anchor="middle" x="95.5" y="-142.8" font-family="FreeSans" font-size="8.00">BLOCKS</text>
</g>
<!-- N2 -->
<g id="node4" class="node"><title>N2</title>
<polygon fill="#fffff0" stroke="#fffff0" points="105.5,-1 196.5,-1 208.5,-13 208.5,-25 196.5,-37 105.5,-37 93.5,-25 93.5,-13 105.5,-1"/>
<path fill="#fffff0" stroke="#fffff0" d="M196.5,-1C202.5,-1 208.5,-7 208.5,-13"/>
<path fill="#fffff0" stroke="#fffff0" d="M208.5,-25C208.5,-31 202.5,-37 196.5,-37"/>
<path fill="#fffff0" stroke="#fffff0" d="M105.5,-37C99.5,-37 93.5,-31 93.5,-25"/>
<path fill="#fffff0" stroke="#fffff0" d="M93.5,-13C93.5,-7 99.5,-1 105.5,-1"/>
<polyline fill="none" stroke="black" points="105.5,-1 196.5,-1 "/>
<path fill="none" stroke="black" d="M196.5,-1C202.5,-1 208.5,-7 208.5,-13"/>
<polyline fill="none" stroke="black" points="208.5,-13 208.5,-25 "/>
<path fill="none" stroke="black" d="M208.5,-25C208.5,-31 202.5,-37 196.5,-37"/>
<polyline fill="none" stroke="black" points="196.5,-37 105.5,-37 "/>
<path fill="none" stroke="black" d="M105.5,-37C99.5,-37 93.5,-31 93.5,-25"/>
<polyline fill="none" stroke="black" points="93.5,-25 93.5,-13 "/>
<path fill="none" stroke="black" d="M93.5,-13C93.5,-7 99.5,-1 105.5,-1"/>
<text text-anchor="middle" x="151" y="-25.8" font-family="FreeSans" font-size="8.00">Node[2]</text>
<polyline fill="none" stroke="black" points="93.5,-19 208.5,-19 "/>
<text text-anchor="start" x="101.5" y="-7.8" font-family="FreeSans" font-size="8.00">&#39;name&#39; = &#39;Emil&#39; : String</text>
</g>
<!-- N4&#45;&gt;N1 -->
<g id="edge10" class="edge"><title>N4&#45;&gt;N1</title>
<path fill="none" stroke="black" d="M215.675,-121.022C210.173,-150.834 199.157,-210.536 192.808,-244.942"/>
<polygon fill="black" stroke="black" points="191.377,-252.701 189.419,-244.713 192.057,-249.014 192.738,-245.326 192.738,-245.326 192.738,-245.326 192.057,-249.014 196.057,-245.938 191.377,-252.701 191.377,-252.701"/>
<text text-anchor="middle" x="223.5" y="-184.8" font-family="FreeSans" font-size="8.00">BLOCKS</text>
</g>
<!-- N4&#45;&gt;N2 -->
<g id="edge8" class="edge"><title>N4&#45;&gt;N2</title>
<path fill="none" stroke="black" d="M204.245,-84.7733C194.354,-72.5549 181.223,-56.3342 170.476,-43.0586"/>
<polygon fill="black" stroke="black" points="165.726,-37.1912 173.068,-40.897 168.086,-40.1059 170.445,-43.0205 170.445,-43.0205 170.445,-43.0205 168.086,-40.1059 167.822,-45.1441 165.726,-37.1912 165.726,-37.1912"/>
<text text-anchor="middle" x="202.5" y="-58.8" font-family="FreeSans" font-size="8.00">KNOWS</text>
</g>
<!-- N5&#45;&gt;N2 -->
<g id="edge12" class="edge"><title>N5&#45;&gt;N2</title>
<path fill="none" stroke="black" d="M80.5287,-84.7733C93.8556,-72.3348 111.627,-55.7484 125.989,-42.3439"/>
<polygon fill="black" stroke="black" points="131.509,-37.1912 128.329,-44.7759 128.768,-39.7499 126.027,-42.3086 126.027,-42.3086 126.027,-42.3086 128.768,-39.7499 123.724,-39.8413 131.509,-37.1912 131.509,-37.1912"/>
<text text-anchor="middle" x="124.5" y="-58.8" font-family="FreeSans" font-size="8.00">KNOWS</text>
</g>
</g>
</svg>
