<?xml version="1.0" encoding="UTF-8" standalone="no"?>
<!DOCTYPE svg PUBLIC "-//W3C//DTD SVG 1.1//EN"
 "http://www.w3.org/Graphics/SVG/1.1/DTD/svg11.dtd">
<!-- Generated by graphviz version 2.26.3 (20100126.1600)
 -->
<!-- Title: g Pages: 1 -->
<svg width="148pt" height="150pt"
 viewBox="0.00 0.00 148.00 150.00" xmlns="http://www.w3.org/2000/svg" xmlns:xlink="http://www.w3.org/1999/xlink">
<g id="graph1" class="graph" transform="scale(1 1) rotate(0) translate(4 146)">
<title>g</title>
<polygon fill="white" stroke="white" points="-4,5 -4,-146 145,-146 145,5 -4,5"/>
<!-- N1 -->
<g id="node1" class="node"><title>N1</title>
<polygon fill="#fffff0" stroke="#fffff0" points="12,-85 128,-85 140,-97 140,-129 128,-141 12,-141 0,-129 0,-97 12,-85"/>
<path fill="#fffff0" stroke="#fffff0" d="M128,-85C134,-85 140,-91 140,-97"/>
<path fill="#fffff0" stroke="#fffff0" d="M140,-129C140,-135 134,-141 128,-141"/>
<path fill="#fffff0" stroke="#fffff0" d="M12,-141C6,-141 0,-135 0,-129"/>
<path fill="#fffff0" stroke="#fffff0" d="M0,-97C0,-91 6,-85 12,-85"/>
<polyline fill="none" stroke="black" points="12,-85 128,-85 "/>
<path fill="none" stroke="black" d="M128,-85C134,-85 140,-91 140,-97"/>
<polyline fill="none" stroke="black" points="140,-97 140,-129 "/>
<path fill="none" stroke="black" d="M140,-129C140,-135 134,-141 128,-141"/>
<polyline fill="none" stroke="black" points="128,-141 12,-141 "/>
<path fill="none" stroke="black" d="M12,-141C6,-141 0,-135 0,-129"/>
<polyline fill="none" stroke="black" points="0,-129 0,-97 "/>
<path fill="none" stroke="black" d="M0,-97C0,-91 6,-85 12,-85"/>
<text text-anchor="middle" x="70" y="-129.8" font-family="FreeSans" font-size="8.00">Node[1]</text>
<polyline fill="none" stroke="black" points="0,-123 140,-123 "/>
<text text-anchor="start" x="8" y="-111.8" font-family="FreeSans" font-size="8.00">&#39;name&#39; = &#39;A&#39; : String</text>
<text text-anchor="start" x="8" y="-101.8" font-family="FreeSans" font-size="8.00">&#39;&lt;&lt;!!__??&gt;&gt;&#39; = &#39;Yes!&#39; : String</text>
<text text-anchor="start" x="8" y="-91.8" font-family="FreeSans" font-size="8.00">&#39;age&#39; = 55 : int</text>
</g>
<!-- N2 -->
<g id="node3" class="node"><title>N2</title>
<polygon fill="#fffff0" stroke="#fffff0" points="30.5,-1 109.5,-1 121.5,-13 121.5,-25 109.5,-37 30.5,-37 18.5,-25 18.5,-13 30.5,-1"/>
<path fill="#fffff0" stroke="#fffff0" d="M109.5,-1C115.5,-1 121.5,-7 121.5,-13"/>
<path fill="#fffff0" stroke="#fffff0" d="M121.5,-25C121.5,-31 115.5,-37 109.5,-37"/>
<path fill="#fffff0" stroke="#fffff0" d="M30.5,-37C24.5,-37 18.5,-31 18.5,-25"/>
<path fill="#fffff0" stroke="#fffff0" d="M18.5,-13C18.5,-7 24.5,-1 30.5,-1"/>
<polyline fill="none" stroke="black" points="30.5,-1 109.5,-1 "/>
<path fill="none" stroke="black" d="M109.5,-1C115.5,-1 121.5,-7 121.5,-13"/>
<polyline fill="none" stroke="black" points="121.5,-13 121.5,-25 "/>
<path fill="none" stroke="black" d="M121.5,-25C121.5,-31 115.5,-37 109.5,-37"/>
<polyline fill="none" stroke="black" points="109.5,-37 30.5,-37 "/>
<path fill="none" stroke="black" d="M30.5,-37C24.5,-37 18.5,-31 18.5,-25"/>
<polyline fill="none" stroke="black" points="18.5,-25 18.5,-13 "/>
<path fill="none" stroke="black" d="M18.5,-13C18.5,-7 24.5,-1 30.5,-1"/>
<text text-anchor="middle" x="70" y="-25.8" font-family="FreeSans" font-size="8.00">Node[2]</text>
<polyline fill="none" stroke="black" points="18.5,-19 121.5,-19 "/>
<text text-anchor="start" x="26.5" y="-7.8" font-family="FreeSans" font-size="8.00">&#39;name&#39; = &#39;B&#39; : String</text>
</g>
<!-- N1&#45;&gt;N2 -->
<g id="edge2" class="edge"><title>N1&#45;&gt;N2</title>
<path fill="none" stroke="black" d="M45.505,-84.9853C41.5972,-79.0727 38.1405,-72.611 36,-66 33.3873,-57.9308 36.1734,-50.0841 41.0889,-43.1868"/>
<polygon fill="black" stroke="black" points="46.1079,-37.1404 43.9145,-45.0669 43.7128,-40.0258 41.3176,-42.9113 41.3176,-42.9113 41.3176,-42.9113 43.7128,-40.0258 38.7207,-40.7556 46.1079,-37.1404 46.1079,-37.1404"/>
<text text-anchor="middle" x="51.5" y="-58.8" font-family="FreeSans" font-size="8.00">KNOWS</text>
</g>
<!-- N1&#45;&gt;N2 -->
<g id="edge4" class="edge"><title>N1&#45;&gt;N2</title>
<path fill="none" stroke="black" d="M70,-84.7969C70,-72.1095 70,-57.2342 70,-44.8401"/>
<polygon fill="black" stroke="black" points="70,-37.1015 73.3751,-44.6015 70,-40.8515 70.0001,-44.6015 70.0001,-44.6015 70.0001,-44.6015 70,-40.8515 66.6251,-44.6016 70,-37.1015 70,-37.1015"/>
<text text-anchor="middle" x="87.5" y="-58.8" font-family="FreeSans" font-size="8.00">BLOCKS</text>
</g>
</g>
</svg>
