<?xml version="1.0" encoding="UTF-8" standalone="no"?>
<!DOCTYPE svg PUBLIC "-//W3C//DTD SVG 1.1//EN"
 "http://www.w3.org/Graphics/SVG/1.1/DTD/svg11.dtd">
<!-- Generated by graphviz version 2.26.3 (20100126.1600)
 -->
<!-- Title: g Pages: 1 -->
<svg width="504pt" height="260pt"
 viewBox="0.00 0.00 504.00 259.85" xmlns="http://www.w3.org/2000/svg" xmlns:xlink="http://www.w3.org/1999/xlink">
<g id="graph1" class="graph" transform="scale(0.871972 0.871972) rotate(0) translate(4 294)">
<title>g</title>
<polygon fill="white" stroke="white" points="-4,5 -4,-294 575,-294 575,5 -4,5"/>
<!-- N1 -->
<g id="node1" class="node"><title>N1</title>
<polygon fill="#fffff0" stroke="#fffff0" points="11.5,-169 102.5,-169 114.5,-181 114.5,-193 102.5,-205 11.5,-205 -0.5,-193 -0.5,-181 11.5,-169"/>
<path fill="#fffff0" stroke="#fffff0" d="M102.5,-169C108.5,-169 114.5,-175 114.5,-181"/>
<path fill="#fffff0" stroke="#fffff0" d="M114.5,-193C114.5,-199 108.5,-205 102.5,-205"/>
<path fill="#fffff0" stroke="#fffff0" d="M11.5,-205C5.5,-205 -0.5,-199 -0.5,-193"/>
<path fill="#fffff0" stroke="#fffff0" d="M-0.5,-181C-0.5,-175 5.5,-169 11.5,-169"/>
<polyline fill="none" stroke="black" points="11.5,-169 102.5,-169 "/>
<path fill="none" stroke="black" d="M102.5,-169C108.5,-169 114.5,-175 114.5,-181"/>
<polyline fill="none" stroke="black" points="114.5,-181 114.5,-193 "/>
<path fill="none" stroke="black" d="M114.5,-193C114.5,-199 108.5,-205 102.5,-205"/>
<polyline fill="none" stroke="black" points="102.5,-205 11.5,-205 "/>
<path fill="none" stroke="black" d="M11.5,-205C5.5,-205 -0.5,-199 -0.5,-193"/>
<polyline fill="none" stroke="black" points="-0.5,-193 -0.5,-181 "/>
<path fill="none" stroke="black" d="M-0.5,-181C-0.5,-175 5.5,-169 11.5,-169"/>
<text text-anchor="middle" x="57" y="-193.8" font-family="FreeSans" font-size="8.00">Node[1]</text>
<polyline fill="none" stroke="black" points="-0.5,-187 114.5,-187 "/>
<text text-anchor="start" x="7.5" y="-175.8" font-family="FreeSans" font-size="8.00">&#39;name&#39; = &#39;cats&#39; : String</text>
</g>
<!-- N2 -->
<g id="node2" class="node"><title>N2</title>
<polygon fill="#fffff0" stroke="#fffff0" points="282.5,-85 383.5,-85 395.5,-97 395.5,-109 383.5,-121 282.5,-121 270.5,-109 270.5,-97 282.5,-85"/>
<path fill="#fffff0" stroke="#fffff0" d="M383.5,-85C389.5,-85 395.5,-91 395.5,-97"/>
<path fill="#fffff0" stroke="#fffff0" d="M395.5,-109C395.5,-115 389.5,-121 383.5,-121"/>
<path fill="#fffff0" stroke="#fffff0" d="M282.5,-121C276.5,-121 270.5,-115 270.5,-109"/>
<path fill="#fffff0" stroke="#fffff0" d="M270.5,-97C270.5,-91 276.5,-85 282.5,-85"/>
<polyline fill="none" stroke="black" points="282.5,-85 383.5,-85 "/>
<path fill="none" stroke="black" d="M383.5,-85C389.5,-85 395.5,-91 395.5,-97"/>
<polyline fill="none" stroke="black" points="395.5,-97 395.5,-109 "/>
<path fill="none" stroke="black" d="M395.5,-109C395.5,-115 389.5,-121 383.5,-121"/>
<polyline fill="none" stroke="black" points="383.5,-121 282.5,-121 "/>
<path fill="none" stroke="black" d="M282.5,-121C276.5,-121 270.5,-115 270.5,-109"/>
<polyline fill="none" stroke="black" points="270.5,-109 270.5,-97 "/>
<path fill="none" stroke="black" d="M270.5,-97C270.5,-91 276.5,-85 282.5,-85"/>
<text text-anchor="middle" x="333" y="-109.8" font-family="FreeSans" font-size="8.00">Node[2]</text>
<polyline fill="none" stroke="black" points="270.5,-103 395.5,-103 "/>
<text text-anchor="start" x="278.5" y="-91.8" font-family="FreeSans" font-size="8.00">&#39;name&#39; = &#39;nature&#39; : String</text>
</g>
<!-- N3 -->
<g id="node3" class="node"><title>N3</title>
<polygon fill="#fffff0" stroke="#fffff0" points="154.5,-169 243.5,-169 255.5,-181 255.5,-193 243.5,-205 154.5,-205 142.5,-193 142.5,-181 154.5,-169"/>
<path fill="#fffff0" stroke="#fffff0" d="M243.5,-169C249.5,-169 255.5,-175 255.5,-181"/>
<path fill="#fffff0" stroke="#fffff0" d="M255.5,-193C255.5,-199 249.5,-205 243.5,-205"/>
<path fill="#fffff0" stroke="#fffff0" d="M154.5,-205C148.5,-205 142.5,-199 142.5,-193"/>
<path fill="#fffff0" stroke="#fffff0" d="M142.5,-181C142.5,-175 148.5,-169 154.5,-169"/>
<polyline fill="none" stroke="black" points="154.5,-169 243.5,-169 "/>
<path fill="none" stroke="black" d="M243.5,-169C249.5,-169 255.5,-175 255.5,-181"/>
<polyline fill="none" stroke="black" points="255.5,-181 255.5,-193 "/>
<path fill="none" stroke="black" d="M255.5,-193C255.5,-199 249.5,-205 243.5,-205"/>
<polyline fill="none" stroke="black" points="243.5,-205 154.5,-205 "/>
<path fill="none" stroke="black" d="M154.5,-205C148.5,-205 142.5,-199 142.5,-193"/>
<polyline fill="none" stroke="black" points="142.5,-193 142.5,-181 "/>
<path fill="none" stroke="black" d="M142.5,-181C142.5,-175 148.5,-169 154.5,-169"/>
<text text-anchor="middle" x="199" y="-193.8" font-family="FreeSans" font-size="8.00">Node[3]</text>
<polyline fill="none" stroke="black" points="142.5,-187 255.5,-187 "/>
<text text-anchor="start" x="150.5" y="-175.8" font-family="FreeSans" font-size="8.00">&#39;name&#39; = &#39;Ben&#39; : String</text>
</g>
<!-- N4 -->
<g id="node4" class="node"><title>N4</title>
<polygon fill="#fffff0" stroke="#fffff0" points="285.5,-253 378.5,-253 390.5,-265 390.5,-277 378.5,-289 285.5,-289 273.5,-277 273.5,-265 285.5,-253"/>
<path fill="#fffff0" stroke="#fffff0" d="M378.5,-253C384.5,-253 390.5,-259 390.5,-265"/>
<path fill="#fffff0" stroke="#fffff0" d="M390.5,-277C390.5,-283 384.5,-289 378.5,-289"/>
<path fill="#fffff0" stroke="#fffff0" d="M285.5,-289C279.5,-289 273.5,-283 273.5,-277"/>
<path fill="#fffff0" stroke="#fffff0" d="M273.5,-265C273.5,-259 279.5,-253 285.5,-253"/>
<polyline fill="none" stroke="black" points="285.5,-253 378.5,-253 "/>
<path fill="none" stroke="black" d="M378.5,-253C384.5,-253 390.5,-259 390.5,-265"/>
<polyline fill="none" stroke="black" points="390.5,-265 390.5,-277 "/>
<path fill="none" stroke="black" d="M390.5,-277C390.5,-283 384.5,-289 378.5,-289"/>
<polyline fill="none" stroke="black" points="378.5,-289 285.5,-289 "/>
<path fill="none" stroke="black" d="M285.5,-289C279.5,-289 273.5,-283 273.5,-277"/>
<polyline fill="none" stroke="black" points="273.5,-277 273.5,-265 "/>
<path fill="none" stroke="black" d="M273.5,-265C273.5,-259 279.5,-253 285.5,-253"/>
<text text-anchor="middle" x="332" y="-277.8" font-family="FreeSans" font-size="8.00">Node[4]</text>
<polyline fill="none" stroke="black" points="273.5,-271 390.5,-271 "/>
<text text-anchor="start" x="281.5" y="-259.8" font-family="FreeSans" font-size="8.00">&#39;name&#39; = &#39;Sara&#39; : String</text>
</g>
<!-- N4&#45;&gt;N1 -->
<g id="edge10" class="edge"><title>N4&#45;&gt;N1</title>
<path fill="none" stroke="black" d="M273.356,-255.161C250.409,-248.807 223.907,-241.276 200,-234 172.808,-225.725 142.91,-215.998 117.512,-207.546"/>
<polygon fill="black" stroke="black" points="110.13,-205.083 118.312,-204.255 113.687,-206.269 117.244,-207.456 117.244,-207.456 117.244,-207.456 113.687,-206.269 116.176,-210.658 110.13,-205.083 110.13,-205.083"/>
<text text-anchor="middle" x="212" y="-226.8" font-family="FreeSans" font-size="8.00">LIKES</text>
</g>
<!-- N4&#45;&gt;N3 -->
<g id="edge4" class="edge"><title>N4&#45;&gt;N3</title>
<path fill="none" stroke="black" d="M278.977,-252.838C266.98,-247.624 254.65,-241.327 244,-234 234.803,-227.673 226.002,-219.228 218.661,-211.243"/>
<polygon fill="black" stroke="black" points="213.349,-205.269 220.855,-208.631 215.841,-208.071 218.333,-210.874 218.333,-210.874 218.333,-210.874 215.841,-208.071 215.81,-213.116 213.349,-205.269 213.349,-205.269"/>
<text text-anchor="middle" x="264" y="-226.8" font-family="FreeSans" font-size="8.00">FOLLOWS</text>
</g>
<!-- N8 -->
<g id="node6" class="node"><title>N8</title>
<polygon fill="#fffff0" stroke="#fffff0" points="296,-169 382,-169 394,-181 394,-193 382,-205 296,-205 284,-193 284,-181 296,-169"/>
<path fill="#fffff0" stroke="#fffff0" d="M382,-169C388,-169 394,-175 394,-181"/>
<path fill="#fffff0" stroke="#fffff0" d="M394,-193C394,-199 388,-205 382,-205"/>
<path fill="#fffff0" stroke="#fffff0" d="M296,-205C290,-205 284,-199 284,-193"/>
<path fill="#fffff0" stroke="#fffff0" d="M284,-181C284,-175 290,-169 296,-169"/>
<polyline fill="none" stroke="black" points="296,-169 382,-169 "/>
<path fill="none" stroke="black" d="M382,-169C388,-169 394,-175 394,-181"/>
<polyline fill="none" stroke="black" points="394,-181 394,-193 "/>
<path fill="none" stroke="black" d="M394,-193C394,-199 388,-205 382,-205"/>
<polyline fill="none" stroke="black" points="382,-205 296,-205 "/>
<path fill="none" stroke="black" d="M296,-205C290,-205 284,-199 284,-193"/>
<polyline fill="none" stroke="black" points="284,-193 284,-181 "/>
<path fill="none" stroke="black" d="M284,-181C284,-175 290,-169 296,-169"/>
<text text-anchor="middle" x="339" y="-193.8" font-family="FreeSans" font-size="8.00">Node[8]</text>
<polyline fill="none" stroke="black" points="284,-187 394,-187 "/>
<text text-anchor="start" x="292" y="-175.8" font-family="FreeSans" font-size="8.00">&#39;name&#39; = &#39;Joe&#39; : String</text>
</g>
<!-- N4&#45;&gt;N8 -->
<g id="edge2" class="edge"><title>N4&#45;&gt;N8</title>
<path fill="none" stroke="black" d="M303.497,-252.84C294.454,-244.676 287.961,-234.519 293,-224 295.374,-219.043 298.772,-214.54 302.661,-210.517"/>
<polygon fill="black" stroke="black" points="308.218,-205.332 305.037,-212.916 305.476,-207.89 302.734,-210.448 302.734,-210.448 302.734,-210.448 305.476,-207.89 300.432,-207.981 308.218,-205.332 308.218,-205.332"/>
<text text-anchor="middle" x="313" y="-226.8" font-family="FreeSans" font-size="8.00">FOLLOWS</text>
</g>
<!-- N5 -->
<g id="node9" class="node"><title>N5</title>
<polygon fill="#fffff0" stroke="#fffff0" points="435.5,-85 530.5,-85 542.5,-97 542.5,-109 530.5,-121 435.5,-121 423.5,-109 423.5,-97 435.5,-85"/>
<path fill="#fffff0" stroke="#fffff0" d="M530.5,-85C536.5,-85 542.5,-91 542.5,-97"/>
<path fill="#fffff0" stroke="#fffff0" d="M542.5,-109C542.5,-115 536.5,-121 530.5,-121"/>
<path fill="#fffff0" stroke="#fffff0" d="M435.5,-121C429.5,-121 423.5,-115 423.5,-109"/>
<path fill="#fffff0" stroke="#fffff0" d="M423.5,-97C423.5,-91 429.5,-85 435.5,-85"/>
<polyline fill="none" stroke="black" points="435.5,-85 530.5,-85 "/>
<path fill="none" stroke="black" d="M530.5,-85C536.5,-85 542.5,-91 542.5,-97"/>
<polyline fill="none" stroke="black" points="542.5,-97 542.5,-109 "/>
<path fill="none" stroke="black" d="M542.5,-109C542.5,-115 536.5,-121 530.5,-121"/>
<polyline fill="none" stroke="black" points="530.5,-121 435.5,-121 "/>
<path fill="none" stroke="black" d="M435.5,-121C429.5,-121 423.5,-115 423.5,-109"/>
<polyline fill="none" stroke="black" points="423.5,-109 423.5,-97 "/>
<path fill="none" stroke="black" d="M423.5,-97C423.5,-91 429.5,-85 435.5,-85"/>
<text text-anchor="middle" x="483" y="-109.8" font-family="FreeSans" font-size="8.00">Node[5]</text>
<polyline fill="none" stroke="black" points="423.5,-103 542.5,-103 "/>
<text text-anchor="start" x="431.5" y="-91.8" font-family="FreeSans" font-size="8.00">&#39;name&#39; = &#39;bikes&#39; : String</text>
</g>
<!-- N4&#45;&gt;N5 -->
<g id="edge6" class="edge"><title>N4&#45;&gt;N5</title>
<path fill="none" stroke="black" d="M358.963,-252.929C366.951,-247.185 375.549,-240.601 383,-234 418.886,-202.206 450.637,-155.907 468.292,-127.715"/>
<polygon fill="black" stroke="black" points="472.261,-121.3 471.185,-129.454 470.288,-124.489 468.315,-127.678 468.315,-127.678 468.315,-127.678 470.288,-124.489 465.445,-125.902 472.261,-121.3 472.261,-121.3"/>
<text text-anchor="middle" x="452" y="-184.8" font-family="FreeSans" font-size="8.00">LIKES</text>
</g>
<!-- N7 -->
<g id="node11" class="node"><title>N7</title>
<polygon fill="#fffff0" stroke="#fffff0" points="428,-1 520,-1 532,-13 532,-25 520,-37 428,-37 416,-25 416,-13 428,-1"/>
<path fill="#fffff0" stroke="#fffff0" d="M520,-1C526,-1 532,-7 532,-13"/>
<path fill="#fffff0" stroke="#fffff0" d="M532,-25C532,-31 526,-37 520,-37"/>
<path fill="#fffff0" stroke="#fffff0" d="M428,-37C422,-37 416,-31 416,-25"/>
<path fill="#fffff0" stroke="#fffff0" d="M416,-13C416,-7 422,-1 428,-1"/>
<polyline fill="none" stroke="black" points="428,-1 520,-1 "/>
<path fill="none" stroke="black" d="M520,-1C526,-1 532,-7 532,-13"/>
<polyline fill="none" stroke="black" points="532,-13 532,-25 "/>
<path fill="none" stroke="black" d="M532,-25C532,-31 526,-37 520,-37"/>
<polyline fill="none" stroke="black" points="520,-37 428,-37 "/>
<path fill="none" stroke="black" d="M428,-37C422,-37 416,-31 416,-25"/>
<polyline fill="none" stroke="black" points="416,-25 416,-13 "/>
<path fill="none" stroke="black" d="M416,-13C416,-7 422,-1 428,-1"/>
<text text-anchor="middle" x="474" y="-25.8" font-family="FreeSans" font-size="8.00">Node[7]</text>
<polyline fill="none" stroke="black" points="416,-19 532,-19 "/>
<text text-anchor="start" x="424" y="-7.8" font-family="FreeSans" font-size="8.00">&#39;name&#39; = &#39;cars&#39; : String</text>
</g>
<!-- N4&#45;&gt;N7 -->
<g id="edge8" class="edge"><title>N4&#45;&gt;N7</title>
<path fill="none" stroke="black" d="M390.653,-253.099C447.037,-232.145 527.861,-191.194 557,-122 563.555,-106.435 564.395,-99.1839 557,-84 548.375,-66.2905 532.332,-51.9831 516.633,-41.3473"/>
<polygon fill="black" stroke="black" points="509.949,-37.0147 518.078,-38.2618 513.096,-39.0543 516.242,-41.094 516.242,-41.094 516.242,-41.094 513.096,-39.0543 514.407,-43.9261 509.949,-37.0147 509.949,-37.0147"/>
<text text-anchor="middle" x="558" y="-142.8" font-family="FreeSans" font-size="8.00">LIKES</text>
</g>
<!-- N8&#45;&gt;N2 -->
<g id="edge26" class="edge"><title>N8&#45;&gt;N2</title>
<path fill="none" stroke="black" d="M345.786,-168.692C348.169,-159.996 349.844,-149.459 348,-140 347.24,-136.103 346.069,-132.097 344.709,-128.227"/>
<polygon fill="black" stroke="black" points="341.92,-121.015 347.773,-126.792 343.273,-124.512 344.626,-128.01 344.626,-128.01 344.626,-128.01 343.273,-124.512 341.478,-129.228 341.92,-121.015 341.92,-121.015"/>
<text text-anchor="middle" x="360" y="-142.8" font-family="FreeSans" font-size="8.00">LIKES</text>
</g>
<!-- N8&#45;&gt;N4 -->
<g id="edge18" class="edge"><title>N8&#45;&gt;N4</title>
<path fill="none" stroke="black" d="M338.018,-205.317C337.504,-214.014 336.812,-224.55 336,-234 335.685,-237.669 335.312,-241.539 334.922,-245.338"/>
<polygon fill="black" stroke="black" points="334.112,-252.949 331.55,-245.134 334.509,-249.22 334.906,-245.491 334.906,-245.491 334.906,-245.491 334.509,-249.22 338.262,-245.848 334.112,-252.949 334.112,-252.949"/>
<text text-anchor="middle" x="356" y="-226.8" font-family="FreeSans" font-size="8.00">FOLLOWS</text>
</g>
<!-- N8&#45;&gt;N5 -->
<g id="edge24" class="edge"><title>N8&#45;&gt;N5</title>
<path fill="none" stroke="black" d="M369.892,-168.98C391.855,-156.168 421.492,-138.879 444.92,-125.213"/>
<polygon fill="black" stroke="black" points="451.663,-121.28 446.885,-127.974 448.423,-123.17 445.184,-125.059 445.184,-125.059 445.184,-125.059 448.423,-123.17 443.484,-122.144 451.663,-121.28 451.663,-121.28"/>
<text text-anchor="middle" x="427" y="-142.8" font-family="FreeSans" font-size="8.00">LIKES</text>
</g>
<!-- N6 -->
<g id="node13" class="node"><title>N6</title>
<polygon fill="#fffff0" stroke="#fffff0" points="134,-85 230,-85 242,-97 242,-109 230,-121 134,-121 122,-109 122,-97 134,-85"/>
<path fill="#fffff0" stroke="#fffff0" d="M230,-85C236,-85 242,-91 242,-97"/>
<path fill="#fffff0" stroke="#fffff0" d="M242,-109C242,-115 236,-121 230,-121"/>
<path fill="#fffff0" stroke="#fffff0" d="M134,-121C128,-121 122,-115 122,-109"/>
<path fill="#fffff0" stroke="#fffff0" d="M122,-97C122,-91 128,-85 134,-85"/>
<polyline fill="none" stroke="black" points="134,-85 230,-85 "/>
<path fill="none" stroke="black" d="M230,-85C236,-85 242,-91 242,-97"/>
<polyline fill="none" stroke="black" points="242,-97 242,-109 "/>
<path fill="none" stroke="black" d="M242,-109C242,-115 236,-121 230,-121"/>
<polyline fill="none" stroke="black" points="230,-121 134,-121 "/>
<path fill="none" stroke="black" d="M134,-121C128,-121 122,-115 122,-109"/>
<polyline fill="none" stroke="black" points="122,-109 122,-97 "/>
<path fill="none" stroke="black" d="M122,-97C122,-91 128,-85 134,-85"/>
<text text-anchor="middle" x="182" y="-109.8" font-family="FreeSans" font-size="8.00">Node[6]</text>
<polyline fill="none" stroke="black" points="122,-103 242,-103 "/>
<text text-anchor="start" x="130" y="-91.8" font-family="FreeSans" font-size="8.00">&#39;name&#39; = &#39;Maria&#39; : String</text>
</g>
<!-- N8&#45;&gt;N6 -->
<g id="edge22" class="edge"><title>N8&#45;&gt;N6</title>
<path fill="none" stroke="black" d="M283.792,-171.117C279.144,-169.988 274.502,-168.93 270,-168 241.654,-162.146 160,-171.835 141,-150 134.243,-142.235 138.158,-133.756 145.751,-126.164"/>
<polygon fill="black" stroke="black" points="151.509,-121.069 148.128,-128.567 148.7,-123.554 145.892,-126.039 145.892,-126.039 145.892,-126.039 148.7,-123.554 143.655,-123.511 151.509,-121.069 151.509,-121.069"/>
<text text-anchor="middle" x="155" y="-142.8" font-family="FreeSans" font-size="8.00">LOVES</text>
</g>
<!-- N8&#45;&gt;N6 -->
<g id="edge20" class="edge"><title>N8&#45;&gt;N6</title>
<path fill="none" stroke="black" d="M283.725,-171.418C279.092,-170.222 274.472,-169.067 270,-168 230.745,-158.637 206.552,-181.237 181,-150 176.294,-144.247 175.063,-136.64 175.43,-129.226"/>
<polygon fill="black" stroke="black" points="176.366,-121.353 178.831,-129.199 175.923,-125.077 175.48,-128.801 175.48,-128.801 175.48,-128.801 175.923,-125.077 172.129,-128.402 176.366,-121.353 176.366,-121.353"/>
<text text-anchor="middle" x="201" y="-142.8" font-family="FreeSans" font-size="8.00">FOLLOWS</text>
</g>
<!-- N6&#45;&gt;N8 -->
<g id="edge12" class="edge"><title>N6&#45;&gt;N8</title>
<path fill="none" stroke="black" d="M202.403,-121.121C213.786,-130.595 228.55,-141.876 243,-150 253.573,-155.944 265.291,-161.338 276.804,-166.056"/>
<polygon fill="black" stroke="black" points="283.933,-168.905 275.716,-169.256 280.451,-167.513 276.969,-166.122 276.969,-166.122 276.969,-166.122 280.451,-167.513 278.221,-162.988 283.933,-168.905 283.933,-168.905"/>
<text text-anchor="middle" x="257" y="-142.8" font-family="FreeSans" font-size="8.00">LOVES</text>
</g>
<!-- N6&#45;&gt;N8 -->
<g id="edge14" class="edge"><title>N6&#45;&gt;N8</title>
<path fill="none" stroke="black" d="M233.158,-121.009C246.741,-126.476 261.188,-132.93 274,-140 286.537,-146.918 299.488,-155.86 310.499,-164.085"/>
<polygon fill="black" stroke="black" points="316.74,-168.824 308.726,-166.977 313.754,-166.557 310.767,-164.289 310.767,-164.289 310.767,-164.289 313.754,-166.557 312.808,-161.601 316.74,-168.824 316.74,-168.824"/>
<text text-anchor="middle" x="309" y="-142.8" font-family="FreeSans" font-size="8.00">FOLLOWS</text>
</g>
<!-- N6&#45;&gt;N7 -->
<g id="edge16" class="edge"><title>N6&#45;&gt;N7</title>
<path fill="none" stroke="black" d="M242.149,-85.697C290.682,-71.7354 358.846,-52.1266 408.702,-37.7843"/>
<polygon fill="black" stroke="black" points="415.921,-35.7077 409.646,-41.0247 412.317,-36.7445 408.713,-37.7812 408.713,-37.7812 408.713,-37.7812 412.317,-36.7445 407.78,-34.5378 415.921,-35.7077 415.921,-35.7077"/>
<text text-anchor="middle" x="348" y="-58.8" font-family="FreeSans" font-size="8.00">LIKES</text>
</g>
</g>
</svg>
