<?xml version="1.0" encoding="UTF-8" standalone="no"?>
<!DOCTYPE svg PUBLIC "-//W3C//DTD SVG 1.1//EN"
 "http://www.w3.org/Graphics/SVG/1.1/DTD/svg11.dtd">
<!-- Generated by graphviz version 2.26.3 (20100126.1600)
 -->
<!-- Title: g Pages: 1 -->
<svg width="504pt" height="193pt"
 viewBox="0.00 0.00 504.00 192.94" xmlns="http://www.w3.org/2000/svg" xmlns:xlink="http://www.w3.org/1999/xlink">
<g id="graph1" class="graph" transform="scale(0.90161 0.90161) rotate(0) translate(4 210)">
<title>g</title>
<polygon fill="white" stroke="white" points="-4,5 -4,-210 556,-210 556,5 -4,5"/>
<!-- N1 -->
<g id="node1" class="node"><title>N1</title>
<polygon fill="#fffff0" stroke="#fffff0" points="237.5,-85 330.5,-85 342.5,-97 342.5,-109 330.5,-121 237.5,-121 225.5,-109 225.5,-97 237.5,-85"/>
<path fill="#fffff0" stroke="#fffff0" d="M330.5,-85C336.5,-85 342.5,-91 342.5,-97"/>
<path fill="#fffff0" stroke="#fffff0" d="M342.5,-109C342.5,-115 336.5,-121 330.5,-121"/>
<path fill="#fffff0" stroke="#fffff0" d="M237.5,-121C231.5,-121 225.5,-115 225.5,-109"/>
<path fill="#fffff0" stroke="#fffff0" d="M225.5,-97C225.5,-91 231.5,-85 237.5,-85"/>
<polyline fill="none" stroke="black" points="237.5,-85 330.5,-85 "/>
<path fill="none" stroke="black" d="M330.5,-85C336.5,-85 342.5,-91 342.5,-97"/>
<polyline fill="none" stroke="black" points="342.5,-97 342.5,-109 "/>
<path fill="none" stroke="black" d="M342.5,-109C342.5,-115 336.5,-121 330.5,-121"/>
<polyline fill="none" stroke="black" points="330.5,-121 237.5,-121 "/>
<path fill="none" stroke="black" d="M237.5,-121C231.5,-121 225.5,-115 225.5,-109"/>
<polyline fill="none" stroke="black" points="225.5,-109 225.5,-97 "/>
<path fill="none" stroke="black" d="M225.5,-97C225.5,-91 231.5,-85 237.5,-85"/>
<text text-anchor="middle" x="284" y="-109.8" font-family="FreeSans" font-size="8.00">Node[1]</text>
<polyline fill="none" stroke="black" points="225.5,-103 342.5,-103 "/>
<text text-anchor="start" x="233.5" y="-91.8" font-family="FreeSans" font-size="8.00">&#39;name&#39; = &#39;Sara&#39; : String</text>
</g>
<!-- N2 -->
<g id="node3" class="node"><title>N2</title>
<polygon fill="#fffff0" stroke="#fffff0" points="388,-1 480,-1 492,-13 492,-25 480,-37 388,-37 376,-25 376,-13 388,-1"/>
<path fill="#fffff0" stroke="#fffff0" d="M480,-1C486,-1 492,-7 492,-13"/>
<path fill="#fffff0" stroke="#fffff0" d="M492,-25C492,-31 486,-37 480,-37"/>
<path fill="#fffff0" stroke="#fffff0" d="M388,-37C382,-37 376,-31 376,-25"/>
<path fill="#fffff0" stroke="#fffff0" d="M376,-13C376,-7 382,-1 388,-1"/>
<polyline fill="none" stroke="black" points="388,-1 480,-1 "/>
<path fill="none" stroke="black" d="M480,-1C486,-1 492,-7 492,-13"/>
<polyline fill="none" stroke="black" points="492,-13 492,-25 "/>
<path fill="none" stroke="black" d="M492,-25C492,-31 486,-37 480,-37"/>
<polyline fill="none" stroke="black" points="480,-37 388,-37 "/>
<path fill="none" stroke="black" d="M388,-37C382,-37 376,-31 376,-25"/>
<polyline fill="none" stroke="black" points="376,-25 376,-13 "/>
<path fill="none" stroke="black" d="M376,-13C376,-7 382,-1 388,-1"/>
<text text-anchor="middle" x="434" y="-25.8" font-family="FreeSans" font-size="8.00">Node[2]</text>
<polyline fill="none" stroke="black" points="376,-19 492,-19 "/>
<text text-anchor="start" x="384" y="-7.8" font-family="FreeSans" font-size="8.00">&#39;name&#39; = &#39;Cats&#39; : String</text>
</g>
<!-- N1&#45;&gt;N2 -->
<g id="edge2" class="edge"><title>N1&#45;&gt;N2</title>
<path fill="none" stroke="black" d="M284.371,-84.7885C285.518,-75.0516 288.542,-63.548 296,-56 306.567,-45.3053 338.072,-36.4424 368.315,-30.0747"/>
<polygon fill="black" stroke="black" points="375.963,-28.5099 369.292,-33.3198 372.289,-29.2616 368.615,-30.0133 368.615,-30.0133 368.615,-30.0133 372.289,-29.2616 367.939,-26.7068 375.963,-28.5099 375.963,-28.5099"/>
<text text-anchor="middle" x="312.5" y="-58.8" font-family="FreeSans" font-size="8.00">favorite</text>
</g>
<!-- N4 -->
<g id="node5" class="node"><title>N4</title>
<polygon fill="#fffff0" stroke="#fffff0" points="142,-1 238,-1 250,-13 250,-25 238,-37 142,-37 130,-25 130,-13 142,-1"/>
<path fill="#fffff0" stroke="#fffff0" d="M238,-1C244,-1 250,-7 250,-13"/>
<path fill="#fffff0" stroke="#fffff0" d="M250,-25C250,-31 244,-37 238,-37"/>
<path fill="#fffff0" stroke="#fffff0" d="M142,-37C136,-37 130,-31 130,-25"/>
<path fill="#fffff0" stroke="#fffff0" d="M130,-13C130,-7 136,-1 142,-1"/>
<polyline fill="none" stroke="black" points="142,-1 238,-1 "/>
<path fill="none" stroke="black" d="M238,-1C244,-1 250,-7 250,-13"/>
<polyline fill="none" stroke="black" points="250,-13 250,-25 "/>
<path fill="none" stroke="black" d="M250,-25C250,-31 244,-37 238,-37"/>
<polyline fill="none" stroke="black" points="238,-37 142,-37 "/>
<path fill="none" stroke="black" d="M142,-37C136,-37 130,-31 130,-25"/>
<polyline fill="none" stroke="black" points="130,-25 130,-13 "/>
<path fill="none" stroke="black" d="M130,-13C130,-7 136,-1 142,-1"/>
<text text-anchor="middle" x="190" y="-25.8" font-family="FreeSans" font-size="8.00">Node[4]</text>
<polyline fill="none" stroke="black" points="130,-19 250,-19 "/>
<text text-anchor="start" x="138" y="-7.8" font-family="FreeSans" font-size="8.00">&#39;name&#39; = &#39;Bikes&#39; : String</text>
</g>
<!-- N1&#45;&gt;N4 -->
<g id="edge4" class="edge"><title>N1&#45;&gt;N4</title>
<path fill="none" stroke="black" d="M249.34,-84.8115C240.581,-79.385 231.532,-72.9964 224,-66 216.967,-59.4672 210.458,-51.2838 205.058,-43.5845"/>
<polygon fill="black" stroke="black" points="200.795,-37.2779 207.791,-41.6017 202.895,-40.3848 204.995,-43.4917 204.995,-43.4917 204.995,-43.4917 202.895,-40.3848 202.199,-45.3816 200.795,-37.2779 200.795,-37.2779"/>
<text text-anchor="middle" x="240.5" y="-58.8" font-family="FreeSans" font-size="8.00">favorite</text>
</g>
<!-- N3 -->
<g id="node6" class="node"><title>N3</title>
<polygon fill="#fffff0" stroke="#fffff0" points="382.5,-85 485.5,-85 497.5,-97 497.5,-109 485.5,-121 382.5,-121 370.5,-109 370.5,-97 382.5,-85"/>
<path fill="#fffff0" stroke="#fffff0" d="M485.5,-85C491.5,-85 497.5,-91 497.5,-97"/>
<path fill="#fffff0" stroke="#fffff0" d="M497.5,-109C497.5,-115 491.5,-121 485.5,-121"/>
<path fill="#fffff0" stroke="#fffff0" d="M382.5,-121C376.5,-121 370.5,-115 370.5,-109"/>
<path fill="#fffff0" stroke="#fffff0" d="M370.5,-97C370.5,-91 376.5,-85 382.5,-85"/>
<polyline fill="none" stroke="black" points="382.5,-85 485.5,-85 "/>
<path fill="none" stroke="black" d="M485.5,-85C491.5,-85 497.5,-91 497.5,-97"/>
<polyline fill="none" stroke="black" points="497.5,-97 497.5,-109 "/>
<path fill="none" stroke="black" d="M497.5,-109C497.5,-115 491.5,-121 485.5,-121"/>
<polyline fill="none" stroke="black" points="485.5,-121 382.5,-121 "/>
<path fill="none" stroke="black" d="M382.5,-121C376.5,-121 370.5,-115 370.5,-109"/>
<polyline fill="none" stroke="black" points="370.5,-109 370.5,-97 "/>
<path fill="none" stroke="black" d="M370.5,-97C370.5,-91 376.5,-85 382.5,-85"/>
<text text-anchor="middle" x="434" y="-109.8" font-family="FreeSans" font-size="8.00">Node[3]</text>
<polyline fill="none" stroke="black" points="370.5,-103 497.5,-103 "/>
<text text-anchor="start" x="378.5" y="-91.8" font-family="FreeSans" font-size="8.00">&#39;name&#39; = &#39;Derrick&#39; : String</text>
</g>
<!-- N3&#45;&gt;N2 -->
<g id="edge6" class="edge"><title>N3&#45;&gt;N2</title>
<path fill="none" stroke="black" d="M434,-84.7733C434,-73.1053 434,-57.7874 434,-44.8699"/>
<polygon fill="black" stroke="black" points="434,-37.1912 437.375,-44.6911 434,-40.9412 434,-44.6912 434,-44.6912 434,-44.6912 434,-40.9412 430.625,-44.6912 434,-37.1912 434,-37.1912"/>
<text text-anchor="middle" x="450.5" y="-58.8" font-family="FreeSans" font-size="8.00">favorite</text>
</g>
<!-- N3&#45;&gt;N4 -->
<g id="edge8" class="edge"><title>N3&#45;&gt;N4</title>
<path fill="none" stroke="black" d="M398.769,-84.8905C379.409,-75.4204 354.766,-64.1389 332,-56 308.086,-47.4507 281.264,-39.9492 257.425,-33.9758"/>
<polygon fill="black" stroke="black" points="250.129,-32.1715 258.22,-30.6957 253.77,-33.0718 257.41,-33.972 257.41,-33.972 257.41,-33.972 253.77,-33.0718 256.6,-37.2484 250.129,-32.1715 250.129,-32.1715"/>
<text text-anchor="middle" x="371.5" y="-58.8" font-family="FreeSans" font-size="8.00">favorite</text>
</g>
<!-- N5 -->
<g id="node9" class="node"><title>N5</title>
<polygon fill="#fffff0" stroke="#fffff0" points="12,-85 94,-85 106,-97 106,-109 94,-121 12,-121 0,-109 0,-97 12,-85"/>
<path fill="#fffff0" stroke="#fffff0" d="M94,-85C100,-85 106,-91 106,-97"/>
<path fill="#fffff0" stroke="#fffff0" d="M106,-109C106,-115 100,-121 94,-121"/>
<path fill="#fffff0" stroke="#fffff0" d="M12,-121C6,-121 0,-115 0,-109"/>
<path fill="#fffff0" stroke="#fffff0" d="M0,-97C0,-91 6,-85 12,-85"/>
<polyline fill="none" stroke="black" points="12,-85 94,-85 "/>
<path fill="none" stroke="black" d="M94,-85C100,-85 106,-91 106,-97"/>
<polyline fill="none" stroke="black" points="106,-97 106,-109 "/>
<path fill="none" stroke="black" d="M106,-109C106,-115 100,-121 94,-121"/>
<polyline fill="none" stroke="black" points="94,-121 12,-121 "/>
<path fill="none" stroke="black" d="M12,-121C6,-121 0,-115 0,-109"/>
<polyline fill="none" stroke="black" points="0,-109 0,-97 "/>
<path fill="none" stroke="black" d="M0,-97C0,-91 6,-85 12,-85"/>
<text text-anchor="middle" x="53" y="-109.8" font-family="FreeSans" font-size="8.00">Node[5]</text>
<polyline fill="none" stroke="black" points="0,-103 106,-103 "/>
<text text-anchor="start" x="8" y="-91.8" font-family="FreeSans" font-size="8.00">&#39;name&#39; = &#39;Jill&#39; : String</text>
</g>
<!-- N5&#45;&gt;N4 -->
<g id="edge10" class="edge"><title>N5&#45;&gt;N4</title>
<path fill="none" stroke="black" d="M71.9518,-84.8748C82.3575,-75.5129 95.8007,-64.3373 109,-56 117.94,-50.3529 127.886,-45.0821 137.66,-40.3896"/>
<polygon fill="black" stroke="black" points="144.731,-37.0779 139.371,-43.3155 141.335,-38.6685 137.939,-40.2591 137.939,-40.2591 137.939,-40.2591 141.335,-38.6685 136.508,-37.2027 144.731,-37.0779 144.731,-37.0779"/>
<text text-anchor="middle" x="125.5" y="-58.8" font-family="FreeSans" font-size="8.00">favorite</text>
</g>
<!-- N6 -->
<g id="node11" class="node"><title>N6</title>
<polygon fill="#fffff0" stroke="#fffff0" points="241,-169 327,-169 339,-181 339,-193 327,-205 241,-205 229,-193 229,-181 241,-169"/>
<path fill="#fffff0" stroke="#fffff0" d="M327,-169C333,-169 339,-175 339,-181"/>
<path fill="#fffff0" stroke="#fffff0" d="M339,-193C339,-199 333,-205 327,-205"/>
<path fill="#fffff0" stroke="#fffff0" d="M241,-205C235,-205 229,-199 229,-193"/>
<path fill="#fffff0" stroke="#fffff0" d="M229,-181C229,-175 235,-169 241,-169"/>
<polyline fill="none" stroke="black" points="241,-169 327,-169 "/>
<path fill="none" stroke="black" d="M327,-169C333,-169 339,-175 339,-181"/>
<polyline fill="none" stroke="black" points="339,-181 339,-193 "/>
<path fill="none" stroke="black" d="M339,-193C339,-199 333,-205 327,-205"/>
<polyline fill="none" stroke="black" points="327,-205 241,-205 "/>
<path fill="none" stroke="black" d="M241,-205C235,-205 229,-199 229,-193"/>
<polyline fill="none" stroke="black" points="229,-193 229,-181 "/>
<path fill="none" stroke="black" d="M229,-181C229,-175 235,-169 241,-169"/>
<text text-anchor="middle" x="284" y="-193.8" font-family="FreeSans" font-size="8.00">Node[6]</text>
<polyline fill="none" stroke="black" points="229,-187 339,-187 "/>
<text text-anchor="start" x="237" y="-175.8" font-family="FreeSans" font-size="8.00">&#39;name&#39; = &#39;Joe&#39; : String</text>
</g>
<!-- N6&#45;&gt;N1 -->
<g id="edge16" class="edge"><title>N6&#45;&gt;N1</title>
<path fill="none" stroke="black" d="M284,-168.773C284,-157.105 284,-141.787 284,-128.87"/>
<polygon fill="black" stroke="black" points="284,-121.191 287.375,-128.691 284,-124.941 284,-128.691 284,-128.691 284,-128.691 284,-124.941 280.625,-128.691 284,-121.191 284,-121.191"/>
<text text-anchor="middle" x="296.5" y="-142.8" font-family="FreeSans" font-size="8.00">friend</text>
</g>
<!-- N6&#45;&gt;N2 -->
<g id="edge12" class="edge"><title>N6&#45;&gt;N2</title>
<path fill="none" stroke="black" d="M339.189,-178.976C399.762,-168.908 491.202,-149.556 512,-122 533.005,-94.1699 499.743,-62.1614 470.372,-41.3095"/>
<polygon fill="black" stroke="black" points="464.185,-37.0347 472.274,-38.5211 467.27,-39.1663 470.355,-41.2978 470.355,-41.2978 470.355,-41.2978 467.27,-39.1663 468.437,-44.0746 464.185,-37.0347 464.185,-37.0347"/>
<text text-anchor="middle" x="534.5" y="-100.8" font-family="FreeSans" font-size="8.00">favorite</text>
</g>
<!-- N6&#45;&gt;N4 -->
<g id="edge14" class="edge"><title>N6&#45;&gt;N4</title>
<path fill="none" stroke="black" d="M233.158,-168.874C212.161,-158.578 189.969,-143.379 178,-122 164.627,-98.1116 171.376,-66.2587 179.06,-44.3329"/>
<polygon fill="black" stroke="black" points="181.786,-37.0208 182.328,-45.2273 180.476,-40.5346 179.166,-44.0485 179.166,-44.0485 179.166,-44.0485 180.476,-40.5346 176.004,-42.8696 181.786,-37.0208 181.786,-37.0208"/>
<text text-anchor="middle" x="194.5" y="-100.8" font-family="FreeSans" font-size="8.00">favorite</text>
</g>
</g>
</svg>
