<?xml version="1.0" encoding="UTF-8" standalone="no"?>
<!DOCTYPE svg PUBLIC "-//W3C//DTD SVG 1.1//EN"
 "http://www.w3.org/Graphics/SVG/1.1/DTD/svg11.dtd">
<!-- Generated by graphviz version 2.26.3 (20100126.1600)
 -->
<!-- Title: g Pages: 1 -->
<svg width="110pt" height="264pt"
 viewBox="0.00 0.00 110.00 264.00" xmlns="http://www.w3.org/2000/svg" xmlns:xlink="http://www.w3.org/1999/xlink">
<g id="graph1" class="graph" transform="scale(1 1) rotate(0) translate(4 260)">
<title>g</title>
<polygon fill="white" stroke="white" points="-4,5 -4,-260 107,-260 107,5 -4,5"/>
<!-- N1 -->
<g id="node1" class="node"><title>N1</title>
<polygon fill="#fffff0" stroke="#fffff0" points="12,-199 90,-199 102,-211 102,-243 90,-255 12,-255 0,-243 0,-211 12,-199"/>
<path fill="#fffff0" stroke="#fffff0" d="M90,-199C96,-199 102,-205 102,-211"/>
<path fill="#fffff0" stroke="#fffff0" d="M102,-243C102,-249 96,-255 90,-255"/>
<path fill="#fffff0" stroke="#fffff0" d="M12,-255C6,-255 0,-249 0,-243"/>
<path fill="#fffff0" stroke="#fffff0" d="M0,-211C0,-205 6,-199 12,-199"/>
<polyline fill="none" stroke="black" points="12,-199 90,-199 "/>
<path fill="none" stroke="black" d="M90,-199C96,-199 102,-205 102,-211"/>
<polyline fill="none" stroke="black" points="102,-211 102,-243 "/>
<path fill="none" stroke="black" d="M102,-243C102,-249 96,-255 90,-255"/>
<polyline fill="none" stroke="black" points="90,-255 12,-255 "/>
<path fill="none" stroke="black" d="M12,-255C6,-255 0,-249 0,-243"/>
<polyline fill="none" stroke="black" points="0,-243 0,-211 "/>
<path fill="none" stroke="black" d="M0,-211C0,-205 6,-199 12,-199"/>
<text text-anchor="middle" x="51" y="-243.8" font-family="FreeSans" font-size="8.00">Node[1]</text>
<polyline fill="none" stroke="black" points="0,-237 102,-237 "/>
<text text-anchor="start" x="8" y="-225.8" font-family="FreeSans" font-size="8.00">&#39;name&#39; = &#39;A&#39; : String</text>
<text text-anchor="start" x="8" y="-215.8" font-family="FreeSans" font-size="8.00">&#39;age&#39; = 34 : int</text>
<text text-anchor="start" x="8" y="-205.8" font-family="FreeSans" font-size="8.00">&#39;length&#39; = 170 : int</text>
</g>
<!-- N2 -->
<g id="node3" class="node"><title>N2</title>
<polygon fill="#fffff0" stroke="#fffff0" points="11.5,-105 90.5,-105 102.5,-117 102.5,-139 90.5,-151 11.5,-151 -0.5,-139 -0.5,-117 11.5,-105"/>
<path fill="#fffff0" stroke="#fffff0" d="M90.5,-105C96.5,-105 102.5,-111 102.5,-117"/>
<path fill="#fffff0" stroke="#fffff0" d="M102.5,-139C102.5,-145 96.5,-151 90.5,-151"/>
<path fill="#fffff0" stroke="#fffff0" d="M11.5,-151C5.5,-151 -0.5,-145 -0.5,-139"/>
<path fill="#fffff0" stroke="#fffff0" d="M-0.5,-117C-0.5,-111 5.5,-105 11.5,-105"/>
<polyline fill="none" stroke="black" points="11.5,-105 90.5,-105 "/>
<path fill="none" stroke="black" d="M90.5,-105C96.5,-105 102.5,-111 102.5,-117"/>
<polyline fill="none" stroke="black" points="102.5,-117 102.5,-139 "/>
<path fill="none" stroke="black" d="M102.5,-139C102.5,-145 96.5,-151 90.5,-151"/>
<polyline fill="none" stroke="black" points="90.5,-151 11.5,-151 "/>
<path fill="none" stroke="black" d="M11.5,-151C5.5,-151 -0.5,-145 -0.5,-139"/>
<polyline fill="none" stroke="black" points="-0.5,-139 -0.5,-117 "/>
<path fill="none" stroke="black" d="M-0.5,-117C-0.5,-111 5.5,-105 11.5,-105"/>
<text text-anchor="middle" x="51" y="-139.8" font-family="FreeSans" font-size="8.00">Node[2]</text>
<polyline fill="none" stroke="black" points="-0.5,-133 102.5,-133 "/>
<text text-anchor="start" x="7.5" y="-121.8" font-family="FreeSans" font-size="8.00">&#39;name&#39; = &#39;B&#39; : String</text>
<text text-anchor="start" x="7.5" y="-111.8" font-family="FreeSans" font-size="8.00">&#39;age&#39; = 34 : int</text>
</g>
<!-- N1&#45;&gt;N2 -->
<g id="edge2" class="edge"><title>N1&#45;&gt;N2</title>
<path fill="none" stroke="black" d="M51,-198.895C51,-186.398 51,-171.647 51,-158.845"/>
<polygon fill="black" stroke="black" points="51,-151.164 54.3751,-158.664 51,-154.914 51.0001,-158.664 51.0001,-158.664 51.0001,-158.664 51,-154.914 47.6251,-158.664 51,-151.164 51,-151.164"/>
<text text-anchor="middle" x="66.5" y="-172.8" font-family="FreeSans" font-size="8.00">KNOWS</text>
</g>
<!-- N3 -->
<g id="node5" class="node"><title>N3</title>
<polygon fill="#fffff0" stroke="#fffff0" points="11.5,-1 90.5,-1 102.5,-13 102.5,-45 90.5,-57 11.5,-57 -0.5,-45 -0.5,-13 11.5,-1"/>
<path fill="#fffff0" stroke="#fffff0" d="M90.5,-1C96.5,-1 102.5,-7 102.5,-13"/>
<path fill="#fffff0" stroke="#fffff0" d="M102.5,-45C102.5,-51 96.5,-57 90.5,-57"/>
<path fill="#fffff0" stroke="#fffff0" d="M11.5,-57C5.5,-57 -0.5,-51 -0.5,-45"/>
<path fill="#fffff0" stroke="#fffff0" d="M-0.5,-13C-0.5,-7 5.5,-1 11.5,-1"/>
<polyline fill="none" stroke="black" points="11.5,-1 90.5,-1 "/>
<path fill="none" stroke="black" d="M90.5,-1C96.5,-1 102.5,-7 102.5,-13"/>
<polyline fill="none" stroke="black" points="102.5,-13 102.5,-45 "/>
<path fill="none" stroke="black" d="M102.5,-45C102.5,-51 96.5,-57 90.5,-57"/>
<polyline fill="none" stroke="black" points="90.5,-57 11.5,-57 "/>
<path fill="none" stroke="black" d="M11.5,-57C5.5,-57 -0.5,-51 -0.5,-45"/>
<polyline fill="none" stroke="black" points="-0.5,-45 -0.5,-13 "/>
<path fill="none" stroke="black" d="M-0.5,-13C-0.5,-7 5.5,-1 11.5,-1"/>
<text text-anchor="middle" x="51" y="-45.8" font-family="FreeSans" font-size="8.00">Node[3]</text>
<polyline fill="none" stroke="black" points="-0.5,-39 102.5,-39 "/>
<text text-anchor="start" x="7.5" y="-27.8" font-family="FreeSans" font-size="8.00">&#39;name&#39; = &#39;C&#39; : String</text>
<text text-anchor="start" x="7.5" y="-17.8" font-family="FreeSans" font-size="8.00">&#39;age&#39; = 32 : int</text>
<text text-anchor="start" x="7.5" y="-7.8" font-family="FreeSans" font-size="8.00">&#39;length&#39; = 185 : int</text>
</g>
<!-- N2&#45;&gt;N3 -->
<g id="edge4" class="edge"><title>N2&#45;&gt;N3</title>
<path fill="none" stroke="black" d="M51,-104.789C51,-92.8452 51,-78.0249 51,-64.6661"/>
<polygon fill="black" stroke="black" points="51,-57.0024 54.3751,-64.5023 51,-60.7524 51.0001,-64.5024 51.0001,-64.5024 51.0001,-64.5024 51,-60.7524 47.6251,-64.5024 51,-57.0024 51,-57.0024"/>
<text text-anchor="middle" x="66.5" y="-78.8" font-family="FreeSans" font-size="8.00">KNOWS</text>
</g>
</g>
</svg>
