<?xml version="1.0" encoding="UTF-8" standalone="no"?>
<!DOCTYPE svg PUBLIC "-//W3C//DTD SVG 1.1//EN"
 "http://www.w3.org/Graphics/SVG/1.1/DTD/svg11.dtd">
<!-- Generated by graphviz version 2.26.3 (20100126.1600)
 -->
<!-- Title: g Pages: 1 -->
<svg width="241pt" height="130pt"
 viewBox="0.00 0.00 241.00 130.00" xmlns="http://www.w3.org/2000/svg" xmlns:xlink="http://www.w3.org/1999/xlink">
<g id="graph1" class="graph" transform="scale(1 1) rotate(0) translate(4 126)">
<title>g</title>
<polygon fill="white" stroke="white" points="-4,5 -4,-126 238,-126 238,5 -4,5"/>
<!-- N1 -->
<g id="node1" class="node"><title>N1</title>
<polygon fill="#fffff0" stroke="#fffff0" points="77,-85 155,-85 167,-97 167,-109 155,-121 77,-121 65,-109 65,-97 77,-85"/>
<path fill="#fffff0" stroke="#fffff0" d="M155,-85C161,-85 167,-91 167,-97"/>
<path fill="#fffff0" stroke="#fffff0" d="M167,-109C167,-115 161,-121 155,-121"/>
<path fill="#fffff0" stroke="#fffff0" d="M77,-121C71,-121 65,-115 65,-109"/>
<path fill="#fffff0" stroke="#fffff0" d="M65,-97C65,-91 71,-85 77,-85"/>
<polyline fill="none" stroke="black" points="77,-85 155,-85 "/>
<path fill="none" stroke="black" d="M155,-85C161,-85 167,-91 167,-97"/>
<polyline fill="none" stroke="black" points="167,-97 167,-109 "/>
<path fill="none" stroke="black" d="M167,-109C167,-115 161,-121 155,-121"/>
<polyline fill="none" stroke="black" points="155,-121 77,-121 "/>
<path fill="none" stroke="black" d="M77,-121C71,-121 65,-115 65,-109"/>
<polyline fill="none" stroke="black" points="65,-109 65,-97 "/>
<path fill="none" stroke="black" d="M65,-97C65,-91 71,-85 77,-85"/>
<text text-anchor="middle" x="116" y="-109.8" font-family="FreeSans" font-size="8.00">Node[1]</text>
<polyline fill="none" stroke="black" points="65,-103 167,-103 "/>
<text text-anchor="start" x="73" y="-91.8" font-family="FreeSans" font-size="8.00">&#39;name&#39; = &#39;A&#39; : String</text>
</g>
<!-- N2 -->
<g id="node3" class="node"><title>N2</title>
<polygon fill="#fffff0" stroke="#fffff0" points="11.5,-1 90.5,-1 102.5,-13 102.5,-25 90.5,-37 11.5,-37 -0.5,-25 -0.5,-13 11.5,-1"/>
<path fill="#fffff0" stroke="#fffff0" d="M90.5,-1C96.5,-1 102.5,-7 102.5,-13"/>
<path fill="#fffff0" stroke="#fffff0" d="M102.5,-25C102.5,-31 96.5,-37 90.5,-37"/>
<path fill="#fffff0" stroke="#fffff0" d="M11.5,-37C5.5,-37 -0.5,-31 -0.5,-25"/>
<path fill="#fffff0" stroke="#fffff0" d="M-0.5,-13C-0.5,-7 5.5,-1 11.5,-1"/>
<polyline fill="none" stroke="black" points="11.5,-1 90.5,-1 "/>
<path fill="none" stroke="black" d="M90.5,-1C96.5,-1 102.5,-7 102.5,-13"/>
<polyline fill="none" stroke="black" points="102.5,-13 102.5,-25 "/>
<path fill="none" stroke="black" d="M102.5,-25C102.5,-31 96.5,-37 90.5,-37"/>
<polyline fill="none" stroke="black" points="90.5,-37 11.5,-37 "/>
<path fill="none" stroke="black" d="M11.5,-37C5.5,-37 -0.5,-31 -0.5,-25"/>
<polyline fill="none" stroke="black" points="-0.5,-25 -0.5,-13 "/>
<path fill="none" stroke="black" d="M-0.5,-13C-0.5,-7 5.5,-1 11.5,-1"/>
<text text-anchor="middle" x="51" y="-25.8" font-family="FreeSans" font-size="8.00">Node[2]</text>
<polyline fill="none" stroke="black" points="-0.5,-19 102.5,-19 "/>
<text text-anchor="start" x="7.5" y="-7.8" font-family="FreeSans" font-size="8.00">&#39;name&#39; = &#39;B&#39; : String</text>
</g>
<!-- N1&#45;&gt;N2 -->
<g id="edge2" class="edge"><title>N1&#45;&gt;N2</title>
<path fill="none" stroke="black" d="M101.896,-84.7733C92.5265,-72.665 80.1155,-56.6261 69.895,-43.4181"/>
<polygon fill="black" stroke="black" points="65.0765,-37.1912 72.3356,-41.0573 67.3715,-40.157 69.6664,-43.1227 69.6664,-43.1227 69.6664,-43.1227 67.3715,-40.157 66.9972,-45.1882 65.0765,-37.1912 65.0765,-37.1912"/>
<text text-anchor="middle" x="101.5" y="-58.8" font-family="FreeSans" font-size="8.00">KNOWS</text>
</g>
<!-- N3 -->
<g id="node5" class="node"><title>N3</title>
<polygon fill="#fffff0" stroke="#fffff0" points="142.5,-1 221.5,-1 233.5,-13 233.5,-25 221.5,-37 142.5,-37 130.5,-25 130.5,-13 142.5,-1"/>
<path fill="#fffff0" stroke="#fffff0" d="M221.5,-1C227.5,-1 233.5,-7 233.5,-13"/>
<path fill="#fffff0" stroke="#fffff0" d="M233.5,-25C233.5,-31 227.5,-37 221.5,-37"/>
<path fill="#fffff0" stroke="#fffff0" d="M142.5,-37C136.5,-37 130.5,-31 130.5,-25"/>
<path fill="#fffff0" stroke="#fffff0" d="M130.5,-13C130.5,-7 136.5,-1 142.5,-1"/>
<polyline fill="none" stroke="black" points="142.5,-1 221.5,-1 "/>
<path fill="none" stroke="black" d="M221.5,-1C227.5,-1 233.5,-7 233.5,-13"/>
<polyline fill="none" stroke="black" points="233.5,-13 233.5,-25 "/>
<path fill="none" stroke="black" d="M233.5,-25C233.5,-31 227.5,-37 221.5,-37"/>
<polyline fill="none" stroke="black" points="221.5,-37 142.5,-37 "/>
<path fill="none" stroke="black" d="M142.5,-37C136.5,-37 130.5,-31 130.5,-25"/>
<polyline fill="none" stroke="black" points="130.5,-25 130.5,-13 "/>
<path fill="none" stroke="black" d="M130.5,-13C130.5,-7 136.5,-1 142.5,-1"/>
<text text-anchor="middle" x="182" y="-25.8" font-family="FreeSans" font-size="8.00">Node[3]</text>
<polyline fill="none" stroke="black" points="130.5,-19 233.5,-19 "/>
<text text-anchor="start" x="138.5" y="-7.8" font-family="FreeSans" font-size="8.00">&#39;name&#39; = &#39;C&#39; : String</text>
</g>
<!-- N1&#45;&gt;N3 -->
<g id="edge4" class="edge"><title>N1&#45;&gt;N3</title>
<path fill="none" stroke="black" d="M130.321,-84.7733C139.835,-72.665 152.437,-56.6261 162.814,-43.4181"/>
<polygon fill="black" stroke="black" points="167.707,-37.1912 165.727,-45.1737 165.39,-40.1399 163.073,-43.0886 163.073,-43.0886 163.073,-43.0886 165.39,-40.1399 160.419,-41.0034 167.707,-37.1912 167.707,-37.1912"/>
<text text-anchor="middle" x="165.5" y="-58.8" font-family="FreeSans" font-size="8.00">KNOWS</text>
</g>
</g>
</svg>
