<?xml version="1.0" encoding="UTF-8" standalone="no"?>
<!DOCTYPE svg PUBLIC "-//W3C//DTD SVG 1.1//EN"
 "http://www.w3.org/Graphics/SVG/1.1/DTD/svg11.dtd">
<!-- Generated by graphviz version 2.26.3 (20100126.1600)
 -->
<!-- Title: g Pages: 1 -->
<svg width="491pt" height="130pt"
 viewBox="0.00 0.00 491.00 130.00" xmlns="http://www.w3.org/2000/svg" xmlns:xlink="http://www.w3.org/1999/xlink">
<g id="graph1" class="graph" transform="scale(1 1) rotate(0) translate(4 126)">
<title>g</title>
<polygon fill="white" stroke="white" points="-4,5 -4,-126 488,-126 488,5 -4,5"/>
<!-- N1 -->
<g id="node1" class="node"><title>N1</title>
<polygon fill="#fffff0" stroke="#fffff0" points="28,-1 120,-1 132,-13 132,-25 120,-37 28,-37 16,-25 16,-13 28,-1"/>
<path fill="#fffff0" stroke="#fffff0" d="M120,-1C126,-1 132,-7 132,-13"/>
<path fill="#fffff0" stroke="#fffff0" d="M132,-25C132,-31 126,-37 120,-37"/>
<path fill="#fffff0" stroke="#fffff0" d="M28,-37C22,-37 16,-31 16,-25"/>
<path fill="#fffff0" stroke="#fffff0" d="M16,-13C16,-7 22,-1 28,-1"/>
<polyline fill="none" stroke="black" points="28,-1 120,-1 "/>
<path fill="none" stroke="black" d="M120,-1C126,-1 132,-7 132,-13"/>
<polyline fill="none" stroke="black" points="132,-13 132,-25 "/>
<path fill="none" stroke="black" d="M132,-25C132,-31 126,-37 120,-37"/>
<polyline fill="none" stroke="black" points="120,-37 28,-37 "/>
<path fill="none" stroke="black" d="M28,-37C22,-37 16,-31 16,-25"/>
<polyline fill="none" stroke="black" points="16,-25 16,-13 "/>
<path fill="none" stroke="black" d="M16,-13C16,-7 22,-1 28,-1"/>
<text text-anchor="middle" x="74" y="-25.8" font-family="FreeSans" font-size="8.00">Node[1]</text>
<polyline fill="none" stroke="black" points="16,-19 132,-19 "/>
<text text-anchor="start" x="24" y="-7.8" font-family="FreeSans" font-size="8.00">&#39;name&#39; = &#39;Pet1&#39; : String</text>
</g>
<!-- N2 -->
<g id="node2" class="node"><title>N2</title>
<polygon fill="#fffff0" stroke="#fffff0" points="349,-1 441,-1 453,-13 453,-25 441,-37 349,-37 337,-25 337,-13 349,-1"/>
<path fill="#fffff0" stroke="#fffff0" d="M441,-1C447,-1 453,-7 453,-13"/>
<path fill="#fffff0" stroke="#fffff0" d="M453,-25C453,-31 447,-37 441,-37"/>
<path fill="#fffff0" stroke="#fffff0" d="M349,-37C343,-37 337,-31 337,-25"/>
<path fill="#fffff0" stroke="#fffff0" d="M337,-13C337,-7 343,-1 349,-1"/>
<polyline fill="none" stroke="black" points="349,-1 441,-1 "/>
<path fill="none" stroke="black" d="M441,-1C447,-1 453,-7 453,-13"/>
<polyline fill="none" stroke="black" points="453,-13 453,-25 "/>
<path fill="none" stroke="black" d="M453,-25C453,-31 447,-37 441,-37"/>
<polyline fill="none" stroke="black" points="441,-37 349,-37 "/>
<path fill="none" stroke="black" d="M349,-37C343,-37 337,-31 337,-25"/>
<polyline fill="none" stroke="black" points="337,-25 337,-13 "/>
<path fill="none" stroke="black" d="M337,-13C337,-7 343,-1 349,-1"/>
<text text-anchor="middle" x="395" y="-25.8" font-family="FreeSans" font-size="8.00">Node[2]</text>
<polyline fill="none" stroke="black" points="337,-19 453,-19 "/>
<text text-anchor="start" x="345" y="-7.8" font-family="FreeSans" font-size="8.00">&#39;name&#39; = &#39;Pet2&#39; : String</text>
</g>
<!-- N3 -->
<g id="node3" class="node"><title>N3</title>
<polygon fill="#fffff0" stroke="#fffff0" points="200,-85 292,-85 304,-97 304,-109 292,-121 200,-121 188,-109 188,-97 200,-85"/>
<path fill="#fffff0" stroke="#fffff0" d="M292,-85C298,-85 304,-91 304,-97"/>
<path fill="#fffff0" stroke="#fffff0" d="M304,-109C304,-115 298,-121 292,-121"/>
<path fill="#fffff0" stroke="#fffff0" d="M200,-121C194,-121 188,-115 188,-109"/>
<path fill="#fffff0" stroke="#fffff0" d="M188,-97C188,-91 194,-85 200,-85"/>
<polyline fill="none" stroke="black" points="200,-85 292,-85 "/>
<path fill="none" stroke="black" d="M292,-85C298,-85 304,-91 304,-97"/>
<polyline fill="none" stroke="black" points="304,-97 304,-109 "/>
<path fill="none" stroke="black" d="M304,-109C304,-115 298,-121 292,-121"/>
<polyline fill="none" stroke="black" points="292,-121 200,-121 "/>
<path fill="none" stroke="black" d="M200,-121C194,-121 188,-115 188,-109"/>
<polyline fill="none" stroke="black" points="188,-109 188,-97 "/>
<path fill="none" stroke="black" d="M188,-97C188,-91 194,-85 200,-85"/>
<text text-anchor="middle" x="246" y="-109.8" font-family="FreeSans" font-size="8.00">Node[3]</text>
<polyline fill="none" stroke="black" points="188,-103 304,-103 "/>
<text text-anchor="start" x="196" y="-91.8" font-family="FreeSans" font-size="8.00">&#39;name&#39; = &#39;Pet0&#39; : String</text>
</g>
<!-- N3&#45;&gt;N1 -->
<g id="edge2" class="edge"><title>N3&#45;&gt;N1</title>
<path fill="none" stroke="black" d="M209.102,-84.9799C182.439,-71.9587 146.308,-54.3131 118.119,-40.5463"/>
<polygon fill="black" stroke="black" points="111.134,-37.135 119.354,-37.3937 114.503,-38.7807 117.873,-40.4264 117.873,-40.4264 117.873,-40.4264 114.503,-38.7807 116.392,-43.459 111.134,-37.135 111.134,-37.135"/>
<text text-anchor="middle" x="190" y="-58.8" font-family="FreeSans" font-size="8.00">descendant</text>
</g>
<!-- N3&#45;&gt;N2 -->
<g id="edge4" class="edge"><title>N3&#45;&gt;N2</title>
<path fill="none" stroke="black" d="M277.964,-84.9799C300.866,-72.0691 331.831,-54.6118 356.159,-40.8971"/>
<polygon fill="black" stroke="black" points="362.832,-37.135 357.956,-43.7583 359.565,-38.9767 356.299,-40.8183 356.299,-40.8183 356.299,-40.8183 359.565,-38.9767 354.641,-37.8783 362.832,-37.135 362.832,-37.135"/>
<text text-anchor="middle" x="349" y="-58.8" font-family="FreeSans" font-size="8.00">descendant</text>
</g>
<!-- N4 -->
<g id="node7" class="node"><title>N4</title>
<polygon fill="#fffff0" stroke="#fffff0" points="186,-1 278,-1 290,-13 290,-25 278,-37 186,-37 174,-25 174,-13 186,-1"/>
<path fill="#fffff0" stroke="#fffff0" d="M278,-1C284,-1 290,-7 290,-13"/>
<path fill="#fffff0" stroke="#fffff0" d="M290,-25C290,-31 284,-37 278,-37"/>
<path fill="#fffff0" stroke="#fffff0" d="M186,-37C180,-37 174,-31 174,-25"/>
<path fill="#fffff0" stroke="#fffff0" d="M174,-13C174,-7 180,-1 186,-1"/>
<polyline fill="none" stroke="black" points="186,-1 278,-1 "/>
<path fill="none" stroke="black" d="M278,-1C284,-1 290,-7 290,-13"/>
<polyline fill="none" stroke="black" points="290,-13 290,-25 "/>
<path fill="none" stroke="black" d="M290,-25C290,-31 284,-37 278,-37"/>
<polyline fill="none" stroke="black" points="278,-37 186,-37 "/>
<path fill="none" stroke="black" d="M186,-37C180,-37 174,-31 174,-25"/>
<polyline fill="none" stroke="black" points="174,-25 174,-13 "/>
<path fill="none" stroke="black" d="M174,-13C174,-7 180,-1 186,-1"/>
<text text-anchor="middle" x="232" y="-25.8" font-family="FreeSans" font-size="8.00">Node[4]</text>
<polyline fill="none" stroke="black" points="174,-19 290,-19 "/>
<text text-anchor="start" x="182" y="-7.8" font-family="FreeSans" font-size="8.00">&#39;name&#39; = &#39;Pet3&#39; : String</text>
</g>
<!-- N3&#45;&gt;N4 -->
<g id="edge6" class="edge"><title>N3&#45;&gt;N4</title>
<path fill="none" stroke="black" d="M242.962,-84.7733C241.018,-73.1053 238.465,-57.7874 236.312,-44.8699"/>
<polygon fill="black" stroke="black" points="235.032,-37.1912 239.594,-44.0343 235.648,-40.8902 236.265,-44.5891 236.265,-44.5891 236.265,-44.5891 235.648,-40.8902 232.936,-45.144 235.032,-37.1912 235.032,-37.1912"/>
<text text-anchor="middle" x="264" y="-58.8" font-family="FreeSans" font-size="8.00">descendant</text>
</g>
<!-- N5 -->
<g id="node8" class="node"><title>N5</title>
<polygon fill="#fffff0" stroke="#fffff0" points="12,-85 126,-85 138,-97 138,-109 126,-121 12,-121 0,-109 0,-97 12,-85"/>
<path fill="#fffff0" stroke="#fffff0" d="M126,-85C132,-85 138,-91 138,-97"/>
<path fill="#fffff0" stroke="#fffff0" d="M138,-109C138,-115 132,-121 126,-121"/>
<path fill="#fffff0" stroke="#fffff0" d="M12,-121C6,-121 0,-115 0,-109"/>
<path fill="#fffff0" stroke="#fffff0" d="M0,-97C0,-91 6,-85 12,-85"/>
<polyline fill="none" stroke="black" points="12,-85 126,-85 "/>
<path fill="none" stroke="black" d="M126,-85C132,-85 138,-91 138,-97"/>
<polyline fill="none" stroke="black" points="138,-97 138,-109 "/>
<path fill="none" stroke="black" d="M138,-109C138,-115 132,-121 126,-121"/>
<polyline fill="none" stroke="black" points="126,-121 12,-121 "/>
<path fill="none" stroke="black" d="M12,-121C6,-121 0,-115 0,-109"/>
<polyline fill="none" stroke="black" points="0,-109 0,-97 "/>
<path fill="none" stroke="black" d="M0,-97C0,-91 6,-85 12,-85"/>
<text text-anchor="middle" x="69" y="-109.8" font-family="FreeSans" font-size="8.00">Node[5]</text>
<polyline fill="none" stroke="black" points="0,-103 138,-103 "/>
<text text-anchor="start" x="8" y="-91.8" font-family="FreeSans" font-size="8.00">&#39;name&#39; = &#39;Principal1&#39; : String</text>
</g>
<!-- N5&#45;&gt;N1 -->
<g id="edge8" class="edge"><title>N5&#45;&gt;N1</title>
<path fill="none" stroke="black" d="M52.5784,-84.7219C46.9044,-76.2117 42.7039,-65.8176 46,-56 47.4454,-51.6948 49.612,-47.4914 52.1122,-43.5538"/>
<polygon fill="black" stroke="black" points="56.5661,-37.207 55.0205,-45.2849 54.412,-40.2766 52.2579,-43.3462 52.2579,-43.3462 52.2579,-43.3462 54.412,-40.2766 49.4952,-41.4074 56.5661,-37.207 56.5661,-37.207"/>
<text text-anchor="middle" x="57.5" y="-58.8" font-family="FreeSans" font-size="8.00">owns</text>
</g>
<!-- N5&#45;&gt;N4 -->
<g id="edge10" class="edge"><title>N5&#45;&gt;N4</title>
<path fill="none" stroke="black" d="M78.363,-84.5885C84.2145,-74.789 92.6132,-63.2894 103,-56 113.808,-48.4151 140.333,-40.2936 166.539,-33.5975"/>
<polygon fill="black" stroke="black" points="173.909,-31.7483 167.455,-36.8472 170.271,-32.661 166.634,-33.5737 166.634,-33.5737 166.634,-33.5737 170.271,-32.661 165.813,-30.3002 173.909,-31.7483 173.909,-31.7483"/>
<text text-anchor="middle" x="114.5" y="-58.8" font-family="FreeSans" font-size="8.00">owns</text>
</g>
<!-- N6 -->
<g id="node11" class="node"><title>N6</title>
<polygon fill="#fffff0" stroke="#fffff0" points="357,-85 471,-85 483,-97 483,-109 471,-121 357,-121 345,-109 345,-97 357,-85"/>
<path fill="#fffff0" stroke="#fffff0" d="M471,-85C477,-85 483,-91 483,-97"/>
<path fill="#fffff0" stroke="#fffff0" d="M483,-109C483,-115 477,-121 471,-121"/>
<path fill="#fffff0" stroke="#fffff0" d="M357,-121C351,-121 345,-115 345,-109"/>
<path fill="#fffff0" stroke="#fffff0" d="M345,-97C345,-91 351,-85 357,-85"/>
<polyline fill="none" stroke="black" points="357,-85 471,-85 "/>
<path fill="none" stroke="black" d="M471,-85C477,-85 483,-91 483,-97"/>
<polyline fill="none" stroke="black" points="483,-97 483,-109 "/>
<path fill="none" stroke="black" d="M483,-109C483,-115 477,-121 471,-121"/>
<polyline fill="none" stroke="black" points="471,-121 357,-121 "/>
<path fill="none" stroke="black" d="M357,-121C351,-121 345,-115 345,-109"/>
<polyline fill="none" stroke="black" points="345,-109 345,-97 "/>
<path fill="none" stroke="black" d="M345,-97C345,-91 351,-85 357,-85"/>
<text text-anchor="middle" x="414" y="-109.8" font-family="FreeSans" font-size="8.00">Node[6]</text>
<polyline fill="none" stroke="black" points="345,-103 483,-103 "/>
<text text-anchor="start" x="353" y="-91.8" font-family="FreeSans" font-size="8.00">&#39;name&#39; = &#39;Principal2&#39; : String</text>
</g>
<!-- N6&#45;&gt;N2 -->
<g id="edge12" class="edge"><title>N6&#45;&gt;N2</title>
<path fill="none" stroke="black" d="M409.877,-84.7733C407.238,-73.1053 403.773,-57.7874 400.852,-44.8699"/>
<polygon fill="black" stroke="black" points="399.115,-37.1912 404.061,-43.7618 399.942,-40.8488 400.769,-44.5064 400.769,-44.5064 400.769,-44.5064 399.942,-40.8488 397.478,-45.251 399.115,-37.1912 399.115,-37.1912"/>
<text text-anchor="middle" x="416.5" y="-58.8" font-family="FreeSans" font-size="8.00">owns</text>
</g>
</g>
</svg>
