<?xml version="1.0" encoding="UTF-8" standalone="no"?>
<!DOCTYPE svg PUBLIC "-//W3C//DTD SVG 1.1//EN"
 "http://www.w3.org/Graphics/SVG/1.1/DTD/svg11.dtd">
<!-- Generated by graphviz version 2.26.3 (20100126.1600)
 -->
<!-- Title: g Pages: 1 -->
<svg width="125pt" height="302pt"
 viewBox="0.00 0.00 125.00 302.00" xmlns="http://www.w3.org/2000/svg" xmlns:xlink="http://www.w3.org/1999/xlink">
<g id="graph1" class="graph" transform="scale(1 1) rotate(0) translate(4 298)">
<title>g</title>
<polygon fill="white" stroke="white" points="-4,5 -4,-298 122,-298 122,5 -4,5"/>
<!-- A -->
<g id="node1" class="node"><title>A</title>
<polygon fill="#fffff0" stroke="#fffff0" points="104,-294 74,-294 62,-282 62,-270 74,-258 104,-258 116,-270 116,-282 104,-294"/>
<path fill="#fffff0" stroke="#fffff0" d="M74,-294C68,-294 62,-288 62,-282"/>
<path fill="#fffff0" stroke="#fffff0" d="M62,-270C62,-264 68,-258 74,-258"/>
<path fill="#fffff0" stroke="#fffff0" d="M104,-258C110,-258 116,-264 116,-270"/>
<path fill="#fffff0" stroke="#fffff0" d="M116,-282C116,-288 110,-294 104,-294"/>
<polyline fill="none" stroke="black" points="104,-294 74,-294 "/>
<path fill="none" stroke="black" d="M74,-294C68,-294 62,-288 62,-282"/>
<polyline fill="none" stroke="black" points="62,-282 62,-270 "/>
<path fill="none" stroke="black" d="M62,-270C62,-264 68,-258 74,-258"/>
<polyline fill="none" stroke="black" points="74,-258 104,-258 "/>
<path fill="none" stroke="black" d="M104,-258C110,-258 116,-264 116,-270"/>
<polyline fill="none" stroke="black" points="116,-270 116,-282 "/>
<path fill="none" stroke="black" d="M116,-282C116,-288 110,-294 104,-294"/>
<text text-anchor="middle" x="89" y="-273.5" font-family="FreeSans" font-size="10.00">A</text>
</g>
<!-- B -->
<g id="node3" class="node"><title>B</title>
<polygon fill="#fffff0" stroke="#fffff0" points="42,-208 12,-208 1.42109e-14,-196 7.10543e-15,-184 12,-172 42,-172 54,-184 54,-196 42,-208"/>
<path fill="#fffff0" stroke="#fffff0" d="M12,-208C6,-208 1.77636e-14,-202 1.42109e-14,-196"/>
<path fill="#fffff0" stroke="#fffff0" d="M7.10543e-15,-184C3.55271e-15,-178 6,-172 12,-172"/>
<path fill="#fffff0" stroke="#fffff0" d="M42,-172C48,-172 54,-178 54,-184"/>
<path fill="#fffff0" stroke="#fffff0" d="M54,-196C54,-202 48,-208 42,-208"/>
<polyline fill="none" stroke="black" points="42,-208 12,-208 "/>
<path fill="none" stroke="black" d="M12,-208C6,-208 1.77636e-14,-202 1.42109e-14,-196"/>
<polyline fill="none" stroke="black" points="1.42109e-14,-196 7.10543e-15,-184 "/>
<path fill="none" stroke="black" d="M7.10543e-15,-184C3.55271e-15,-178 6,-172 12,-172"/>
<polyline fill="none" stroke="black" points="12,-172 42,-172 "/>
<path fill="none" stroke="black" d="M42,-172C48,-172 54,-178 54,-184"/>
<polyline fill="none" stroke="black" points="54,-184 54,-196 "/>
<path fill="none" stroke="black" d="M54,-196C54,-202 48,-208 42,-208"/>
<text text-anchor="middle" x="27" y="-187.5" font-family="FreeSans" font-size="10.00">B</text>
</g>
<!-- A&#45;&gt;B -->
<g id="edge2" class="edge"><title>A&#45;&gt;B</title>
<path fill="none" stroke="mediumblue" d="M75.8514,-257.762C66.7272,-245.105 54.4732,-228.108 44.5209,-214.303"/>
<polygon fill="mediumblue" stroke="mediumblue" points="40.1297,-208.212 47.2534,-212.322 42.3227,-211.254 44.5157,-214.296 44.5157,-214.296 44.5157,-214.296 42.3227,-211.254 41.778,-216.27 40.1297,-208.212 40.1297,-208.212"/>
<text text-anchor="middle" x="74" y="-230.5" font-family="FreeSans" font-size="10.00" fill="mediumblue">REL1</text>
</g>
<!-- C -->
<g id="node5" class="node"><title>C</title>
<polygon fill="#fffff0" stroke="#fffff0" points="95,-122 65,-122 53,-110 53,-98 65,-86 95,-86 107,-98 107,-110 95,-122"/>
<path fill="#fffff0" stroke="#fffff0" d="M65,-122C59,-122 53,-116 53,-110"/>
<path fill="#fffff0" stroke="#fffff0" d="M53,-98C53,-92 59,-86 65,-86"/>
<path fill="#fffff0" stroke="#fffff0" d="M95,-86C101,-86 107,-92 107,-98"/>
<path fill="#fffff0" stroke="#fffff0" d="M107,-110C107,-116 101,-122 95,-122"/>
<polyline fill="none" stroke="black" points="95,-122 65,-122 "/>
<path fill="none" stroke="black" d="M65,-122C59,-122 53,-116 53,-110"/>
<polyline fill="none" stroke="black" points="53,-110 53,-98 "/>
<path fill="none" stroke="black" d="M53,-98C53,-92 59,-86 65,-86"/>
<polyline fill="none" stroke="black" points="65,-86 95,-86 "/>
<path fill="none" stroke="black" d="M95,-86C101,-86 107,-92 107,-98"/>
<polyline fill="none" stroke="black" points="107,-98 107,-110 "/>
<path fill="none" stroke="black" d="M107,-110C107,-116 101,-122 95,-122"/>
<text text-anchor="middle" x="80" y="-101.5" font-family="FreeSans" font-size="10.00">C</text>
</g>
<!-- A&#45;&gt;C -->
<g id="edge4" class="edge"><title>A&#45;&gt;C</title>
<path fill="none" stroke="black" d="M91.4276,-257.719C92.0735,-252.051 92.6801,-245.777 93,-240 94.8034,-207.439 92.0687,-169.217 88,-140 87.5303,-136.627 86.9105,-133.102 86.2231,-129.633"/>
<polygon fill="black" stroke="black" points="84.6427,-122.211 89.5057,-128.843 85.4237,-125.879 86.2047,-129.546 86.2047,-129.546 86.2047,-129.546 85.4237,-125.879 82.9037,-130.249 84.6427,-122.211 84.6427,-122.211"/>
<text text-anchor="middle" x="105" y="-187.5" font-family="FreeSans" font-size="10.00">REL2</text>
</g>
<!-- B&#45;&gt;C -->
<g id="edge6" class="edge"><title>B&#45;&gt;C</title>
<path fill="none" stroke="mediumblue" d="M38.2399,-171.762C45.9694,-159.219 56.3264,-142.414 64.7921,-128.677"/>
<polygon fill="mediumblue" stroke="mediumblue" points="68.7763,-122.212 67.7146,-130.368 66.8088,-125.405 64.8413,-128.597 64.8413,-128.597 64.8413,-128.597 66.8088,-125.405 61.9681,-126.826 68.7763,-122.212 68.7763,-122.212"/>
<text text-anchor="middle" x="69" y="-144.5" font-family="FreeSans" font-size="10.00" fill="mediumblue">REL2</text>
</g>
<!-- D -->
<g id="node8" class="node"><title>D</title>
<polygon fill="#fffff0" stroke="#fffff0" points="95,-36 65,-36 53,-24 53,-12 65,-1.46056e-14 95,-6.71068e-15 107,-12 107,-24 95,-36"/>
<path fill="#fffff0" stroke="#fffff0" d="M65,-36C59,-36 53,-30 53,-24"/>
<path fill="#fffff0" stroke="#fffff0" d="M53,-12C53,-6 59,-1.61846e-14 65,-1.46056e-14"/>
<path fill="#fffff0" stroke="#fffff0" d="M95,-6.71068e-15C101,-5.1317e-15 107,-6 107,-12"/>
<path fill="#fffff0" stroke="#fffff0" d="M107,-24C107,-30 101,-36 95,-36"/>
<polyline fill="none" stroke="black" points="95,-36 65,-36 "/>
<path fill="none" stroke="black" d="M65,-36C59,-36 53,-30 53,-24"/>
<polyline fill="none" stroke="black" points="53,-24 53,-12 "/>
<path fill="none" stroke="black" d="M53,-12C53,-6 59,-1.61846e-14 65,-1.46056e-14"/>
<polyline fill="none" stroke="black" points="65,-1.46056e-14 95,-6.71068e-15 "/>
<path fill="none" stroke="black" d="M95,-6.71068e-15C101,-5.1317e-15 107,-6 107,-12"/>
<polyline fill="none" stroke="black" points="107,-12 107,-24 "/>
<path fill="none" stroke="black" d="M107,-24C107,-30 101,-36 95,-36"/>
<text text-anchor="middle" x="80" y="-15.5" font-family="FreeSans" font-size="10.00">D</text>
</g>
<!-- C&#45;&gt;D -->
<g id="edge8" class="edge"><title>C&#45;&gt;D</title>
<path fill="none" stroke="mediumblue" d="M80,-85.7616C80,-73.5615 80,-57.3273 80,-43.8076"/>
<polygon fill="mediumblue" stroke="mediumblue" points="80,-36.2121 83.3751,-43.7121 80,-39.9621 80.0001,-43.7121 80.0001,-43.7121 80.0001,-43.7121 80,-39.9621 76.6251,-43.7121 80,-36.2121 80,-36.2121"/>
<text text-anchor="middle" x="92" y="-58.5" font-family="FreeSans" font-size="10.00" fill="mediumblue">REL3</text>
</g>
</g>
</svg>
