<?xml version="1.0" encoding="UTF-8" standalone="no"?>
<!DOCTYPE svg PUBLIC "-//W3C//DTD SVG 1.1//EN"
 "http://www.w3.org/Graphics/SVG/1.1/DTD/svg11.dtd">
<!-- Generated by graphviz version 2.26.3 (20100126.1600)
 -->
<!-- Title: g Pages: 1 -->
<svg width="277pt" height="214pt"
 viewBox="0.00 0.00 277.00 214.00" xmlns="http://www.w3.org/2000/svg" xmlns:xlink="http://www.w3.org/1999/xlink">
<g id="graph1" class="graph" transform="scale(1 1) rotate(0) translate(4 210)">
<title>g</title>
<polygon fill="white" stroke="white" points="-4,5 -4,-210 274,-210 274,5 -4,5"/>
<!-- N1 -->
<g id="node1" class="node"><title>N1</title>
<polygon fill="#fffff0" stroke="#fffff0" points="15.5,-85 108.5,-85 120.5,-97 120.5,-109 108.5,-121 15.5,-121 3.5,-109 3.5,-97 15.5,-85"/>
<path fill="#fffff0" stroke="#fffff0" d="M108.5,-85C114.5,-85 120.5,-91 120.5,-97"/>
<path fill="#fffff0" stroke="#fffff0" d="M120.5,-109C120.5,-115 114.5,-121 108.5,-121"/>
<path fill="#fffff0" stroke="#fffff0" d="M15.5,-121C9.5,-121 3.5,-115 3.5,-109"/>
<path fill="#fffff0" stroke="#fffff0" d="M3.5,-97C3.5,-91 9.5,-85 15.5,-85"/>
<polyline fill="none" stroke="black" points="15.5,-85 108.5,-85 "/>
<path fill="none" stroke="black" d="M108.5,-85C114.5,-85 120.5,-91 120.5,-97"/>
<polyline fill="none" stroke="black" points="120.5,-97 120.5,-109 "/>
<path fill="none" stroke="black" d="M120.5,-109C120.5,-115 114.5,-121 108.5,-121"/>
<polyline fill="none" stroke="black" points="108.5,-121 15.5,-121 "/>
<path fill="none" stroke="black" d="M15.5,-121C9.5,-121 3.5,-115 3.5,-109"/>
<polyline fill="none" stroke="black" points="3.5,-109 3.5,-97 "/>
<path fill="none" stroke="black" d="M3.5,-97C3.5,-91 9.5,-85 15.5,-85"/>
<text text-anchor="middle" x="62" y="-109.8" font-family="FreeSans" font-size="8.00">Node[1]</text>
<polyline fill="none" stroke="black" points="3.5,-103 120.5,-103 "/>
<text text-anchor="start" x="11.5" y="-91.8" font-family="FreeSans" font-size="8.00">&#39;name&#39; = &#39;Sara&#39; : String</text>
</g>
<!-- N2 -->
<g id="node3" class="node"><title>N2</title>
<polygon fill="#fffff0" stroke="#fffff0" points="12,-1 108,-1 120,-13 120,-25 108,-37 12,-37 0,-25 0,-13 12,-1"/>
<path fill="#fffff0" stroke="#fffff0" d="M108,-1C114,-1 120,-7 120,-13"/>
<path fill="#fffff0" stroke="#fffff0" d="M120,-25C120,-31 114,-37 108,-37"/>
<path fill="#fffff0" stroke="#fffff0" d="M12,-37C6,-37 0,-31 0,-25"/>
<path fill="#fffff0" stroke="#fffff0" d="M0,-13C0,-7 6,-1 12,-1"/>
<polyline fill="none" stroke="black" points="12,-1 108,-1 "/>
<path fill="none" stroke="black" d="M108,-1C114,-1 120,-7 120,-13"/>
<polyline fill="none" stroke="black" points="120,-13 120,-25 "/>
<path fill="none" stroke="black" d="M120,-25C120,-31 114,-37 108,-37"/>
<polyline fill="none" stroke="black" points="108,-37 12,-37 "/>
<path fill="none" stroke="black" d="M12,-37C6,-37 0,-31 0,-25"/>
<polyline fill="none" stroke="black" points="0,-25 0,-13 "/>
<path fill="none" stroke="black" d="M0,-13C0,-7 6,-1 12,-1"/>
<text text-anchor="middle" x="60" y="-25.8" font-family="FreeSans" font-size="8.00">Node[2]</text>
<polyline fill="none" stroke="black" points="0,-19 120,-19 "/>
<text text-anchor="start" x="8" y="-7.8" font-family="FreeSans" font-size="8.00">&#39;name&#39; = &#39;Maria&#39; : String</text>
</g>
<!-- N1&#45;&gt;N2 -->
<g id="edge2" class="edge"><title>N1&#45;&gt;N2</title>
<path fill="none" stroke="black" d="M61.566,-84.7733C61.2882,-73.1053 60.9235,-57.7874 60.6159,-44.8699"/>
<polygon fill="black" stroke="black" points="60.4331,-37.1912 63.9858,-44.6087 60.5224,-40.9401 60.6117,-44.6891 60.6117,-44.6891 60.6117,-44.6891 60.5224,-40.9401 57.2377,-44.7694 60.4331,-37.1912 60.4331,-37.1912"/>
<text text-anchor="middle" x="74.5" y="-58.8" font-family="FreeSans" font-size="8.00">friend</text>
</g>
<!-- N3 -->
<g id="node4" class="node"><title>N3</title>
<polygon fill="#fffff0" stroke="#fffff0" points="160.5,-1 257.5,-1 269.5,-13 269.5,-25 257.5,-37 160.5,-37 148.5,-25 148.5,-13 160.5,-1"/>
<path fill="#fffff0" stroke="#fffff0" d="M257.5,-1C263.5,-1 269.5,-7 269.5,-13"/>
<path fill="#fffff0" stroke="#fffff0" d="M269.5,-25C269.5,-31 263.5,-37 257.5,-37"/>
<path fill="#fffff0" stroke="#fffff0" d="M160.5,-37C154.5,-37 148.5,-31 148.5,-25"/>
<path fill="#fffff0" stroke="#fffff0" d="M148.5,-13C148.5,-7 154.5,-1 160.5,-1"/>
<polyline fill="none" stroke="black" points="160.5,-1 257.5,-1 "/>
<path fill="none" stroke="black" d="M257.5,-1C263.5,-1 269.5,-7 269.5,-13"/>
<polyline fill="none" stroke="black" points="269.5,-13 269.5,-25 "/>
<path fill="none" stroke="black" d="M269.5,-25C269.5,-31 263.5,-37 257.5,-37"/>
<polyline fill="none" stroke="black" points="257.5,-37 160.5,-37 "/>
<path fill="none" stroke="black" d="M160.5,-37C154.5,-37 148.5,-31 148.5,-25"/>
<polyline fill="none" stroke="black" points="148.5,-25 148.5,-13 "/>
<path fill="none" stroke="black" d="M148.5,-13C148.5,-7 154.5,-1 160.5,-1"/>
<text text-anchor="middle" x="209" y="-25.8" font-family="FreeSans" font-size="8.00">Node[3]</text>
<polyline fill="none" stroke="black" points="148.5,-19 269.5,-19 "/>
<text text-anchor="start" x="156.5" y="-7.8" font-family="FreeSans" font-size="8.00">&#39;name&#39; = &#39;Steve&#39; : String</text>
</g>
<!-- N4 -->
<g id="node5" class="node"><title>N4</title>
<polygon fill="#fffff0" stroke="#fffff0" points="99.5,-169 190.5,-169 202.5,-181 202.5,-193 190.5,-205 99.5,-205 87.5,-193 87.5,-181 99.5,-169"/>
<path fill="#fffff0" stroke="#fffff0" d="M190.5,-169C196.5,-169 202.5,-175 202.5,-181"/>
<path fill="#fffff0" stroke="#fffff0" d="M202.5,-193C202.5,-199 196.5,-205 190.5,-205"/>
<path fill="#fffff0" stroke="#fffff0" d="M99.5,-205C93.5,-205 87.5,-199 87.5,-193"/>
<path fill="#fffff0" stroke="#fffff0" d="M87.5,-181C87.5,-175 93.5,-169 99.5,-169"/>
<polyline fill="none" stroke="black" points="99.5,-169 190.5,-169 "/>
<path fill="none" stroke="black" d="M190.5,-169C196.5,-169 202.5,-175 202.5,-181"/>
<polyline fill="none" stroke="black" points="202.5,-181 202.5,-193 "/>
<path fill="none" stroke="black" d="M202.5,-193C202.5,-199 196.5,-205 190.5,-205"/>
<polyline fill="none" stroke="black" points="190.5,-205 99.5,-205 "/>
<path fill="none" stroke="black" d="M99.5,-205C93.5,-205 87.5,-199 87.5,-193"/>
<polyline fill="none" stroke="black" points="87.5,-193 87.5,-181 "/>
<path fill="none" stroke="black" d="M87.5,-181C87.5,-175 93.5,-169 99.5,-169"/>
<text text-anchor="middle" x="145" y="-193.8" font-family="FreeSans" font-size="8.00">Node[4]</text>
<polyline fill="none" stroke="black" points="87.5,-187 202.5,-187 "/>
<text text-anchor="start" x="95.5" y="-175.8" font-family="FreeSans" font-size="8.00">&#39;name&#39; = &#39;John&#39; : String</text>
</g>
<!-- N4&#45;&gt;N1 -->
<g id="edge4" class="edge"><title>N4&#45;&gt;N1</title>
<path fill="none" stroke="black" d="M126.99,-168.773C114.809,-156.445 98.6006,-140.042 85.4184,-126.701"/>
<polygon fill="black" stroke="black" points="79.9746,-121.191 87.6468,-124.154 82.6104,-123.859 85.2461,-126.526 85.2461,-126.526 85.2461,-126.526 82.6104,-123.859 82.8453,-128.898 79.9746,-121.191 79.9746,-121.191"/>
<text text-anchor="middle" x="118.5" y="-142.8" font-family="FreeSans" font-size="8.00">friend</text>
</g>
<!-- N5 -->
<g id="node8" class="node"><title>N5</title>
<polygon fill="#fffff0" stroke="#fffff0" points="164,-85 250,-85 262,-97 262,-109 250,-121 164,-121 152,-109 152,-97 164,-85"/>
<path fill="#fffff0" stroke="#fffff0" d="M250,-85C256,-85 262,-91 262,-97"/>
<path fill="#fffff0" stroke="#fffff0" d="M262,-109C262,-115 256,-121 250,-121"/>
<path fill="#fffff0" stroke="#fffff0" d="M164,-121C158,-121 152,-115 152,-109"/>
<path fill="#fffff0" stroke="#fffff0" d="M152,-97C152,-91 158,-85 164,-85"/>
<polyline fill="none" stroke="black" points="164,-85 250,-85 "/>
<path fill="none" stroke="black" d="M250,-85C256,-85 262,-91 262,-97"/>
<polyline fill="none" stroke="black" points="262,-97 262,-109 "/>
<path fill="none" stroke="black" d="M262,-109C262,-115 256,-121 250,-121"/>
<polyline fill="none" stroke="black" points="250,-121 164,-121 "/>
<path fill="none" stroke="black" d="M164,-121C158,-121 152,-115 152,-109"/>
<polyline fill="none" stroke="black" points="152,-109 152,-97 "/>
<path fill="none" stroke="black" d="M152,-97C152,-91 158,-85 164,-85"/>
<text text-anchor="middle" x="207" y="-109.8" font-family="FreeSans" font-size="8.00">Node[5]</text>
<polyline fill="none" stroke="black" points="152,-103 262,-103 "/>
<text text-anchor="start" x="160" y="-91.8" font-family="FreeSans" font-size="8.00">&#39;name&#39; = &#39;Joe&#39; : String</text>
</g>
<!-- N4&#45;&gt;N5 -->
<g id="edge6" class="edge"><title>N4&#45;&gt;N5</title>
<path fill="none" stroke="black" d="M158.453,-168.773C167.39,-156.665 179.228,-140.626 188.977,-127.418"/>
<polygon fill="black" stroke="black" points="193.573,-121.191 191.835,-129.23 191.346,-124.208 189.119,-127.226 189.119,-127.226 189.119,-127.226 191.346,-124.208 186.404,-125.221 193.573,-121.191 193.573,-121.191"/>
<text text-anchor="middle" x="189.5" y="-142.8" font-family="FreeSans" font-size="8.00">friend</text>
</g>
<!-- N5&#45;&gt;N3 -->
<g id="edge8" class="edge"><title>N5&#45;&gt;N3</title>
<path fill="none" stroke="black" d="M207.434,-84.7733C207.712,-73.1053 208.076,-57.7874 208.384,-44.8699"/>
<polygon fill="black" stroke="black" points="208.567,-37.1912 211.762,-44.7694 208.478,-40.9401 208.388,-44.6891 208.388,-44.6891 208.388,-44.6891 208.478,-40.9401 205.014,-44.6087 208.567,-37.1912 208.567,-37.1912"/>
<text text-anchor="middle" x="220.5" y="-58.8" font-family="FreeSans" font-size="8.00">friend</text>
</g>
</g>
</svg>
