<?xml version="1.0" encoding="UTF-8" standalone="no"?>
<!DOCTYPE svg PUBLIC "-//W3C//DTD SVG 1.1//EN"
 "http://www.w3.org/Graphics/SVG/1.1/DTD/svg11.dtd">
<!-- Generated by graphviz version 2.26.3 (20100126.1600)
 -->
<!-- Title: g Pages: 1 -->
<svg width="195pt" height="130pt"
 viewBox="0.00 0.00 195.00 130.00" xmlns="http://www.w3.org/2000/svg" xmlns:xlink="http://www.w3.org/1999/xlink">
<g id="graph1" class="graph" transform="scale(1 1) rotate(0) translate(4 126)">
<title>g</title>
<polygon fill="white" stroke="white" points="-4,5 -4,-126 192,-126 192,5 -4,5"/>
<!-- N0 -->
<g id="node1" class="node"><title>N0</title>
<polygon fill="#fffff0" stroke="#fffff0" points="12,-85 42,-85 54,-97 54,-109 42,-121 12,-121 0,-109 0,-97 12,-85"/>
<path fill="#fffff0" stroke="#fffff0" d="M42,-85C48,-85 54,-91 54,-97"/>
<path fill="#fffff0" stroke="#fffff0" d="M54,-109C54,-115 48,-121 42,-121"/>
<path fill="#fffff0" stroke="#fffff0" d="M12,-121C6,-121 0,-115 0,-109"/>
<path fill="#fffff0" stroke="#fffff0" d="M0,-97C0,-91 6,-85 12,-85"/>
<polyline fill="none" stroke="black" points="12,-85 42,-85 "/>
<path fill="none" stroke="black" d="M42,-85C48,-85 54,-91 54,-97"/>
<polyline fill="none" stroke="black" points="54,-97 54,-109 "/>
<path fill="none" stroke="black" d="M54,-109C54,-115 48,-121 42,-121"/>
<polyline fill="none" stroke="black" points="42,-121 12,-121 "/>
<path fill="none" stroke="black" d="M12,-121C6,-121 0,-115 0,-109"/>
<polyline fill="none" stroke="black" points="0,-109 0,-97 "/>
<path fill="none" stroke="black" d="M0,-97C0,-91 6,-85 12,-85"/>
<text text-anchor="middle" x="27" y="-109.8" font-family="FreeSans" font-size="8.00">Node[0]</text>
<polyline fill="none" stroke="black" points="0,-103 54,-103 "/>
<text text-anchor="middle" x="27" y="-91.8" font-family="FreeSans" font-size="8.00"> </text>
</g>
<!-- N9 -->
<g id="node2" class="node"><title>N9</title>
<polygon fill="#fffff0" stroke="#fffff0" points="94.5,-85 169.5,-85 181.5,-97 181.5,-109 169.5,-121 94.5,-121 82.5,-109 82.5,-97 94.5,-85"/>
<path fill="#fffff0" stroke="#fffff0" d="M169.5,-85C175.5,-85 181.5,-91 181.5,-97"/>
<path fill="#fffff0" stroke="#fffff0" d="M181.5,-109C181.5,-115 175.5,-121 169.5,-121"/>
<path fill="#fffff0" stroke="#fffff0" d="M94.5,-121C88.5,-121 82.5,-115 82.5,-109"/>
<path fill="#fffff0" stroke="#fffff0" d="M82.5,-97C82.5,-91 88.5,-85 94.5,-85"/>
<polyline fill="none" stroke="black" points="94.5,-85 169.5,-85 "/>
<path fill="none" stroke="black" d="M169.5,-85C175.5,-85 181.5,-91 181.5,-97"/>
<polyline fill="none" stroke="black" points="181.5,-97 181.5,-109 "/>
<path fill="none" stroke="black" d="M181.5,-109C181.5,-115 175.5,-121 169.5,-121"/>
<polyline fill="none" stroke="black" points="169.5,-121 94.5,-121 "/>
<path fill="none" stroke="black" d="M94.5,-121C88.5,-121 82.5,-115 82.5,-109"/>
<polyline fill="none" stroke="black" points="82.5,-109 82.5,-97 "/>
<path fill="none" stroke="black" d="M82.5,-97C82.5,-91 88.5,-85 94.5,-85"/>
<text text-anchor="middle" x="132" y="-109.8" font-family="FreeSans" font-size="8.00">Node[9]</text>
<polyline fill="none" stroke="black" points="82.5,-103 181.5,-103 "/>
<text text-anchor="start" x="90.5" y="-91.8" font-family="FreeSans" font-size="8.00">&#39;age&#39; = &#39;18&#39; : String</text>
</g>
<!-- N10 -->
<g id="node4" class="node"><title>N10</title>
<polygon fill="#fffff0" stroke="#fffff0" points="89,-1 175,-1 187,-13 187,-25 175,-37 89,-37 77,-25 77,-13 89,-1"/>
<path fill="#fffff0" stroke="#fffff0" d="M175,-1C181,-1 187,-7 187,-13"/>
<path fill="#fffff0" stroke="#fffff0" d="M187,-25C187,-31 181,-37 175,-37"/>
<path fill="#fffff0" stroke="#fffff0" d="M89,-37C83,-37 77,-31 77,-25"/>
<path fill="#fffff0" stroke="#fffff0" d="M77,-13C77,-7 83,-1 89,-1"/>
<polyline fill="none" stroke="black" points="89,-1 175,-1 "/>
<path fill="none" stroke="black" d="M175,-1C181,-1 187,-7 187,-13"/>
<polyline fill="none" stroke="black" points="187,-13 187,-25 "/>
<path fill="none" stroke="black" d="M187,-25C187,-31 181,-37 175,-37"/>
<polyline fill="none" stroke="black" points="175,-37 89,-37 "/>
<path fill="none" stroke="black" d="M89,-37C83,-37 77,-31 77,-25"/>
<polyline fill="none" stroke="black" points="77,-25 77,-13 "/>
<path fill="none" stroke="black" d="M77,-13C77,-7 83,-1 89,-1"/>
<text text-anchor="middle" x="132" y="-25.8" font-family="FreeSans" font-size="8.00">Node[10]</text>
<polyline fill="none" stroke="black" points="77,-19 187,-19 "/>
<text text-anchor="start" x="85" y="-7.8" font-family="FreeSans" font-size="8.00">&#39;name&#39; = &#39;joe&#39; : String</text>
</g>
<!-- N9&#45;&gt;N10 -->
<g id="edge2" class="edge"><title>N9&#45;&gt;N10</title>
<path fill="none" stroke="black" d="M132,-84.7733C132,-73.1053 132,-57.7874 132,-44.8699"/>
<polygon fill="black" stroke="black" points="132,-37.1912 135.375,-44.6911 132,-40.9412 132,-44.6912 132,-44.6912 132,-44.6912 132,-40.9412 128.625,-44.6912 132,-37.1912 132,-37.1912"/>
<text text-anchor="middle" x="146" y="-58.8" font-family="FreeSans" font-size="8.00">knows</text>
</g>
</g>
</svg>
