<?xml version="1.0" encoding="UTF-8" standalone="no"?>
<!DOCTYPE svg PUBLIC "-//W3C//DTD SVG 1.1//EN"
 "http://www.w3.org/Graphics/SVG/1.1/DTD/svg11.dtd">
<!-- Generated by graphviz version 2.26.3 (20100126.1600)
 -->
<!-- Title: g Pages: 1 -->
<svg width="118pt" height="56pt"
 viewBox="0.00 0.00 118.00 56.00" xmlns="http://www.w3.org/2000/svg" xmlns:xlink="http://www.w3.org/1999/xlink">
<g id="graph1" class="graph" transform="scale(1 1) rotate(0) translate(4 52)">
<title>g</title>
<polygon fill="white" stroke="white" points="-4,5 -4,-52 115,-52 115,5 -4,5"/>
<!-- N17 -->
<g id="node1" class="node"><title>N17</title>
<polygon fill="#fffff0" stroke="#fffff0" points="11.5,-1 98.5,-1 110.5,-13 110.5,-35 98.5,-47 11.5,-47 -0.5,-35 -0.5,-13 11.5,-1"/>
<path fill="#fffff0" stroke="#fffff0" d="M98.5,-1C104.5,-1 110.5,-7 110.5,-13"/>
<path fill="#fffff0" stroke="#fffff0" d="M110.5,-35C110.5,-41 104.5,-47 98.5,-47"/>
<path fill="#fffff0" stroke="#fffff0" d="M11.5,-47C5.5,-47 -0.5,-41 -0.5,-35"/>
<path fill="#fffff0" stroke="#fffff0" d="M-0.5,-13C-0.5,-7 5.5,-1 11.5,-1"/>
<polyline fill="none" stroke="black" points="11.5,-1 98.5,-1 "/>
<path fill="none" stroke="black" d="M98.5,-1C104.5,-1 110.5,-7 110.5,-13"/>
<polyline fill="none" stroke="black" points="110.5,-13 110.5,-35 "/>
<path fill="none" stroke="black" d="M110.5,-35C110.5,-41 104.5,-47 98.5,-47"/>
<polyline fill="none" stroke="black" points="98.5,-47 11.5,-47 "/>
<path fill="none" stroke="black" d="M11.5,-47C5.5,-47 -0.5,-41 -0.5,-35"/>
<polyline fill="none" stroke="black" points="-0.5,-35 -0.5,-13 "/>
<path fill="none" stroke="black" d="M-0.5,-13C-0.5,-7 5.5,-1 11.5,-1"/>
<text text-anchor="middle" x="55" y="-35.8" font-family="FreeSans" font-size="8.00">Node[17]</text>
<polyline fill="none" stroke="black" points="-0.5,-29 110.5,-29 "/>
<text text-anchor="start" x="7.5" y="-17.8" font-family="FreeSans" font-size="8.00">&#39;foo2&#39; = &#39;bar2&#39; : String</text>
<text text-anchor="start" x="7.5" y="-7.8" font-family="FreeSans" font-size="8.00">&#39;foo&#39; = &#39;bar&#39; : String</text>
</g>
</g>
</svg>
