<?xml version="1.0" encoding="UTF-8" standalone="no"?>
<!DOCTYPE svg PUBLIC "-//W3C//DTD SVG 1.1//EN"
 "http://www.w3.org/Graphics/SVG/1.1/DTD/svg11.dtd">
<!-- Generated by graphviz version 2.26.3 (20100126.1600)
 -->
<!-- Title: g Pages: 1 -->
<svg width="171pt" height="150pt"
 viewBox="0.00 0.00 171.00 150.00" xmlns="http://www.w3.org/2000/svg" xmlns:xlink="http://www.w3.org/1999/xlink">
<g id="graph1" class="graph" transform="scale(1 1) rotate(0) translate(4 146)">
<title>g</title>
<polygon fill="white" stroke="white" points="-4,5 -4,-146 168,-146 168,5 -4,5"/>
<!-- N41 -->
<g id="node1" class="node"><title>N41</title>
<polygon fill="#fffff0" stroke="#fffff0" points="16.5,-1 109.5,-1 121.5,-13 121.5,-25 109.5,-37 16.5,-37 4.5,-25 4.5,-13 16.5,-1"/>
<path fill="#fffff0" stroke="#fffff0" d="M109.5,-1C115.5,-1 121.5,-7 121.5,-13"/>
<path fill="#fffff0" stroke="#fffff0" d="M121.5,-25C121.5,-31 115.5,-37 109.5,-37"/>
<path fill="#fffff0" stroke="#fffff0" d="M16.5,-37C10.5,-37 4.5,-31 4.5,-25"/>
<path fill="#fffff0" stroke="#fffff0" d="M4.5,-13C4.5,-7 10.5,-1 16.5,-1"/>
<polyline fill="none" stroke="black" points="16.5,-1 109.5,-1 "/>
<path fill="none" stroke="black" d="M109.5,-1C115.5,-1 121.5,-7 121.5,-13"/>
<polyline fill="none" stroke="black" points="121.5,-13 121.5,-25 "/>
<path fill="none" stroke="black" d="M121.5,-25C121.5,-31 115.5,-37 109.5,-37"/>
<polyline fill="none" stroke="black" points="109.5,-37 16.5,-37 "/>
<path fill="none" stroke="black" d="M16.5,-37C10.5,-37 4.5,-31 4.5,-25"/>
<polyline fill="none" stroke="black" points="4.5,-25 4.5,-13 "/>
<path fill="none" stroke="black" d="M4.5,-13C4.5,-7 10.5,-1 16.5,-1"/>
<text text-anchor="middle" x="63" y="-25.8" font-family="FreeSans" font-size="8.00">Node[41]</text>
<polyline fill="none" stroke="black" points="4.5,-19 121.5,-19 "/>
<text text-anchor="start" x="12.5" y="-7.8" font-family="FreeSans" font-size="8.00">&#39;name&#39; = &#39;Juliet&#39; : String</text>
</g>
<!-- N42 -->
<g id="node2" class="node"><title>N42</title>
<polygon fill="#fffff0" stroke="#fffff0" points="12,-105 114,-105 126,-117 126,-129 114,-141 12,-141 0,-129 0,-117 12,-105"/>
<path fill="#fffff0" stroke="#fffff0" d="M114,-105C120,-105 126,-111 126,-117"/>
<path fill="#fffff0" stroke="#fffff0" d="M126,-129C126,-135 120,-141 114,-141"/>
<path fill="#fffff0" stroke="#fffff0" d="M12,-141C6,-141 0,-135 0,-129"/>
<path fill="#fffff0" stroke="#fffff0" d="M0,-117C0,-111 6,-105 12,-105"/>
<polyline fill="none" stroke="black" points="12,-105 114,-105 "/>
<path fill="none" stroke="black" d="M114,-105C120,-105 126,-111 126,-117"/>
<polyline fill="none" stroke="black" points="126,-117 126,-129 "/>
<path fill="none" stroke="black" d="M126,-129C126,-135 120,-141 114,-141"/>
<polyline fill="none" stroke="black" points="114,-141 12,-141 "/>
<path fill="none" stroke="black" d="M12,-141C6,-141 0,-135 0,-129"/>
<polyline fill="none" stroke="black" points="0,-129 0,-117 "/>
<path fill="none" stroke="black" d="M0,-117C0,-111 6,-105 12,-105"/>
<text text-anchor="middle" x="63" y="-129.8" font-family="FreeSans" font-size="8.00">Node[42]</text>
<polyline fill="none" stroke="black" points="0,-123 126,-123 "/>
<text text-anchor="start" x="8" y="-111.8" font-family="FreeSans" font-size="8.00">&#39;name&#39; = &#39;Romeo&#39; : String</text>
</g>
<!-- N42&#45;&gt;N41 -->
<g id="edge2" class="edge"><title>N42&#45;&gt;N41</title>
<path fill="none" stroke="black" d="M63,-104.885C63,-88.284 63,-63.5228 63,-44.8467"/>
<polygon fill="black" stroke="black" points="63,-37.2568 66.3751,-44.7567 63,-41.0068 63.0001,-44.7568 63.0001,-44.7568 63.0001,-44.7568 63,-41.0068 59.6251,-44.7568 63,-37.2568 63,-37.2568"/>
<text text-anchor="middle" x="113" y="-78.8" font-family="FreeSans" font-size="8.00">LOVES</text>
<text text-anchor="start" x="63" y="-68.8" font-family="FreeSans" font-size="8.00">&#39;cost&#39; = &#39;high&#39; : String</text>
<text text-anchor="start" x="63" y="-58.8" font-family="FreeSans" font-size="8.00">&#39;since&#39; = &#39;1day&#39; : String</text>
</g>
</g>
</svg>
