<?xml version="1.0" encoding="UTF-8" standalone="no"?>
<!DOCTYPE svg PUBLIC "-//W3C//DTD SVG 1.1//EN"
 "http://www.w3.org/Graphics/SVG/1.1/DTD/svg11.dtd">
<!-- Generated by graphviz version 2.26.3 (20100126.1600)
 -->
<!-- Title: g Pages: 1 -->
<svg width="68pt" height="46pt"
 viewBox="0.00 0.00 68.00 46.00" xmlns="http://www.w3.org/2000/svg" xmlns:xlink="http://www.w3.org/1999/xlink">
<g id="graph1" class="graph" transform="scale(1 1) rotate(0) translate(4 42)">
<title>g</title>
<polygon fill="white" stroke="white" points="-4,5 -4,-42 65,-42 65,5 -4,5"/>
<!-- N105 -->
<g id="node1" class="node"><title>N105</title>
<polygon fill="#fffff0" stroke="#fffff0" points="12,-1 48,-1 60,-13 60,-25 48,-37 12,-37 0,-25 0,-13 12,-1"/>
<path fill="#fffff0" stroke="#fffff0" d="M48,-1C54,-1 60,-7 60,-13"/>
<path fill="#fffff0" stroke="#fffff0" d="M60,-25C60,-31 54,-37 48,-37"/>
<path fill="#fffff0" stroke="#fffff0" d="M12,-37C6,-37 0,-31 0,-25"/>
<path fill="#fffff0" stroke="#fffff0" d="M0,-13C0,-7 6,-1 12,-1"/>
<polyline fill="none" stroke="black" points="12,-1 48,-1 "/>
<path fill="none" stroke="black" d="M48,-1C54,-1 60,-7 60,-13"/>
<polyline fill="none" stroke="black" points="60,-13 60,-25 "/>
<path fill="none" stroke="black" d="M60,-25C60,-31 54,-37 48,-37"/>
<polyline fill="none" stroke="black" points="48,-37 12,-37 "/>
<path fill="none" stroke="black" d="M12,-37C6,-37 0,-31 0,-25"/>
<polyline fill="none" stroke="black" points="0,-25 0,-13 "/>
<path fill="none" stroke="black" d="M0,-13C0,-7 6,-1 12,-1"/>
<text text-anchor="middle" x="30" y="-25.8" font-family="FreeSans" font-size="8.00">Node[105]</text>
<polyline fill="none" stroke="black" points="0,-19 60,-19 "/>
<text text-anchor="middle" x="30" y="-7.8" font-family="FreeSans" font-size="8.00"> </text>
</g>
</g>
</svg>
