<?xml version="1.0" encoding="UTF-8" standalone="no"?>
<!DOCTYPE svg PUBLIC "-//W3C//DTD SVG 1.1//EN"
 "http://www.w3.org/Graphics/SVG/1.1/DTD/svg11.dtd">
<!-- Generated by graphviz version 2.26.3 (20100126.1600)
 -->
<!-- Title: g Pages: 1 -->
<svg width="126pt" height="56pt"
 viewBox="0.00 0.00 126.00 56.00" xmlns="http://www.w3.org/2000/svg" xmlns:xlink="http://www.w3.org/1999/xlink">
<g id="graph1" class="graph" transform="scale(1 1) rotate(0) translate(4 52)">
<title>g</title>
<polygon fill="white" stroke="white" points="-4,5 -4,-52 123,-52 123,5 -4,5"/>
<!-- N115 -->
<g id="node1" class="node"><title>N115</title>
<polygon fill="#fffff0" stroke="#fffff0" points="11.5,-1 106.5,-1 118.5,-13 118.5,-35 106.5,-47 11.5,-47 -0.5,-35 -0.5,-13 11.5,-1"/>
<path fill="#fffff0" stroke="#fffff0" d="M106.5,-1C112.5,-1 118.5,-7 118.5,-13"/>
<path fill="#fffff0" stroke="#fffff0" d="M118.5,-35C118.5,-41 112.5,-47 106.5,-47"/>
<path fill="#fffff0" stroke="#fffff0" d="M11.5,-47C5.5,-47 -0.5,-41 -0.5,-35"/>
<path fill="#fffff0" stroke="#fffff0" d="M-0.5,-13C-0.5,-7 5.5,-1 11.5,-1"/>
<polyline fill="none" stroke="black" points="11.5,-1 106.5,-1 "/>
<path fill="none" stroke="black" d="M106.5,-1C112.5,-1 118.5,-7 118.5,-13"/>
<polyline fill="none" stroke="black" points="118.5,-13 118.5,-35 "/>
<path fill="none" stroke="black" d="M118.5,-35C118.5,-41 112.5,-47 106.5,-47"/>
<polyline fill="none" stroke="black" points="106.5,-47 11.5,-47 "/>
<path fill="none" stroke="black" d="M11.5,-47C5.5,-47 -0.5,-41 -0.5,-35"/>
<polyline fill="none" stroke="black" points="-0.5,-35 -0.5,-13 "/>
<path fill="none" stroke="black" d="M-0.5,-13C-0.5,-7 5.5,-1 11.5,-1"/>
<text text-anchor="middle" x="59" y="-35.8" font-family="FreeSans" font-size="8.00">Node[115]</text>
<polyline fill="none" stroke="black" points="-0.5,-29 118.5,-29 "/>
<text text-anchor="start" x="7.5" y="-17.8" font-family="FreeSans" font-size="8.00">&#39;name&#39; = &#39;Peter&#39; : String</text>
<text text-anchor="start" x="7.5" y="-7.8" font-family="FreeSans" font-size="8.00">&#39;sequence&#39; = 1 : int</text>
</g>
</g>
</svg>
