<?xml version="1.0" encoding="UTF-8" standalone="no"?>
<!DOCTYPE svg PUBLIC "-//W3C//DTD SVG 1.1//EN"
 "http://www.w3.org/Graphics/SVG/1.1/DTD/svg11.dtd">
<!-- Generated by graphviz version 2.26.3 (20100126.1600)
 -->
<!-- Title: g Pages: 1 -->
<svg width="504pt" height="492pt"
 viewBox="0.00 0.00 504.00 492.12" xmlns="http://www.w3.org/2000/svg" xmlns:xlink="http://www.w3.org/1999/xlink">
<g id="graph1" class="graph" transform="scale(0.699029 0.699029) rotate(0) translate(4 700)">
<title>g</title>
<polygon fill="white" stroke="white" points="-4,5 -4,-700 718,-700 718,5 -4,5"/>
<!-- N260 -->
<g id="node1" class="node"><title>N260</title>
<polygon fill="#fffff0" stroke="#fffff0" points="12,-95 88,-95 100,-107 100,-119 88,-131 12,-131 0,-119 0,-107 12,-95"/>
<path fill="#fffff0" stroke="#fffff0" d="M88,-95C94,-95 100,-101 100,-107"/>
<path fill="#fffff0" stroke="#fffff0" d="M100,-119C100,-125 94,-131 88,-131"/>
<path fill="#fffff0" stroke="#fffff0" d="M12,-131C6,-131 0,-125 0,-119"/>
<path fill="#fffff0" stroke="#fffff0" d="M0,-107C0,-101 6,-95 12,-95"/>
<polyline fill="none" stroke="black" points="12,-95 88,-95 "/>
<path fill="none" stroke="black" d="M88,-95C94,-95 100,-101 100,-107"/>
<polyline fill="none" stroke="black" points="100,-107 100,-119 "/>
<path fill="none" stroke="black" d="M100,-119C100,-125 94,-131 88,-131"/>
<polyline fill="none" stroke="black" points="88,-131 12,-131 "/>
<path fill="none" stroke="black" d="M12,-131C6,-131 0,-125 0,-119"/>
<polyline fill="none" stroke="black" points="0,-119 0,-107 "/>
<path fill="none" stroke="black" d="M0,-107C0,-101 6,-95 12,-95"/>
<text text-anchor="middle" x="50" y="-119.8" font-family="FreeSans" font-size="8.00">Node[260]</text>
<polyline fill="none" stroke="black" points="0,-113 100,-113 "/>
<text text-anchor="start" x="8" y="-101.8" font-family="FreeSans" font-size="8.00">&#39;name&#39; = &#39;f&#39; : String</text>
</g>
<!-- N261 -->
<g id="node2" class="node"><title>N261</title>
<polygon fill="#fffff0" stroke="#fffff0" points="201,-283 279,-283 291,-295 291,-307 279,-319 201,-319 189,-307 189,-295 201,-283"/>
<path fill="#fffff0" stroke="#fffff0" d="M279,-283C285,-283 291,-289 291,-295"/>
<path fill="#fffff0" stroke="#fffff0" d="M291,-307C291,-313 285,-319 279,-319"/>
<path fill="#fffff0" stroke="#fffff0" d="M201,-319C195,-319 189,-313 189,-307"/>
<path fill="#fffff0" stroke="#fffff0" d="M189,-295C189,-289 195,-283 201,-283"/>
<polyline fill="none" stroke="black" points="201,-283 279,-283 "/>
<path fill="none" stroke="black" d="M279,-283C285,-283 291,-289 291,-295"/>
<polyline fill="none" stroke="black" points="291,-295 291,-307 "/>
<path fill="none" stroke="black" d="M291,-307C291,-313 285,-319 279,-319"/>
<polyline fill="none" stroke="black" points="279,-319 201,-319 "/>
<path fill="none" stroke="black" d="M201,-319C195,-319 189,-313 189,-307"/>
<polyline fill="none" stroke="black" points="189,-307 189,-295 "/>
<path fill="none" stroke="black" d="M189,-295C189,-289 195,-283 201,-283"/>
<text text-anchor="middle" x="240" y="-307.8" font-family="FreeSans" font-size="8.00">Node[261]</text>
<polyline fill="none" stroke="black" points="189,-301 291,-301 "/>
<text text-anchor="start" x="197" y="-289.8" font-family="FreeSans" font-size="8.00">&#39;name&#39; = &#39;d&#39; : String</text>
</g>
<!-- N268 -->
<g id="node4" class="node"><title>N268</title>
<polygon fill="#fffff0" stroke="#fffff0" points="359.5,-95 436.5,-95 448.5,-107 448.5,-119 436.5,-131 359.5,-131 347.5,-119 347.5,-107 359.5,-95"/>
<path fill="#fffff0" stroke="#fffff0" d="M436.5,-95C442.5,-95 448.5,-101 448.5,-107"/>
<path fill="#fffff0" stroke="#fffff0" d="M448.5,-119C448.5,-125 442.5,-131 436.5,-131"/>
<path fill="#fffff0" stroke="#fffff0" d="M359.5,-131C353.5,-131 347.5,-125 347.5,-119"/>
<path fill="#fffff0" stroke="#fffff0" d="M347.5,-107C347.5,-101 353.5,-95 359.5,-95"/>
<polyline fill="none" stroke="black" points="359.5,-95 436.5,-95 "/>
<path fill="none" stroke="black" d="M436.5,-95C442.5,-95 448.5,-101 448.5,-107"/>
<polyline fill="none" stroke="black" points="448.5,-107 448.5,-119 "/>
<path fill="none" stroke="black" d="M448.5,-119C448.5,-125 442.5,-131 436.5,-131"/>
<polyline fill="none" stroke="black" points="436.5,-131 359.5,-131 "/>
<path fill="none" stroke="black" d="M359.5,-131C353.5,-131 347.5,-125 347.5,-119"/>
<polyline fill="none" stroke="black" points="347.5,-119 347.5,-107 "/>
<path fill="none" stroke="black" d="M347.5,-107C347.5,-101 353.5,-95 359.5,-95"/>
<text text-anchor="middle" x="398" y="-119.8" font-family="FreeSans" font-size="8.00">Node[268]</text>
<polyline fill="none" stroke="black" points="347.5,-113 448.5,-113 "/>
<text text-anchor="start" x="355.5" y="-101.8" font-family="FreeSans" font-size="8.00">&#39;name&#39; = &#39;x&#39; : String</text>
</g>
<!-- N261&#45;&gt;N268 -->
<g id="edge2" class="edge"><title>N261&#45;&gt;N268</title>
<path fill="none" stroke="black" d="M239.053,-282.729C238.738,-258.732 241.486,-216.329 262,-188 281.098,-161.626 312.443,-143.445 340.23,-131.596"/>
<polygon fill="black" stroke="black" points="347.208,-128.719 341.561,-134.698 343.741,-130.149 340.274,-131.578 340.274,-131.578 340.274,-131.578 343.741,-130.149 338.988,-128.458 347.208,-128.719 347.208,-128.719"/>
<text text-anchor="middle" x="296" y="-209.8" font-family="FreeSans" font-size="8.00">to</text>
<text text-anchor="start" x="262" y="-199.8" font-family="FreeSans" font-size="8.00">&#39;cost&#39; = 1 : long</text>
</g>
<!-- N262 -->
<g id="node6" class="node"><title>N262</title>
<polygon fill="#fffff0" stroke="#fffff0" points="92,-189 170,-189 182,-201 182,-213 170,-225 92,-225 80,-213 80,-201 92,-189"/>
<path fill="#fffff0" stroke="#fffff0" d="M170,-189C176,-189 182,-195 182,-201"/>
<path fill="#fffff0" stroke="#fffff0" d="M182,-213C182,-219 176,-225 170,-225"/>
<path fill="#fffff0" stroke="#fffff0" d="M92,-225C86,-225 80,-219 80,-213"/>
<path fill="#fffff0" stroke="#fffff0" d="M80,-201C80,-195 86,-189 92,-189"/>
<polyline fill="none" stroke="black" points="92,-189 170,-189 "/>
<path fill="none" stroke="black" d="M170,-189C176,-189 182,-195 182,-201"/>
<polyline fill="none" stroke="black" points="182,-201 182,-213 "/>
<path fill="none" stroke="black" d="M182,-213C182,-219 176,-225 170,-225"/>
<polyline fill="none" stroke="black" points="170,-225 92,-225 "/>
<path fill="none" stroke="black" d="M92,-225C86,-225 80,-219 80,-213"/>
<polyline fill="none" stroke="black" points="80,-213 80,-201 "/>
<path fill="none" stroke="black" d="M80,-201C80,-195 86,-189 92,-189"/>
<text text-anchor="middle" x="131" y="-213.8" font-family="FreeSans" font-size="8.00">Node[262]</text>
<polyline fill="none" stroke="black" points="80,-207 182,-207 "/>
<text text-anchor="start" x="88" y="-195.8" font-family="FreeSans" font-size="8.00">&#39;name&#39; = &#39;e&#39; : String</text>
</g>
<!-- N261&#45;&gt;N262 -->
<g id="edge4" class="edge"><title>N261&#45;&gt;N262</title>
<path fill="none" stroke="black" d="M188.64,-288.521C174.582,-282.984 160.378,-275.112 150,-264 142.036,-255.473 137.405,-243.516 134.713,-232.754"/>
<polygon fill="black" stroke="black" points="133.077,-225.195 137.963,-231.811 133.87,-228.86 134.664,-232.525 134.664,-232.525 134.664,-232.525 133.87,-228.86 131.365,-233.239 133.077,-225.195 133.077,-225.195"/>
<text text-anchor="middle" x="184" y="-256.8" font-family="FreeSans" font-size="8.00">to</text>
<text text-anchor="start" x="150" y="-246.8" font-family="FreeSans" font-size="8.00">&#39;cost&#39; = 1 : long</text>
</g>
<!-- N267 -->
<g id="node21" class="node"><title>N267</title>
<polygon fill="#fffff0" stroke="#fffff0" points="359.5,-1 436.5,-1 448.5,-13 448.5,-25 436.5,-37 359.5,-37 347.5,-25 347.5,-13 359.5,-1"/>
<path fill="#fffff0" stroke="#fffff0" d="M436.5,-1C442.5,-1 448.5,-7 448.5,-13"/>
<path fill="#fffff0" stroke="#fffff0" d="M448.5,-25C448.5,-31 442.5,-37 436.5,-37"/>
<path fill="#fffff0" stroke="#fffff0" d="M359.5,-37C353.5,-37 347.5,-31 347.5,-25"/>
<path fill="#fffff0" stroke="#fffff0" d="M347.5,-13C347.5,-7 353.5,-1 359.5,-1"/>
<polyline fill="none" stroke="black" points="359.5,-1 436.5,-1 "/>
<path fill="none" stroke="black" d="M436.5,-1C442.5,-1 448.5,-7 448.5,-13"/>
<polyline fill="none" stroke="black" points="448.5,-13 448.5,-25 "/>
<path fill="none" stroke="black" d="M448.5,-25C448.5,-31 442.5,-37 436.5,-37"/>
<polyline fill="none" stroke="black" points="436.5,-37 359.5,-37 "/>
<path fill="none" stroke="black" d="M359.5,-37C353.5,-37 347.5,-31 347.5,-25"/>
<polyline fill="none" stroke="black" points="347.5,-25 347.5,-13 "/>
<path fill="none" stroke="black" d="M347.5,-13C347.5,-7 353.5,-1 359.5,-1"/>
<text text-anchor="middle" x="398" y="-25.8" font-family="FreeSans" font-size="8.00">Node[267]</text>
<polyline fill="none" stroke="black" points="347.5,-19 448.5,-19 "/>
<text text-anchor="start" x="355.5" y="-7.8" font-family="FreeSans" font-size="8.00">&#39;name&#39; = &#39;y&#39; : String</text>
</g>
<!-- N268&#45;&gt;N267 -->
<g id="edge26" class="edge"><title>N268&#45;&gt;N267</title>
<path fill="none" stroke="black" d="M398,-94.8759C398,-80.7014 398,-60.806 398,-44.944"/>
<polygon fill="black" stroke="black" points="398,-37.0685 401.375,-44.5685 398,-40.8185 398,-44.5685 398,-44.5685 398,-44.5685 398,-40.8185 394.625,-44.5685 398,-37.0685 398,-37.0685"/>
<text text-anchor="middle" x="432" y="-68.8" font-family="FreeSans" font-size="8.00">to</text>
<text text-anchor="start" x="398" y="-58.8" font-family="FreeSans" font-size="8.00">&#39;cost&#39; = 1 : long</text>
</g>
<!-- N262&#45;&gt;N260 -->
<g id="edge8" class="edge"><title>N262&#45;&gt;N260</title>
<path fill="none" stroke="black" d="M79.5798,-194.777C67.1777,-189.291 55.387,-181.381 48,-170 42.1145,-160.933 41.6125,-149.233 42.9727,-138.795"/>
<polygon fill="black" stroke="black" points="44.3176,-131.123 46.3468,-139.093 43.67,-134.817 43.0225,-138.51 43.0225,-138.51 43.0225,-138.51 43.67,-134.817 39.6982,-137.927 44.3176,-131.123 44.3176,-131.123"/>
<text text-anchor="middle" x="82" y="-162.8" font-family="FreeSans" font-size="8.00">to</text>
<text text-anchor="start" x="48" y="-152.8" font-family="FreeSans" font-size="8.00">&#39;cost&#39; = 1 : long</text>
</g>
<!-- N262&#45;&gt;N268 -->
<g id="edge6" class="edge"><title>N262&#45;&gt;N268</title>
<path fill="none" stroke="black" d="M132.2,-188.824C134.052,-176.022 138.657,-159.526 150,-150 177.949,-126.527 275.687,-117.93 339.797,-114.791"/>
<polygon fill="black" stroke="black" points="347.441,-114.435 340.107,-118.156 343.695,-114.61 339.949,-114.784 339.949,-114.784 339.949,-114.784 343.695,-114.61 339.792,-111.413 347.441,-114.435 347.441,-114.435"/>
<text text-anchor="middle" x="184" y="-162.8" font-family="FreeSans" font-size="8.00">to</text>
<text text-anchor="start" x="150" y="-152.8" font-family="FreeSans" font-size="8.00">&#39;cost&#39; = 1 : long</text>
</g>
<!-- N263 -->
<g id="node9" class="node"><title>N263</title>
<polygon fill="#fffff0" stroke="#fffff0" points="494,-471 572,-471 584,-483 584,-495 572,-507 494,-507 482,-495 482,-483 494,-471"/>
<path fill="#fffff0" stroke="#fffff0" d="M572,-471C578,-471 584,-477 584,-483"/>
<path fill="#fffff0" stroke="#fffff0" d="M584,-495C584,-501 578,-507 572,-507"/>
<path fill="#fffff0" stroke="#fffff0" d="M494,-507C488,-507 482,-501 482,-495"/>
<path fill="#fffff0" stroke="#fffff0" d="M482,-483C482,-477 488,-471 494,-471"/>
<polyline fill="none" stroke="black" points="494,-471 572,-471 "/>
<path fill="none" stroke="black" d="M572,-471C578,-471 584,-477 584,-483"/>
<polyline fill="none" stroke="black" points="584,-483 584,-495 "/>
<path fill="none" stroke="black" d="M584,-495C584,-501 578,-507 572,-507"/>
<polyline fill="none" stroke="black" points="572,-507 494,-507 "/>
<path fill="none" stroke="black" d="M494,-507C488,-507 482,-501 482,-495"/>
<polyline fill="none" stroke="black" points="482,-495 482,-483 "/>
<path fill="none" stroke="black" d="M482,-483C482,-477 488,-471 494,-471"/>
<text text-anchor="middle" x="533" y="-495.8" font-family="FreeSans" font-size="8.00">Node[263]</text>
<polyline fill="none" stroke="black" points="482,-489 584,-489 "/>
<text text-anchor="start" x="490" y="-477.8" font-family="FreeSans" font-size="8.00">&#39;name&#39; = &#39;b&#39; : String</text>
</g>
<!-- N263&#45;&gt;N268 -->
<g id="edge10" class="edge"><title>N263&#45;&gt;N268</title>
<path fill="none" stroke="black" d="M533,-470.98C533,-452.057 533,-421.438 533,-395 533,-395 533,-395 533,-207 533,-166.972 492.535,-142.598 455.913,-128.735"/>
<polygon fill="black" stroke="black" points="448.653,-126.101 456.855,-125.487 452.178,-127.38 455.703,-128.659 455.703,-128.659 455.703,-128.659 452.178,-127.38 454.552,-131.832 448.653,-126.101 448.653,-126.101"/>
<text text-anchor="middle" x="567" y="-303.8" font-family="FreeSans" font-size="8.00">to</text>
<text text-anchor="start" x="533" y="-293.8" font-family="FreeSans" font-size="8.00">&#39;cost&#39; = 1 : long</text>
</g>
<!-- N264 -->
<g id="node12" class="node"><title>N264</title>
<polygon fill="#fffff0" stroke="#fffff0" points="329.5,-377 406.5,-377 418.5,-389 418.5,-401 406.5,-413 329.5,-413 317.5,-401 317.5,-389 329.5,-377"/>
<path fill="#fffff0" stroke="#fffff0" d="M406.5,-377C412.5,-377 418.5,-383 418.5,-389"/>
<path fill="#fffff0" stroke="#fffff0" d="M418.5,-401C418.5,-407 412.5,-413 406.5,-413"/>
<path fill="#fffff0" stroke="#fffff0" d="M329.5,-413C323.5,-413 317.5,-407 317.5,-401"/>
<path fill="#fffff0" stroke="#fffff0" d="M317.5,-389C317.5,-383 323.5,-377 329.5,-377"/>
<polyline fill="none" stroke="black" points="329.5,-377 406.5,-377 "/>
<path fill="none" stroke="black" d="M406.5,-377C412.5,-377 418.5,-383 418.5,-389"/>
<polyline fill="none" stroke="black" points="418.5,-389 418.5,-401 "/>
<path fill="none" stroke="black" d="M418.5,-401C418.5,-407 412.5,-413 406.5,-413"/>
<polyline fill="none" stroke="black" points="406.5,-413 329.5,-413 "/>
<path fill="none" stroke="black" d="M329.5,-413C323.5,-413 317.5,-407 317.5,-401"/>
<polyline fill="none" stroke="black" points="317.5,-401 317.5,-389 "/>
<path fill="none" stroke="black" d="M317.5,-389C317.5,-383 323.5,-377 329.5,-377"/>
<text text-anchor="middle" x="368" y="-401.8" font-family="FreeSans" font-size="8.00">Node[264]</text>
<polyline fill="none" stroke="black" points="317.5,-395 418.5,-395 "/>
<text text-anchor="start" x="325.5" y="-383.8" font-family="FreeSans" font-size="8.00">&#39;name&#39; = &#39;c&#39; : String</text>
</g>
<!-- N263&#45;&gt;N264 -->
<g id="edge12" class="edge"><title>N263&#45;&gt;N264</title>
<path fill="none" stroke="black" d="M482.389,-470.885C469.239,-465.458 455.315,-459.051 443,-452 426.015,-442.276 408.52,-429.187 394.704,-418.005"/>
<polygon fill="black" stroke="black" points="388.63,-413.02 396.569,-415.169 391.529,-415.399 394.428,-417.778 394.428,-417.778 394.428,-417.778 391.529,-415.399 392.287,-420.387 388.63,-413.02 388.63,-413.02"/>
<text text-anchor="middle" x="477" y="-444.8" font-family="FreeSans" font-size="8.00">to</text>
<text text-anchor="start" x="443" y="-434.8" font-family="FreeSans" font-size="8.00">&#39;cost&#39; = 1 : long</text>
</g>
<!-- N264&#45;&gt;N261 -->
<g id="edge18" class="edge"><title>N264&#45;&gt;N261</title>
<path fill="none" stroke="black" d="M317.302,-383.922C290.819,-377.145 262.069,-367.895 253,-358 245.274,-349.57 241.83,-337.522 240.396,-326.671"/>
<polygon fill="black" stroke="black" points="239.675,-319.051 243.742,-326.2 240.028,-322.785 240.382,-326.518 240.382,-326.518 240.382,-326.518 240.028,-322.785 237.022,-326.836 239.675,-319.051 239.675,-319.051"/>
<text text-anchor="middle" x="287" y="-350.8" font-family="FreeSans" font-size="8.00">to</text>
<text text-anchor="start" x="253" y="-340.8" font-family="FreeSans" font-size="8.00">&#39;cost&#39; = 1 : long</text>
</g>
<!-- N264&#45;&gt;N268 -->
<g id="edge14" class="edge"><title>N264&#45;&gt;N268</title>
<path fill="none" stroke="black" d="M360.243,-376.806C349.134,-348.372 331.069,-291.712 341,-244 349.084,-205.158 369.32,-163.71 383.366,-138.077"/>
<polygon fill="black" stroke="black" points="387.148,-131.283 386.449,-139.477 385.324,-134.559 383.5,-137.836 383.5,-137.836 383.5,-137.836 385.324,-134.559 380.551,-136.194 387.148,-131.283 387.148,-131.283"/>
<text text-anchor="middle" x="375" y="-256.8" font-family="FreeSans" font-size="8.00">to</text>
<text text-anchor="start" x="341" y="-246.8" font-family="FreeSans" font-size="8.00">&#39;cost&#39; = 1 : long</text>
</g>
<!-- N264&#45;&gt;N268 -->
<g id="edge16" class="edge"><title>N264&#45;&gt;N268</title>
<path fill="none" stroke="black" d="M376.21,-376.825C386.946,-351.963 405.189,-305.672 412,-264 419.134,-220.352 410.877,-168.967 404.356,-138.794"/>
<polygon fill="black" stroke="black" points="402.662,-131.234 407.595,-137.814 403.482,-134.893 404.302,-138.552 404.302,-138.552 404.302,-138.552 403.482,-134.893 401.009,-139.29 402.662,-131.234 402.662,-131.234"/>
<text text-anchor="middle" x="449" y="-256.8" font-family="FreeSans" font-size="8.00">to</text>
<text text-anchor="start" x="415" y="-246.8" font-family="FreeSans" font-size="8.00">&#39;cost&#39; = 1 : long</text>
</g>
<!-- N265 -->
<g id="node16" class="node"><title>N265</title>
<polygon fill="#fffff0" stroke="#fffff0" points="554.5,-659 647.5,-659 659.5,-671 659.5,-683 647.5,-695 554.5,-695 542.5,-683 542.5,-671 554.5,-659"/>
<path fill="#fffff0" stroke="#fffff0" d="M647.5,-659C653.5,-659 659.5,-665 659.5,-671"/>
<path fill="#fffff0" stroke="#fffff0" d="M659.5,-683C659.5,-689 653.5,-695 647.5,-695"/>
<path fill="#fffff0" stroke="#fffff0" d="M554.5,-695C548.5,-695 542.5,-689 542.5,-683"/>
<path fill="#fffff0" stroke="#fffff0" d="M542.5,-671C542.5,-665 548.5,-659 554.5,-659"/>
<polyline fill="none" stroke="black" points="554.5,-659 647.5,-659 "/>
<path fill="none" stroke="black" d="M647.5,-659C653.5,-659 659.5,-665 659.5,-671"/>
<polyline fill="none" stroke="black" points="659.5,-671 659.5,-683 "/>
<path fill="none" stroke="black" d="M659.5,-683C659.5,-689 653.5,-695 647.5,-695"/>
<polyline fill="none" stroke="black" points="647.5,-695 554.5,-695 "/>
<path fill="none" stroke="black" d="M554.5,-695C548.5,-695 542.5,-689 542.5,-683"/>
<polyline fill="none" stroke="black" points="542.5,-683 542.5,-671 "/>
<path fill="none" stroke="black" d="M542.5,-671C542.5,-665 548.5,-659 554.5,-659"/>
<text text-anchor="middle" x="601" y="-683.8" font-family="FreeSans" font-size="8.00">Node[265]</text>
<polyline fill="none" stroke="black" points="542.5,-677 659.5,-677 "/>
<text text-anchor="start" x="550.5" y="-665.8" font-family="FreeSans" font-size="8.00">&#39;name&#39; = &#39;start&#39; : String</text>
</g>
<!-- N266 -->
<g id="node18" class="node"><title>N266</title>
<polygon fill="#fffff0" stroke="#fffff0" points="562,-565 640,-565 652,-577 652,-589 640,-601 562,-601 550,-589 550,-577 562,-565"/>
<path fill="#fffff0" stroke="#fffff0" d="M640,-565C646,-565 652,-571 652,-577"/>
<path fill="#fffff0" stroke="#fffff0" d="M652,-589C652,-595 646,-601 640,-601"/>
<path fill="#fffff0" stroke="#fffff0" d="M562,-601C556,-601 550,-595 550,-589"/>
<path fill="#fffff0" stroke="#fffff0" d="M550,-577C550,-571 556,-565 562,-565"/>
<polyline fill="none" stroke="black" points="562,-565 640,-565 "/>
<path fill="none" stroke="black" d="M640,-565C646,-565 652,-571 652,-577"/>
<polyline fill="none" stroke="black" points="652,-577 652,-589 "/>
<path fill="none" stroke="black" d="M652,-589C652,-595 646,-601 640,-601"/>
<polyline fill="none" stroke="black" points="640,-601 562,-601 "/>
<path fill="none" stroke="black" d="M562,-601C556,-601 550,-595 550,-589"/>
<polyline fill="none" stroke="black" points="550,-589 550,-577 "/>
<path fill="none" stroke="black" d="M550,-577C550,-571 556,-565 562,-565"/>
<text text-anchor="middle" x="601" y="-589.8" font-family="FreeSans" font-size="8.00">Node[266]</text>
<polyline fill="none" stroke="black" points="550,-583 652,-583 "/>
<text text-anchor="start" x="558" y="-571.8" font-family="FreeSans" font-size="8.00">&#39;name&#39; = &#39;a&#39; : String</text>
</g>
<!-- N265&#45;&gt;N266 -->
<g id="edge20" class="edge"><title>N265&#45;&gt;N266</title>
<path fill="none" stroke="black" d="M601,-658.876C601,-644.701 601,-624.806 601,-608.944"/>
<polygon fill="black" stroke="black" points="601,-601.069 604.375,-608.568 601,-604.819 601,-608.569 601,-608.569 601,-608.569 601,-604.819 597.625,-608.569 601,-601.069 601,-601.069"/>
<text text-anchor="middle" x="635" y="-632.8" font-family="FreeSans" font-size="8.00">to</text>
<text text-anchor="start" x="601" y="-622.8" font-family="FreeSans" font-size="8.00">&#39;cost&#39; = 1 : long</text>
</g>
<!-- N266&#45;&gt;N268 -->
<g id="edge22" class="edge"><title>N266&#45;&gt;N268</title>
<path fill="none" stroke="black" d="M615.407,-564.737C628.24,-546.604 645,-517.47 645,-489 645,-489 645,-489 645,-207 645,-166.744 528.951,-137.51 455.943,-123.102"/>
<polygon fill="black" stroke="black" points="448.58,-121.67 456.587,-119.789 452.261,-122.386 455.942,-123.102 455.942,-123.102 455.942,-123.102 452.261,-122.386 455.298,-126.415 448.58,-121.67 448.58,-121.67"/>
<text text-anchor="middle" x="679" y="-350.8" font-family="FreeSans" font-size="8.00">to</text>
<text text-anchor="start" x="645" y="-340.8" font-family="FreeSans" font-size="8.00">&#39;cost&#39; = 1 : long</text>
</g>
<!-- N266&#45;&gt;N263 -->
<g id="edge24" class="edge"><title>N266&#45;&gt;N263</title>
<path fill="none" stroke="black" d="M573.485,-564.751C566.776,-559.325 560.078,-552.952 555,-546 548.153,-536.626 543.139,-524.85 539.643,-514.439"/>
<polygon fill="black" stroke="black" points="537.361,-507.153 542.824,-513.301 538.482,-510.731 539.603,-514.31 539.603,-514.31 539.603,-514.31 538.482,-510.731 536.382,-515.319 537.361,-507.153 537.361,-507.153"/>
<text text-anchor="middle" x="589" y="-538.8" font-family="FreeSans" font-size="8.00">to</text>
<text text-anchor="start" x="555" y="-528.8" font-family="FreeSans" font-size="8.00">&#39;cost&#39; = 1 : long</text>
</g>
</g>
</svg>
