<?xml version="1.0" encoding="UTF-8" standalone="no"?>
<!DOCTYPE svg PUBLIC "-//W3C//DTD SVG 1.1//EN"
 "http://www.w3.org/Graphics/SVG/1.1/DTD/svg11.dtd">
<!-- Generated by graphviz version 2.26.3 (20100126.1600)
 -->
<!-- Title: g Pages: 1 -->
<svg width="263pt" height="130pt"
 viewBox="0.00 0.00 263.00 130.00" xmlns="http://www.w3.org/2000/svg" xmlns:xlink="http://www.w3.org/1999/xlink">
<g id="graph1" class="graph" transform="scale(1 1) rotate(0) translate(4 126)">
<title>g</title>
<polygon fill="white" stroke="white" points="-4,5 -4,-126 260,-126 260,5 -4,5"/>
<!-- N51 -->
<g id="node1" class="node"><title>N51</title>
<polygon fill="#fffff0" stroke="#fffff0" points="11.5,-1 104.5,-1 116.5,-13 116.5,-25 104.5,-37 11.5,-37 -0.5,-25 -0.5,-13 11.5,-1"/>
<path fill="#fffff0" stroke="#fffff0" d="M104.5,-1C110.5,-1 116.5,-7 116.5,-13"/>
<path fill="#fffff0" stroke="#fffff0" d="M116.5,-25C116.5,-31 110.5,-37 104.5,-37"/>
<path fill="#fffff0" stroke="#fffff0" d="M11.5,-37C5.5,-37 -0.5,-31 -0.5,-25"/>
<path fill="#fffff0" stroke="#fffff0" d="M-0.5,-13C-0.5,-7 5.5,-1 11.5,-1"/>
<polyline fill="none" stroke="black" points="11.5,-1 104.5,-1 "/>
<path fill="none" stroke="black" d="M104.5,-1C110.5,-1 116.5,-7 116.5,-13"/>
<polyline fill="none" stroke="black" points="116.5,-13 116.5,-25 "/>
<path fill="none" stroke="black" d="M116.5,-25C116.5,-31 110.5,-37 104.5,-37"/>
<polyline fill="none" stroke="black" points="104.5,-37 11.5,-37 "/>
<path fill="none" stroke="black" d="M11.5,-37C5.5,-37 -0.5,-31 -0.5,-25"/>
<polyline fill="none" stroke="black" points="-0.5,-25 -0.5,-13 "/>
<path fill="none" stroke="black" d="M-0.5,-13C-0.5,-7 5.5,-1 11.5,-1"/>
<text text-anchor="middle" x="58" y="-25.8" font-family="FreeSans" font-size="8.00">Node[51]</text>
<polyline fill="none" stroke="black" points="-0.5,-19 116.5,-19 "/>
<text text-anchor="start" x="7.5" y="-7.8" font-family="FreeSans" font-size="8.00">&#39;name&#39; = &#39;Sara&#39; : String</text>
</g>
<!-- N52 -->
<g id="node2" class="node"><title>N52</title>
<polygon fill="#fffff0" stroke="#fffff0" points="157,-1 243,-1 255,-13 255,-25 243,-37 157,-37 145,-25 145,-13 157,-1"/>
<path fill="#fffff0" stroke="#fffff0" d="M243,-1C249,-1 255,-7 255,-13"/>
<path fill="#fffff0" stroke="#fffff0" d="M255,-25C255,-31 249,-37 243,-37"/>
<path fill="#fffff0" stroke="#fffff0" d="M157,-37C151,-37 145,-31 145,-25"/>
<path fill="#fffff0" stroke="#fffff0" d="M145,-13C145,-7 151,-1 157,-1"/>
<polyline fill="none" stroke="black" points="157,-1 243,-1 "/>
<path fill="none" stroke="black" d="M243,-1C249,-1 255,-7 255,-13"/>
<polyline fill="none" stroke="black" points="255,-13 255,-25 "/>
<path fill="none" stroke="black" d="M255,-25C255,-31 249,-37 243,-37"/>
<polyline fill="none" stroke="black" points="243,-37 157,-37 "/>
<path fill="none" stroke="black" d="M157,-37C151,-37 145,-31 145,-25"/>
<polyline fill="none" stroke="black" points="145,-25 145,-13 "/>
<path fill="none" stroke="black" d="M145,-13C145,-7 151,-1 157,-1"/>
<text text-anchor="middle" x="200" y="-25.8" font-family="FreeSans" font-size="8.00">Node[52]</text>
<polyline fill="none" stroke="black" points="145,-19 255,-19 "/>
<text text-anchor="start" x="153" y="-7.8" font-family="FreeSans" font-size="8.00">&#39;name&#39; = &#39;Ian&#39; : String</text>
</g>
<!-- N53 -->
<g id="node3" class="node"><title>N53</title>
<polygon fill="#fffff0" stroke="#fffff0" points="77,-85 181,-85 193,-97 193,-109 181,-121 77,-121 65,-109 65,-97 77,-85"/>
<path fill="#fffff0" stroke="#fffff0" d="M181,-85C187,-85 193,-91 193,-97"/>
<path fill="#fffff0" stroke="#fffff0" d="M193,-109C193,-115 187,-121 181,-121"/>
<path fill="#fffff0" stroke="#fffff0" d="M77,-121C71,-121 65,-115 65,-109"/>
<path fill="#fffff0" stroke="#fffff0" d="M65,-97C65,-91 71,-85 77,-85"/>
<polyline fill="none" stroke="black" points="77,-85 181,-85 "/>
<path fill="none" stroke="black" d="M181,-85C187,-85 193,-91 193,-97"/>
<polyline fill="none" stroke="black" points="193,-97 193,-109 "/>
<path fill="none" stroke="black" d="M193,-109C193,-115 187,-121 181,-121"/>
<polyline fill="none" stroke="black" points="181,-121 77,-121 "/>
<path fill="none" stroke="black" d="M77,-121C71,-121 65,-115 65,-109"/>
<polyline fill="none" stroke="black" points="65,-109 65,-97 "/>
<path fill="none" stroke="black" d="M65,-97C65,-91 71,-85 77,-85"/>
<text text-anchor="middle" x="129" y="-109.8" font-family="FreeSans" font-size="8.00">Node[53]</text>
<polyline fill="none" stroke="black" points="65,-103 193,-103 "/>
<text text-anchor="start" x="73" y="-91.8" font-family="FreeSans" font-size="8.00">&#39;name&#39; = &#39;George&#39; : String</text>
</g>
<!-- N53&#45;&gt;N51 -->
<g id="edge2" class="edge"><title>N53&#45;&gt;N51</title>
<path fill="none" stroke="black" d="M113.594,-84.7733C103.267,-72.5549 89.5563,-56.3342 78.3352,-43.0586"/>
<polygon fill="black" stroke="black" points="73.3759,-37.1912 80.795,-40.7405 75.7966,-40.0552 78.2174,-42.9192 78.2174,-42.9192 78.2174,-42.9192 75.7966,-40.0552 75.6398,-45.0979 73.3759,-37.1912 73.3759,-37.1912"/>
<text text-anchor="middle" x="110" y="-58.8" font-family="FreeSans" font-size="8.00">knows</text>
</g>
<!-- N53&#45;&gt;N52 -->
<g id="edge4" class="edge"><title>N53&#45;&gt;N52</title>
<path fill="none" stroke="black" d="M144.406,-84.7733C154.733,-72.5549 168.444,-56.3342 179.665,-43.0586"/>
<polygon fill="black" stroke="black" points="184.624,-37.1912 182.36,-45.0979 182.203,-40.0552 179.783,-42.9192 179.783,-42.9192 179.783,-42.9192 182.203,-40.0552 177.205,-40.7405 184.624,-37.1912 184.624,-37.1912"/>
<text text-anchor="middle" x="180" y="-58.8" font-family="FreeSans" font-size="8.00">knows</text>
</g>
</g>
</svg>
