<?xml version="1.0" encoding="UTF-8" standalone="no"?>
<!DOCTYPE svg PUBLIC "-//W3C//DTD SVG 1.1//EN"
 "http://www.w3.org/Graphics/SVG/1.1/DTD/svg11.dtd">
<!-- Generated by graphviz version 2.26.3 (20100126.1600)
 -->
<!-- Title: g Pages: 1 -->
<svg width="134pt" height="130pt"
 viewBox="0.00 0.00 134.00 130.00" xmlns="http://www.w3.org/2000/svg" xmlns:xlink="http://www.w3.org/1999/xlink">
<g id="graph1" class="graph" transform="scale(1 1) rotate(0) translate(4 126)">
<title>g</title>
<polygon fill="white" stroke="white" points="-4,5 -4,-126 131,-126 131,5 -4,5"/>
<!-- N25 -->
<g id="node1" class="node"><title>N25</title>
<polygon fill="#fffff0" stroke="#fffff0" points="16.5,-1 109.5,-1 121.5,-13 121.5,-25 109.5,-37 16.5,-37 4.5,-25 4.5,-13 16.5,-1"/>
<path fill="#fffff0" stroke="#fffff0" d="M109.5,-1C115.5,-1 121.5,-7 121.5,-13"/>
<path fill="#fffff0" stroke="#fffff0" d="M121.5,-25C121.5,-31 115.5,-37 109.5,-37"/>
<path fill="#fffff0" stroke="#fffff0" d="M16.5,-37C10.5,-37 4.5,-31 4.5,-25"/>
<path fill="#fffff0" stroke="#fffff0" d="M4.5,-13C4.5,-7 10.5,-1 16.5,-1"/>
<polyline fill="none" stroke="black" points="16.5,-1 109.5,-1 "/>
<path fill="none" stroke="black" d="M109.5,-1C115.5,-1 121.5,-7 121.5,-13"/>
<polyline fill="none" stroke="black" points="121.5,-13 121.5,-25 "/>
<path fill="none" stroke="black" d="M121.5,-25C121.5,-31 115.5,-37 109.5,-37"/>
<polyline fill="none" stroke="black" points="109.5,-37 16.5,-37 "/>
<path fill="none" stroke="black" d="M16.5,-37C10.5,-37 4.5,-31 4.5,-25"/>
<polyline fill="none" stroke="black" points="4.5,-25 4.5,-13 "/>
<path fill="none" stroke="black" d="M4.5,-13C4.5,-7 10.5,-1 16.5,-1"/>
<text text-anchor="middle" x="63" y="-25.8" font-family="FreeSans" font-size="8.00">Node[25]</text>
<polyline fill="none" stroke="black" points="4.5,-19 121.5,-19 "/>
<text text-anchor="start" x="12.5" y="-7.8" font-family="FreeSans" font-size="8.00">&#39;name&#39; = &#39;Juliet&#39; : String</text>
</g>
<!-- N26 -->
<g id="node2" class="node"><title>N26</title>
<polygon fill="#fffff0" stroke="#fffff0" points="12,-85 114,-85 126,-97 126,-109 114,-121 12,-121 0,-109 0,-97 12,-85"/>
<path fill="#fffff0" stroke="#fffff0" d="M114,-85C120,-85 126,-91 126,-97"/>
<path fill="#fffff0" stroke="#fffff0" d="M126,-109C126,-115 120,-121 114,-121"/>
<path fill="#fffff0" stroke="#fffff0" d="M12,-121C6,-121 0,-115 0,-109"/>
<path fill="#fffff0" stroke="#fffff0" d="M0,-97C0,-91 6,-85 12,-85"/>
<polyline fill="none" stroke="black" points="12,-85 114,-85 "/>
<path fill="none" stroke="black" d="M114,-85C120,-85 126,-91 126,-97"/>
<polyline fill="none" stroke="black" points="126,-97 126,-109 "/>
<path fill="none" stroke="black" d="M126,-109C126,-115 120,-121 114,-121"/>
<polyline fill="none" stroke="black" points="114,-121 12,-121 "/>
<path fill="none" stroke="black" d="M12,-121C6,-121 0,-115 0,-109"/>
<polyline fill="none" stroke="black" points="0,-109 0,-97 "/>
<path fill="none" stroke="black" d="M0,-97C0,-91 6,-85 12,-85"/>
<text text-anchor="middle" x="63" y="-109.8" font-family="FreeSans" font-size="8.00">Node[26]</text>
<polyline fill="none" stroke="black" points="0,-103 126,-103 "/>
<text text-anchor="start" x="8" y="-91.8" font-family="FreeSans" font-size="8.00">&#39;name&#39; = &#39;Romeo&#39; : String</text>
</g>
<!-- N26&#45;&gt;N25 -->
<g id="edge2" class="edge"><title>N26&#45;&gt;N25</title>
<path fill="none" stroke="black" d="M63,-84.7733C63,-73.1053 63,-57.7874 63,-44.8699"/>
<polygon fill="black" stroke="black" points="63,-37.1912 66.3751,-44.6911 63,-40.9412 63.0001,-44.6912 63.0001,-44.6912 63.0001,-44.6912 63,-40.9412 59.6251,-44.6912 63,-37.1912 63,-37.1912"/>
<text text-anchor="middle" x="77" y="-58.8" font-family="FreeSans" font-size="8.00">LOVES</text>
</g>
</g>
</svg>
