<?xml version="1.0" encoding="UTF-8" standalone="no"?>
<!DOCTYPE svg PUBLIC "-//W3C//DTD SVG 1.1//EN"
 "http://www.w3.org/Graphics/SVG/1.1/DTD/svg11.dtd">
<!-- Generated by graphviz version 2.26.3 (20100126.1600)
 -->
<!-- Title: g Pages: 1 -->
<svg width="136pt" height="56pt"
 viewBox="0.00 0.00 136.00 56.00" xmlns="http://www.w3.org/2000/svg" xmlns:xlink="http://www.w3.org/1999/xlink">
<g id="graph1" class="graph" transform="scale(1 1) rotate(0) translate(4 52)">
<title>g</title>
<polygon fill="white" stroke="white" points="-4,5 -4,-52 133,-52 133,5 -4,5"/>
<!-- N111 -->
<g id="node1" class="node"><title>N111</title>
<polygon fill="#fffff0" stroke="#fffff0" points="11.5,-1 116.5,-1 128.5,-13 128.5,-35 116.5,-47 11.5,-47 -0.5,-35 -0.5,-13 11.5,-1"/>
<path fill="#fffff0" stroke="#fffff0" d="M116.5,-1C122.5,-1 128.5,-7 128.5,-13"/>
<path fill="#fffff0" stroke="#fffff0" d="M128.5,-35C128.5,-41 122.5,-47 116.5,-47"/>
<path fill="#fffff0" stroke="#fffff0" d="M11.5,-47C5.5,-47 -0.5,-41 -0.5,-35"/>
<path fill="#fffff0" stroke="#fffff0" d="M-0.5,-13C-0.5,-7 5.5,-1 11.5,-1"/>
<polyline fill="none" stroke="black" points="11.5,-1 116.5,-1 "/>
<path fill="none" stroke="black" d="M116.5,-1C122.5,-1 128.5,-7 128.5,-13"/>
<polyline fill="none" stroke="black" points="128.5,-13 128.5,-35 "/>
<path fill="none" stroke="black" d="M128.5,-35C128.5,-41 122.5,-47 116.5,-47"/>
<polyline fill="none" stroke="black" points="116.5,-47 11.5,-47 "/>
<path fill="none" stroke="black" d="M11.5,-47C5.5,-47 -0.5,-41 -0.5,-35"/>
<polyline fill="none" stroke="black" points="-0.5,-35 -0.5,-13 "/>
<path fill="none" stroke="black" d="M-0.5,-13C-0.5,-7 5.5,-1 11.5,-1"/>
<text text-anchor="middle" x="64" y="-35.8" font-family="FreeSans" font-size="8.00">Node[111]</text>
<polyline fill="none" stroke="black" points="-0.5,-29 128.5,-29 "/>
<text text-anchor="start" x="7.5" y="-17.8" font-family="FreeSans" font-size="8.00">&#39;kvkey2&#39; = &#39;value2&#39; : String</text>
<text text-anchor="start" x="7.5" y="-7.8" font-family="FreeSans" font-size="8.00">&#39;kvkey1&#39; = &#39;value2&#39; : String</text>
</g>
</g>
</svg>
