<?xml version="1.0" encoding="UTF-8" standalone="no"?>
<!DOCTYPE svg PUBLIC "-//W3C//DTD SVG 1.1//EN"
 "http://www.w3.org/Graphics/SVG/1.1/DTD/svg11.dtd">
<!-- Generated by graphviz version 2.26.3 (20100126.1600)
 -->
<!-- Title: g Pages: 1 -->
<svg width="120pt" height="130pt"
 viewBox="0.00 0.00 120.00 130.00" xmlns="http://www.w3.org/2000/svg" xmlns:xlink="http://www.w3.org/1999/xlink">
<g id="graph1" class="graph" transform="scale(1 1) rotate(0) translate(4 126)">
<title>g</title>
<polygon fill="white" stroke="white" points="-4,5 -4,-126 117,-126 117,5 -4,5"/>
<!-- N29 -->
<g id="node1" class="node"><title>N29</title>
<polygon fill="#fffff0" stroke="#fffff0" points="12,-1 100,-1 112,-13 112,-25 100,-37 12,-37 0,-25 0,-13 12,-1"/>
<path fill="#fffff0" stroke="#fffff0" d="M100,-1C106,-1 112,-7 112,-13"/>
<path fill="#fffff0" stroke="#fffff0" d="M112,-25C112,-31 106,-37 100,-37"/>
<path fill="#fffff0" stroke="#fffff0" d="M12,-37C6,-37 0,-31 0,-25"/>
<path fill="#fffff0" stroke="#fffff0" d="M0,-13C0,-7 6,-1 12,-1"/>
<polyline fill="none" stroke="black" points="12,-1 100,-1 "/>
<path fill="none" stroke="black" d="M100,-1C106,-1 112,-7 112,-13"/>
<polyline fill="none" stroke="black" points="112,-13 112,-25 "/>
<path fill="none" stroke="black" d="M112,-25C112,-31 106,-37 100,-37"/>
<polyline fill="none" stroke="black" points="100,-37 12,-37 "/>
<path fill="none" stroke="black" d="M12,-37C6,-37 0,-31 0,-25"/>
<polyline fill="none" stroke="black" points="0,-25 0,-13 "/>
<path fill="none" stroke="black" d="M0,-13C0,-7 6,-1 12,-1"/>
<text text-anchor="middle" x="56" y="-25.8" font-family="FreeSans" font-size="8.00">Node[29]</text>
<polyline fill="none" stroke="black" points="0,-19 112,-19 "/>
<text text-anchor="start" x="8" y="-7.8" font-family="FreeSans" font-size="8.00">&#39;name&#39; = &#39;you&#39; : String</text>
</g>
<!-- N30 -->
<g id="node2" class="node"><title>N30</title>
<polygon fill="#fffff0" stroke="#fffff0" points="18.5,-85 93.5,-85 105.5,-97 105.5,-109 93.5,-121 18.5,-121 6.5,-109 6.5,-97 18.5,-85"/>
<path fill="#fffff0" stroke="#fffff0" d="M93.5,-85C99.5,-85 105.5,-91 105.5,-97"/>
<path fill="#fffff0" stroke="#fffff0" d="M105.5,-109C105.5,-115 99.5,-121 93.5,-121"/>
<path fill="#fffff0" stroke="#fffff0" d="M18.5,-121C12.5,-121 6.5,-115 6.5,-109"/>
<path fill="#fffff0" stroke="#fffff0" d="M6.5,-97C6.5,-91 12.5,-85 18.5,-85"/>
<polyline fill="none" stroke="black" points="18.5,-85 93.5,-85 "/>
<path fill="none" stroke="black" d="M93.5,-85C99.5,-85 105.5,-91 105.5,-97"/>
<polyline fill="none" stroke="black" points="105.5,-97 105.5,-109 "/>
<path fill="none" stroke="black" d="M105.5,-109C105.5,-115 99.5,-121 93.5,-121"/>
<polyline fill="none" stroke="black" points="93.5,-121 18.5,-121 "/>
<path fill="none" stroke="black" d="M18.5,-121C12.5,-121 6.5,-115 6.5,-109"/>
<polyline fill="none" stroke="black" points="6.5,-109 6.5,-97 "/>
<path fill="none" stroke="black" d="M6.5,-97C6.5,-91 12.5,-85 18.5,-85"/>
<text text-anchor="middle" x="56" y="-109.8" font-family="FreeSans" font-size="8.00">Node[30]</text>
<polyline fill="none" stroke="black" points="6.5,-103 105.5,-103 "/>
<text text-anchor="start" x="14.5" y="-91.8" font-family="FreeSans" font-size="8.00">&#39;name&#39; = &#39;I&#39; : String</text>
</g>
<!-- N30&#45;&gt;N29 -->
<g id="edge2" class="edge"><title>N30&#45;&gt;N29</title>
<path fill="none" stroke="black" d="M56,-84.7733C56,-73.1053 56,-57.7874 56,-44.8699"/>
<polygon fill="black" stroke="black" points="56,-37.1912 59.3751,-44.6911 56,-40.9412 56.0001,-44.6912 56.0001,-44.6912 56.0001,-44.6912 56,-40.9412 52.6251,-44.6912 56,-37.1912 56,-37.1912"/>
<text text-anchor="middle" x="67" y="-58.8" font-family="FreeSans" font-size="8.00">know</text>
</g>
</g>
</svg>
