<?xml version="1.0" encoding="UTF-8" standalone="no"?>
<!DOCTYPE svg PUBLIC "-//W3C//DTD SVG 1.1//EN"
 "http://www.w3.org/Graphics/SVG/1.1/DTD/svg11.dtd">
<!-- Generated by graphviz version 2.26.3 (20100126.1600)
 -->
<!-- Title: g Pages: 1 -->
<svg width="151pt" height="140pt"
 viewBox="0.00 0.00 151.00 140.00" xmlns="http://www.w3.org/2000/svg" xmlns:xlink="http://www.w3.org/1999/xlink">
<g id="graph1" class="graph" transform="scale(1 1) rotate(0) translate(4 136)">
<title>g</title>
<polygon fill="white" stroke="white" points="-4,5 -4,-136 148,-136 148,5 -4,5"/>
<!-- N91 -->
<g id="node1" class="node"><title>N91</title>
<polygon fill="#fffff0" stroke="#fffff0" points="11.5,-1 104.5,-1 116.5,-13 116.5,-25 104.5,-37 11.5,-37 -0.5,-25 -0.5,-13 11.5,-1"/>
<path fill="#fffff0" stroke="#fffff0" d="M104.5,-1C110.5,-1 116.5,-7 116.5,-13"/>
<path fill="#fffff0" stroke="#fffff0" d="M116.5,-25C116.5,-31 110.5,-37 104.5,-37"/>
<path fill="#fffff0" stroke="#fffff0" d="M11.5,-37C5.5,-37 -0.5,-31 -0.5,-25"/>
<path fill="#fffff0" stroke="#fffff0" d="M-0.5,-13C-0.5,-7 5.5,-1 11.5,-1"/>
<polyline fill="none" stroke="black" points="11.5,-1 104.5,-1 "/>
<path fill="none" stroke="black" d="M104.5,-1C110.5,-1 116.5,-7 116.5,-13"/>
<polyline fill="none" stroke="black" points="116.5,-13 116.5,-25 "/>
<path fill="none" stroke="black" d="M116.5,-25C116.5,-31 110.5,-37 104.5,-37"/>
<polyline fill="none" stroke="black" points="104.5,-37 11.5,-37 "/>
<path fill="none" stroke="black" d="M11.5,-37C5.5,-37 -0.5,-31 -0.5,-25"/>
<polyline fill="none" stroke="black" points="-0.5,-25 -0.5,-13 "/>
<path fill="none" stroke="black" d="M-0.5,-13C-0.5,-7 5.5,-1 11.5,-1"/>
<text text-anchor="middle" x="58" y="-25.8" font-family="FreeSans" font-size="8.00">Node[91]</text>
<polyline fill="none" stroke="black" points="-0.5,-19 116.5,-19 "/>
<text text-anchor="start" x="7.5" y="-7.8" font-family="FreeSans" font-size="8.00">&#39;name&#39; = &#39;Sara&#39; : String</text>
</g>
<!-- N92 -->
<g id="node2" class="node"><title>N92</title>
<polygon fill="#fffff0" stroke="#fffff0" points="15,-95 101,-95 113,-107 113,-119 101,-131 15,-131 3,-119 3,-107 15,-95"/>
<path fill="#fffff0" stroke="#fffff0" d="M101,-95C107,-95 113,-101 113,-107"/>
<path fill="#fffff0" stroke="#fffff0" d="M113,-119C113,-125 107,-131 101,-131"/>
<path fill="#fffff0" stroke="#fffff0" d="M15,-131C9,-131 3,-125 3,-119"/>
<path fill="#fffff0" stroke="#fffff0" d="M3,-107C3,-101 9,-95 15,-95"/>
<polyline fill="none" stroke="black" points="15,-95 101,-95 "/>
<path fill="none" stroke="black" d="M101,-95C107,-95 113,-101 113,-107"/>
<polyline fill="none" stroke="black" points="113,-107 113,-119 "/>
<path fill="none" stroke="black" d="M113,-119C113,-125 107,-131 101,-131"/>
<polyline fill="none" stroke="black" points="101,-131 15,-131 "/>
<path fill="none" stroke="black" d="M15,-131C9,-131 3,-125 3,-119"/>
<polyline fill="none" stroke="black" points="3,-119 3,-107 "/>
<path fill="none" stroke="black" d="M3,-107C3,-101 9,-95 15,-95"/>
<text text-anchor="middle" x="58" y="-119.8" font-family="FreeSans" font-size="8.00">Node[92]</text>
<polyline fill="none" stroke="black" points="3,-113 113,-113 "/>
<text text-anchor="start" x="11" y="-101.8" font-family="FreeSans" font-size="8.00">&#39;name&#39; = &#39;Joe&#39; : String</text>
</g>
<!-- N92&#45;&gt;N91 -->
<g id="edge2" class="edge"><title>N92&#45;&gt;N91</title>
<path fill="none" stroke="black" d="M37.1582,-94.8719C32.2257,-89.3621 27.6364,-82.9169 25,-76 21.8341,-67.694 21.8341,-64.306 25,-56 26.7302,-51.4608 29.3013,-47.1247 32.2586,-43.1228"/>
<polygon fill="black" stroke="black" points="37.1582,-37.1281 35.0251,-45.0711 34.785,-40.0317 32.4119,-42.9353 32.4119,-42.9353 32.4119,-42.9353 34.785,-40.0317 29.7987,-40.7994 37.1582,-37.1281 37.1582,-37.1281"/>
<text text-anchor="middle" x="39" y="-63.8" font-family="FreeSans" font-size="8.00">knows</text>
</g>
<!-- N92&#45;&gt;N91 -->
<g id="edge4" class="edge"><title>N92&#45;&gt;N91</title>
<path fill="none" stroke="black" d="M58,-94.8759C58,-80.7014 58,-60.806 58,-44.944"/>
<polygon fill="black" stroke="black" points="58,-37.0685 61.3751,-44.5685 58,-40.8185 58.0001,-44.5685 58.0001,-44.5685 58.0001,-44.5685 58,-40.8185 54.6251,-44.5685 58,-37.0685 58,-37.0685"/>
<text text-anchor="middle" x="100.5" y="-68.8" font-family="FreeSans" font-size="8.00">LOVES</text>
<text text-anchor="start" x="58" y="-58.8" font-family="FreeSans" font-size="8.00">&#39;foo&#39; = &#39;bar&#39; : String</text>
</g>
</g>
</svg>
