<?xml version="1.0" encoding="UTF-8" standalone="no"?>
<!DOCTYPE svg PUBLIC "-//W3C//DTD SVG 1.1//EN"
 "http://www.w3.org/Graphics/SVG/1.1/DTD/svg11.dtd">
<!-- Generated by graphviz version 2.26.3 (20100126.1600)
 -->
<!-- Title: g Pages: 1 -->
<svg width="462pt" height="382pt"
 viewBox="0.00 0.00 462.00 382.00" xmlns="http://www.w3.org/2000/svg" xmlns:xlink="http://www.w3.org/1999/xlink">
<g id="graph1" class="graph" transform="scale(1 1) rotate(0) translate(4 378)">
<title>g</title>
<polygon fill="white" stroke="white" points="-4,5 -4,-378 459,-378 459,5 -4,5"/>
<!-- N33 -->
<g id="node1" class="node"><title>N33</title>
<polygon fill="#fffff0" stroke="#fffff0" points="11.5,-253 118.5,-253 130.5,-265 130.5,-277 118.5,-289 11.5,-289 -0.5,-277 -0.5,-265 11.5,-253"/>
<path fill="#fffff0" stroke="#fffff0" d="M118.5,-253C124.5,-253 130.5,-259 130.5,-265"/>
<path fill="#fffff0" stroke="#fffff0" d="M130.5,-277C130.5,-283 124.5,-289 118.5,-289"/>
<path fill="#fffff0" stroke="#fffff0" d="M11.5,-289C5.5,-289 -0.5,-283 -0.5,-277"/>
<path fill="#fffff0" stroke="#fffff0" d="M-0.5,-265C-0.5,-259 5.5,-253 11.5,-253"/>
<polyline fill="none" stroke="black" points="11.5,-253 118.5,-253 "/>
<path fill="none" stroke="black" d="M118.5,-253C124.5,-253 130.5,-259 130.5,-265"/>
<polyline fill="none" stroke="black" points="130.5,-265 130.5,-277 "/>
<path fill="none" stroke="black" d="M130.5,-277C130.5,-283 124.5,-289 118.5,-289"/>
<polyline fill="none" stroke="black" points="118.5,-289 11.5,-289 "/>
<path fill="none" stroke="black" d="M11.5,-289C5.5,-289 -0.5,-283 -0.5,-277"/>
<polyline fill="none" stroke="black" points="-0.5,-277 -0.5,-265 "/>
<path fill="none" stroke="black" d="M-0.5,-265C-0.5,-259 5.5,-253 11.5,-253"/>
<text text-anchor="middle" x="65" y="-277.8" font-family="FreeSans" font-size="8.00">Node[33]</text>
<polyline fill="none" stroke="black" points="-0.5,-271 130.5,-271 "/>
<text text-anchor="start" x="7.5" y="-259.8" font-family="FreeSans" font-size="8.00">&#39;name&#39; = &#39;U1G2R1&#39; : String</text>
</g>
<!-- N37 -->
<g id="node3" class="node"><title>N37</title>
<polygon fill="#fffff0" stroke="#fffff0" points="41,-85 137,-85 149,-97 149,-109 137,-121 41,-121 29,-109 29,-97 41,-85"/>
<path fill="#fffff0" stroke="#fffff0" d="M137,-85C143,-85 149,-91 149,-97"/>
<path fill="#fffff0" stroke="#fffff0" d="M149,-109C149,-115 143,-121 137,-121"/>
<path fill="#fffff0" stroke="#fffff0" d="M41,-121C35,-121 29,-115 29,-109"/>
<path fill="#fffff0" stroke="#fffff0" d="M29,-97C29,-91 35,-85 41,-85"/>
<polyline fill="none" stroke="black" points="41,-85 137,-85 "/>
<path fill="none" stroke="black" d="M137,-85C143,-85 149,-91 149,-97"/>
<polyline fill="none" stroke="black" points="149,-97 149,-109 "/>
<path fill="none" stroke="black" d="M149,-109C149,-115 143,-121 137,-121"/>
<polyline fill="none" stroke="black" points="137,-121 41,-121 "/>
<path fill="none" stroke="black" d="M41,-121C35,-121 29,-115 29,-109"/>
<polyline fill="none" stroke="black" points="29,-109 29,-97 "/>
<path fill="none" stroke="black" d="M29,-97C29,-91 35,-85 41,-85"/>
<text text-anchor="middle" x="89" y="-109.8" font-family="FreeSans" font-size="8.00">Node[37]</text>
<polyline fill="none" stroke="black" points="29,-103 149,-103 "/>
<text text-anchor="start" x="37" y="-91.8" font-family="FreeSans" font-size="8.00">&#39;name&#39; = &#39;Role1&#39; : String</text>
</g>
<!-- N33&#45;&gt;N37 -->
<g id="edge2" class="edge"><title>N33&#45;&gt;N37</title>
<path fill="none" stroke="black" d="M59.2737,-252.868C53.5761,-232.08 46.658,-197.121 54,-168 57.5883,-153.767 64.9706,-139.26 72.0342,-127.573"/>
<polygon fill="black" stroke="black" points="76.1253,-121.041 75.0047,-129.189 74.1348,-124.219 72.1443,-127.397 72.1443,-127.397 72.1443,-127.397 74.1348,-124.219 69.284,-125.606 76.1253,-121.041 76.1253,-121.041"/>
<text text-anchor="middle" x="71" y="-184.8" font-family="FreeSans" font-size="8.00">hasRole</text>
</g>
<!-- N36 -->
<g id="node5" class="node"><title>N36</title>
<polygon fill="#fffff0" stroke="#fffff0" points="114,-169 218,-169 230,-181 230,-193 218,-205 114,-205 102,-193 102,-181 114,-169"/>
<path fill="#fffff0" stroke="#fffff0" d="M218,-169C224,-169 230,-175 230,-181"/>
<path fill="#fffff0" stroke="#fffff0" d="M230,-193C230,-199 224,-205 218,-205"/>
<path fill="#fffff0" stroke="#fffff0" d="M114,-205C108,-205 102,-199 102,-193"/>
<path fill="#fffff0" stroke="#fffff0" d="M102,-181C102,-175 108,-169 114,-169"/>
<polyline fill="none" stroke="black" points="114,-169 218,-169 "/>
<path fill="none" stroke="black" d="M218,-169C224,-169 230,-175 230,-181"/>
<polyline fill="none" stroke="black" points="230,-181 230,-193 "/>
<path fill="none" stroke="black" d="M230,-193C230,-199 224,-205 218,-205"/>
<polyline fill="none" stroke="black" points="218,-205 114,-205 "/>
<path fill="none" stroke="black" d="M114,-205C108,-205 102,-199 102,-193"/>
<polyline fill="none" stroke="black" points="102,-193 102,-181 "/>
<path fill="none" stroke="black" d="M102,-181C102,-175 108,-169 114,-169"/>
<text text-anchor="middle" x="166" y="-193.8" font-family="FreeSans" font-size="8.00">Node[36]</text>
<polyline fill="none" stroke="black" points="102,-187 230,-187 "/>
<text text-anchor="start" x="110" y="-175.8" font-family="FreeSans" font-size="8.00">&#39;name&#39; = &#39;Group2&#39; : String</text>
</g>
<!-- N33&#45;&gt;N36 -->
<g id="edge4" class="edge"><title>N33&#45;&gt;N36</title>
<path fill="none" stroke="black" d="M86.9155,-252.773C102.004,-240.225 122.168,-223.454 138.359,-209.989"/>
<polygon fill="black" stroke="black" points="144.127,-205.191 140.519,-212.582 141.244,-207.589 138.361,-209.987 138.361,-209.987 138.361,-209.987 141.244,-207.589 136.203,-207.392 144.127,-205.191 144.127,-205.191"/>
<text text-anchor="middle" x="139.5" y="-226.8" font-family="FreeSans" font-size="8.00">hasGroup</text>
</g>
<!-- N38 -->
<g id="node8" class="node"><title>N38</title>
<polygon fill="#fffff0" stroke="#fffff0" points="227.5,-1 318.5,-1 330.5,-13 330.5,-25 318.5,-37 227.5,-37 215.5,-25 215.5,-13 227.5,-1"/>
<path fill="#fffff0" stroke="#fffff0" d="M318.5,-1C324.5,-1 330.5,-7 330.5,-13"/>
<path fill="#fffff0" stroke="#fffff0" d="M330.5,-25C330.5,-31 324.5,-37 318.5,-37"/>
<path fill="#fffff0" stroke="#fffff0" d="M227.5,-37C221.5,-37 215.5,-31 215.5,-25"/>
<path fill="#fffff0" stroke="#fffff0" d="M215.5,-13C215.5,-7 221.5,-1 227.5,-1"/>
<polyline fill="none" stroke="black" points="227.5,-1 318.5,-1 "/>
<path fill="none" stroke="black" d="M318.5,-1C324.5,-1 330.5,-7 330.5,-13"/>
<polyline fill="none" stroke="black" points="330.5,-13 330.5,-25 "/>
<path fill="none" stroke="black" d="M330.5,-25C330.5,-31 324.5,-37 318.5,-37"/>
<polyline fill="none" stroke="black" points="318.5,-37 227.5,-37 "/>
<path fill="none" stroke="black" d="M227.5,-37C221.5,-37 215.5,-31 215.5,-25"/>
<polyline fill="none" stroke="black" points="215.5,-25 215.5,-13 "/>
<path fill="none" stroke="black" d="M215.5,-13C215.5,-7 221.5,-1 227.5,-1"/>
<text text-anchor="middle" x="273" y="-25.8" font-family="FreeSans" font-size="8.00">Node[38]</text>
<polyline fill="none" stroke="black" points="215.5,-19 330.5,-19 "/>
<text text-anchor="start" x="223.5" y="-7.8" font-family="FreeSans" font-size="8.00">&#39;name&#39; = &#39;Role&#39; : String</text>
</g>
<!-- N37&#45;&gt;N38 -->
<g id="edge20" class="edge"><title>N37&#45;&gt;N38</title>
<path fill="none" stroke="black" d="M128.473,-84.9799C157.116,-71.9036 195.975,-54.1635 226.186,-40.3715"/>
<polygon fill="black" stroke="black" points="233.276,-37.135 227.855,-43.32 229.864,-38.6924 226.453,-40.2498 226.453,-40.2498 226.453,-40.2498 229.864,-38.6924 225.051,-37.1796 233.276,-37.135 233.276,-37.135"/>
<text text-anchor="middle" x="192.5" y="-58.8" font-family="FreeSans" font-size="8.00">isA</text>
</g>
<!-- N36&#45;&gt;N37 -->
<g id="edge16" class="edge"><title>N36&#45;&gt;N37</title>
<path fill="none" stroke="black" d="M130.828,-168.829C122.914,-163.55 115.071,-157.227 109,-150 103.781,-143.787 99.7378,-136.011 96.6965,-128.583"/>
<polygon fill="black" stroke="black" points="93.9829,-121.342 99.7752,-127.181 95.2989,-124.854 96.6149,-128.365 96.6149,-128.365 96.6149,-128.365 95.2989,-124.854 93.4545,-129.55 93.9829,-121.342 93.9829,-121.342"/>
<text text-anchor="middle" x="127.5" y="-142.8" font-family="FreeSans" font-size="8.00">canHave</text>
</g>
<!-- N34 -->
<g id="node6" class="node"><title>N34</title>
<polygon fill="#fffff0" stroke="#fffff0" points="346,-85 442,-85 454,-97 454,-109 442,-121 346,-121 334,-109 334,-97 346,-85"/>
<path fill="#fffff0" stroke="#fffff0" d="M442,-85C448,-85 454,-91 454,-97"/>
<path fill="#fffff0" stroke="#fffff0" d="M454,-109C454,-115 448,-121 442,-121"/>
<path fill="#fffff0" stroke="#fffff0" d="M346,-121C340,-121 334,-115 334,-109"/>
<path fill="#fffff0" stroke="#fffff0" d="M334,-97C334,-91 340,-85 346,-85"/>
<polyline fill="none" stroke="black" points="346,-85 442,-85 "/>
<path fill="none" stroke="black" d="M442,-85C448,-85 454,-91 454,-97"/>
<polyline fill="none" stroke="black" points="454,-97 454,-109 "/>
<path fill="none" stroke="black" d="M454,-109C454,-115 448,-121 442,-121"/>
<polyline fill="none" stroke="black" points="442,-121 346,-121 "/>
<path fill="none" stroke="black" d="M346,-121C340,-121 334,-115 334,-109"/>
<polyline fill="none" stroke="black" points="334,-109 334,-97 "/>
<path fill="none" stroke="black" d="M334,-97C334,-91 340,-85 346,-85"/>
<text text-anchor="middle" x="394" y="-109.8" font-family="FreeSans" font-size="8.00">Node[34]</text>
<polyline fill="none" stroke="black" points="334,-103 454,-103 "/>
<text text-anchor="start" x="342" y="-91.8" font-family="FreeSans" font-size="8.00">&#39;name&#39; = &#39;Role2&#39; : String</text>
</g>
<!-- N36&#45;&gt;N34 -->
<g id="edge14" class="edge"><title>N36&#45;&gt;N34</title>
<path fill="none" stroke="black" d="M203.42,-168.839C223.249,-159.577 248.166,-148.504 271,-140 288.645,-133.428 308.031,-127.166 326.091,-121.725"/>
<polygon fill="black" stroke="black" points="333.74,-119.444 327.517,-124.821 330.147,-120.516 326.553,-121.587 326.553,-121.587 326.553,-121.587 330.147,-120.516 325.589,-118.353 333.74,-119.444 333.74,-119.444"/>
<text text-anchor="middle" x="289.5" y="-142.8" font-family="FreeSans" font-size="8.00">canHave</text>
</g>
<!-- N41 -->
<g id="node13" class="node"><title>N41</title>
<polygon fill="#fffff0" stroke="#fffff0" points="192.5,-85 291.5,-85 303.5,-97 303.5,-109 291.5,-121 192.5,-121 180.5,-109 180.5,-97 192.5,-85"/>
<path fill="#fffff0" stroke="#fffff0" d="M291.5,-85C297.5,-85 303.5,-91 303.5,-97"/>
<path fill="#fffff0" stroke="#fffff0" d="M303.5,-109C303.5,-115 297.5,-121 291.5,-121"/>
<path fill="#fffff0" stroke="#fffff0" d="M192.5,-121C186.5,-121 180.5,-115 180.5,-109"/>
<path fill="#fffff0" stroke="#fffff0" d="M180.5,-97C180.5,-91 186.5,-85 192.5,-85"/>
<polyline fill="none" stroke="black" points="192.5,-85 291.5,-85 "/>
<path fill="none" stroke="black" d="M291.5,-85C297.5,-85 303.5,-91 303.5,-97"/>
<polyline fill="none" stroke="black" points="303.5,-97 303.5,-109 "/>
<path fill="none" stroke="black" d="M303.5,-109C303.5,-115 297.5,-121 291.5,-121"/>
<polyline fill="none" stroke="black" points="291.5,-121 192.5,-121 "/>
<path fill="none" stroke="black" d="M192.5,-121C186.5,-121 180.5,-115 180.5,-109"/>
<polyline fill="none" stroke="black" points="180.5,-109 180.5,-97 "/>
<path fill="none" stroke="black" d="M180.5,-97C180.5,-91 186.5,-85 192.5,-85"/>
<text text-anchor="middle" x="242" y="-109.8" font-family="FreeSans" font-size="8.00">Node[41]</text>
<polyline fill="none" stroke="black" points="180.5,-103 303.5,-103 "/>
<text text-anchor="start" x="188.5" y="-91.8" font-family="FreeSans" font-size="8.00">&#39;name&#39; = &#39;Group&#39; : String</text>
</g>
<!-- N36&#45;&gt;N41 -->
<g id="edge18" class="edge"><title>N36&#45;&gt;N41</title>
<path fill="none" stroke="black" d="M156.617,-168.817C153.228,-159.549 151.444,-148.477 157,-140 161.301,-133.438 167.046,-128.033 173.529,-123.583"/>
<polygon fill="black" stroke="black" points="180.233,-119.443 175.624,-126.256 177.042,-121.414 173.851,-123.384 173.851,-123.384 173.851,-123.384 177.042,-121.414 172.078,-120.512 180.233,-119.443 180.233,-119.443"/>
<text text-anchor="middle" x="163.5" y="-142.8" font-family="FreeSans" font-size="8.00">isA</text>
</g>
<!-- N34&#45;&gt;N38 -->
<g id="edge6" class="edge"><title>N34&#45;&gt;N38</title>
<path fill="none" stroke="black" d="M368.042,-84.9799C349.746,-72.2781 325.111,-55.1759 305.506,-41.5662"/>
<polygon fill="black" stroke="black" points="299.332,-37.2801 307.418,-38.7848 302.413,-39.4187 305.493,-41.5572 305.493,-41.5572 305.493,-41.5572 302.413,-39.4187 303.568,-44.3296 299.332,-37.2801 299.332,-37.2801"/>
<text text-anchor="middle" x="343.5" y="-58.8" font-family="FreeSans" font-size="8.00">isA</text>
</g>
<!-- N35 -->
<g id="node9" class="node"><title>N35</title>
<polygon fill="#fffff0" stroke="#fffff0" points="278,-169 382,-169 394,-181 394,-193 382,-205 278,-205 266,-193 266,-181 278,-169"/>
<path fill="#fffff0" stroke="#fffff0" d="M382,-169C388,-169 394,-175 394,-181"/>
<path fill="#fffff0" stroke="#fffff0" d="M394,-193C394,-199 388,-205 382,-205"/>
<path fill="#fffff0" stroke="#fffff0" d="M278,-205C272,-205 266,-199 266,-193"/>
<path fill="#fffff0" stroke="#fffff0" d="M266,-181C266,-175 272,-169 278,-169"/>
<polyline fill="none" stroke="black" points="278,-169 382,-169 "/>
<path fill="none" stroke="black" d="M382,-169C388,-169 394,-175 394,-181"/>
<polyline fill="none" stroke="black" points="394,-181 394,-193 "/>
<path fill="none" stroke="black" d="M394,-193C394,-199 388,-205 382,-205"/>
<polyline fill="none" stroke="black" points="382,-205 278,-205 "/>
<path fill="none" stroke="black" d="M278,-205C272,-205 266,-199 266,-193"/>
<polyline fill="none" stroke="black" points="266,-193 266,-181 "/>
<path fill="none" stroke="black" d="M266,-181C266,-175 272,-169 278,-169"/>
<text text-anchor="middle" x="330" y="-193.8" font-family="FreeSans" font-size="8.00">Node[35]</text>
<polyline fill="none" stroke="black" points="266,-187 394,-187 "/>
<text text-anchor="start" x="274" y="-175.8" font-family="FreeSans" font-size="8.00">&#39;name&#39; = &#39;Group1&#39; : String</text>
</g>
<!-- N35&#45;&gt;N37 -->
<g id="edge8" class="edge"><title>N35&#45;&gt;N37</title>
<path fill="none" stroke="black" d="M265.942,-169.791C245.666,-163.956 223.263,-157.106 203,-150 180.953,-142.269 156.986,-132.588 136.743,-124.025"/>
<polygon fill="black" stroke="black" points="129.747,-121.047 137.97,-120.879 133.197,-122.516 136.648,-123.984 136.648,-123.984 136.648,-123.984 133.197,-122.516 135.326,-127.09 129.747,-121.047 129.747,-121.047"/>
<text text-anchor="middle" x="221.5" y="-142.8" font-family="FreeSans" font-size="8.00">canHave</text>
</g>
<!-- N35&#45;&gt;N34 -->
<g id="edge10" class="edge"><title>N35&#45;&gt;N34</title>
<path fill="none" stroke="black" d="M346.38,-168.906C351.527,-162.999 357.134,-156.329 362,-150 367.436,-142.93 373.02,-134.996 377.971,-127.689"/>
<polygon fill="black" stroke="black" points="382.318,-121.198 380.949,-129.308 380.231,-124.314 378.145,-127.43 378.145,-127.43 378.145,-127.43 380.231,-124.314 375.341,-125.552 382.318,-121.198 382.318,-121.198"/>
<text text-anchor="middle" x="386.5" y="-142.8" font-family="FreeSans" font-size="8.00">canHave</text>
</g>
<!-- N35&#45;&gt;N41 -->
<g id="edge12" class="edge"><title>N35&#45;&gt;N41</title>
<path fill="none" stroke="black" d="M327.64,-168.849C325.62,-159.367 321.885,-148.087 315,-140 310.095,-134.239 304.072,-129.274 297.609,-125.023"/>
<polygon fill="black" stroke="black" points="291.023,-121.006 299.184,-122.03 294.225,-122.959 297.427,-124.912 297.427,-124.912 297.427,-124.912 294.225,-122.959 295.669,-127.793 291.023,-121.006 291.023,-121.006"/>
<text text-anchor="middle" x="326.5" y="-142.8" font-family="FreeSans" font-size="8.00">isA</text>
</g>
<!-- N39 -->
<g id="node18" class="node"><title>N39</title>
<polygon fill="#fffff0" stroke="#fffff0" points="172,-337 270,-337 282,-349 282,-361 270,-373 172,-373 160,-361 160,-349 172,-337"/>
<path fill="#fffff0" stroke="#fffff0" d="M270,-337C276,-337 282,-343 282,-349"/>
<path fill="#fffff0" stroke="#fffff0" d="M282,-361C282,-367 276,-373 270,-373"/>
<path fill="#fffff0" stroke="#fffff0" d="M172,-373C166,-373 160,-367 160,-361"/>
<path fill="#fffff0" stroke="#fffff0" d="M160,-349C160,-343 166,-337 172,-337"/>
<polyline fill="none" stroke="black" points="172,-337 270,-337 "/>
<path fill="none" stroke="black" d="M270,-337C276,-337 282,-343 282,-349"/>
<polyline fill="none" stroke="black" points="282,-349 282,-361 "/>
<path fill="none" stroke="black" d="M282,-361C282,-367 276,-373 270,-373"/>
<polyline fill="none" stroke="black" points="270,-373 172,-373 "/>
<path fill="none" stroke="black" d="M172,-373C166,-373 160,-367 160,-361"/>
<polyline fill="none" stroke="black" points="160,-361 160,-349 "/>
<path fill="none" stroke="black" d="M160,-349C160,-343 166,-337 172,-337"/>
<text text-anchor="middle" x="221" y="-361.8" font-family="FreeSans" font-size="8.00">Node[39]</text>
<polyline fill="none" stroke="black" points="160,-355 282,-355 "/>
<text text-anchor="start" x="168" y="-343.8" font-family="FreeSans" font-size="8.00">&#39;name&#39; = &#39;User1&#39; : String</text>
</g>
<!-- N39&#45;&gt;N33 -->
<g id="edge26" class="edge"><title>N39&#45;&gt;N33</title>
<path fill="none" stroke="black" d="M159.782,-345.07C138.801,-339.556 116.078,-331.055 98,-318 90.0433,-312.254 83.3264,-303.978 78.0723,-295.967"/>
<polygon fill="black" stroke="black" points="74.0077,-289.361 80.8126,-293.98 75.9729,-292.555 77.9381,-295.749 77.9381,-295.749 77.9381,-295.749 75.9729,-292.555 75.0637,-297.517 74.0077,-289.361 74.0077,-289.361"/>
<text text-anchor="middle" x="132" y="-310.8" font-family="FreeSans" font-size="8.00">hasRoleInGroup</text>
</g>
<!-- N39&#45;&gt;N36 -->
<g id="edge24" class="edge"><title>N39&#45;&gt;N36</title>
<path fill="none" stroke="black" d="M215.009,-336.701C205.148,-306.578 185.474,-246.486 174.285,-212.308"/>
<polygon fill="black" stroke="black" points="171.9,-205.022 177.441,-211.1 173.067,-208.586 174.234,-212.15 174.234,-212.15 174.234,-212.15 173.067,-208.586 171.026,-213.2 171.9,-205.022 171.9,-205.022"/>
<text text-anchor="middle" x="202" y="-268.8" font-family="FreeSans" font-size="8.00">in</text>
</g>
<!-- N39&#45;&gt;N35 -->
<g id="edge22" class="edge"><title>N39&#45;&gt;N35</title>
<path fill="none" stroke="black" d="M227.389,-336.965C235.382,-315.657 250.315,-279.614 269,-252 279.062,-237.13 292.532,-222.388 304.255,-210.712"/>
<polygon fill="black" stroke="black" points="309.846,-205.24 306.847,-212.898 307.166,-207.863 304.486,-210.486 304.486,-210.486 304.486,-210.486 307.166,-207.863 302.126,-208.074 309.846,-205.24 309.846,-205.24"/>
<text text-anchor="middle" x="273" y="-268.8" font-family="FreeSans" font-size="8.00">in</text>
</g>
<!-- N40 -->
<g id="node23" class="node"><title>N40</title>
<polygon fill="#fffff0" stroke="#fffff0" points="302.5,-253 409.5,-253 421.5,-265 421.5,-277 409.5,-289 302.5,-289 290.5,-277 290.5,-265 302.5,-253"/>
<path fill="#fffff0" stroke="#fffff0" d="M409.5,-253C415.5,-253 421.5,-259 421.5,-265"/>
<path fill="#fffff0" stroke="#fffff0" d="M421.5,-277C421.5,-283 415.5,-289 409.5,-289"/>
<path fill="#fffff0" stroke="#fffff0" d="M302.5,-289C296.5,-289 290.5,-283 290.5,-277"/>
<path fill="#fffff0" stroke="#fffff0" d="M290.5,-265C290.5,-259 296.5,-253 302.5,-253"/>
<polyline fill="none" stroke="black" points="302.5,-253 409.5,-253 "/>
<path fill="none" stroke="black" d="M409.5,-253C415.5,-253 421.5,-259 421.5,-265"/>
<polyline fill="none" stroke="black" points="421.5,-265 421.5,-277 "/>
<path fill="none" stroke="black" d="M421.5,-277C421.5,-283 415.5,-289 409.5,-289"/>
<polyline fill="none" stroke="black" points="409.5,-289 302.5,-289 "/>
<path fill="none" stroke="black" d="M302.5,-289C296.5,-289 290.5,-283 290.5,-277"/>
<polyline fill="none" stroke="black" points="290.5,-277 290.5,-265 "/>
<path fill="none" stroke="black" d="M290.5,-265C290.5,-259 296.5,-253 302.5,-253"/>
<text text-anchor="middle" x="356" y="-277.8" font-family="FreeSans" font-size="8.00">Node[40]</text>
<polyline fill="none" stroke="black" points="290.5,-271 421.5,-271 "/>
<text text-anchor="start" x="298.5" y="-259.8" font-family="FreeSans" font-size="8.00">&#39;name&#39; = &#39;U1G1R2&#39; : String</text>
</g>
<!-- N39&#45;&gt;N40 -->
<g id="edge28" class="edge"><title>N39&#45;&gt;N40</title>
<path fill="none" stroke="black" d="M249.961,-336.98C270.463,-324.223 298.098,-307.028 320.017,-293.39"/>
<polygon fill="black" stroke="black" points="326.621,-289.28 322.036,-296.108 323.437,-291.261 320.253,-293.242 320.253,-293.242 320.253,-293.242 323.437,-291.261 318.47,-290.377 326.621,-289.28 326.621,-289.28"/>
<text text-anchor="middle" x="326" y="-310.8" font-family="FreeSans" font-size="8.00">hasRoleInGroup</text>
</g>
<!-- N40&#45;&gt;N34 -->
<g id="edge30" class="edge"><title>N40&#45;&gt;N34</title>
<path fill="none" stroke="black" d="M377.715,-252.73C389.861,-240.89 403.613,-224.298 409,-206 417.293,-177.832 418.591,-168.614 412,-140 411.101,-136.097 409.733,-132.13 408.143,-128.312"/>
<polygon fill="black" stroke="black" points="404.881,-121.214 411.08,-126.619 406.447,-124.621 408.013,-128.029 408.013,-128.029 408.013,-128.029 406.447,-124.621 404.946,-129.438 404.881,-121.214 404.881,-121.214"/>
<text text-anchor="middle" x="433" y="-184.8" font-family="FreeSans" font-size="8.00">hasRole</text>
</g>
<!-- N40&#45;&gt;N35 -->
<g id="edge32" class="edge"><title>N40&#45;&gt;N35</title>
<path fill="none" stroke="black" d="M350.358,-252.773C346.713,-240.995 341.916,-225.498 337.894,-212.505"/>
<polygon fill="black" stroke="black" points="335.631,-205.191 341.072,-211.358 336.739,-208.774 337.848,-212.356 337.848,-212.356 337.848,-212.356 336.739,-208.774 334.624,-213.354 335.631,-205.191 335.631,-205.191"/>
<text text-anchor="middle" x="364.5" y="-226.8" font-family="FreeSans" font-size="8.00">hasGroup</text>
</g>
</g>
</svg>
