<?xml version="1.0" encoding="UTF-8" standalone="no"?>
<!DOCTYPE svg PUBLIC "-//W3C//DTD SVG 1.1//EN"
 "http://www.w3.org/Graphics/SVG/1.1/DTD/svg11.dtd">
<!-- Generated by graphviz version 2.26.3 (20100126.1600)
 -->
<!-- Title: g Pages: 1 -->
<svg width="269pt" height="214pt"
 viewBox="0.00 0.00 269.00 214.00" xmlns="http://www.w3.org/2000/svg" xmlns:xlink="http://www.w3.org/1999/xlink">
<g id="graph1" class="graph" transform="scale(1 1) rotate(0) translate(4 210)">
<title>g</title>
<polygon fill="white" stroke="white" points="-4,5 -4,-210 266,-210 266,5 -4,5"/>
<!-- N19 -->
<g id="node1" class="node"><title>N19</title>
<polygon fill="#fffff0" stroke="#fffff0" points="11.5,-1 102.5,-1 114.5,-13 114.5,-25 102.5,-37 11.5,-37 -0.5,-25 -0.5,-13 11.5,-1"/>
<path fill="#fffff0" stroke="#fffff0" d="M102.5,-1C108.5,-1 114.5,-7 114.5,-13"/>
<path fill="#fffff0" stroke="#fffff0" d="M114.5,-25C114.5,-31 108.5,-37 102.5,-37"/>
<path fill="#fffff0" stroke="#fffff0" d="M11.5,-37C5.5,-37 -0.5,-31 -0.5,-25"/>
<path fill="#fffff0" stroke="#fffff0" d="M-0.5,-13C-0.5,-7 5.5,-1 11.5,-1"/>
<polyline fill="none" stroke="black" points="11.5,-1 102.5,-1 "/>
<path fill="none" stroke="black" d="M102.5,-1C108.5,-1 114.5,-7 114.5,-13"/>
<polyline fill="none" stroke="black" points="114.5,-13 114.5,-25 "/>
<path fill="none" stroke="black" d="M114.5,-25C114.5,-31 108.5,-37 102.5,-37"/>
<polyline fill="none" stroke="black" points="102.5,-37 11.5,-37 "/>
<path fill="none" stroke="black" d="M11.5,-37C5.5,-37 -0.5,-31 -0.5,-25"/>
<polyline fill="none" stroke="black" points="-0.5,-25 -0.5,-13 "/>
<path fill="none" stroke="black" d="M-0.5,-13C-0.5,-7 5.5,-1 11.5,-1"/>
<text text-anchor="middle" x="57" y="-25.8" font-family="FreeSans" font-size="8.00">Node[19]</text>
<polyline fill="none" stroke="black" points="-0.5,-19 114.5,-19 "/>
<text text-anchor="start" x="7.5" y="-7.8" font-family="FreeSans" font-size="8.00">&#39;name&#39; = &#39;cats&#39; : String</text>
</g>
<!-- N20 -->
<g id="node2" class="node"><title>N20</title>
<polygon fill="#fffff0" stroke="#fffff0" points="155,-1 249,-1 261,-13 261,-25 249,-37 155,-37 143,-25 143,-13 155,-1"/>
<path fill="#fffff0" stroke="#fffff0" d="M249,-1C255,-1 261,-7 261,-13"/>
<path fill="#fffff0" stroke="#fffff0" d="M261,-25C261,-31 255,-37 249,-37"/>
<path fill="#fffff0" stroke="#fffff0" d="M155,-37C149,-37 143,-31 143,-25"/>
<path fill="#fffff0" stroke="#fffff0" d="M143,-13C143,-7 149,-1 155,-1"/>
<polyline fill="none" stroke="black" points="155,-1 249,-1 "/>
<path fill="none" stroke="black" d="M249,-1C255,-1 261,-7 261,-13"/>
<polyline fill="none" stroke="black" points="261,-13 261,-25 "/>
<path fill="none" stroke="black" d="M261,-25C261,-31 255,-37 249,-37"/>
<polyline fill="none" stroke="black" points="249,-37 155,-37 "/>
<path fill="none" stroke="black" d="M155,-37C149,-37 143,-31 143,-25"/>
<polyline fill="none" stroke="black" points="143,-25 143,-13 "/>
<path fill="none" stroke="black" d="M143,-13C143,-7 149,-1 155,-1"/>
<text text-anchor="middle" x="202" y="-25.8" font-family="FreeSans" font-size="8.00">Node[20]</text>
<polyline fill="none" stroke="black" points="143,-19 261,-19 "/>
<text text-anchor="start" x="151" y="-7.8" font-family="FreeSans" font-size="8.00">&#39;name&#39; = &#39;dogs&#39; : String</text>
</g>
<!-- N21 -->
<g id="node3" class="node"><title>N21</title>
<polygon fill="#fffff0" stroke="#fffff0" points="56.5,-169 131.5,-169 143.5,-181 143.5,-193 131.5,-205 56.5,-205 44.5,-193 44.5,-181 56.5,-169"/>
<path fill="#fffff0" stroke="#fffff0" d="M131.5,-169C137.5,-169 143.5,-175 143.5,-181"/>
<path fill="#fffff0" stroke="#fffff0" d="M143.5,-193C143.5,-199 137.5,-205 131.5,-205"/>
<path fill="#fffff0" stroke="#fffff0" d="M56.5,-205C50.5,-205 44.5,-199 44.5,-193"/>
<path fill="#fffff0" stroke="#fffff0" d="M44.5,-181C44.5,-175 50.5,-169 56.5,-169"/>
<polyline fill="none" stroke="black" points="56.5,-169 131.5,-169 "/>
<path fill="none" stroke="black" d="M131.5,-169C137.5,-169 143.5,-175 143.5,-181"/>
<polyline fill="none" stroke="black" points="143.5,-181 143.5,-193 "/>
<path fill="none" stroke="black" d="M143.5,-193C143.5,-199 137.5,-205 131.5,-205"/>
<polyline fill="none" stroke="black" points="131.5,-205 56.5,-205 "/>
<path fill="none" stroke="black" d="M56.5,-205C50.5,-205 44.5,-199 44.5,-193"/>
<polyline fill="none" stroke="black" points="44.5,-193 44.5,-181 "/>
<path fill="none" stroke="black" d="M44.5,-181C44.5,-175 50.5,-169 56.5,-169"/>
<text text-anchor="middle" x="94" y="-193.8" font-family="FreeSans" font-size="8.00">Node[21]</text>
<polyline fill="none" stroke="black" points="44.5,-187 143.5,-187 "/>
<text text-anchor="start" x="52.5" y="-175.8" font-family="FreeSans" font-size="8.00">&#39;name&#39; = &#39;I&#39; : String</text>
</g>
<!-- N21&#45;&gt;N19 -->
<g id="edge4" class="edge"><title>N21&#45;&gt;N19</title>
<path fill="none" stroke="black" d="M86.4328,-168.813C81.3604,-155.945 74.9162,-138.171 71,-122 64.7102,-96.0273 61.0126,-65.6385 59.0129,-44.6329"/>
<polygon fill="black" stroke="black" points="58.3278,-37.0706 62.3658,-44.2354 58.6662,-40.8053 59.0046,-44.54 59.0046,-44.54 59.0046,-44.54 58.6662,-40.8053 55.6433,-44.8445 58.3278,-37.0706 58.3278,-37.0706"/>
<text text-anchor="middle" x="78.5" y="-100.8" font-family="FreeSans" font-size="8.00">like</text>
</g>
<!-- N22 -->
<g id="node5" class="node"><title>N22</title>
<polygon fill="#fffff0" stroke="#fffff0" points="113,-85 199,-85 211,-97 211,-109 199,-121 113,-121 101,-109 101,-97 113,-85"/>
<path fill="#fffff0" stroke="#fffff0" d="M199,-85C205,-85 211,-91 211,-97"/>
<path fill="#fffff0" stroke="#fffff0" d="M211,-109C211,-115 205,-121 199,-121"/>
<path fill="#fffff0" stroke="#fffff0" d="M113,-121C107,-121 101,-115 101,-109"/>
<path fill="#fffff0" stroke="#fffff0" d="M101,-97C101,-91 107,-85 113,-85"/>
<polyline fill="none" stroke="black" points="113,-85 199,-85 "/>
<path fill="none" stroke="black" d="M199,-85C205,-85 211,-91 211,-97"/>
<polyline fill="none" stroke="black" points="211,-97 211,-109 "/>
<path fill="none" stroke="black" d="M211,-109C211,-115 205,-121 199,-121"/>
<polyline fill="none" stroke="black" points="199,-121 113,-121 "/>
<path fill="none" stroke="black" d="M113,-121C107,-121 101,-115 101,-109"/>
<polyline fill="none" stroke="black" points="101,-109 101,-97 "/>
<path fill="none" stroke="black" d="M101,-97C101,-91 107,-85 113,-85"/>
<text text-anchor="middle" x="156" y="-109.8" font-family="FreeSans" font-size="8.00">Node[22]</text>
<polyline fill="none" stroke="black" points="101,-103 211,-103 "/>
<text text-anchor="start" x="109" y="-91.8" font-family="FreeSans" font-size="8.00">&#39;name&#39; = &#39;Joe&#39; : String</text>
</g>
<!-- N21&#45;&gt;N22 -->
<g id="edge2" class="edge"><title>N21&#45;&gt;N22</title>
<path fill="none" stroke="black" d="M107.453,-168.773C116.39,-156.665 128.228,-140.626 137.977,-127.418"/>
<polygon fill="black" stroke="black" points="142.573,-121.191 140.835,-129.23 140.346,-124.208 138.119,-127.226 138.119,-127.226 138.119,-127.226 140.346,-124.208 135.404,-125.221 142.573,-121.191 142.573,-121.191"/>
<text text-anchor="middle" x="137" y="-142.8" font-family="FreeSans" font-size="8.00">know</text>
</g>
<!-- N22&#45;&gt;N19 -->
<g id="edge6" class="edge"><title>N22&#45;&gt;N19</title>
<path fill="none" stroke="black" d="M134.518,-84.7733C119.859,-72.3348 100.311,-55.7484 84.5125,-42.3439"/>
<polygon fill="black" stroke="black" points="78.4396,-37.1912 86.342,-39.4701 81.299,-39.6174 84.1584,-42.0435 84.1584,-42.0435 84.1584,-42.0435 81.299,-39.6174 81.9749,-44.617 78.4396,-37.1912 78.4396,-37.1912"/>
<text text-anchor="middle" x="116.5" y="-58.8" font-family="FreeSans" font-size="8.00">like</text>
</g>
<!-- N22&#45;&gt;N20 -->
<g id="edge8" class="edge"><title>N22&#45;&gt;N20</title>
<path fill="none" stroke="black" d="M165.981,-84.7733C172.552,-72.7751 181.236,-56.9174 188.431,-43.779"/>
<polygon fill="black" stroke="black" points="192.038,-37.1912 191.396,-45.3905 190.237,-40.4803 188.436,-43.7694 188.436,-43.7694 188.436,-43.7694 190.237,-40.4803 185.476,-42.1483 192.038,-37.1912 192.038,-37.1912"/>
<text text-anchor="middle" x="187.5" y="-58.8" font-family="FreeSans" font-size="8.00">like</text>
</g>
</g>
</svg>
