<?xml version="1.0" encoding="UTF-8" standalone="no"?>
<!DOCTYPE svg PUBLIC "-//W3C//DTD SVG 1.1//EN"
 "http://www.w3.org/Graphics/SVG/1.1/DTD/svg11.dtd">
<!-- Generated by graphviz version 2.26.3 (20100126.1600)
 -->
<!-- Title: g Pages: 1 -->
<svg width="414pt" height="46pt"
 viewBox="0.00 0.00 414.00 46.00" xmlns="http://www.w3.org/2000/svg" xmlns:xlink="http://www.w3.org/1999/xlink">
<g id="graph1" class="graph" transform="scale(1 1) rotate(0) translate(4 42)">
<title>g</title>
<polygon fill="white" stroke="white" points="-4,5 -4,-42 411,-42 411,5 -4,5"/>
<!-- N45 -->
<g id="node1" class="node"><title>N45</title>
<polygon fill="#fffff0" stroke="#fffff0" points="12,-1 98,-1 110,-13 110,-25 98,-37 12,-37 0,-25 0,-13 12,-1"/>
<path fill="#fffff0" stroke="#fffff0" d="M98,-1C104,-1 110,-7 110,-13"/>
<path fill="#fffff0" stroke="#fffff0" d="M110,-25C110,-31 104,-37 98,-37"/>
<path fill="#fffff0" stroke="#fffff0" d="M12,-37C6,-37 0,-31 0,-25"/>
<path fill="#fffff0" stroke="#fffff0" d="M0,-13C0,-7 6,-1 12,-1"/>
<polyline fill="none" stroke="black" points="12,-1 98,-1 "/>
<path fill="none" stroke="black" d="M98,-1C104,-1 110,-7 110,-13"/>
<polyline fill="none" stroke="black" points="110,-13 110,-25 "/>
<path fill="none" stroke="black" d="M110,-25C110,-31 104,-37 98,-37"/>
<polyline fill="none" stroke="black" points="98,-37 12,-37 "/>
<path fill="none" stroke="black" d="M12,-37C6,-37 0,-31 0,-25"/>
<polyline fill="none" stroke="black" points="0,-25 0,-13 "/>
<path fill="none" stroke="black" d="M0,-13C0,-7 6,-1 12,-1"/>
<text text-anchor="middle" x="55" y="-25.8" font-family="FreeSans" font-size="8.00">Node[45]</text>
<polyline fill="none" stroke="black" points="0,-19 110,-19 "/>
<text text-anchor="start" x="8" y="-7.8" font-family="FreeSans" font-size="8.00">&#39;name&#39; = &#39;Ian&#39; : String</text>
</g>
<!-- N46 -->
<g id="node2" class="node"><title>N46</title>
<polygon fill="#fffff0" stroke="#fffff0" points="150.5,-1 245.5,-1 257.5,-13 257.5,-25 245.5,-37 150.5,-37 138.5,-25 138.5,-13 150.5,-1"/>
<path fill="#fffff0" stroke="#fffff0" d="M245.5,-1C251.5,-1 257.5,-7 257.5,-13"/>
<path fill="#fffff0" stroke="#fffff0" d="M257.5,-25C257.5,-31 251.5,-37 245.5,-37"/>
<path fill="#fffff0" stroke="#fffff0" d="M150.5,-37C144.5,-37 138.5,-31 138.5,-25"/>
<path fill="#fffff0" stroke="#fffff0" d="M138.5,-13C138.5,-7 144.5,-1 150.5,-1"/>
<polyline fill="none" stroke="black" points="150.5,-1 245.5,-1 "/>
<path fill="none" stroke="black" d="M245.5,-1C251.5,-1 257.5,-7 257.5,-13"/>
<polyline fill="none" stroke="black" points="257.5,-13 257.5,-25 "/>
<path fill="none" stroke="black" d="M257.5,-25C257.5,-31 251.5,-37 245.5,-37"/>
<polyline fill="none" stroke="black" points="245.5,-37 150.5,-37 "/>
<path fill="none" stroke="black" d="M150.5,-37C144.5,-37 138.5,-31 138.5,-25"/>
<polyline fill="none" stroke="black" points="138.5,-25 138.5,-13 "/>
<path fill="none" stroke="black" d="M138.5,-13C138.5,-7 144.5,-1 150.5,-1"/>
<text text-anchor="middle" x="198" y="-25.8" font-family="FreeSans" font-size="8.00">Node[46]</text>
<polyline fill="none" stroke="black" points="138.5,-19 257.5,-19 "/>
<text text-anchor="start" x="146.5" y="-7.8" font-family="FreeSans" font-size="8.00">&#39;name&#39; = &#39;Peter&#39; : String</text>
</g>
<!-- N47 -->
<g id="node3" class="node"><title>N47</title>
<polygon fill="#fffff0" stroke="#fffff0" points="298,-1 394,-1 406,-13 406,-25 394,-37 298,-37 286,-25 286,-13 298,-1"/>
<path fill="#fffff0" stroke="#fffff0" d="M394,-1C400,-1 406,-7 406,-13"/>
<path fill="#fffff0" stroke="#fffff0" d="M406,-25C406,-31 400,-37 394,-37"/>
<path fill="#fffff0" stroke="#fffff0" d="M298,-37C292,-37 286,-31 286,-25"/>
<path fill="#fffff0" stroke="#fffff0" d="M286,-13C286,-7 292,-1 298,-1"/>
<polyline fill="none" stroke="black" points="298,-1 394,-1 "/>
<path fill="none" stroke="black" d="M394,-1C400,-1 406,-7 406,-13"/>
<polyline fill="none" stroke="black" points="406,-13 406,-25 "/>
<path fill="none" stroke="black" d="M406,-25C406,-31 400,-37 394,-37"/>
<polyline fill="none" stroke="black" points="394,-37 298,-37 "/>
<path fill="none" stroke="black" d="M298,-37C292,-37 286,-31 286,-25"/>
<polyline fill="none" stroke="black" points="286,-25 286,-13 "/>
<path fill="none" stroke="black" d="M286,-13C286,-7 292,-1 298,-1"/>
<text text-anchor="middle" x="346" y="-25.8" font-family="FreeSans" font-size="8.00">Node[47]</text>
<polyline fill="none" stroke="black" points="286,-19 406,-19 "/>
<text text-anchor="start" x="294" y="-7.8" font-family="FreeSans" font-size="8.00">&#39;name&#39; = &#39;Bikes&#39; : String</text>
</g>
</g>
</svg>
