<?xml version="1.0" encoding="UTF-8" standalone="no"?>
<!DOCTYPE svg PUBLIC "-//W3C//DTD SVG 1.1//EN"
 "http://www.w3.org/Graphics/SVG/1.1/DTD/svg11.dtd">
<!-- Generated by graphviz version 2.26.3 (20100126.1600)
 -->
<!-- Title: g Pages: 1 -->
<svg width="128pt" height="214pt"
 viewBox="0.00 0.00 128.00 214.00" xmlns="http://www.w3.org/2000/svg" xmlns:xlink="http://www.w3.org/1999/xlink">
<g id="graph1" class="graph" transform="scale(1 1) rotate(0) translate(4 210)">
<title>g</title>
<polygon fill="white" stroke="white" points="-4,5 -4,-210 125,-210 125,5 -4,5"/>
<!-- N48 -->
<g id="node1" class="node"><title>N48</title>
<polygon fill="#fffff0" stroke="#fffff0" points="12,-169 108,-169 120,-181 120,-193 108,-205 12,-205 0,-193 0,-181 12,-169"/>
<path fill="#fffff0" stroke="#fffff0" d="M108,-169C114,-169 120,-175 120,-181"/>
<path fill="#fffff0" stroke="#fffff0" d="M120,-193C120,-199 114,-205 108,-205"/>
<path fill="#fffff0" stroke="#fffff0" d="M12,-205C6,-205 0,-199 0,-193"/>
<path fill="#fffff0" stroke="#fffff0" d="M0,-181C0,-175 6,-169 12,-169"/>
<polyline fill="none" stroke="black" points="12,-169 108,-169 "/>
<path fill="none" stroke="black" d="M108,-169C114,-169 120,-175 120,-181"/>
<polyline fill="none" stroke="black" points="120,-181 120,-193 "/>
<path fill="none" stroke="black" d="M120,-193C120,-199 114,-205 108,-205"/>
<polyline fill="none" stroke="black" points="108,-205 12,-205 "/>
<path fill="none" stroke="black" d="M12,-205C6,-205 0,-199 0,-193"/>
<polyline fill="none" stroke="black" points="0,-193 0,-181 "/>
<path fill="none" stroke="black" d="M0,-181C0,-175 6,-169 12,-169"/>
<text text-anchor="middle" x="60" y="-193.8" font-family="FreeSans" font-size="8.00">Node[48]</text>
<polyline fill="none" stroke="black" points="0,-187 120,-187 "/>
<text text-anchor="start" x="8" y="-175.8" font-family="FreeSans" font-size="8.00">&#39;name&#39; = &#39;Marie&#39; : String</text>
</g>
<!-- N50 -->
<g id="node3" class="node"><title>N50</title>
<polygon fill="#fffff0" stroke="#fffff0" points="12.5,-85 107.5,-85 119.5,-97 119.5,-109 107.5,-121 12.5,-121 0.5,-109 0.5,-97 12.5,-85"/>
<path fill="#fffff0" stroke="#fffff0" d="M107.5,-85C113.5,-85 119.5,-91 119.5,-97"/>
<path fill="#fffff0" stroke="#fffff0" d="M119.5,-109C119.5,-115 113.5,-121 107.5,-121"/>
<path fill="#fffff0" stroke="#fffff0" d="M12.5,-121C6.5,-121 0.5,-115 0.5,-109"/>
<path fill="#fffff0" stroke="#fffff0" d="M0.5,-97C0.5,-91 6.5,-85 12.5,-85"/>
<polyline fill="none" stroke="black" points="12.5,-85 107.5,-85 "/>
<path fill="none" stroke="black" d="M107.5,-85C113.5,-85 119.5,-91 119.5,-97"/>
<polyline fill="none" stroke="black" points="119.5,-97 119.5,-109 "/>
<path fill="none" stroke="black" d="M119.5,-109C119.5,-115 113.5,-121 107.5,-121"/>
<polyline fill="none" stroke="black" points="107.5,-121 12.5,-121 "/>
<path fill="none" stroke="black" d="M12.5,-121C6.5,-121 0.5,-115 0.5,-109"/>
<polyline fill="none" stroke="black" points="0.5,-109 0.5,-97 "/>
<path fill="none" stroke="black" d="M0.5,-97C0.5,-91 6.5,-85 12.5,-85"/>
<text text-anchor="middle" x="60" y="-109.8" font-family="FreeSans" font-size="8.00">Node[50]</text>
<polyline fill="none" stroke="black" points="0.5,-103 119.5,-103 "/>
<text text-anchor="start" x="8.5" y="-91.8" font-family="FreeSans" font-size="8.00">&#39;name&#39; = &#39;Peter&#39; : String</text>
</g>
<!-- N48&#45;&gt;N50 -->
<g id="edge2" class="edge"><title>N48&#45;&gt;N50</title>
<path fill="none" stroke="black" d="M60,-168.773C60,-157.105 60,-141.787 60,-128.87"/>
<polygon fill="black" stroke="black" points="60,-121.191 63.3751,-128.691 60,-124.941 60.0001,-128.691 60.0001,-128.691 60.0001,-128.691 60,-124.941 56.6251,-128.691 60,-121.191 60,-121.191"/>
<text text-anchor="middle" x="70" y="-142.8" font-family="FreeSans" font-size="8.00">likes</text>
</g>
<!-- N49 -->
<g id="node4" class="node"><title>N49</title>
<polygon fill="#fffff0" stroke="#fffff0" points="17,-1 103,-1 115,-13 115,-25 103,-37 17,-37 5,-25 5,-13 17,-1"/>
<path fill="#fffff0" stroke="#fffff0" d="M103,-1C109,-1 115,-7 115,-13"/>
<path fill="#fffff0" stroke="#fffff0" d="M115,-25C115,-31 109,-37 103,-37"/>
<path fill="#fffff0" stroke="#fffff0" d="M17,-37C11,-37 5,-31 5,-25"/>
<path fill="#fffff0" stroke="#fffff0" d="M5,-13C5,-7 11,-1 17,-1"/>
<polyline fill="none" stroke="black" points="17,-1 103,-1 "/>
<path fill="none" stroke="black" d="M103,-1C109,-1 115,-7 115,-13"/>
<polyline fill="none" stroke="black" points="115,-13 115,-25 "/>
<path fill="none" stroke="black" d="M115,-25C115,-31 109,-37 103,-37"/>
<polyline fill="none" stroke="black" points="103,-37 17,-37 "/>
<path fill="none" stroke="black" d="M17,-37C11,-37 5,-31 5,-25"/>
<polyline fill="none" stroke="black" points="5,-25 5,-13 "/>
<path fill="none" stroke="black" d="M5,-13C5,-7 11,-1 17,-1"/>
<text text-anchor="middle" x="60" y="-25.8" font-family="FreeSans" font-size="8.00">Node[49]</text>
<polyline fill="none" stroke="black" points="5,-19 115,-19 "/>
<text text-anchor="start" x="13" y="-7.8" font-family="FreeSans" font-size="8.00">&#39;name&#39; = &#39;Ian&#39; : String</text>
</g>
<!-- N50&#45;&gt;N49 -->
<g id="edge6" class="edge"><title>N50&#45;&gt;N49</title>
<path fill="none" stroke="black" d="M37.5519,-84.6822C32.4594,-79.2567 27.7468,-72.9009 25,-66 21.8313,-58.0393 24.5355,-50.2297 29.5913,-43.3334"/>
<polygon fill="black" stroke="black" points="34.7946,-37.2787 32.466,-45.1666 32.3504,-40.1228 29.9063,-42.9669 29.9063,-42.9669 29.9063,-42.9669 32.3504,-40.1228 27.3466,-40.7672 34.7946,-37.2787 34.7946,-37.2787"/>
<text text-anchor="middle" x="39" y="-58.8" font-family="FreeSans" font-size="8.00">knows</text>
</g>
<!-- N49&#45;&gt;N50 -->
<g id="edge4" class="edge"><title>N49&#45;&gt;N50</title>
<path fill="none" stroke="black" d="M60,-37.1912C60,-48.8517 60,-64.1683 60,-77.0907"/>
<polygon fill="black" stroke="black" points="60,-84.7733 56.6251,-77.2732 60,-81.0233 60.0001,-77.2733 60.0001,-77.2733 60.0001,-77.2733 60,-81.0233 63.3751,-77.2733 60,-84.7733 60,-84.7733"/>
<text text-anchor="middle" x="74" y="-58.8" font-family="FreeSans" font-size="8.00">knows</text>
</g>
</g>
</svg>
