<?xml version="1.0" encoding="UTF-8" standalone="no"?>
<!DOCTYPE svg PUBLIC "-//W3C//DTD SVG 1.1//EN"
 "http://www.w3.org/Graphics/SVG/1.1/DTD/svg11.dtd">
<!-- Generated by graphviz version 2.26.3 (20100126.1600)
 -->
<!-- Title: g Pages: 1 -->
<svg width="259pt" height="130pt"
 viewBox="0.00 0.00 259.00 130.00" xmlns="http://www.w3.org/2000/svg" xmlns:xlink="http://www.w3.org/1999/xlink">
<g id="graph1" class="graph" transform="scale(1 1) rotate(0) translate(4 126)">
<title>g</title>
<polygon fill="white" stroke="white" points="-4,5 -4,-126 256,-126 256,5 -4,5"/>
<!-- N6 -->
<g id="node1" class="node"><title>N6</title>
<polygon fill="#fffff0" stroke="#fffff0" points="12,-1 98,-1 110,-13 110,-25 98,-37 12,-37 0,-25 0,-13 12,-1"/>
<path fill="#fffff0" stroke="#fffff0" d="M98,-1C104,-1 110,-7 110,-13"/>
<path fill="#fffff0" stroke="#fffff0" d="M110,-25C110,-31 104,-37 98,-37"/>
<path fill="#fffff0" stroke="#fffff0" d="M12,-37C6,-37 0,-31 0,-25"/>
<path fill="#fffff0" stroke="#fffff0" d="M0,-13C0,-7 6,-1 12,-1"/>
<polyline fill="none" stroke="black" points="12,-1 98,-1 "/>
<path fill="none" stroke="black" d="M98,-1C104,-1 110,-7 110,-13"/>
<polyline fill="none" stroke="black" points="110,-13 110,-25 "/>
<path fill="none" stroke="black" d="M110,-25C110,-31 104,-37 98,-37"/>
<polyline fill="none" stroke="black" points="98,-37 12,-37 "/>
<path fill="none" stroke="black" d="M12,-37C6,-37 0,-31 0,-25"/>
<polyline fill="none" stroke="black" points="0,-25 0,-13 "/>
<path fill="none" stroke="black" d="M0,-13C0,-7 6,-1 12,-1"/>
<text text-anchor="middle" x="55" y="-25.8" font-family="FreeSans" font-size="8.00">Node[6]</text>
<polyline fill="none" stroke="black" points="0,-19 110,-19 "/>
<text text-anchor="start" x="8" y="-7.8" font-family="FreeSans" font-size="8.00">&#39;name&#39; = &#39;car&#39; : String</text>
</g>
<!-- N7 -->
<g id="node2" class="node"><title>N7</title>
<polygon fill="#fffff0" stroke="#fffff0" points="151,-1 239,-1 251,-13 251,-25 239,-37 151,-37 139,-25 139,-13 151,-1"/>
<path fill="#fffff0" stroke="#fffff0" d="M239,-1C245,-1 251,-7 251,-13"/>
<path fill="#fffff0" stroke="#fffff0" d="M251,-25C251,-31 245,-37 239,-37"/>
<path fill="#fffff0" stroke="#fffff0" d="M151,-37C145,-37 139,-31 139,-25"/>
<path fill="#fffff0" stroke="#fffff0" d="M139,-13C139,-7 145,-1 151,-1"/>
<polyline fill="none" stroke="black" points="151,-1 239,-1 "/>
<path fill="none" stroke="black" d="M239,-1C245,-1 251,-7 251,-13"/>
<polyline fill="none" stroke="black" points="251,-13 251,-25 "/>
<path fill="none" stroke="black" d="M251,-25C251,-31 245,-37 239,-37"/>
<polyline fill="none" stroke="black" points="239,-37 151,-37 "/>
<path fill="none" stroke="black" d="M151,-37C145,-37 139,-31 139,-25"/>
<polyline fill="none" stroke="black" points="139,-25 139,-13 "/>
<path fill="none" stroke="black" d="M139,-13C139,-7 145,-1 151,-1"/>
<text text-anchor="middle" x="195" y="-25.8" font-family="FreeSans" font-size="8.00">Node[7]</text>
<polyline fill="none" stroke="black" points="139,-19 251,-19 "/>
<text text-anchor="start" x="147" y="-7.8" font-family="FreeSans" font-size="8.00">&#39;name&#39; = &#39;you&#39; : String</text>
</g>
<!-- N8 -->
<g id="node3" class="node"><title>N8</title>
<polygon fill="#fffff0" stroke="#fffff0" points="87.5,-85 162.5,-85 174.5,-97 174.5,-109 162.5,-121 87.5,-121 75.5,-109 75.5,-97 87.5,-85"/>
<path fill="#fffff0" stroke="#fffff0" d="M162.5,-85C168.5,-85 174.5,-91 174.5,-97"/>
<path fill="#fffff0" stroke="#fffff0" d="M174.5,-109C174.5,-115 168.5,-121 162.5,-121"/>
<path fill="#fffff0" stroke="#fffff0" d="M87.5,-121C81.5,-121 75.5,-115 75.5,-109"/>
<path fill="#fffff0" stroke="#fffff0" d="M75.5,-97C75.5,-91 81.5,-85 87.5,-85"/>
<polyline fill="none" stroke="black" points="87.5,-85 162.5,-85 "/>
<path fill="none" stroke="black" d="M162.5,-85C168.5,-85 174.5,-91 174.5,-97"/>
<polyline fill="none" stroke="black" points="174.5,-97 174.5,-109 "/>
<path fill="none" stroke="black" d="M174.5,-109C174.5,-115 168.5,-121 162.5,-121"/>
<polyline fill="none" stroke="black" points="162.5,-121 87.5,-121 "/>
<path fill="none" stroke="black" d="M87.5,-121C81.5,-121 75.5,-115 75.5,-109"/>
<polyline fill="none" stroke="black" points="75.5,-109 75.5,-97 "/>
<path fill="none" stroke="black" d="M75.5,-97C75.5,-91 81.5,-85 87.5,-85"/>
<text text-anchor="middle" x="125" y="-109.8" font-family="FreeSans" font-size="8.00">Node[8]</text>
<polyline fill="none" stroke="black" points="75.5,-103 174.5,-103 "/>
<text text-anchor="start" x="83.5" y="-91.8" font-family="FreeSans" font-size="8.00">&#39;name&#39; = &#39;I&#39; : String</text>
</g>
<!-- N8&#45;&gt;N6 -->
<g id="edge4" class="edge"><title>N8&#45;&gt;N6</title>
<path fill="none" stroke="black" d="M109.811,-84.7733C99.6291,-72.5549 86.1118,-56.3342 75.0488,-43.0586"/>
<polygon fill="black" stroke="black" points="70.1593,-37.1912 77.5535,-40.7922 72.56,-40.072 74.9607,-42.9529 74.9607,-42.9529 74.9607,-42.9529 72.56,-40.072 72.368,-45.1135 70.1593,-37.1912 70.1593,-37.1912"/>
<text text-anchor="middle" x="102" y="-58.8" font-family="FreeSans" font-size="8.00">own</text>
</g>
<!-- N8&#45;&gt;N7 -->
<g id="edge2" class="edge"><title>N8&#45;&gt;N7</title>
<path fill="none" stroke="black" d="M140.189,-84.7733C150.371,-72.5549 163.888,-56.3342 174.951,-43.0586"/>
<polygon fill="black" stroke="black" points="179.841,-37.1912 177.632,-45.1135 177.44,-40.072 175.039,-42.9529 175.039,-42.9529 175.039,-42.9529 177.44,-40.072 172.447,-40.7922 179.841,-37.1912 179.841,-37.1912"/>
<text text-anchor="middle" x="173" y="-58.8" font-family="FreeSans" font-size="8.00">know</text>
</g>
</g>
</svg>
