<?xml version="1.0" encoding="UTF-8" standalone="no"?>
<!DOCTYPE svg PUBLIC "-//W3C//DTD SVG 1.1//EN"
 "http://www.w3.org/Graphics/SVG/1.1/DTD/svg11.dtd">
<!-- Generated by graphviz version 2.26.3 (20100126.1600)
 -->
<!-- Title: g Pages: 1 -->
<svg width="164pt" height="140pt"
 viewBox="0.00 0.00 164.00 140.00" xmlns="http://www.w3.org/2000/svg" xmlns:xlink="http://www.w3.org/1999/xlink">
<g id="graph1" class="graph" transform="scale(1 1) rotate(0) translate(4 136)">
<title>g</title>
<polygon fill="white" stroke="white" points="-4,5 -4,-136 161,-136 161,5 -4,5"/>
<!-- N27 -->
<g id="node1" class="node"><title>N27</title>
<polygon fill="#fffff0" stroke="#fffff0" points="16.5,-1 109.5,-1 121.5,-13 121.5,-25 109.5,-37 16.5,-37 4.5,-25 4.5,-13 16.5,-1"/>
<path fill="#fffff0" stroke="#fffff0" d="M109.5,-1C115.5,-1 121.5,-7 121.5,-13"/>
<path fill="#fffff0" stroke="#fffff0" d="M121.5,-25C121.5,-31 115.5,-37 109.5,-37"/>
<path fill="#fffff0" stroke="#fffff0" d="M16.5,-37C10.5,-37 4.5,-31 4.5,-25"/>
<path fill="#fffff0" stroke="#fffff0" d="M4.5,-13C4.5,-7 10.5,-1 16.5,-1"/>
<polyline fill="none" stroke="black" points="16.5,-1 109.5,-1 "/>
<path fill="none" stroke="black" d="M109.5,-1C115.5,-1 121.5,-7 121.5,-13"/>
<polyline fill="none" stroke="black" points="121.5,-13 121.5,-25 "/>
<path fill="none" stroke="black" d="M121.5,-25C121.5,-31 115.5,-37 109.5,-37"/>
<polyline fill="none" stroke="black" points="109.5,-37 16.5,-37 "/>
<path fill="none" stroke="black" d="M16.5,-37C10.5,-37 4.5,-31 4.5,-25"/>
<polyline fill="none" stroke="black" points="4.5,-25 4.5,-13 "/>
<path fill="none" stroke="black" d="M4.5,-13C4.5,-7 10.5,-1 16.5,-1"/>
<text text-anchor="middle" x="63" y="-25.8" font-family="FreeSans" font-size="8.00">Node[27]</text>
<polyline fill="none" stroke="black" points="4.5,-19 121.5,-19 "/>
<text text-anchor="start" x="12.5" y="-7.8" font-family="FreeSans" font-size="8.00">&#39;name&#39; = &#39;Juliet&#39; : String</text>
</g>
<!-- N28 -->
<g id="node2" class="node"><title>N28</title>
<polygon fill="#fffff0" stroke="#fffff0" points="12,-95 114,-95 126,-107 126,-119 114,-131 12,-131 0,-119 0,-107 12,-95"/>
<path fill="#fffff0" stroke="#fffff0" d="M114,-95C120,-95 126,-101 126,-107"/>
<path fill="#fffff0" stroke="#fffff0" d="M126,-119C126,-125 120,-131 114,-131"/>
<path fill="#fffff0" stroke="#fffff0" d="M12,-131C6,-131 0,-125 0,-119"/>
<path fill="#fffff0" stroke="#fffff0" d="M0,-107C0,-101 6,-95 12,-95"/>
<polyline fill="none" stroke="black" points="12,-95 114,-95 "/>
<path fill="none" stroke="black" d="M114,-95C120,-95 126,-101 126,-107"/>
<polyline fill="none" stroke="black" points="126,-107 126,-119 "/>
<path fill="none" stroke="black" d="M126,-119C126,-125 120,-131 114,-131"/>
<polyline fill="none" stroke="black" points="114,-131 12,-131 "/>
<path fill="none" stroke="black" d="M12,-131C6,-131 0,-125 0,-119"/>
<polyline fill="none" stroke="black" points="0,-119 0,-107 "/>
<path fill="none" stroke="black" d="M0,-107C0,-101 6,-95 12,-95"/>
<text text-anchor="middle" x="63" y="-119.8" font-family="FreeSans" font-size="8.00">Node[28]</text>
<polyline fill="none" stroke="black" points="0,-113 126,-113 "/>
<text text-anchor="start" x="8" y="-101.8" font-family="FreeSans" font-size="8.00">&#39;name&#39; = &#39;Romeo&#39; : String</text>
</g>
<!-- N28&#45;&gt;N27 -->
<g id="edge2" class="edge"><title>N28&#45;&gt;N27</title>
<path fill="none" stroke="black" d="M63,-94.8759C63,-80.7014 63,-60.806 63,-44.944"/>
<polygon fill="black" stroke="black" points="63,-37.0685 66.3751,-44.5685 63,-40.8185 63.0001,-44.5685 63.0001,-44.5685 63.0001,-44.5685 63,-40.8185 59.6251,-44.5685 63,-37.0685 63,-37.0685"/>
<text text-anchor="middle" x="109.5" y="-68.8" font-family="FreeSans" font-size="8.00">LOVES</text>
<text text-anchor="start" x="63" y="-58.8" font-family="FreeSans" font-size="8.00">&#39;cost&#39; = &#39;high&#39; : String</text>
</g>
</g>
</svg>
