<?xml version="1.0" encoding="UTF-8" standalone="no"?>
<!DOCTYPE svg PUBLIC "-//W3C//DTD SVG 1.1//EN"
 "http://www.w3.org/Graphics/SVG/1.1/DTD/svg11.dtd">
<!-- Generated by graphviz version 2.26.3 (20100126.1600)
 -->
<!-- Title: g Pages: 1 -->
<svg width="106pt" height="46pt"
 viewBox="0.00 0.00 106.00 46.00" xmlns="http://www.w3.org/2000/svg" xmlns:xlink="http://www.w3.org/1999/xlink">
<g id="graph1" class="graph" transform="scale(1 1) rotate(0) translate(4 42)">
<title>g</title>
<polygon fill="white" stroke="white" points="-4,5 -4,-42 103,-42 103,5 -4,5"/>
<!-- N316 -->
<g id="node1" class="node"><title>N316</title>
<polygon fill="#fffff0" stroke="#fffff0" points="11.5,-1 86.5,-1 98.5,-13 98.5,-25 86.5,-37 11.5,-37 -0.5,-25 -0.5,-13 11.5,-1"/>
<path fill="#fffff0" stroke="#fffff0" d="M86.5,-1C92.5,-1 98.5,-7 98.5,-13"/>
<path fill="#fffff0" stroke="#fffff0" d="M98.5,-25C98.5,-31 92.5,-37 86.5,-37"/>
<path fill="#fffff0" stroke="#fffff0" d="M11.5,-37C5.5,-37 -0.5,-31 -0.5,-25"/>
<path fill="#fffff0" stroke="#fffff0" d="M-0.5,-13C-0.5,-7 5.5,-1 11.5,-1"/>
<polyline fill="none" stroke="black" points="11.5,-1 86.5,-1 "/>
<path fill="none" stroke="black" d="M86.5,-1C92.5,-1 98.5,-7 98.5,-13"/>
<polyline fill="none" stroke="black" points="98.5,-13 98.5,-25 "/>
<path fill="none" stroke="black" d="M98.5,-25C98.5,-31 92.5,-37 86.5,-37"/>
<polyline fill="none" stroke="black" points="86.5,-37 11.5,-37 "/>
<path fill="none" stroke="black" d="M11.5,-37C5.5,-37 -0.5,-31 -0.5,-25"/>
<polyline fill="none" stroke="black" points="-0.5,-25 -0.5,-13 "/>
<path fill="none" stroke="black" d="M-0.5,-13C-0.5,-7 5.5,-1 11.5,-1"/>
<text text-anchor="middle" x="49" y="-25.8" font-family="FreeSans" font-size="8.00">Node[316]</text>
<polyline fill="none" stroke="black" points="-0.5,-19 98.5,-19 "/>
<text text-anchor="start" x="7.5" y="-7.8" font-family="FreeSans" font-size="8.00">&#39;name&#39; = &#39;I&#39; : String</text>
</g>
</g>
</svg>
