<?xml version="1.0" encoding="UTF-8" standalone="no"?>
<!DOCTYPE svg PUBLIC "-//W3C//DTD SVG 1.1//EN"
 "http://www.w3.org/Graphics/SVG/1.1/DTD/svg11.dtd">
<!-- Generated by graphviz version 2.26.3 (20100126.1600)
 -->
<!-- Title: g Pages: 1 -->
<svg width="164pt" height="140pt"
 viewBox="0.00 0.00 164.00 140.00" xmlns="http://www.w3.org/2000/svg" xmlns:xlink="http://www.w3.org/1999/xlink">
<g id="graph1" class="graph" transform="scale(1 1) rotate(0) translate(4 136)">
<title>g</title>
<polygon fill="white" stroke="white" points="-4,5 -4,-136 161,-136 161,5 -4,5"/>
<!-- N79 -->
<g id="node1" class="node"><title>N79</title>
<polygon fill="#fffff0" stroke="#fffff0" points="11.5,-95 100.5,-95 112.5,-107 112.5,-119 100.5,-131 11.5,-131 -0.5,-119 -0.5,-107 11.5,-95"/>
<path fill="#fffff0" stroke="#fffff0" d="M100.5,-95C106.5,-95 112.5,-101 112.5,-107"/>
<path fill="#fffff0" stroke="#fffff0" d="M112.5,-119C112.5,-125 106.5,-131 100.5,-131"/>
<path fill="#fffff0" stroke="#fffff0" d="M11.5,-131C5.5,-131 -0.5,-125 -0.5,-119"/>
<path fill="#fffff0" stroke="#fffff0" d="M-0.5,-107C-0.5,-101 5.5,-95 11.5,-95"/>
<polyline fill="none" stroke="black" points="11.5,-95 100.5,-95 "/>
<path fill="none" stroke="black" d="M100.5,-95C106.5,-95 112.5,-101 112.5,-107"/>
<polyline fill="none" stroke="black" points="112.5,-107 112.5,-119 "/>
<path fill="none" stroke="black" d="M112.5,-119C112.5,-125 106.5,-131 100.5,-131"/>
<polyline fill="none" stroke="black" points="100.5,-131 11.5,-131 "/>
<path fill="none" stroke="black" d="M11.5,-131C5.5,-131 -0.5,-125 -0.5,-119"/>
<polyline fill="none" stroke="black" points="-0.5,-119 -0.5,-107 "/>
<path fill="none" stroke="black" d="M-0.5,-107C-0.5,-101 5.5,-95 11.5,-95"/>
<text text-anchor="middle" x="56" y="-119.8" font-family="FreeSans" font-size="8.00">Node[79]</text>
<polyline fill="none" stroke="black" points="-0.5,-113 112.5,-113 "/>
<text text-anchor="start" x="7.5" y="-101.8" font-family="FreeSans" font-size="8.00">&#39;name&#39; = &#39;bob&#39; : String</text>
</g>
<!-- N80 -->
<g id="node3" class="node"><title>N80</title>
<polygon fill="#fffff0" stroke="#fffff0" points="28,-1 84,-1 96,-13 96,-25 84,-37 28,-37 16,-25 16,-13 28,-1"/>
<path fill="#fffff0" stroke="#fffff0" d="M84,-1C90,-1 96,-7 96,-13"/>
<path fill="#fffff0" stroke="#fffff0" d="M96,-25C96,-31 90,-37 84,-37"/>
<path fill="#fffff0" stroke="#fffff0" d="M28,-37C22,-37 16,-31 16,-25"/>
<path fill="#fffff0" stroke="#fffff0" d="M16,-13C16,-7 22,-1 28,-1"/>
<polyline fill="none" stroke="black" points="28,-1 84,-1 "/>
<path fill="none" stroke="black" d="M84,-1C90,-1 96,-7 96,-13"/>
<polyline fill="none" stroke="black" points="96,-13 96,-25 "/>
<path fill="none" stroke="black" d="M96,-25C96,-31 90,-37 84,-37"/>
<polyline fill="none" stroke="black" points="84,-37 28,-37 "/>
<path fill="none" stroke="black" d="M28,-37C22,-37 16,-31 16,-25"/>
<polyline fill="none" stroke="black" points="16,-25 16,-13 "/>
<path fill="none" stroke="black" d="M16,-13C16,-7 22,-1 28,-1"/>
<text text-anchor="middle" x="56" y="-25.8" font-family="FreeSans" font-size="8.00">Node[80]</text>
<polyline fill="none" stroke="black" points="16,-19 96,-19 "/>
<text text-anchor="start" x="24" y="-7.8" font-family="FreeSans" font-size="8.00">&#39;age&#39; = 12 : int</text>
</g>
<!-- N79&#45;&gt;N80 -->
<g id="edge2" class="edge"><title>N79&#45;&gt;N80</title>
<path fill="none" stroke="black" d="M56,-94.8759C56,-80.7014 56,-60.806 56,-44.944"/>
<polygon fill="black" stroke="black" points="56,-37.0685 59.3751,-44.5685 56,-40.8185 56.0001,-44.5685 56.0001,-44.5685 56.0001,-44.5685 56,-40.8185 52.6251,-44.5685 56,-37.0685 56,-37.0685"/>
<text text-anchor="middle" x="106" y="-68.8" font-family="FreeSans" font-size="8.00">KNOWS</text>
<text text-anchor="start" x="56" y="-58.8" font-family="FreeSans" font-size="8.00">&#39;since&#39; = &#39;2010&#39; : String</text>
</g>
</g>
</svg>
