<?xml version="1.0" encoding="UTF-8" standalone="no"?>
<!DOCTYPE svg PUBLIC "-//W3C//DTD SVG 1.1//EN"
 "http://www.w3.org/Graphics/SVG/1.1/DTD/svg11.dtd">
<!-- Generated by graphviz version 2.26.3 (20100126.1600)
 -->
<!-- Title: g Pages: 1 -->
<svg width="308pt" height="130pt"
 viewBox="0.00 0.00 308.00 130.00" xmlns="http://www.w3.org/2000/svg" xmlns:xlink="http://www.w3.org/1999/xlink">
<g id="graph1" class="graph" transform="scale(1 1) rotate(0) translate(4 126)">
<title>g</title>
<polygon fill="white" stroke="white" points="-4,5 -4,-126 305,-126 305,5 -4,5"/>
<!-- N75 -->
<g id="node1" class="node"><title>N75</title>
<polygon fill="#fffff0" stroke="#fffff0" points="11.5,-1 102.5,-1 114.5,-13 114.5,-25 102.5,-37 11.5,-37 -0.5,-25 -0.5,-13 11.5,-1"/>
<path fill="#fffff0" stroke="#fffff0" d="M102.5,-1C108.5,-1 114.5,-7 114.5,-13"/>
<path fill="#fffff0" stroke="#fffff0" d="M114.5,-25C114.5,-31 108.5,-37 102.5,-37"/>
<path fill="#fffff0" stroke="#fffff0" d="M11.5,-37C5.5,-37 -0.5,-31 -0.5,-25"/>
<path fill="#fffff0" stroke="#fffff0" d="M-0.5,-13C-0.5,-7 5.5,-1 11.5,-1"/>
<polyline fill="none" stroke="black" points="11.5,-1 102.5,-1 "/>
<path fill="none" stroke="black" d="M102.5,-1C108.5,-1 114.5,-7 114.5,-13"/>
<polyline fill="none" stroke="black" points="114.5,-13 114.5,-25 "/>
<path fill="none" stroke="black" d="M114.5,-25C114.5,-31 108.5,-37 102.5,-37"/>
<polyline fill="none" stroke="black" points="102.5,-37 11.5,-37 "/>
<path fill="none" stroke="black" d="M11.5,-37C5.5,-37 -0.5,-31 -0.5,-25"/>
<polyline fill="none" stroke="black" points="-0.5,-25 -0.5,-13 "/>
<path fill="none" stroke="black" d="M-0.5,-13C-0.5,-7 5.5,-1 11.5,-1"/>
<text text-anchor="middle" x="57" y="-25.8" font-family="FreeSans" font-size="8.00">Node[75]</text>
<polyline fill="none" stroke="black" points="-0.5,-19 114.5,-19 "/>
<text text-anchor="start" x="7.5" y="-7.8" font-family="FreeSans" font-size="8.00">&#39;name&#39; = &#39;John&#39; : String</text>
</g>
<!-- N76 -->
<g id="node2" class="node"><title>N76</title>
<polygon fill="#fffff0" stroke="#fffff0" points="32,-85 82,-85 94,-97 94,-109 82,-121 32,-121 20,-109 20,-97 32,-85"/>
<path fill="#fffff0" stroke="#fffff0" d="M82,-85C88,-85 94,-91 94,-97"/>
<path fill="#fffff0" stroke="#fffff0" d="M94,-109C94,-115 88,-121 82,-121"/>
<path fill="#fffff0" stroke="#fffff0" d="M32,-121C26,-121 20,-115 20,-109"/>
<path fill="#fffff0" stroke="#fffff0" d="M20,-97C20,-91 26,-85 32,-85"/>
<polyline fill="none" stroke="black" points="32,-85 82,-85 "/>
<path fill="none" stroke="black" d="M82,-85C88,-85 94,-91 94,-97"/>
<polyline fill="none" stroke="black" points="94,-97 94,-109 "/>
<path fill="none" stroke="black" d="M94,-109C94,-115 88,-121 82,-121"/>
<polyline fill="none" stroke="black" points="82,-121 32,-121 "/>
<path fill="none" stroke="black" d="M32,-121C26,-121 20,-115 20,-109"/>
<polyline fill="none" stroke="black" points="20,-109 20,-97 "/>
<path fill="none" stroke="black" d="M20,-97C20,-91 26,-85 32,-85"/>
<text text-anchor="middle" x="57" y="-109.8" font-family="FreeSans" font-size="8.00">Node[76]</text>
<polyline fill="none" stroke="black" points="20,-103 94,-103 "/>
<text text-anchor="start" x="28" y="-91.8" font-family="FreeSans" font-size="8.00">&#39;age&#39; = 1 : int</text>
</g>
<!-- N76&#45;&gt;N75 -->
<g id="edge2" class="edge"><title>N76&#45;&gt;N75</title>
<path fill="none" stroke="black" d="M57,-84.7733C57,-73.1053 57,-57.7874 57,-44.8699"/>
<polygon fill="black" stroke="black" points="57,-37.1912 60.3751,-44.6911 57,-40.9412 57.0001,-44.6912 57.0001,-44.6912 57.0001,-44.6912 57,-40.9412 53.6251,-44.6912 57,-37.1912 57,-37.1912"/>
<text text-anchor="middle" x="71" y="-58.8" font-family="FreeSans" font-size="8.00">knows</text>
</g>
<!-- N77 -->
<g id="node4" class="node"><title>N77</title>
<polygon fill="#fffff0" stroke="#fffff0" points="135,-85 185,-85 197,-97 197,-109 185,-121 135,-121 123,-109 123,-97 135,-85"/>
<path fill="#fffff0" stroke="#fffff0" d="M185,-85C191,-85 197,-91 197,-97"/>
<path fill="#fffff0" stroke="#fffff0" d="M197,-109C197,-115 191,-121 185,-121"/>
<path fill="#fffff0" stroke="#fffff0" d="M135,-121C129,-121 123,-115 123,-109"/>
<path fill="#fffff0" stroke="#fffff0" d="M123,-97C123,-91 129,-85 135,-85"/>
<polyline fill="none" stroke="black" points="135,-85 185,-85 "/>
<path fill="none" stroke="black" d="M185,-85C191,-85 197,-91 197,-97"/>
<polyline fill="none" stroke="black" points="197,-97 197,-109 "/>
<path fill="none" stroke="black" d="M197,-109C197,-115 191,-121 185,-121"/>
<polyline fill="none" stroke="black" points="185,-121 135,-121 "/>
<path fill="none" stroke="black" d="M135,-121C129,-121 123,-115 123,-109"/>
<polyline fill="none" stroke="black" points="123,-109 123,-97 "/>
<path fill="none" stroke="black" d="M123,-97C123,-91 129,-85 135,-85"/>
<text text-anchor="middle" x="160" y="-109.8" font-family="FreeSans" font-size="8.00">Node[77]</text>
<polyline fill="none" stroke="black" points="123,-103 197,-103 "/>
<text text-anchor="start" x="131" y="-91.8" font-family="FreeSans" font-size="8.00">&#39;age&#39; = 1 : int</text>
</g>
<!-- N78 -->
<g id="node5" class="node"><title>N78</title>
<polygon fill="#fffff0" stroke="#fffff0" points="238,-85 288,-85 300,-97 300,-109 288,-121 238,-121 226,-109 226,-97 238,-85"/>
<path fill="#fffff0" stroke="#fffff0" d="M288,-85C294,-85 300,-91 300,-97"/>
<path fill="#fffff0" stroke="#fffff0" d="M300,-109C300,-115 294,-121 288,-121"/>
<path fill="#fffff0" stroke="#fffff0" d="M238,-121C232,-121 226,-115 226,-109"/>
<path fill="#fffff0" stroke="#fffff0" d="M226,-97C226,-91 232,-85 238,-85"/>
<polyline fill="none" stroke="black" points="238,-85 288,-85 "/>
<path fill="none" stroke="black" d="M288,-85C294,-85 300,-91 300,-97"/>
<polyline fill="none" stroke="black" points="300,-97 300,-109 "/>
<path fill="none" stroke="black" d="M300,-109C300,-115 294,-121 288,-121"/>
<polyline fill="none" stroke="black" points="288,-121 238,-121 "/>
<path fill="none" stroke="black" d="M238,-121C232,-121 226,-115 226,-109"/>
<polyline fill="none" stroke="black" points="226,-109 226,-97 "/>
<path fill="none" stroke="black" d="M226,-97C226,-91 232,-85 238,-85"/>
<text text-anchor="middle" x="263" y="-109.8" font-family="FreeSans" font-size="8.00">Node[78]</text>
<polyline fill="none" stroke="black" points="226,-103 300,-103 "/>
<text text-anchor="start" x="234" y="-91.8" font-family="FreeSans" font-size="8.00">&#39;age&#39; = 1 : int</text>
</g>
</g>
</svg>
