<?xml version="1.0" encoding="UTF-8" standalone="no"?>
<!DOCTYPE svg PUBLIC "-//W3C//DTD SVG 1.1//EN"
 "http://www.w3.org/Graphics/SVG/1.1/DTD/svg11.dtd">
<!-- Generated by graphviz version 2.26.3 (20100126.1600)
 -->
<!-- Title: g Pages: 1 -->
<svg width="396pt" height="382pt"
 viewBox="0.00 0.00 396.00 382.00" xmlns="http://www.w3.org/2000/svg" xmlns:xlink="http://www.w3.org/1999/xlink">
<g id="graph1" class="graph" transform="scale(1 1) rotate(0) translate(4 378)">
<title>g</title>
<polygon fill="white" stroke="white" points="-4,5 -4,-378 393,-378 393,5 -4,5"/>
<!-- N237 -->
<g id="node1" class="node"><title>N237</title>
<polygon fill="#fffff0" stroke="#fffff0" points="270,-85 346,-85 358,-97 358,-109 346,-121 270,-121 258,-109 258,-97 270,-85"/>
<path fill="#fffff0" stroke="#fffff0" d="M346,-85C352,-85 358,-91 358,-97"/>
<path fill="#fffff0" stroke="#fffff0" d="M358,-109C358,-115 352,-121 346,-121"/>
<path fill="#fffff0" stroke="#fffff0" d="M270,-121C264,-121 258,-115 258,-109"/>
<path fill="#fffff0" stroke="#fffff0" d="M258,-97C258,-91 264,-85 270,-85"/>
<polyline fill="none" stroke="black" points="270,-85 346,-85 "/>
<path fill="none" stroke="black" d="M346,-85C352,-85 358,-91 358,-97"/>
<polyline fill="none" stroke="black" points="358,-97 358,-109 "/>
<path fill="none" stroke="black" d="M358,-109C358,-115 352,-121 346,-121"/>
<polyline fill="none" stroke="black" points="346,-121 270,-121 "/>
<path fill="none" stroke="black" d="M270,-121C264,-121 258,-115 258,-109"/>
<polyline fill="none" stroke="black" points="258,-109 258,-97 "/>
<path fill="none" stroke="black" d="M258,-97C258,-91 264,-85 270,-85"/>
<text text-anchor="middle" x="308" y="-109.8" font-family="FreeSans" font-size="8.00">Node[237]</text>
<polyline fill="none" stroke="black" points="258,-103 358,-103 "/>
<text text-anchor="start" x="266" y="-91.8" font-family="FreeSans" font-size="8.00">&#39;name&#39; = &#39;f&#39; : String</text>
</g>
<!-- N238 -->
<g id="node3" class="node"><title>N238</title>
<polygon fill="#fffff0" stroke="#fffff0" points="147,-1 225,-1 237,-13 237,-25 225,-37 147,-37 135,-25 135,-13 147,-1"/>
<path fill="#fffff0" stroke="#fffff0" d="M225,-1C231,-1 237,-7 237,-13"/>
<path fill="#fffff0" stroke="#fffff0" d="M237,-25C237,-31 231,-37 225,-37"/>
<path fill="#fffff0" stroke="#fffff0" d="M147,-37C141,-37 135,-31 135,-25"/>
<path fill="#fffff0" stroke="#fffff0" d="M135,-13C135,-7 141,-1 147,-1"/>
<polyline fill="none" stroke="black" points="147,-1 225,-1 "/>
<path fill="none" stroke="black" d="M225,-1C231,-1 237,-7 237,-13"/>
<polyline fill="none" stroke="black" points="237,-13 237,-25 "/>
<path fill="none" stroke="black" d="M237,-25C237,-31 231,-37 225,-37"/>
<polyline fill="none" stroke="black" points="225,-37 147,-37 "/>
<path fill="none" stroke="black" d="M147,-37C141,-37 135,-31 135,-25"/>
<polyline fill="none" stroke="black" points="135,-25 135,-13 "/>
<path fill="none" stroke="black" d="M135,-13C135,-7 141,-1 147,-1"/>
<text text-anchor="middle" x="186" y="-25.8" font-family="FreeSans" font-size="8.00">Node[238]</text>
<polyline fill="none" stroke="black" points="135,-19 237,-19 "/>
<text text-anchor="start" x="143" y="-7.8" font-family="FreeSans" font-size="8.00">&#39;name&#39; = &#39;g&#39; : String</text>
</g>
<!-- N237&#45;&gt;N238 -->
<g id="edge2" class="edge"><title>N237&#45;&gt;N238</title>
<path fill="none" stroke="black" d="M281.828,-84.9799C263.38,-72.2781 238.541,-55.1759 218.775,-41.5662"/>
<polygon fill="black" stroke="black" points="212.55,-37.2801 220.641,-38.7536 215.638,-39.4068 218.727,-41.5335 218.727,-41.5335 218.727,-41.5335 215.638,-39.4068 216.813,-44.3133 212.55,-37.2801 212.55,-37.2801"/>
<text text-anchor="middle" x="254.5" y="-58.8" font-family="FreeSans" font-size="8.00">to</text>
</g>
<!-- N239 -->
<g id="node4" class="node"><title>N239</title>
<polygon fill="#fffff0" stroke="#fffff0" points="79,-169 157,-169 169,-181 169,-193 157,-205 79,-205 67,-193 67,-181 79,-169"/>
<path fill="#fffff0" stroke="#fffff0" d="M157,-169C163,-169 169,-175 169,-181"/>
<path fill="#fffff0" stroke="#fffff0" d="M169,-193C169,-199 163,-205 157,-205"/>
<path fill="#fffff0" stroke="#fffff0" d="M79,-205C73,-205 67,-199 67,-193"/>
<path fill="#fffff0" stroke="#fffff0" d="M67,-181C67,-175 73,-169 79,-169"/>
<polyline fill="none" stroke="black" points="79,-169 157,-169 "/>
<path fill="none" stroke="black" d="M157,-169C163,-169 169,-175 169,-181"/>
<polyline fill="none" stroke="black" points="169,-181 169,-193 "/>
<path fill="none" stroke="black" d="M169,-193C169,-199 163,-205 157,-205"/>
<polyline fill="none" stroke="black" points="157,-205 79,-205 "/>
<path fill="none" stroke="black" d="M79,-205C73,-205 67,-199 67,-193"/>
<polyline fill="none" stroke="black" points="67,-193 67,-181 "/>
<path fill="none" stroke="black" d="M67,-181C67,-175 73,-169 79,-169"/>
<text text-anchor="middle" x="118" y="-193.8" font-family="FreeSans" font-size="8.00">Node[239]</text>
<polyline fill="none" stroke="black" points="67,-187 169,-187 "/>
<text text-anchor="start" x="75" y="-175.8" font-family="FreeSans" font-size="8.00">&#39;name&#39; = &#39;d&#39; : String</text>
</g>
<!-- N239&#45;&gt;N238 -->
<g id="edge6" class="edge"><title>N239&#45;&gt;N238</title>
<path fill="none" stroke="black" d="M125.407,-168.701C137.599,-138.578 161.922,-78.4856 175.756,-44.3077"/>
<polygon fill="black" stroke="black" points="178.705,-37.0219 179.02,-45.2403 177.298,-40.498 175.891,-43.974 175.891,-43.974 175.891,-43.974 177.298,-40.498 172.763,-42.7077 178.705,-37.0219 178.705,-37.0219"/>
<text text-anchor="middle" x="163.5" y="-100.8" font-family="FreeSans" font-size="8.00">to</text>
</g>
<!-- N240 -->
<g id="node6" class="node"><title>N240</title>
<polygon fill="#fffff0" stroke="#fffff0" points="12,-85 90,-85 102,-97 102,-109 90,-121 12,-121 0,-109 0,-97 12,-85"/>
<path fill="#fffff0" stroke="#fffff0" d="M90,-85C96,-85 102,-91 102,-97"/>
<path fill="#fffff0" stroke="#fffff0" d="M102,-109C102,-115 96,-121 90,-121"/>
<path fill="#fffff0" stroke="#fffff0" d="M12,-121C6,-121 0,-115 0,-109"/>
<path fill="#fffff0" stroke="#fffff0" d="M0,-97C0,-91 6,-85 12,-85"/>
<polyline fill="none" stroke="black" points="12,-85 90,-85 "/>
<path fill="none" stroke="black" d="M90,-85C96,-85 102,-91 102,-97"/>
<polyline fill="none" stroke="black" points="102,-97 102,-109 "/>
<path fill="none" stroke="black" d="M102,-109C102,-115 96,-121 90,-121"/>
<polyline fill="none" stroke="black" points="90,-121 12,-121 "/>
<path fill="none" stroke="black" d="M12,-121C6,-121 0,-115 0,-109"/>
<polyline fill="none" stroke="black" points="0,-109 0,-97 "/>
<path fill="none" stroke="black" d="M0,-97C0,-91 6,-85 12,-85"/>
<text text-anchor="middle" x="51" y="-109.8" font-family="FreeSans" font-size="8.00">Node[240]</text>
<polyline fill="none" stroke="black" points="0,-103 102,-103 "/>
<text text-anchor="start" x="8" y="-91.8" font-family="FreeSans" font-size="8.00">&#39;name&#39; = &#39;e&#39; : String</text>
</g>
<!-- N239&#45;&gt;N240 -->
<g id="edge4" class="edge"><title>N239&#45;&gt;N240</title>
<path fill="none" stroke="black" d="M103.462,-168.773C93.7164,-156.555 80.7785,-140.334 70.1896,-127.059"/>
<polygon fill="black" stroke="black" points="65.5096,-121.191 72.8249,-124.95 67.848,-124.123 70.1864,-127.055 70.1864,-127.055 70.1864,-127.055 67.848,-124.123 67.5479,-129.159 65.5096,-121.191 65.5096,-121.191"/>
<text text-anchor="middle" x="91.5" y="-142.8" font-family="FreeSans" font-size="8.00">to</text>
</g>
<!-- N240&#45;&gt;N238 -->
<g id="edge8" class="edge"><title>N240&#45;&gt;N238</title>
<path fill="none" stroke="black" d="M79.9609,-84.9799C100.463,-72.2231 128.098,-55.0277 150.017,-41.3896"/>
<polygon fill="black" stroke="black" points="156.621,-37.2801 152.036,-44.108 153.437,-39.2613 150.253,-41.2425 150.253,-41.2425 150.253,-41.2425 153.437,-39.2613 148.47,-38.3769 156.621,-37.2801 156.621,-37.2801"/>
<text text-anchor="middle" x="127.5" y="-58.8" font-family="FreeSans" font-size="8.00">to</text>
</g>
<!-- N241 -->
<g id="node9" class="node"><title>N241</title>
<polygon fill="#fffff0" stroke="#fffff0" points="269,-169 347,-169 359,-181 359,-193 347,-205 269,-205 257,-193 257,-181 269,-169"/>
<path fill="#fffff0" stroke="#fffff0" d="M347,-169C353,-169 359,-175 359,-181"/>
<path fill="#fffff0" stroke="#fffff0" d="M359,-193C359,-199 353,-205 347,-205"/>
<path fill="#fffff0" stroke="#fffff0" d="M269,-205C263,-205 257,-199 257,-193"/>
<path fill="#fffff0" stroke="#fffff0" d="M257,-181C257,-175 263,-169 269,-169"/>
<polyline fill="none" stroke="black" points="269,-169 347,-169 "/>
<path fill="none" stroke="black" d="M347,-169C353,-169 359,-175 359,-181"/>
<polyline fill="none" stroke="black" points="359,-181 359,-193 "/>
<path fill="none" stroke="black" d="M359,-193C359,-199 353,-205 347,-205"/>
<polyline fill="none" stroke="black" points="347,-205 269,-205 "/>
<path fill="none" stroke="black" d="M269,-205C263,-205 257,-199 257,-193"/>
<polyline fill="none" stroke="black" points="257,-193 257,-181 "/>
<path fill="none" stroke="black" d="M257,-181C257,-175 263,-169 269,-169"/>
<text text-anchor="middle" x="308" y="-193.8" font-family="FreeSans" font-size="8.00">Node[241]</text>
<polyline fill="none" stroke="black" points="257,-187 359,-187 "/>
<text text-anchor="start" x="265" y="-175.8" font-family="FreeSans" font-size="8.00">&#39;name&#39; = &#39;b&#39; : String</text>
</g>
<!-- N241&#45;&gt;N237 -->
<g id="edge10" class="edge"><title>N241&#45;&gt;N237</title>
<path fill="none" stroke="black" d="M308,-168.773C308,-157.105 308,-141.787 308,-128.87"/>
<polygon fill="black" stroke="black" points="308,-121.191 311.375,-128.691 308,-124.941 308,-128.691 308,-128.691 308,-128.691 308,-124.941 304.625,-128.691 308,-121.191 308,-121.191"/>
<text text-anchor="middle" x="312.5" y="-142.8" font-family="FreeSans" font-size="8.00">to</text>
</g>
<!-- N242 -->
<g id="node11" class="node"><title>N242</title>
<polygon fill="#fffff0" stroke="#fffff0" points="236.5,-253 313.5,-253 325.5,-265 325.5,-277 313.5,-289 236.5,-289 224.5,-277 224.5,-265 236.5,-253"/>
<path fill="#fffff0" stroke="#fffff0" d="M313.5,-253C319.5,-253 325.5,-259 325.5,-265"/>
<path fill="#fffff0" stroke="#fffff0" d="M325.5,-277C325.5,-283 319.5,-289 313.5,-289"/>
<path fill="#fffff0" stroke="#fffff0" d="M236.5,-289C230.5,-289 224.5,-283 224.5,-277"/>
<path fill="#fffff0" stroke="#fffff0" d="M224.5,-265C224.5,-259 230.5,-253 236.5,-253"/>
<polyline fill="none" stroke="black" points="236.5,-253 313.5,-253 "/>
<path fill="none" stroke="black" d="M313.5,-253C319.5,-253 325.5,-259 325.5,-265"/>
<polyline fill="none" stroke="black" points="325.5,-265 325.5,-277 "/>
<path fill="none" stroke="black" d="M325.5,-277C325.5,-283 319.5,-289 313.5,-289"/>
<polyline fill="none" stroke="black" points="313.5,-289 236.5,-289 "/>
<path fill="none" stroke="black" d="M236.5,-289C230.5,-289 224.5,-283 224.5,-277"/>
<polyline fill="none" stroke="black" points="224.5,-277 224.5,-265 "/>
<path fill="none" stroke="black" d="M224.5,-265C224.5,-259 230.5,-253 236.5,-253"/>
<text text-anchor="middle" x="275" y="-277.8" font-family="FreeSans" font-size="8.00">Node[242]</text>
<polyline fill="none" stroke="black" points="224.5,-271 325.5,-271 "/>
<text text-anchor="start" x="232.5" y="-259.8" font-family="FreeSans" font-size="8.00">&#39;name&#39; = &#39;c&#39; : String</text>
</g>
<!-- N242&#45;&gt;N237 -->
<g id="edge14" class="edge"><title>N242&#45;&gt;N237</title>
<path fill="none" stroke="black" d="M321.018,-252.91C341.099,-242.435 362.623,-227.079 374,-206 382.021,-191.138 380.523,-183.579 374,-168 367.106,-151.534 353.782,-137.127 340.9,-126.089"/>
<polygon fill="black" stroke="black" points="335.037,-121.259 342.972,-123.423 337.932,-123.643 340.826,-126.028 340.826,-126.028 340.826,-126.028 337.932,-123.643 338.68,-128.633 335.037,-121.259 335.037,-121.259"/>
<text text-anchor="middle" x="383.5" y="-184.8" font-family="FreeSans" font-size="8.00">to</text>
</g>
<!-- N242&#45;&gt;N238 -->
<g id="edge16" class="edge"><title>N242&#45;&gt;N238</title>
<path fill="none" stroke="black" d="M265.087,-252.867C258.312,-240.024 249.431,-222.258 243,-206 220.774,-149.811 201.894,-81.3327 192.456,-44.834"/>
<polygon fill="black" stroke="black" points="190.479,-37.1207 195.61,-43.548 191.41,-40.7533 192.341,-44.3859 192.341,-44.3859 192.341,-44.3859 191.41,-40.7533 189.072,-45.2238 190.479,-37.1207 190.479,-37.1207"/>
<text text-anchor="middle" x="226.5" y="-142.8" font-family="FreeSans" font-size="8.00">to</text>
</g>
<!-- N242&#45;&gt;N241 -->
<g id="edge12" class="edge"><title>N242&#45;&gt;N241</title>
<path fill="none" stroke="black" d="M282.161,-252.773C286.788,-240.995 292.876,-225.498 297.98,-212.505"/>
<polygon fill="black" stroke="black" points="300.853,-205.191 301.252,-213.406 299.482,-208.681 298.111,-212.172 298.111,-212.172 298.111,-212.172 299.482,-208.681 294.97,-210.938 300.853,-205.191 300.853,-205.191"/>
<text text-anchor="middle" x="296.5" y="-226.8" font-family="FreeSans" font-size="8.00">to</text>
</g>
<!-- N243 -->
<g id="node15" class="node"><title>N243</title>
<polygon fill="#fffff0" stroke="#fffff0" points="174,-337 252,-337 264,-349 264,-361 252,-373 174,-373 162,-361 162,-349 174,-337"/>
<path fill="#fffff0" stroke="#fffff0" d="M252,-337C258,-337 264,-343 264,-349"/>
<path fill="#fffff0" stroke="#fffff0" d="M264,-361C264,-367 258,-373 252,-373"/>
<path fill="#fffff0" stroke="#fffff0" d="M174,-373C168,-373 162,-367 162,-361"/>
<path fill="#fffff0" stroke="#fffff0" d="M162,-349C162,-343 168,-337 174,-337"/>
<polyline fill="none" stroke="black" points="174,-337 252,-337 "/>
<path fill="none" stroke="black" d="M252,-337C258,-337 264,-343 264,-349"/>
<polyline fill="none" stroke="black" points="264,-349 264,-361 "/>
<path fill="none" stroke="black" d="M264,-361C264,-367 258,-373 252,-373"/>
<polyline fill="none" stroke="black" points="252,-373 174,-373 "/>
<path fill="none" stroke="black" d="M174,-373C168,-373 162,-367 162,-361"/>
<polyline fill="none" stroke="black" points="162,-361 162,-349 "/>
<path fill="none" stroke="black" d="M162,-349C162,-343 168,-337 174,-337"/>
<text text-anchor="middle" x="213" y="-361.8" font-family="FreeSans" font-size="8.00">Node[243]</text>
<polyline fill="none" stroke="black" points="162,-355 264,-355 "/>
<text text-anchor="start" x="170" y="-343.8" font-family="FreeSans" font-size="8.00">&#39;name&#39; = &#39;a&#39; : String</text>
</g>
<!-- N243&#45;&gt;N239 -->
<g id="edge20" class="edge"><title>N243&#45;&gt;N239</title>
<path fill="none" stroke="black" d="M202.652,-336.701C185.547,-306.452 151.352,-245.98 132.068,-211.878"/>
<polygon fill="black" stroke="black" points="128.191,-205.022 134.821,-209.889 130.037,-208.286 131.883,-211.55 131.883,-211.55 131.883,-211.55 130.037,-208.286 128.945,-213.212 128.191,-205.022 128.191,-205.022"/>
<text text-anchor="middle" x="179.5" y="-268.8" font-family="FreeSans" font-size="8.00">to</text>
</g>
<!-- N243&#45;&gt;N242 -->
<g id="edge18" class="edge"><title>N243&#45;&gt;N242</title>
<path fill="none" stroke="black" d="M226.453,-336.773C235.39,-324.665 247.228,-308.626 256.977,-295.418"/>
<polygon fill="black" stroke="black" points="261.573,-289.191 259.835,-297.23 259.346,-292.208 257.119,-295.226 257.119,-295.226 257.119,-295.226 259.346,-292.208 254.404,-293.221 261.573,-289.191 261.573,-289.191"/>
<text text-anchor="middle" x="249.5" y="-310.8" font-family="FreeSans" font-size="8.00">to</text>
</g>
</g>
</svg>
