<?xml version="1.0" encoding="UTF-8" standalone="no"?>
<!DOCTYPE svg PUBLIC "-//W3C//DTD SVG 1.1//EN"
 "http://www.w3.org/Graphics/SVG/1.1/DTD/svg11.dtd">
<!-- Generated by graphviz version 2.26.3 (20100126.1600)
 -->
<!-- Title: g Pages: 1 -->
<svg width="279pt" height="46pt"
 viewBox="0.00 0.00 279.00 46.00" xmlns="http://www.w3.org/2000/svg" xmlns:xlink="http://www.w3.org/1999/xlink">
<g id="graph1" class="graph" transform="scale(1 1) rotate(0) translate(4 42)">
<title>g</title>
<polygon fill="white" stroke="white" points="-4,5 -4,-42 276,-42 276,5 -4,5"/>
<!-- N33 -->
<g id="node1" class="node"><title>N33</title>
<polygon fill="#fffff0" stroke="#fffff0" points="11.5,-1 104.5,-1 116.5,-13 116.5,-25 104.5,-37 11.5,-37 -0.5,-25 -0.5,-13 11.5,-1"/>
<path fill="#fffff0" stroke="#fffff0" d="M104.5,-1C110.5,-1 116.5,-7 116.5,-13"/>
<path fill="#fffff0" stroke="#fffff0" d="M116.5,-25C116.5,-31 110.5,-37 104.5,-37"/>
<path fill="#fffff0" stroke="#fffff0" d="M11.5,-37C5.5,-37 -0.5,-31 -0.5,-25"/>
<path fill="#fffff0" stroke="#fffff0" d="M-0.5,-13C-0.5,-7 5.5,-1 11.5,-1"/>
<polyline fill="none" stroke="black" points="11.5,-1 104.5,-1 "/>
<path fill="none" stroke="black" d="M104.5,-1C110.5,-1 116.5,-7 116.5,-13"/>
<polyline fill="none" stroke="black" points="116.5,-13 116.5,-25 "/>
<path fill="none" stroke="black" d="M116.5,-25C116.5,-31 110.5,-37 104.5,-37"/>
<polyline fill="none" stroke="black" points="104.5,-37 11.5,-37 "/>
<path fill="none" stroke="black" d="M11.5,-37C5.5,-37 -0.5,-31 -0.5,-25"/>
<polyline fill="none" stroke="black" points="-0.5,-25 -0.5,-13 "/>
<path fill="none" stroke="black" d="M-0.5,-13C-0.5,-7 5.5,-1 11.5,-1"/>
<text text-anchor="middle" x="58" y="-25.8" font-family="FreeSans" font-size="8.00">Node[33]</text>
<polyline fill="none" stroke="black" points="-0.5,-19 116.5,-19 "/>
<text text-anchor="start" x="7.5" y="-7.8" font-family="FreeSans" font-size="8.00">&#39;name&#39; = &#39;Juliet&#39; : String</text>
</g>
<!-- N34 -->
<g id="node2" class="node"><title>N34</title>
<polygon fill="#fffff0" stroke="#fffff0" points="157,-1 259,-1 271,-13 271,-25 259,-37 157,-37 145,-25 145,-13 157,-1"/>
<path fill="#fffff0" stroke="#fffff0" d="M259,-1C265,-1 271,-7 271,-13"/>
<path fill="#fffff0" stroke="#fffff0" d="M271,-25C271,-31 265,-37 259,-37"/>
<path fill="#fffff0" stroke="#fffff0" d="M157,-37C151,-37 145,-31 145,-25"/>
<path fill="#fffff0" stroke="#fffff0" d="M145,-13C145,-7 151,-1 157,-1"/>
<polyline fill="none" stroke="black" points="157,-1 259,-1 "/>
<path fill="none" stroke="black" d="M259,-1C265,-1 271,-7 271,-13"/>
<polyline fill="none" stroke="black" points="271,-13 271,-25 "/>
<path fill="none" stroke="black" d="M271,-25C271,-31 265,-37 259,-37"/>
<polyline fill="none" stroke="black" points="259,-37 157,-37 "/>
<path fill="none" stroke="black" d="M157,-37C151,-37 145,-31 145,-25"/>
<polyline fill="none" stroke="black" points="145,-25 145,-13 "/>
<path fill="none" stroke="black" d="M145,-13C145,-7 151,-1 157,-1"/>
<text text-anchor="middle" x="208" y="-25.8" font-family="FreeSans" font-size="8.00">Node[34]</text>
<polyline fill="none" stroke="black" points="145,-19 271,-19 "/>
<text text-anchor="start" x="153" y="-7.8" font-family="FreeSans" font-size="8.00">&#39;name&#39; = &#39;Romeo&#39; : String</text>
</g>
</g>
</svg>
