<?xml version="1.0" encoding="UTF-8" standalone="no"?>
<!DOCTYPE svg PUBLIC "-//W3C//DTD SVG 1.1//EN"
 "http://www.w3.org/Graphics/SVG/1.1/DTD/svg11.dtd">
<!-- Generated by graphviz version 2.26.3 (20100126.1600)
 -->
<!-- Title: g Pages: 1 -->
<svg width="261pt" height="130pt"
 viewBox="0.00 0.00 261.00 130.00" xmlns="http://www.w3.org/2000/svg" xmlns:xlink="http://www.w3.org/1999/xlink">
<g id="graph1" class="graph" transform="scale(1 1) rotate(0) translate(4 126)">
<title>g</title>
<polygon fill="white" stroke="white" points="-4,5 -4,-126 258,-126 258,5 -4,5"/>
<!-- N13 -->
<g id="node1" class="node"><title>N13</title>
<polygon fill="#fffff0" stroke="#fffff0" points="12,-1 100,-1 112,-13 112,-25 100,-37 12,-37 0,-25 0,-13 12,-1"/>
<path fill="#fffff0" stroke="#fffff0" d="M100,-1C106,-1 112,-7 112,-13"/>
<path fill="#fffff0" stroke="#fffff0" d="M112,-25C112,-31 106,-37 100,-37"/>
<path fill="#fffff0" stroke="#fffff0" d="M12,-37C6,-37 0,-31 0,-25"/>
<path fill="#fffff0" stroke="#fffff0" d="M0,-13C0,-7 6,-1 12,-1"/>
<polyline fill="none" stroke="black" points="12,-1 100,-1 "/>
<path fill="none" stroke="black" d="M100,-1C106,-1 112,-7 112,-13"/>
<polyline fill="none" stroke="black" points="112,-13 112,-25 "/>
<path fill="none" stroke="black" d="M112,-25C112,-31 106,-37 100,-37"/>
<polyline fill="none" stroke="black" points="100,-37 12,-37 "/>
<path fill="none" stroke="black" d="M12,-37C6,-37 0,-31 0,-25"/>
<polyline fill="none" stroke="black" points="0,-25 0,-13 "/>
<path fill="none" stroke="black" d="M0,-13C0,-7 6,-1 12,-1"/>
<text text-anchor="middle" x="56" y="-25.8" font-family="FreeSans" font-size="8.00">Node[13]</text>
<polyline fill="none" stroke="black" points="0,-19 112,-19 "/>
<text text-anchor="start" x="8" y="-7.8" font-family="FreeSans" font-size="8.00">&#39;name&#39; = &#39;you&#39; : String</text>
</g>
<!-- N14 -->
<g id="node2" class="node"><title>N14</title>
<polygon fill="#fffff0" stroke="#fffff0" points="152.5,-1 241.5,-1 253.5,-13 253.5,-25 241.5,-37 152.5,-37 140.5,-25 140.5,-13 152.5,-1"/>
<path fill="#fffff0" stroke="#fffff0" d="M241.5,-1C247.5,-1 253.5,-7 253.5,-13"/>
<path fill="#fffff0" stroke="#fffff0" d="M253.5,-25C253.5,-31 247.5,-37 241.5,-37"/>
<path fill="#fffff0" stroke="#fffff0" d="M152.5,-37C146.5,-37 140.5,-31 140.5,-25"/>
<path fill="#fffff0" stroke="#fffff0" d="M140.5,-13C140.5,-7 146.5,-1 152.5,-1"/>
<polyline fill="none" stroke="black" points="152.5,-1 241.5,-1 "/>
<path fill="none" stroke="black" d="M241.5,-1C247.5,-1 253.5,-7 253.5,-13"/>
<polyline fill="none" stroke="black" points="253.5,-13 253.5,-25 "/>
<path fill="none" stroke="black" d="M253.5,-25C253.5,-31 247.5,-37 241.5,-37"/>
<polyline fill="none" stroke="black" points="241.5,-37 152.5,-37 "/>
<path fill="none" stroke="black" d="M152.5,-37C146.5,-37 140.5,-31 140.5,-25"/>
<polyline fill="none" stroke="black" points="140.5,-25 140.5,-13 "/>
<path fill="none" stroke="black" d="M140.5,-13C140.5,-7 146.5,-1 152.5,-1"/>
<text text-anchor="middle" x="197" y="-25.8" font-family="FreeSans" font-size="8.00">Node[14]</text>
<polyline fill="none" stroke="black" points="140.5,-19 253.5,-19 "/>
<text text-anchor="start" x="148.5" y="-7.8" font-family="FreeSans" font-size="8.00">&#39;name&#39; = &#39;him&#39; : String</text>
</g>
<!-- N15 -->
<g id="node3" class="node"><title>N15</title>
<polygon fill="#fffff0" stroke="#fffff0" points="88.5,-85 163.5,-85 175.5,-97 175.5,-109 163.5,-121 88.5,-121 76.5,-109 76.5,-97 88.5,-85"/>
<path fill="#fffff0" stroke="#fffff0" d="M163.5,-85C169.5,-85 175.5,-91 175.5,-97"/>
<path fill="#fffff0" stroke="#fffff0" d="M175.5,-109C175.5,-115 169.5,-121 163.5,-121"/>
<path fill="#fffff0" stroke="#fffff0" d="M88.5,-121C82.5,-121 76.5,-115 76.5,-109"/>
<path fill="#fffff0" stroke="#fffff0" d="M76.5,-97C76.5,-91 82.5,-85 88.5,-85"/>
<polyline fill="none" stroke="black" points="88.5,-85 163.5,-85 "/>
<path fill="none" stroke="black" d="M163.5,-85C169.5,-85 175.5,-91 175.5,-97"/>
<polyline fill="none" stroke="black" points="175.5,-97 175.5,-109 "/>
<path fill="none" stroke="black" d="M175.5,-109C175.5,-115 169.5,-121 163.5,-121"/>
<polyline fill="none" stroke="black" points="163.5,-121 88.5,-121 "/>
<path fill="none" stroke="black" d="M88.5,-121C82.5,-121 76.5,-115 76.5,-109"/>
<polyline fill="none" stroke="black" points="76.5,-109 76.5,-97 "/>
<path fill="none" stroke="black" d="M76.5,-97C76.5,-91 82.5,-85 88.5,-85"/>
<text text-anchor="middle" x="126" y="-109.8" font-family="FreeSans" font-size="8.00">Node[15]</text>
<polyline fill="none" stroke="black" points="76.5,-103 175.5,-103 "/>
<text text-anchor="start" x="84.5" y="-91.8" font-family="FreeSans" font-size="8.00">&#39;name&#39; = &#39;I&#39; : String</text>
</g>
<!-- N15&#45;&gt;N13 -->
<g id="edge2" class="edge"><title>N15&#45;&gt;N13</title>
<path fill="none" stroke="black" d="M110.811,-84.7733C100.629,-72.5549 87.1118,-56.3342 76.0488,-43.0586"/>
<polygon fill="black" stroke="black" points="71.1593,-37.1912 78.5535,-40.7922 73.56,-40.072 75.9607,-42.9529 75.9607,-42.9529 75.9607,-42.9529 73.56,-40.072 73.368,-45.1135 71.1593,-37.1912 71.1593,-37.1912"/>
<text text-anchor="middle" x="105" y="-58.8" font-family="FreeSans" font-size="8.00">know</text>
</g>
<!-- N15&#45;&gt;N14 -->
<g id="edge4" class="edge"><title>N15&#45;&gt;N14</title>
<path fill="none" stroke="black" d="M141.406,-84.7733C151.733,-72.5549 165.444,-56.3342 176.665,-43.0586"/>
<polygon fill="black" stroke="black" points="181.624,-37.1912 179.36,-45.0979 179.203,-40.0552 176.783,-42.9192 176.783,-42.9192 176.783,-42.9192 179.203,-40.0552 174.205,-40.7405 181.624,-37.1912 181.624,-37.1912"/>
<text text-anchor="middle" x="174" y="-58.8" font-family="FreeSans" font-size="8.00">know</text>
</g>
</g>
</svg>
