<?xml version="1.0" encoding="UTF-8" standalone="no"?>
<!DOCTYPE svg PUBLIC "-//W3C//DTD SVG 1.1//EN"
 "http://www.w3.org/Graphics/SVG/1.1/DTD/svg11.dtd">
<!-- Generated by graphviz version 2.26.3 (20100126.1600)
 -->
<!-- Title: g Pages: 1 -->
<svg width="272pt" height="140pt"
 viewBox="0.00 0.00 272.00 140.00" xmlns="http://www.w3.org/2000/svg" xmlns:xlink="http://www.w3.org/1999/xlink">
<g id="graph1" class="graph" transform="scale(1 1) rotate(0) translate(4 136)">
<title>g</title>
<polygon fill="white" stroke="white" points="-4,5 -4,-136 269,-136 269,5 -4,5"/>
<!-- N7 -->
<g id="node1" class="node"><title>N7</title>
<polygon fill="#fffff0" stroke="#fffff0" points="88.5,-95 163.5,-95 175.5,-107 175.5,-119 163.5,-131 88.5,-131 76.5,-119 76.5,-107 88.5,-95"/>
<path fill="#fffff0" stroke="#fffff0" d="M163.5,-95C169.5,-95 175.5,-101 175.5,-107"/>
<path fill="#fffff0" stroke="#fffff0" d="M175.5,-119C175.5,-125 169.5,-131 163.5,-131"/>
<path fill="#fffff0" stroke="#fffff0" d="M88.5,-131C82.5,-131 76.5,-125 76.5,-119"/>
<path fill="#fffff0" stroke="#fffff0" d="M76.5,-107C76.5,-101 82.5,-95 88.5,-95"/>
<polyline fill="none" stroke="black" points="88.5,-95 163.5,-95 "/>
<path fill="none" stroke="black" d="M163.5,-95C169.5,-95 175.5,-101 175.5,-107"/>
<polyline fill="none" stroke="black" points="175.5,-107 175.5,-119 "/>
<path fill="none" stroke="black" d="M175.5,-119C175.5,-125 169.5,-131 163.5,-131"/>
<polyline fill="none" stroke="black" points="163.5,-131 88.5,-131 "/>
<path fill="none" stroke="black" d="M88.5,-131C82.5,-131 76.5,-125 76.5,-119"/>
<polyline fill="none" stroke="black" points="76.5,-119 76.5,-107 "/>
<path fill="none" stroke="black" d="M76.5,-107C76.5,-101 82.5,-95 88.5,-95"/>
<text text-anchor="middle" x="126" y="-119.8" font-family="FreeSans" font-size="8.00">Node[7]</text>
<polyline fill="none" stroke="black" points="76.5,-113 175.5,-113 "/>
<text text-anchor="start" x="84.5" y="-101.8" font-family="FreeSans" font-size="8.00">&#39;name&#39; = &#39;I&#39; : String</text>
</g>
<!-- N8 -->
<g id="node3" class="node"><title>N8</title>
<polygon fill="#fffff0" stroke="#fffff0" points="12,-1 100,-1 112,-13 112,-25 100,-37 12,-37 0,-25 0,-13 12,-1"/>
<path fill="#fffff0" stroke="#fffff0" d="M100,-1C106,-1 112,-7 112,-13"/>
<path fill="#fffff0" stroke="#fffff0" d="M112,-25C112,-31 106,-37 100,-37"/>
<path fill="#fffff0" stroke="#fffff0" d="M12,-37C6,-37 0,-31 0,-25"/>
<path fill="#fffff0" stroke="#fffff0" d="M0,-13C0,-7 6,-1 12,-1"/>
<polyline fill="none" stroke="black" points="12,-1 100,-1 "/>
<path fill="none" stroke="black" d="M100,-1C106,-1 112,-7 112,-13"/>
<polyline fill="none" stroke="black" points="112,-13 112,-25 "/>
<path fill="none" stroke="black" d="M112,-25C112,-31 106,-37 100,-37"/>
<polyline fill="none" stroke="black" points="100,-37 12,-37 "/>
<path fill="none" stroke="black" d="M12,-37C6,-37 0,-31 0,-25"/>
<polyline fill="none" stroke="black" points="0,-25 0,-13 "/>
<path fill="none" stroke="black" d="M0,-13C0,-7 6,-1 12,-1"/>
<text text-anchor="middle" x="56" y="-25.8" font-family="FreeSans" font-size="8.00">Node[8]</text>
<polyline fill="none" stroke="black" points="0,-19 112,-19 "/>
<text text-anchor="start" x="8" y="-7.8" font-family="FreeSans" font-size="8.00">&#39;name&#39; = &#39;you&#39; : String</text>
</g>
<!-- N7&#45;&gt;N8 -->
<g id="edge2" class="edge"><title>N7&#45;&gt;N8</title>
<path fill="none" stroke="black" d="M93.7268,-94.9413C86.426,-89.6251 79.281,-83.2564 74,-76 67.268,-66.7499 62.9961,-54.8963 60.3138,-44.3968"/>
<polygon fill="black" stroke="black" points="58.6292,-37.0474 63.5947,-43.6038 59.4671,-40.7026 60.305,-44.3578 60.305,-44.3578 60.305,-44.3578 59.4671,-40.7026 57.0153,-45.1119 58.6292,-37.0474 58.6292,-37.0474"/>
<text text-anchor="middle" x="117.5" y="-68.8" font-family="FreeSans" font-size="8.00">know</text>
<text text-anchor="start" x="74" y="-58.8" font-family="FreeSans" font-size="8.00">&#39;weight&#39; = 0.5 : float</text>
</g>
<!-- N9 -->
<g id="node5" class="node"><title>N9</title>
<polygon fill="#fffff0" stroke="#fffff0" points="152.5,-1 241.5,-1 253.5,-13 253.5,-25 241.5,-37 152.5,-37 140.5,-25 140.5,-13 152.5,-1"/>
<path fill="#fffff0" stroke="#fffff0" d="M241.5,-1C247.5,-1 253.5,-7 253.5,-13"/>
<path fill="#fffff0" stroke="#fffff0" d="M253.5,-25C253.5,-31 247.5,-37 241.5,-37"/>
<path fill="#fffff0" stroke="#fffff0" d="M152.5,-37C146.5,-37 140.5,-31 140.5,-25"/>
<path fill="#fffff0" stroke="#fffff0" d="M140.5,-13C140.5,-7 146.5,-1 152.5,-1"/>
<polyline fill="none" stroke="black" points="152.5,-1 241.5,-1 "/>
<path fill="none" stroke="black" d="M241.5,-1C247.5,-1 253.5,-7 253.5,-13"/>
<polyline fill="none" stroke="black" points="253.5,-13 253.5,-25 "/>
<path fill="none" stroke="black" d="M253.5,-25C253.5,-31 247.5,-37 241.5,-37"/>
<polyline fill="none" stroke="black" points="241.5,-37 152.5,-37 "/>
<path fill="none" stroke="black" d="M152.5,-37C146.5,-37 140.5,-31 140.5,-25"/>
<polyline fill="none" stroke="black" points="140.5,-25 140.5,-13 "/>
<path fill="none" stroke="black" d="M140.5,-13C140.5,-7 146.5,-1 152.5,-1"/>
<text text-anchor="middle" x="197" y="-25.8" font-family="FreeSans" font-size="8.00">Node[9]</text>
<polyline fill="none" stroke="black" points="140.5,-19 253.5,-19 "/>
<text text-anchor="start" x="148.5" y="-7.8" font-family="FreeSans" font-size="8.00">&#39;name&#39; = &#39;him&#39; : String</text>
</g>
<!-- N7&#45;&gt;N9 -->
<g id="edge4" class="edge"><title>N7&#45;&gt;N9</title>
<path fill="none" stroke="black" d="M146.789,-94.7506C152.699,-89.0518 158.907,-82.5378 164,-76 171.707,-66.1052 178.868,-54.2253 184.536,-43.8779"/>
<polygon fill="black" stroke="black" points="188.21,-37.0025 187.652,-45.208 186.443,-40.3099 184.675,-43.6174 184.675,-43.6174 184.675,-43.6174 186.443,-40.3099 181.699,-42.0269 188.21,-37.0025 188.21,-37.0025"/>
<text text-anchor="middle" x="220.5" y="-68.8" font-family="FreeSans" font-size="8.00">know</text>
<text text-anchor="start" x="177" y="-58.8" font-family="FreeSans" font-size="8.00">&#39;weight&#39; = 0.8 : float</text>
</g>
</g>
</svg>
