<?xml version="1.0" encoding="UTF-8" standalone="no"?>
<!DOCTYPE svg PUBLIC "-//W3C//DTD SVG 1.1//EN"
 "http://www.w3.org/Graphics/SVG/1.1/DTD/svg11.dtd">
<!-- Generated by graphviz version 2.26.3 (20100126.1600)
 -->
<!-- Title: g Pages: 1 -->
<svg width="132pt" height="56pt"
 viewBox="0.00 0.00 132.00 56.00" xmlns="http://www.w3.org/2000/svg" xmlns:xlink="http://www.w3.org/1999/xlink">
<g id="graph1" class="graph" transform="scale(1 1) rotate(0) translate(4 52)">
<title>g</title>
<polygon fill="white" stroke="white" points="-4,5 -4,-52 129,-52 129,5 -4,5"/>
<!-- N114 -->
<g id="node1" class="node"><title>N114</title>
<polygon fill="#fffff0" stroke="#fffff0" points="12,-1 112,-1 124,-13 124,-35 112,-47 12,-47 0,-35 0,-13 12,-1"/>
<path fill="#fffff0" stroke="#fffff0" d="M112,-1C118,-1 124,-7 124,-13"/>
<path fill="#fffff0" stroke="#fffff0" d="M124,-35C124,-41 118,-47 112,-47"/>
<path fill="#fffff0" stroke="#fffff0" d="M12,-47C6,-47 0,-41 0,-35"/>
<path fill="#fffff0" stroke="#fffff0" d="M0,-13C0,-7 6,-1 12,-1"/>
<polyline fill="none" stroke="black" points="12,-1 112,-1 "/>
<path fill="none" stroke="black" d="M112,-1C118,-1 124,-7 124,-13"/>
<polyline fill="none" stroke="black" points="124,-13 124,-35 "/>
<path fill="none" stroke="black" d="M124,-35C124,-41 118,-47 112,-47"/>
<polyline fill="none" stroke="black" points="112,-47 12,-47 "/>
<path fill="none" stroke="black" d="M12,-47C6,-47 0,-41 0,-35"/>
<polyline fill="none" stroke="black" points="0,-35 0,-13 "/>
<path fill="none" stroke="black" d="M0,-13C0,-7 6,-1 12,-1"/>
<text text-anchor="middle" x="62" y="-35.8" font-family="FreeSans" font-size="8.00">Node[114]</text>
<polyline fill="none" stroke="black" points="0,-29 124,-29 "/>
<text text-anchor="start" x="8" y="-17.8" font-family="FreeSans" font-size="8.00">&#39;name&#39; = &#39;Tobias&#39; : String</text>
<text text-anchor="start" x="8" y="-7.8" font-family="FreeSans" font-size="8.00">&#39;sequence&#39; = 1 : int</text>
</g>
</g>
</svg>
