<?xml version="1.0" encoding="UTF-8" standalone="no"?>
<!DOCTYPE svg PUBLIC "-//W3C//DTD SVG 1.1//EN"
 "http://www.w3.org/Graphics/SVG/1.1/DTD/svg11.dtd">
<!-- Generated by graphviz version 2.26.3 (20100126.1600)
 -->
<!-- Title: g Pages: 1 -->
<svg width="63pt" height="130pt"
 viewBox="0.00 0.00 63.00 130.00" xmlns="http://www.w3.org/2000/svg" xmlns:xlink="http://www.w3.org/1999/xlink">
<g id="graph1" class="graph" transform="scale(1 1) rotate(0) translate(4 126)">
<title>g</title>
<polygon fill="white" stroke="white" points="-4,5 -4,-126 60,-126 60,5 -4,5"/>
<!-- N52 -->
<g id="node1" class="node"><title>N52</title>
<polygon fill="#fffff0" stroke="#fffff0" points="11.5,-85 42.5,-85 54.5,-97 54.5,-109 42.5,-121 11.5,-121 -0.5,-109 -0.5,-97 11.5,-85"/>
<path fill="#fffff0" stroke="#fffff0" d="M42.5,-85C48.5,-85 54.5,-91 54.5,-97"/>
<path fill="#fffff0" stroke="#fffff0" d="M54.5,-109C54.5,-115 48.5,-121 42.5,-121"/>
<path fill="#fffff0" stroke="#fffff0" d="M11.5,-121C5.5,-121 -0.5,-115 -0.5,-109"/>
<path fill="#fffff0" stroke="#fffff0" d="M-0.5,-97C-0.5,-91 5.5,-85 11.5,-85"/>
<polyline fill="none" stroke="black" points="11.5,-85 42.5,-85 "/>
<path fill="none" stroke="black" d="M42.5,-85C48.5,-85 54.5,-91 54.5,-97"/>
<polyline fill="none" stroke="black" points="54.5,-97 54.5,-109 "/>
<path fill="none" stroke="black" d="M54.5,-109C54.5,-115 48.5,-121 42.5,-121"/>
<polyline fill="none" stroke="black" points="42.5,-121 11.5,-121 "/>
<path fill="none" stroke="black" d="M11.5,-121C5.5,-121 -0.5,-115 -0.5,-109"/>
<polyline fill="none" stroke="black" points="-0.5,-109 -0.5,-97 "/>
<path fill="none" stroke="black" d="M-0.5,-97C-0.5,-91 5.5,-85 11.5,-85"/>
<text text-anchor="middle" x="27" y="-109.8" font-family="FreeSans" font-size="8.00">Node[52]</text>
<polyline fill="none" stroke="black" points="-0.5,-103 54.5,-103 "/>
<text text-anchor="middle" x="27" y="-91.8" font-family="FreeSans" font-size="8.00"> </text>
</g>
<!-- N53 -->
<g id="node3" class="node"><title>N53</title>
<polygon fill="#fffff0" stroke="#fffff0" points="11.5,-1 42.5,-1 54.5,-13 54.5,-25 42.5,-37 11.5,-37 -0.5,-25 -0.5,-13 11.5,-1"/>
<path fill="#fffff0" stroke="#fffff0" d="M42.5,-1C48.5,-1 54.5,-7 54.5,-13"/>
<path fill="#fffff0" stroke="#fffff0" d="M54.5,-25C54.5,-31 48.5,-37 42.5,-37"/>
<path fill="#fffff0" stroke="#fffff0" d="M11.5,-37C5.5,-37 -0.5,-31 -0.5,-25"/>
<path fill="#fffff0" stroke="#fffff0" d="M-0.5,-13C-0.5,-7 5.5,-1 11.5,-1"/>
<polyline fill="none" stroke="black" points="11.5,-1 42.5,-1 "/>
<path fill="none" stroke="black" d="M42.5,-1C48.5,-1 54.5,-7 54.5,-13"/>
<polyline fill="none" stroke="black" points="54.5,-13 54.5,-25 "/>
<path fill="none" stroke="black" d="M54.5,-25C54.5,-31 48.5,-37 42.5,-37"/>
<polyline fill="none" stroke="black" points="42.5,-37 11.5,-37 "/>
<path fill="none" stroke="black" d="M11.5,-37C5.5,-37 -0.5,-31 -0.5,-25"/>
<polyline fill="none" stroke="black" points="-0.5,-25 -0.5,-13 "/>
<path fill="none" stroke="black" d="M-0.5,-13C-0.5,-7 5.5,-1 11.5,-1"/>
<text text-anchor="middle" x="27" y="-25.8" font-family="FreeSans" font-size="8.00">Node[53]</text>
<polyline fill="none" stroke="black" points="-0.5,-19 54.5,-19 "/>
<text text-anchor="middle" x="27" y="-7.8" font-family="FreeSans" font-size="8.00"> </text>
</g>
<!-- N52&#45;&gt;N53 -->
<g id="edge2" class="edge"><title>N52&#45;&gt;N53</title>
<path fill="none" stroke="black" d="M27,-84.7733C27,-73.1053 27,-57.7874 27,-44.8699"/>
<polygon fill="black" stroke="black" points="27,-37.1912 30.3751,-44.6911 27,-40.9412 27.0001,-44.6912 27.0001,-44.6912 27.0001,-44.6912 27,-40.9412 23.6251,-44.6912 27,-37.1912 27,-37.1912"/>
<text text-anchor="middle" x="41" y="-58.8" font-family="FreeSans" font-size="8.00">LOVES</text>
</g>
</g>
</svg>
