<?xml version="1.0" encoding="UTF-8" standalone="no"?>
<!DOCTYPE svg PUBLIC "-//W3C//DTD SVG 1.1//EN"
 "http://www.w3.org/Graphics/SVG/1.1/DTD/svg11.dtd">
<!-- Generated by graphviz version 2.26.3 (20100126.1600)
 -->
<!-- Title: g Pages: 1 -->
<svg width="315pt" height="382pt"
 viewBox="0.00 0.00 315.00 382.00" xmlns="http://www.w3.org/2000/svg" xmlns:xlink="http://www.w3.org/1999/xlink">
<g id="graph1" class="graph" transform="scale(1 1) rotate(0) translate(4 378)">
<title>g</title>
<polygon fill="white" stroke="white" points="-4,5 -4,-378 312,-378 312,5 -4,5"/>
<!-- N14 -->
<g id="node1" class="node"><title>N14</title>
<polygon fill="#fffff0" stroke="#fffff0" points="162.5,-1 255.5,-1 267.5,-13 267.5,-25 255.5,-37 162.5,-37 150.5,-25 150.5,-13 162.5,-1"/>
<path fill="#fffff0" stroke="#fffff0" d="M255.5,-1C261.5,-1 267.5,-7 267.5,-13"/>
<path fill="#fffff0" stroke="#fffff0" d="M267.5,-25C267.5,-31 261.5,-37 255.5,-37"/>
<path fill="#fffff0" stroke="#fffff0" d="M162.5,-37C156.5,-37 150.5,-31 150.5,-25"/>
<path fill="#fffff0" stroke="#fffff0" d="M150.5,-13C150.5,-7 156.5,-1 162.5,-1"/>
<polyline fill="none" stroke="black" points="162.5,-1 255.5,-1 "/>
<path fill="none" stroke="black" d="M255.5,-1C261.5,-1 267.5,-7 267.5,-13"/>
<polyline fill="none" stroke="black" points="267.5,-13 267.5,-25 "/>
<path fill="none" stroke="black" d="M267.5,-25C267.5,-31 261.5,-37 255.5,-37"/>
<polyline fill="none" stroke="black" points="255.5,-37 162.5,-37 "/>
<path fill="none" stroke="black" d="M162.5,-37C156.5,-37 150.5,-31 150.5,-25"/>
<polyline fill="none" stroke="black" points="150.5,-25 150.5,-13 "/>
<path fill="none" stroke="black" d="M150.5,-13C150.5,-7 156.5,-1 162.5,-1"/>
<text text-anchor="middle" x="209" y="-25.8" font-family="FreeSans" font-size="8.00">Node[14]</text>
<polyline fill="none" stroke="black" points="150.5,-19 267.5,-19 "/>
<text text-anchor="start" x="158.5" y="-7.8" font-family="FreeSans" font-size="8.00">&#39;name&#39; = &#39;Sara&#39; : String</text>
</g>
<!-- N15 -->
<g id="node2" class="node"><title>N15</title>
<polygon fill="#fffff0" stroke="#fffff0" points="42,-253 138,-253 150,-265 150,-277 138,-289 42,-289 30,-277 30,-265 42,-253"/>
<path fill="#fffff0" stroke="#fffff0" d="M138,-253C144,-253 150,-259 150,-265"/>
<path fill="#fffff0" stroke="#fffff0" d="M150,-277C150,-283 144,-289 138,-289"/>
<path fill="#fffff0" stroke="#fffff0" d="M42,-289C36,-289 30,-283 30,-277"/>
<path fill="#fffff0" stroke="#fffff0" d="M30,-265C30,-259 36,-253 42,-253"/>
<polyline fill="none" stroke="black" points="42,-253 138,-253 "/>
<path fill="none" stroke="black" d="M138,-253C144,-253 150,-259 150,-265"/>
<polyline fill="none" stroke="black" points="150,-265 150,-277 "/>
<path fill="none" stroke="black" d="M150,-277C150,-283 144,-289 138,-289"/>
<polyline fill="none" stroke="black" points="138,-289 42,-289 "/>
<path fill="none" stroke="black" d="M42,-289C36,-289 30,-283 30,-277"/>
<polyline fill="none" stroke="black" points="30,-277 30,-265 "/>
<path fill="none" stroke="black" d="M30,-265C30,-259 36,-253 42,-253"/>
<text text-anchor="middle" x="90" y="-277.8" font-family="FreeSans" font-size="8.00">Node[15]</text>
<polyline fill="none" stroke="black" points="30,-271 150,-271 "/>
<text text-anchor="start" x="38" y="-259.8" font-family="FreeSans" font-size="8.00">&#39;name&#39; = &#39;Johan&#39; : String</text>
</g>
<!-- N16 -->
<g id="node4" class="node"><title>N16</title>
<polygon fill="#fffff0" stroke="#fffff0" points="44.5,-169 135.5,-169 147.5,-181 147.5,-193 135.5,-205 44.5,-205 32.5,-193 32.5,-181 44.5,-169"/>
<path fill="#fffff0" stroke="#fffff0" d="M135.5,-169C141.5,-169 147.5,-175 147.5,-181"/>
<path fill="#fffff0" stroke="#fffff0" d="M147.5,-193C147.5,-199 141.5,-205 135.5,-205"/>
<path fill="#fffff0" stroke="#fffff0" d="M44.5,-205C38.5,-205 32.5,-199 32.5,-193"/>
<path fill="#fffff0" stroke="#fffff0" d="M32.5,-181C32.5,-175 38.5,-169 44.5,-169"/>
<polyline fill="none" stroke="black" points="44.5,-169 135.5,-169 "/>
<path fill="none" stroke="black" d="M135.5,-169C141.5,-169 147.5,-175 147.5,-181"/>
<polyline fill="none" stroke="black" points="147.5,-181 147.5,-193 "/>
<path fill="none" stroke="black" d="M147.5,-193C147.5,-199 141.5,-205 135.5,-205"/>
<polyline fill="none" stroke="black" points="135.5,-205 44.5,-205 "/>
<path fill="none" stroke="black" d="M44.5,-205C38.5,-205 32.5,-199 32.5,-193"/>
<polyline fill="none" stroke="black" points="32.5,-193 32.5,-181 "/>
<path fill="none" stroke="black" d="M32.5,-181C32.5,-175 38.5,-169 44.5,-169"/>
<text text-anchor="middle" x="90" y="-193.8" font-family="FreeSans" font-size="8.00">Node[16]</text>
<polyline fill="none" stroke="black" points="32.5,-187 147.5,-187 "/>
<text text-anchor="start" x="40.5" y="-175.8" font-family="FreeSans" font-size="8.00">&#39;name&#39; = &#39;Emil&#39; : String</text>
</g>
<!-- N15&#45;&gt;N16 -->
<g id="edge2" class="edge"><title>N15&#45;&gt;N16</title>
<path fill="none" stroke="black" d="M90,-252.773C90,-241.105 90,-225.787 90,-212.87"/>
<polygon fill="black" stroke="black" points="90,-205.191 93.3751,-212.691 90,-208.941 90.0001,-212.691 90.0001,-212.691 90.0001,-212.691 90,-208.941 86.6251,-212.691 90,-205.191 90,-205.191"/>
<text text-anchor="middle" x="104" y="-226.8" font-family="FreeSans" font-size="8.00">knows</text>
</g>
<!-- N19 -->
<g id="node6" class="node"><title>N19</title>
<polygon fill="#fffff0" stroke="#fffff0" points="11.5,-85 106.5,-85 118.5,-97 118.5,-109 106.5,-121 11.5,-121 -0.5,-109 -0.5,-97 11.5,-85"/>
<path fill="#fffff0" stroke="#fffff0" d="M106.5,-85C112.5,-85 118.5,-91 118.5,-97"/>
<path fill="#fffff0" stroke="#fffff0" d="M118.5,-109C118.5,-115 112.5,-121 106.5,-121"/>
<path fill="#fffff0" stroke="#fffff0" d="M11.5,-121C5.5,-121 -0.5,-115 -0.5,-109"/>
<path fill="#fffff0" stroke="#fffff0" d="M-0.5,-97C-0.5,-91 5.5,-85 11.5,-85"/>
<polyline fill="none" stroke="black" points="11.5,-85 106.5,-85 "/>
<path fill="none" stroke="black" d="M106.5,-85C112.5,-85 118.5,-91 118.5,-97"/>
<polyline fill="none" stroke="black" points="118.5,-97 118.5,-109 "/>
<path fill="none" stroke="black" d="M118.5,-109C118.5,-115 112.5,-121 106.5,-121"/>
<polyline fill="none" stroke="black" points="106.5,-121 11.5,-121 "/>
<path fill="none" stroke="black" d="M11.5,-121C5.5,-121 -0.5,-115 -0.5,-109"/>
<polyline fill="none" stroke="black" points="-0.5,-109 -0.5,-97 "/>
<path fill="none" stroke="black" d="M-0.5,-97C-0.5,-91 5.5,-85 11.5,-85"/>
<text text-anchor="middle" x="59" y="-109.8" font-family="FreeSans" font-size="8.00">Node[19]</text>
<polyline fill="none" stroke="black" points="-0.5,-103 118.5,-103 "/>
<text text-anchor="start" x="7.5" y="-91.8" font-family="FreeSans" font-size="8.00">&#39;name&#39; = &#39;Peter&#39; : String</text>
</g>
<!-- N16&#45;&gt;N19 -->
<g id="edge4" class="edge"><title>N16&#45;&gt;N19</title>
<path fill="none" stroke="black" d="M83.2735,-168.773C78.9268,-156.995 73.2076,-141.498 68.4125,-128.505"/>
<polygon fill="black" stroke="black" points="65.7134,-121.191 71.4764,-127.059 67.0118,-124.709 68.3101,-128.227 68.3101,-128.227 68.3101,-128.227 67.0118,-124.709 65.1439,-129.396 65.7134,-121.191 65.7134,-121.191"/>
<text text-anchor="middle" x="90" y="-142.8" font-family="FreeSans" font-size="8.00">knows</text>
</g>
<!-- N18 -->
<g id="node8" class="node"><title>N18</title>
<polygon fill="#fffff0" stroke="#fffff0" points="159,-85 259,-85 271,-97 271,-109 259,-121 159,-121 147,-109 147,-97 159,-85"/>
<path fill="#fffff0" stroke="#fffff0" d="M259,-85C265,-85 271,-91 271,-97"/>
<path fill="#fffff0" stroke="#fffff0" d="M271,-109C271,-115 265,-121 259,-121"/>
<path fill="#fffff0" stroke="#fffff0" d="M159,-121C153,-121 147,-115 147,-109"/>
<path fill="#fffff0" stroke="#fffff0" d="M147,-97C147,-91 153,-85 159,-85"/>
<polyline fill="none" stroke="black" points="159,-85 259,-85 "/>
<path fill="none" stroke="black" d="M259,-85C265,-85 271,-91 271,-97"/>
<polyline fill="none" stroke="black" points="271,-97 271,-109 "/>
<path fill="none" stroke="black" d="M271,-109C271,-115 265,-121 259,-121"/>
<polyline fill="none" stroke="black" points="259,-121 159,-121 "/>
<path fill="none" stroke="black" d="M159,-121C153,-121 147,-115 147,-109"/>
<polyline fill="none" stroke="black" points="147,-109 147,-97 "/>
<path fill="none" stroke="black" d="M147,-97C147,-91 153,-85 159,-85"/>
<text text-anchor="middle" x="209" y="-109.8" font-family="FreeSans" font-size="8.00">Node[18]</text>
<polyline fill="none" stroke="black" points="147,-103 271,-103 "/>
<text text-anchor="start" x="155" y="-91.8" font-family="FreeSans" font-size="8.00">&#39;name&#39; = &#39;Tobias&#39; : String</text>
</g>
<!-- N16&#45;&gt;N18 -->
<g id="edge6" class="edge"><title>N16&#45;&gt;N18</title>
<path fill="none" stroke="black" d="M115.528,-168.98C133.445,-156.333 157.541,-139.324 176.781,-125.743"/>
<polygon fill="black" stroke="black" points="183.103,-121.28 178.922,-128.363 180.039,-123.443 176.976,-125.605 176.976,-125.605 176.976,-125.605 180.039,-123.443 175.03,-122.848 183.103,-121.28 183.103,-121.28"/>
<text text-anchor="middle" x="168" y="-142.8" font-family="FreeSans" font-size="8.00">knows</text>
</g>
<!-- N18&#45;&gt;N14 -->
<g id="edge12" class="edge"><title>N18&#45;&gt;N14</title>
<path fill="none" stroke="black" d="M209,-84.7733C209,-73.1053 209,-57.7874 209,-44.8699"/>
<polygon fill="black" stroke="black" points="209,-37.1912 212.375,-44.6911 209,-40.9412 209,-44.6912 209,-44.6912 209,-44.6912 209,-40.9412 205.625,-44.6912 209,-37.1912 209,-37.1912"/>
<text text-anchor="middle" x="220.5" y="-58.8" font-family="FreeSans" font-size="8.00">loves</text>
</g>
<!-- N17 -->
<g id="node9" class="node"><title>N17</title>
<polygon fill="#fffff0" stroke="#fffff0" points="143,-337 235,-337 247,-349 247,-361 235,-373 143,-373 131,-361 131,-349 143,-337"/>
<path fill="#fffff0" stroke="#fffff0" d="M235,-337C241,-337 247,-343 247,-349"/>
<path fill="#fffff0" stroke="#fffff0" d="M247,-361C247,-367 241,-373 235,-373"/>
<path fill="#fffff0" stroke="#fffff0" d="M143,-373C137,-373 131,-367 131,-361"/>
<path fill="#fffff0" stroke="#fffff0" d="M131,-349C131,-343 137,-337 143,-337"/>
<polyline fill="none" stroke="black" points="143,-337 235,-337 "/>
<path fill="none" stroke="black" d="M235,-337C241,-337 247,-343 247,-349"/>
<polyline fill="none" stroke="black" points="247,-349 247,-361 "/>
<path fill="none" stroke="black" d="M247,-361C247,-367 241,-373 235,-373"/>
<polyline fill="none" stroke="black" points="235,-373 143,-373 "/>
<path fill="none" stroke="black" d="M143,-373C137,-373 131,-367 131,-361"/>
<polyline fill="none" stroke="black" points="131,-361 131,-349 "/>
<path fill="none" stroke="black" d="M131,-349C131,-343 137,-337 143,-337"/>
<text text-anchor="middle" x="189" y="-361.8" font-family="FreeSans" font-size="8.00">Node[17]</text>
<polyline fill="none" stroke="black" points="131,-355 247,-355 "/>
<text text-anchor="start" x="139" y="-343.8" font-family="FreeSans" font-size="8.00">&#39;name&#39; = &#39;Root&#39; : String</text>
</g>
<!-- N17&#45;&gt;N15 -->
<g id="edge10" class="edge"><title>N17&#45;&gt;N15</title>
<path fill="none" stroke="black" d="M167.518,-336.773C152.859,-324.335 133.311,-307.748 117.512,-294.344"/>
<polygon fill="black" stroke="black" points="111.44,-289.191 119.342,-291.47 114.299,-291.617 117.158,-294.044 117.158,-294.044 117.158,-294.044 114.299,-291.617 114.975,-296.617 111.44,-289.191 111.44,-289.191"/>
<text text-anchor="middle" x="157" y="-310.8" font-family="FreeSans" font-size="8.00">knows</text>
</g>
<!-- N20 -->
<g id="node11" class="node"><title>N20</title>
<polygon fill="#fffff0" stroke="#fffff0" points="191,-253 295,-253 307,-265 307,-277 295,-289 191,-289 179,-277 179,-265 191,-253"/>
<path fill="#fffff0" stroke="#fffff0" d="M295,-253C301,-253 307,-259 307,-265"/>
<path fill="#fffff0" stroke="#fffff0" d="M307,-277C307,-283 301,-289 295,-289"/>
<path fill="#fffff0" stroke="#fffff0" d="M191,-289C185,-289 179,-283 179,-277"/>
<path fill="#fffff0" stroke="#fffff0" d="M179,-265C179,-259 185,-253 191,-253"/>
<polyline fill="none" stroke="black" points="191,-253 295,-253 "/>
<path fill="none" stroke="black" d="M295,-253C301,-253 307,-259 307,-265"/>
<polyline fill="none" stroke="black" points="307,-265 307,-277 "/>
<path fill="none" stroke="black" d="M307,-277C307,-283 301,-289 295,-289"/>
<polyline fill="none" stroke="black" points="295,-289 191,-289 "/>
<path fill="none" stroke="black" d="M191,-289C185,-289 179,-283 179,-277"/>
<polyline fill="none" stroke="black" points="179,-277 179,-265 "/>
<path fill="none" stroke="black" d="M179,-265C179,-259 185,-253 191,-253"/>
<text text-anchor="middle" x="243" y="-277.8" font-family="FreeSans" font-size="8.00">Node[20]</text>
<polyline fill="none" stroke="black" points="179,-271 307,-271 "/>
<text text-anchor="start" x="187" y="-259.8" font-family="FreeSans" font-size="8.00">&#39;name&#39; = &#39;Mattias&#39; : String</text>
</g>
<!-- N17&#45;&gt;N20 -->
<g id="edge8" class="edge"><title>N17&#45;&gt;N20</title>
<path fill="none" stroke="black" d="M200.717,-336.773C208.43,-324.775 218.625,-308.917 227.071,-295.779"/>
<polygon fill="black" stroke="black" points="231.306,-289.191 230.089,-297.325 229.278,-292.346 227.25,-295.5 227.25,-295.5 227.25,-295.5 229.278,-292.346 224.411,-293.675 231.306,-289.191 231.306,-289.191"/>
<text text-anchor="middle" x="232" y="-310.8" font-family="FreeSans" font-size="8.00">knows</text>
</g>
</g>
</svg>
