<?xml version="1.0" encoding="UTF-8" standalone="no"?>
<!DOCTYPE svg PUBLIC "-//W3C//DTD SVG 1.1//EN"
 "http://www.w3.org/Graphics/SVG/1.1/DTD/svg11.dtd">
<!-- Generated by graphviz version 2.26.3 (20100126.1600)
 -->
<!-- Title: g Pages: 1 -->
<svg width="504pt" height="414pt"
 viewBox="0.00 0.00 504.00 414.02" xmlns="http://www.w3.org/2000/svg" xmlns:xlink="http://www.w3.org/1999/xlink">
<g id="graph1" class="graph" transform="scale(0.588098 0.588098) rotate(0) translate(4 700)">
<title>g</title>
<polygon fill="white" stroke="white" points="-4,5 -4,-700 854,-700 854,5 -4,5"/>
<!-- N251 -->
<g id="node1" class="node"><title>N251</title>
<polygon fill="#fffff0" stroke="#fffff0" points="12,-95 88,-95 100,-107 100,-119 88,-131 12,-131 0,-119 0,-107 12,-95"/>
<path fill="#fffff0" stroke="#fffff0" d="M88,-95C94,-95 100,-101 100,-107"/>
<path fill="#fffff0" stroke="#fffff0" d="M100,-119C100,-125 94,-131 88,-131"/>
<path fill="#fffff0" stroke="#fffff0" d="M12,-131C6,-131 0,-125 0,-119"/>
<path fill="#fffff0" stroke="#fffff0" d="M0,-107C0,-101 6,-95 12,-95"/>
<polyline fill="none" stroke="black" points="12,-95 88,-95 "/>
<path fill="none" stroke="black" d="M88,-95C94,-95 100,-101 100,-107"/>
<polyline fill="none" stroke="black" points="100,-107 100,-119 "/>
<path fill="none" stroke="black" d="M100,-119C100,-125 94,-131 88,-131"/>
<polyline fill="none" stroke="black" points="88,-131 12,-131 "/>
<path fill="none" stroke="black" d="M12,-131C6,-131 0,-125 0,-119"/>
<polyline fill="none" stroke="black" points="0,-119 0,-107 "/>
<path fill="none" stroke="black" d="M0,-107C0,-101 6,-95 12,-95"/>
<text text-anchor="middle" x="50" y="-119.8" font-family="FreeSans" font-size="8.00">Node[251]</text>
<polyline fill="none" stroke="black" points="0,-113 100,-113 "/>
<text text-anchor="start" x="8" y="-101.8" font-family="FreeSans" font-size="8.00">&#39;name&#39; = &#39;f&#39; : String</text>
</g>
<!-- N252 -->
<g id="node2" class="node"><title>N252</title>
<polygon fill="#fffff0" stroke="#fffff0" points="239,-283 317,-283 329,-295 329,-307 317,-319 239,-319 227,-307 227,-295 239,-283"/>
<path fill="#fffff0" stroke="#fffff0" d="M317,-283C323,-283 329,-289 329,-295"/>
<path fill="#fffff0" stroke="#fffff0" d="M329,-307C329,-313 323,-319 317,-319"/>
<path fill="#fffff0" stroke="#fffff0" d="M239,-319C233,-319 227,-313 227,-307"/>
<path fill="#fffff0" stroke="#fffff0" d="M227,-295C227,-289 233,-283 239,-283"/>
<polyline fill="none" stroke="black" points="239,-283 317,-283 "/>
<path fill="none" stroke="black" d="M317,-283C323,-283 329,-289 329,-295"/>
<polyline fill="none" stroke="black" points="329,-295 329,-307 "/>
<path fill="none" stroke="black" d="M329,-307C329,-313 323,-319 317,-319"/>
<polyline fill="none" stroke="black" points="317,-319 239,-319 "/>
<path fill="none" stroke="black" d="M239,-319C233,-319 227,-313 227,-307"/>
<polyline fill="none" stroke="black" points="227,-307 227,-295 "/>
<path fill="none" stroke="black" d="M227,-295C227,-289 233,-283 239,-283"/>
<text text-anchor="middle" x="278" y="-307.8" font-family="FreeSans" font-size="8.00">Node[252]</text>
<polyline fill="none" stroke="black" points="227,-301 329,-301 "/>
<text text-anchor="start" x="235" y="-289.8" font-family="FreeSans" font-size="8.00">&#39;name&#39; = &#39;d&#39; : String</text>
</g>
<!-- N259 -->
<g id="node4" class="node"><title>N259</title>
<polygon fill="#fffff0" stroke="#fffff0" points="427.5,-95 504.5,-95 516.5,-107 516.5,-119 504.5,-131 427.5,-131 415.5,-119 415.5,-107 427.5,-95"/>
<path fill="#fffff0" stroke="#fffff0" d="M504.5,-95C510.5,-95 516.5,-101 516.5,-107"/>
<path fill="#fffff0" stroke="#fffff0" d="M516.5,-119C516.5,-125 510.5,-131 504.5,-131"/>
<path fill="#fffff0" stroke="#fffff0" d="M427.5,-131C421.5,-131 415.5,-125 415.5,-119"/>
<path fill="#fffff0" stroke="#fffff0" d="M415.5,-107C415.5,-101 421.5,-95 427.5,-95"/>
<polyline fill="none" stroke="black" points="427.5,-95 504.5,-95 "/>
<path fill="none" stroke="black" d="M504.5,-95C510.5,-95 516.5,-101 516.5,-107"/>
<polyline fill="none" stroke="black" points="516.5,-107 516.5,-119 "/>
<path fill="none" stroke="black" d="M516.5,-119C516.5,-125 510.5,-131 504.5,-131"/>
<polyline fill="none" stroke="black" points="504.5,-131 427.5,-131 "/>
<path fill="none" stroke="black" d="M427.5,-131C421.5,-131 415.5,-125 415.5,-119"/>
<polyline fill="none" stroke="black" points="415.5,-119 415.5,-107 "/>
<path fill="none" stroke="black" d="M415.5,-107C415.5,-101 421.5,-95 427.5,-95"/>
<text text-anchor="middle" x="466" y="-119.8" font-family="FreeSans" font-size="8.00">Node[259]</text>
<polyline fill="none" stroke="black" points="415.5,-113 516.5,-113 "/>
<text text-anchor="start" x="423.5" y="-101.8" font-family="FreeSans" font-size="8.00">&#39;name&#39; = &#39;x&#39; : String</text>
</g>
<!-- N252&#45;&gt;N259 -->
<g id="edge2" class="edge"><title>N252&#45;&gt;N259</title>
<path fill="none" stroke="black" d="M276.708,-282.873C275.96,-258.651 278.174,-215.586 300,-188 326.563,-154.427 371.451,-135.389 407.856,-124.901"/>
<polygon fill="black" stroke="black" points="415.486,-122.791 409.157,-128.043 411.871,-123.791 408.257,-124.79 408.257,-124.79 408.257,-124.79 411.871,-123.791 407.357,-121.538 415.486,-122.791 415.486,-122.791"/>
<text text-anchor="middle" x="343.5" y="-209.8" font-family="FreeSans" font-size="8.00">to</text>
<text text-anchor="start" x="300" y="-199.8" font-family="FreeSans" font-size="8.00">&#39;cost&#39; = 3.0 : double</text>
</g>
<!-- N253 -->
<g id="node6" class="node"><title>N253</title>
<polygon fill="#fffff0" stroke="#fffff0" points="130,-189 208,-189 220,-201 220,-213 208,-225 130,-225 118,-213 118,-201 130,-189"/>
<path fill="#fffff0" stroke="#fffff0" d="M208,-189C214,-189 220,-195 220,-201"/>
<path fill="#fffff0" stroke="#fffff0" d="M220,-213C220,-219 214,-225 208,-225"/>
<path fill="#fffff0" stroke="#fffff0" d="M130,-225C124,-225 118,-219 118,-213"/>
<path fill="#fffff0" stroke="#fffff0" d="M118,-201C118,-195 124,-189 130,-189"/>
<polyline fill="none" stroke="black" points="130,-189 208,-189 "/>
<path fill="none" stroke="black" d="M208,-189C214,-189 220,-195 220,-201"/>
<polyline fill="none" stroke="black" points="220,-201 220,-213 "/>
<path fill="none" stroke="black" d="M220,-213C220,-219 214,-225 208,-225"/>
<polyline fill="none" stroke="black" points="208,-225 130,-225 "/>
<path fill="none" stroke="black" d="M130,-225C124,-225 118,-219 118,-213"/>
<polyline fill="none" stroke="black" points="118,-213 118,-201 "/>
<path fill="none" stroke="black" d="M118,-201C118,-195 124,-189 130,-189"/>
<text text-anchor="middle" x="169" y="-213.8" font-family="FreeSans" font-size="8.00">Node[253]</text>
<polyline fill="none" stroke="black" points="118,-207 220,-207 "/>
<text text-anchor="start" x="126" y="-195.8" font-family="FreeSans" font-size="8.00">&#39;name&#39; = &#39;e&#39; : String</text>
</g>
<!-- N252&#45;&gt;N253 -->
<g id="edge4" class="edge"><title>N252&#45;&gt;N253</title>
<path fill="none" stroke="black" d="M226.702,-289.666C202.016,-283.067 176.217,-274.071 169,-264 162.599,-255.068 161.751,-243.159 162.843,-232.538"/>
<polygon fill="black" stroke="black" points="163.93,-225.092 166.187,-233 163.388,-228.802 162.847,-232.513 162.847,-232.513 162.847,-232.513 163.388,-228.802 159.507,-232.026 163.93,-225.092 163.93,-225.092"/>
<text text-anchor="middle" x="212.5" y="-256.8" font-family="FreeSans" font-size="8.00">to</text>
<text text-anchor="start" x="169" y="-246.8" font-family="FreeSans" font-size="8.00">&#39;cost&#39; = 1.0 : double</text>
</g>
<!-- N258 -->
<g id="node21" class="node"><title>N258</title>
<polygon fill="#fffff0" stroke="#fffff0" points="427.5,-1 504.5,-1 516.5,-13 516.5,-25 504.5,-37 427.5,-37 415.5,-25 415.5,-13 427.5,-1"/>
<path fill="#fffff0" stroke="#fffff0" d="M504.5,-1C510.5,-1 516.5,-7 516.5,-13"/>
<path fill="#fffff0" stroke="#fffff0" d="M516.5,-25C516.5,-31 510.5,-37 504.5,-37"/>
<path fill="#fffff0" stroke="#fffff0" d="M427.5,-37C421.5,-37 415.5,-31 415.5,-25"/>
<path fill="#fffff0" stroke="#fffff0" d="M415.5,-13C415.5,-7 421.5,-1 427.5,-1"/>
<polyline fill="none" stroke="black" points="427.5,-1 504.5,-1 "/>
<path fill="none" stroke="black" d="M504.5,-1C510.5,-1 516.5,-7 516.5,-13"/>
<polyline fill="none" stroke="black" points="516.5,-13 516.5,-25 "/>
<path fill="none" stroke="black" d="M516.5,-25C516.5,-31 510.5,-37 504.5,-37"/>
<polyline fill="none" stroke="black" points="504.5,-37 427.5,-37 "/>
<path fill="none" stroke="black" d="M427.5,-37C421.5,-37 415.5,-31 415.5,-25"/>
<polyline fill="none" stroke="black" points="415.5,-25 415.5,-13 "/>
<path fill="none" stroke="black" d="M415.5,-13C415.5,-7 421.5,-1 427.5,-1"/>
<text text-anchor="middle" x="466" y="-25.8" font-family="FreeSans" font-size="8.00">Node[258]</text>
<polyline fill="none" stroke="black" points="415.5,-19 516.5,-19 "/>
<text text-anchor="start" x="423.5" y="-7.8" font-family="FreeSans" font-size="8.00">&#39;name&#39; = &#39;y&#39; : String</text>
</g>
<!-- N259&#45;&gt;N258 -->
<g id="edge26" class="edge"><title>N259&#45;&gt;N258</title>
<path fill="none" stroke="black" d="M466,-94.8759C466,-80.7014 466,-60.806 466,-44.944"/>
<polygon fill="black" stroke="black" points="466,-37.0685 469.375,-44.5685 466,-40.8185 466,-44.5685 466,-44.5685 466,-44.5685 466,-40.8185 462.625,-44.5685 466,-37.0685 466,-37.0685"/>
<text text-anchor="middle" x="509.5" y="-68.8" font-family="FreeSans" font-size="8.00">to</text>
<text text-anchor="start" x="466" y="-58.8" font-family="FreeSans" font-size="8.00">&#39;cost&#39; = 2.0 : double</text>
</g>
<!-- N253&#45;&gt;N251 -->
<g id="edge8" class="edge"><title>N253&#45;&gt;N251</title>
<path fill="none" stroke="black" d="M117.733,-197.643C88.7663,-191.199 56.6563,-181.699 48,-170 41.4597,-161.161 40.9698,-149.265 42.5118,-138.627"/>
<polygon fill="black" stroke="black" points="43.9364,-131.165 45.845,-139.165 43.2331,-134.849 42.5299,-138.532 42.5299,-138.532 42.5299,-138.532 43.2331,-134.849 39.2147,-137.899 43.9364,-131.165 43.9364,-131.165"/>
<text text-anchor="middle" x="91.5" y="-162.8" font-family="FreeSans" font-size="8.00">to</text>
<text text-anchor="start" x="48" y="-152.8" font-family="FreeSans" font-size="8.00">&#39;cost&#39; = 2.0 : double</text>
</g>
<!-- N253&#45;&gt;N259 -->
<g id="edge6" class="edge"><title>N253&#45;&gt;N259</title>
<path fill="none" stroke="black" d="M163.351,-188.892C160.689,-176.458 159.829,-160.384 169,-150 184.515,-132.432 325.694,-121.248 407.693,-116.176"/>
<polygon fill="black" stroke="black" points="415.438,-115.705 408.157,-119.53 411.695,-115.933 407.952,-116.161 407.952,-116.161 407.952,-116.161 411.695,-115.933 407.746,-112.792 415.438,-115.705 415.438,-115.705"/>
<text text-anchor="middle" x="212.5" y="-162.8" font-family="FreeSans" font-size="8.00">to</text>
<text text-anchor="start" x="169" y="-152.8" font-family="FreeSans" font-size="8.00">&#39;cost&#39; = 1.0 : double</text>
</g>
<!-- N254 -->
<g id="node9" class="node"><title>N254</title>
<polygon fill="#fffff0" stroke="#fffff0" points="592,-471 670,-471 682,-483 682,-495 670,-507 592,-507 580,-495 580,-483 592,-471"/>
<path fill="#fffff0" stroke="#fffff0" d="M670,-471C676,-471 682,-477 682,-483"/>
<path fill="#fffff0" stroke="#fffff0" d="M682,-495C682,-501 676,-507 670,-507"/>
<path fill="#fffff0" stroke="#fffff0" d="M592,-507C586,-507 580,-501 580,-495"/>
<path fill="#fffff0" stroke="#fffff0" d="M580,-483C580,-477 586,-471 592,-471"/>
<polyline fill="none" stroke="black" points="592,-471 670,-471 "/>
<path fill="none" stroke="black" d="M670,-471C676,-471 682,-477 682,-483"/>
<polyline fill="none" stroke="black" points="682,-483 682,-495 "/>
<path fill="none" stroke="black" d="M682,-495C682,-501 676,-507 670,-507"/>
<polyline fill="none" stroke="black" points="670,-507 592,-507 "/>
<path fill="none" stroke="black" d="M592,-507C586,-507 580,-501 580,-495"/>
<polyline fill="none" stroke="black" points="580,-495 580,-483 "/>
<path fill="none" stroke="black" d="M580,-483C580,-477 586,-471 592,-471"/>
<text text-anchor="middle" x="631" y="-495.8" font-family="FreeSans" font-size="8.00">Node[254]</text>
<polyline fill="none" stroke="black" points="580,-489 682,-489 "/>
<text text-anchor="start" x="588" y="-477.8" font-family="FreeSans" font-size="8.00">&#39;name&#39; = &#39;b&#39; : String</text>
</g>
<!-- N254&#45;&gt;N259 -->
<g id="edge10" class="edge"><title>N254&#45;&gt;N259</title>
<path fill="none" stroke="black" d="M631,-470.98C631,-452.057 631,-421.438 631,-395 631,-395 631,-395 631,-207 631,-156.46 571.833,-132.742 524.36,-121.845"/>
<polygon fill="black" stroke="black" points="516.852,-120.204 524.899,-118.509 520.515,-121.005 524.179,-121.806 524.179,-121.806 524.179,-121.806 520.515,-121.005 523.458,-125.103 516.852,-120.204 516.852,-120.204"/>
<text text-anchor="middle" x="674.5" y="-303.8" font-family="FreeSans" font-size="8.00">to</text>
<text text-anchor="start" x="631" y="-293.8" font-family="FreeSans" font-size="8.00">&#39;cost&#39; = 7.0 : double</text>
</g>
<!-- N255 -->
<g id="node12" class="node"><title>N255</title>
<polygon fill="#fffff0" stroke="#fffff0" points="394.5,-377 471.5,-377 483.5,-389 483.5,-401 471.5,-413 394.5,-413 382.5,-401 382.5,-389 394.5,-377"/>
<path fill="#fffff0" stroke="#fffff0" d="M471.5,-377C477.5,-377 483.5,-383 483.5,-389"/>
<path fill="#fffff0" stroke="#fffff0" d="M483.5,-401C483.5,-407 477.5,-413 471.5,-413"/>
<path fill="#fffff0" stroke="#fffff0" d="M394.5,-413C388.5,-413 382.5,-407 382.5,-401"/>
<path fill="#fffff0" stroke="#fffff0" d="M382.5,-389C382.5,-383 388.5,-377 394.5,-377"/>
<polyline fill="none" stroke="black" points="394.5,-377 471.5,-377 "/>
<path fill="none" stroke="black" d="M471.5,-377C477.5,-377 483.5,-383 483.5,-389"/>
<polyline fill="none" stroke="black" points="483.5,-389 483.5,-401 "/>
<path fill="none" stroke="black" d="M483.5,-401C483.5,-407 477.5,-413 471.5,-413"/>
<polyline fill="none" stroke="black" points="471.5,-413 394.5,-413 "/>
<path fill="none" stroke="black" d="M394.5,-413C388.5,-413 382.5,-407 382.5,-401"/>
<polyline fill="none" stroke="black" points="382.5,-401 382.5,-389 "/>
<path fill="none" stroke="black" d="M382.5,-389C382.5,-383 388.5,-377 394.5,-377"/>
<text text-anchor="middle" x="433" y="-401.8" font-family="FreeSans" font-size="8.00">Node[255]</text>
<polyline fill="none" stroke="black" points="382.5,-395 483.5,-395 "/>
<text text-anchor="start" x="390.5" y="-383.8" font-family="FreeSans" font-size="8.00">&#39;name&#39; = &#39;c&#39; : String</text>
</g>
<!-- N254&#45;&gt;N255 -->
<g id="edge12" class="edge"><title>N254&#45;&gt;N255</title>
<path fill="none" stroke="black" d="M579.79,-474.446C561.197,-468.431 540.278,-460.794 522,-452 501.856,-442.308 480.729,-428.932 464.116,-417.573"/>
<polygon fill="black" stroke="black" points="457.752,-413.17 465.84,-414.662 460.836,-415.303 463.92,-417.437 463.92,-417.437 463.92,-417.437 460.836,-415.303 461.999,-420.212 457.752,-413.17 457.752,-413.17"/>
<text text-anchor="middle" x="565.5" y="-444.8" font-family="FreeSans" font-size="8.00">to</text>
<text text-anchor="start" x="522" y="-434.8" font-family="FreeSans" font-size="8.00">&#39;cost&#39; = 1.0 : double</text>
</g>
<!-- N255&#45;&gt;N252 -->
<g id="edge18" class="edge"><title>N255&#45;&gt;N252</title>
<path fill="none" stroke="black" d="M382.366,-386.931C348.008,-380.474 306.622,-370.452 294,-358 285.698,-349.81 281.612,-337.683 279.636,-326.717"/>
<polygon fill="black" stroke="black" points="278.54,-319.011 282.938,-325.961 279.068,-322.724 279.596,-326.437 279.596,-326.437 279.596,-326.437 279.068,-322.724 276.255,-326.912 278.54,-319.011 278.54,-319.011"/>
<text text-anchor="middle" x="337.5" y="-350.8" font-family="FreeSans" font-size="8.00">to</text>
<text text-anchor="start" x="294" y="-340.8" font-family="FreeSans" font-size="8.00">&#39;cost&#39; = 1.0 : double</text>
</g>
<!-- N255&#45;&gt;N259 -->
<g id="edge14" class="edge"><title>N255&#45;&gt;N259</title>
<path fill="none" stroke="black" d="M423.947,-376.814C410.968,-348.391 389.806,-291.745 401,-244 410.31,-204.291 433.531,-162.833 449.538,-137.458"/>
<polygon fill="black" stroke="black" points="453.642,-131.053 452.438,-139.189 451.619,-134.211 449.596,-137.368 449.596,-137.368 449.596,-137.368 451.619,-134.211 446.754,-135.548 453.642,-131.053 453.642,-131.053"/>
<text text-anchor="middle" x="444.5" y="-256.8" font-family="FreeSans" font-size="8.00">to</text>
<text text-anchor="start" x="401" y="-246.8" font-family="FreeSans" font-size="8.00">&#39;cost&#39; = 5.0 : double</text>
</g>
<!-- N255&#45;&gt;N259 -->
<g id="edge16" class="edge"><title>N255&#45;&gt;N259</title>
<path fill="none" stroke="black" d="M444.04,-376.745C458.198,-352.165 481.994,-306.585 491,-264 500.275,-220.142 486.469,-168.513 475.974,-138.401"/>
<polygon fill="black" stroke="black" points="473.393,-131.227 479.108,-137.142 474.663,-134.756 475.932,-138.285 475.932,-138.285 475.932,-138.285 474.663,-134.756 472.756,-139.427 473.393,-131.227 473.393,-131.227"/>
<text text-anchor="middle" x="537.5" y="-256.8" font-family="FreeSans" font-size="8.00">to</text>
<text text-anchor="start" x="494" y="-246.8" font-family="FreeSans" font-size="8.00">&#39;cost&#39; = 4.0 : double</text>
</g>
<!-- N256 -->
<g id="node16" class="node"><title>N256</title>
<polygon fill="#fffff0" stroke="#fffff0" points="661.5,-659 754.5,-659 766.5,-671 766.5,-683 754.5,-695 661.5,-695 649.5,-683 649.5,-671 661.5,-659"/>
<path fill="#fffff0" stroke="#fffff0" d="M754.5,-659C760.5,-659 766.5,-665 766.5,-671"/>
<path fill="#fffff0" stroke="#fffff0" d="M766.5,-683C766.5,-689 760.5,-695 754.5,-695"/>
<path fill="#fffff0" stroke="#fffff0" d="M661.5,-695C655.5,-695 649.5,-689 649.5,-683"/>
<path fill="#fffff0" stroke="#fffff0" d="M649.5,-671C649.5,-665 655.5,-659 661.5,-659"/>
<polyline fill="none" stroke="black" points="661.5,-659 754.5,-659 "/>
<path fill="none" stroke="black" d="M754.5,-659C760.5,-659 766.5,-665 766.5,-671"/>
<polyline fill="none" stroke="black" points="766.5,-671 766.5,-683 "/>
<path fill="none" stroke="black" d="M766.5,-683C766.5,-689 760.5,-695 754.5,-695"/>
<polyline fill="none" stroke="black" points="754.5,-695 661.5,-695 "/>
<path fill="none" stroke="black" d="M661.5,-695C655.5,-695 649.5,-689 649.5,-683"/>
<polyline fill="none" stroke="black" points="649.5,-683 649.5,-671 "/>
<path fill="none" stroke="black" d="M649.5,-671C649.5,-665 655.5,-659 661.5,-659"/>
<text text-anchor="middle" x="708" y="-683.8" font-family="FreeSans" font-size="8.00">Node[256]</text>
<polyline fill="none" stroke="black" points="649.5,-677 766.5,-677 "/>
<text text-anchor="start" x="657.5" y="-665.8" font-family="FreeSans" font-size="8.00">&#39;name&#39; = &#39;start&#39; : String</text>
</g>
<!-- N257 -->
<g id="node18" class="node"><title>N257</title>
<polygon fill="#fffff0" stroke="#fffff0" points="669,-565 747,-565 759,-577 759,-589 747,-601 669,-601 657,-589 657,-577 669,-565"/>
<path fill="#fffff0" stroke="#fffff0" d="M747,-565C753,-565 759,-571 759,-577"/>
<path fill="#fffff0" stroke="#fffff0" d="M759,-589C759,-595 753,-601 747,-601"/>
<path fill="#fffff0" stroke="#fffff0" d="M669,-601C663,-601 657,-595 657,-589"/>
<path fill="#fffff0" stroke="#fffff0" d="M657,-577C657,-571 663,-565 669,-565"/>
<polyline fill="none" stroke="black" points="669,-565 747,-565 "/>
<path fill="none" stroke="black" d="M747,-565C753,-565 759,-571 759,-577"/>
<polyline fill="none" stroke="black" points="759,-577 759,-589 "/>
<path fill="none" stroke="black" d="M759,-589C759,-595 753,-601 747,-601"/>
<polyline fill="none" stroke="black" points="747,-601 669,-601 "/>
<path fill="none" stroke="black" d="M669,-601C663,-601 657,-595 657,-589"/>
<polyline fill="none" stroke="black" points="657,-589 657,-577 "/>
<path fill="none" stroke="black" d="M657,-577C657,-571 663,-565 669,-565"/>
<text text-anchor="middle" x="708" y="-589.8" font-family="FreeSans" font-size="8.00">Node[257]</text>
<polyline fill="none" stroke="black" points="657,-583 759,-583 "/>
<text text-anchor="start" x="665" y="-571.8" font-family="FreeSans" font-size="8.00">&#39;name&#39; = &#39;a&#39; : String</text>
</g>
<!-- N256&#45;&gt;N257 -->
<g id="edge20" class="edge"><title>N256&#45;&gt;N257</title>
<path fill="none" stroke="black" d="M708,-658.876C708,-644.701 708,-624.806 708,-608.944"/>
<polygon fill="black" stroke="black" points="708,-601.069 711.375,-608.568 708,-604.819 708,-608.569 708,-608.569 708,-608.569 708,-604.819 704.625,-608.569 708,-601.069 708,-601.069"/>
<text text-anchor="middle" x="751.5" y="-632.8" font-family="FreeSans" font-size="8.00">to</text>
<text text-anchor="start" x="708" y="-622.8" font-family="FreeSans" font-size="8.00">&#39;cost&#39; = 1.0 : double</text>
</g>
<!-- N257&#45;&gt;N259 -->
<g id="edge22" class="edge"><title>N257&#45;&gt;N259</title>
<path fill="none" stroke="black" d="M728.27,-564.735C733.616,-559.133 739.001,-552.675 743,-546 756.722,-523.092 762,-515.704 762,-489 762,-489 762,-489 762,-207 762,-157.606 610.379,-130.765 524.169,-119.496"/>
<polygon fill="black" stroke="black" points="516.548,-118.518 524.417,-116.125 520.267,-118.995 523.987,-119.473 523.987,-119.473 523.987,-119.473 520.267,-118.995 523.557,-122.82 516.548,-118.518 516.548,-118.518"/>
<text text-anchor="middle" x="805.5" y="-350.8" font-family="FreeSans" font-size="8.00">to</text>
<text text-anchor="start" x="762" y="-340.8" font-family="FreeSans" font-size="8.00">&#39;cost&#39; = 9.0 : double</text>
</g>
<!-- N257&#45;&gt;N254 -->
<g id="edge24" class="edge"><title>N257&#45;&gt;N254</title>
<path fill="none" stroke="black" d="M674.185,-564.983C666.455,-559.666 658.814,-553.286 653,-546 645.706,-536.859 640.615,-525.021 637.181,-514.503"/>
<polygon fill="black" stroke="black" points="634.966,-507.136 640.358,-513.346 636.046,-510.727 637.126,-514.318 637.126,-514.318 637.126,-514.318 636.046,-510.727 633.894,-515.29 634.966,-507.136 634.966,-507.136"/>
<text text-anchor="middle" x="696.5" y="-538.8" font-family="FreeSans" font-size="8.00">to</text>
<text text-anchor="start" x="653" y="-528.8" font-family="FreeSans" font-size="8.00">&#39;cost&#39; = 1.0 : double</text>
</g>
</g>
</svg>
