<?xml version="1.0" encoding="UTF-8" standalone="no"?>
<!DOCTYPE svg PUBLIC "-//W3C//DTD SVG 1.1//EN"
 "http://www.w3.org/Graphics/SVG/1.1/DTD/svg11.dtd">
<!-- Generated by graphviz version 2.26.3 (20100126.1600)
 -->
<!-- Title: g Pages: 1 -->
<svg width="128pt" height="214pt"
 viewBox="0.00 0.00 128.00 214.00" xmlns="http://www.w3.org/2000/svg" xmlns:xlink="http://www.w3.org/1999/xlink">
<g id="graph1" class="graph" transform="scale(1 1) rotate(0) translate(4 210)">
<title>g</title>
<polygon fill="white" stroke="white" points="-4,5 -4,-210 125,-210 125,5 -4,5"/>
<!-- N42 -->
<g id="node1" class="node"><title>N42</title>
<polygon fill="#fffff0" stroke="#fffff0" points="17,-169 103,-169 115,-181 115,-193 103,-205 17,-205 5,-193 5,-181 17,-169"/>
<path fill="#fffff0" stroke="#fffff0" d="M103,-169C109,-169 115,-175 115,-181"/>
<path fill="#fffff0" stroke="#fffff0" d="M115,-193C115,-199 109,-205 103,-205"/>
<path fill="#fffff0" stroke="#fffff0" d="M17,-205C11,-205 5,-199 5,-193"/>
<path fill="#fffff0" stroke="#fffff0" d="M5,-181C5,-175 11,-169 17,-169"/>
<polyline fill="none" stroke="black" points="17,-169 103,-169 "/>
<path fill="none" stroke="black" d="M103,-169C109,-169 115,-175 115,-181"/>
<polyline fill="none" stroke="black" points="115,-181 115,-193 "/>
<path fill="none" stroke="black" d="M115,-193C115,-199 109,-205 103,-205"/>
<polyline fill="none" stroke="black" points="103,-205 17,-205 "/>
<path fill="none" stroke="black" d="M17,-205C11,-205 5,-199 5,-193"/>
<polyline fill="none" stroke="black" points="5,-193 5,-181 "/>
<path fill="none" stroke="black" d="M5,-181C5,-175 11,-169 17,-169"/>
<text text-anchor="middle" x="60" y="-193.8" font-family="FreeSans" font-size="8.00">Node[42]</text>
<polyline fill="none" stroke="black" points="5,-187 115,-187 "/>
<text text-anchor="start" x="13" y="-175.8" font-family="FreeSans" font-size="8.00">&#39;name&#39; = &#39;Ian&#39; : String</text>
</g>
<!-- N43 -->
<g id="node3" class="node"><title>N43</title>
<polygon fill="#fffff0" stroke="#fffff0" points="12.5,-85 107.5,-85 119.5,-97 119.5,-109 107.5,-121 12.5,-121 0.5,-109 0.5,-97 12.5,-85"/>
<path fill="#fffff0" stroke="#fffff0" d="M107.5,-85C113.5,-85 119.5,-91 119.5,-97"/>
<path fill="#fffff0" stroke="#fffff0" d="M119.5,-109C119.5,-115 113.5,-121 107.5,-121"/>
<path fill="#fffff0" stroke="#fffff0" d="M12.5,-121C6.5,-121 0.5,-115 0.5,-109"/>
<path fill="#fffff0" stroke="#fffff0" d="M0.5,-97C0.5,-91 6.5,-85 12.5,-85"/>
<polyline fill="none" stroke="black" points="12.5,-85 107.5,-85 "/>
<path fill="none" stroke="black" d="M107.5,-85C113.5,-85 119.5,-91 119.5,-97"/>
<polyline fill="none" stroke="black" points="119.5,-97 119.5,-109 "/>
<path fill="none" stroke="black" d="M119.5,-109C119.5,-115 113.5,-121 107.5,-121"/>
<polyline fill="none" stroke="black" points="107.5,-121 12.5,-121 "/>
<path fill="none" stroke="black" d="M12.5,-121C6.5,-121 0.5,-115 0.5,-109"/>
<polyline fill="none" stroke="black" points="0.5,-109 0.5,-97 "/>
<path fill="none" stroke="black" d="M0.5,-97C0.5,-91 6.5,-85 12.5,-85"/>
<text text-anchor="middle" x="60" y="-109.8" font-family="FreeSans" font-size="8.00">Node[43]</text>
<polyline fill="none" stroke="black" points="0.5,-103 119.5,-103 "/>
<text text-anchor="start" x="8.5" y="-91.8" font-family="FreeSans" font-size="8.00">&#39;name&#39; = &#39;Peter&#39; : String</text>
</g>
<!-- N42&#45;&gt;N43 -->
<g id="edge2" class="edge"><title>N42&#45;&gt;N43</title>
<path fill="none" stroke="black" d="M39.1582,-168.872C34.2257,-163.362 29.6364,-156.917 27,-150 24.0094,-142.154 26.558,-134.383 31.3249,-127.488"/>
<polygon fill="black" stroke="black" points="36.231,-121.425 34.1371,-129.378 33.8722,-124.34 31.5134,-127.255 31.5134,-127.255 31.5134,-127.255 33.8722,-124.34 28.8897,-125.132 36.231,-121.425 36.231,-121.425"/>
<text text-anchor="middle" x="41" y="-142.8" font-family="FreeSans" font-size="8.00">knows</text>
</g>
<!-- N43&#45;&gt;N42 -->
<g id="edge4" class="edge"><title>N43&#45;&gt;N42</title>
<path fill="none" stroke="black" d="M60,-121.191C60,-132.852 60,-148.168 60,-161.091"/>
<polygon fill="black" stroke="black" points="60,-168.773 56.6251,-161.273 60,-165.023 60.0001,-161.273 60.0001,-161.273 60.0001,-161.273 60,-165.023 63.3751,-161.273 60,-168.773 60,-168.773"/>
<text text-anchor="middle" x="74" y="-142.8" font-family="FreeSans" font-size="8.00">knows</text>
</g>
<!-- N44 -->
<g id="node6" class="node"><title>N44</title>
<polygon fill="#fffff0" stroke="#fffff0" points="12,-1 108,-1 120,-13 120,-25 108,-37 12,-37 0,-25 0,-13 12,-1"/>
<path fill="#fffff0" stroke="#fffff0" d="M108,-1C114,-1 120,-7 120,-13"/>
<path fill="#fffff0" stroke="#fffff0" d="M120,-25C120,-31 114,-37 108,-37"/>
<path fill="#fffff0" stroke="#fffff0" d="M12,-37C6,-37 0,-31 0,-25"/>
<path fill="#fffff0" stroke="#fffff0" d="M0,-13C0,-7 6,-1 12,-1"/>
<polyline fill="none" stroke="black" points="12,-1 108,-1 "/>
<path fill="none" stroke="black" d="M108,-1C114,-1 120,-7 120,-13"/>
<polyline fill="none" stroke="black" points="120,-13 120,-25 "/>
<path fill="none" stroke="black" d="M120,-25C120,-31 114,-37 108,-37"/>
<polyline fill="none" stroke="black" points="108,-37 12,-37 "/>
<path fill="none" stroke="black" d="M12,-37C6,-37 0,-31 0,-25"/>
<polyline fill="none" stroke="black" points="0,-25 0,-13 "/>
<path fill="none" stroke="black" d="M0,-13C0,-7 6,-1 12,-1"/>
<text text-anchor="middle" x="60" y="-25.8" font-family="FreeSans" font-size="8.00">Node[44]</text>
<polyline fill="none" stroke="black" points="0,-19 120,-19 "/>
<text text-anchor="start" x="8" y="-7.8" font-family="FreeSans" font-size="8.00">&#39;name&#39; = &#39;Bikes&#39; : String</text>
</g>
<!-- N43&#45;&gt;N44 -->
<g id="edge6" class="edge"><title>N43&#45;&gt;N44</title>
<path fill="none" stroke="black" d="M60,-84.7733C60,-73.1053 60,-57.7874 60,-44.8699"/>
<polygon fill="black" stroke="black" points="60,-37.1912 63.3751,-44.6911 60,-40.9412 60.0001,-44.6912 60.0001,-44.6912 60.0001,-44.6912 60,-40.9412 56.6251,-44.6912 60,-37.1912 60,-37.1912"/>
<text text-anchor="middle" x="70" y="-58.8" font-family="FreeSans" font-size="8.00">likes</text>
</g>
</g>
</svg>
