<?xml version="1.0" encoding="UTF-8" standalone="no"?>
<!DOCTYPE svg PUBLIC "-//W3C//DTD SVG 1.1//EN"
 "http://www.w3.org/Graphics/SVG/1.1/DTD/svg11.dtd">
<!-- Generated by graphviz version 2.26.3 (20100126.1600)
 -->
<!-- Title: g Pages: 1 -->
<svg width="143pt" height="140pt"
 viewBox="0.00 0.00 143.00 140.00" xmlns="http://www.w3.org/2000/svg" xmlns:xlink="http://www.w3.org/1999/xlink">
<g id="graph1" class="graph" transform="scale(1 1) rotate(0) translate(4 136)">
<title>g</title>
<polygon fill="white" stroke="white" points="-4,5 -4,-136 140,-136 140,5 -4,5"/>
<!-- N67 -->
<g id="node1" class="node"><title>N67</title>
<polygon fill="#fffff0" stroke="#fffff0" points="11.5,-95 42.5,-95 54.5,-107 54.5,-119 42.5,-131 11.5,-131 -0.5,-119 -0.5,-107 11.5,-95"/>
<path fill="#fffff0" stroke="#fffff0" d="M42.5,-95C48.5,-95 54.5,-101 54.5,-107"/>
<path fill="#fffff0" stroke="#fffff0" d="M54.5,-119C54.5,-125 48.5,-131 42.5,-131"/>
<path fill="#fffff0" stroke="#fffff0" d="M11.5,-131C5.5,-131 -0.5,-125 -0.5,-119"/>
<path fill="#fffff0" stroke="#fffff0" d="M-0.5,-107C-0.5,-101 5.5,-95 11.5,-95"/>
<polyline fill="none" stroke="black" points="11.5,-95 42.5,-95 "/>
<path fill="none" stroke="black" d="M42.5,-95C48.5,-95 54.5,-101 54.5,-107"/>
<polyline fill="none" stroke="black" points="54.5,-107 54.5,-119 "/>
<path fill="none" stroke="black" d="M54.5,-119C54.5,-125 48.5,-131 42.5,-131"/>
<polyline fill="none" stroke="black" points="42.5,-131 11.5,-131 "/>
<path fill="none" stroke="black" d="M11.5,-131C5.5,-131 -0.5,-125 -0.5,-119"/>
<polyline fill="none" stroke="black" points="-0.5,-119 -0.5,-107 "/>
<path fill="none" stroke="black" d="M-0.5,-107C-0.5,-101 5.5,-95 11.5,-95"/>
<text text-anchor="middle" x="27" y="-119.8" font-family="FreeSans" font-size="8.00">Node[67]</text>
<polyline fill="none" stroke="black" points="-0.5,-113 54.5,-113 "/>
<text text-anchor="middle" x="27" y="-101.8" font-family="FreeSans" font-size="8.00"> </text>
</g>
<!-- N68 -->
<g id="node3" class="node"><title>N68</title>
<polygon fill="#fffff0" stroke="#fffff0" points="11.5,-1 42.5,-1 54.5,-13 54.5,-25 42.5,-37 11.5,-37 -0.5,-25 -0.5,-13 11.5,-1"/>
<path fill="#fffff0" stroke="#fffff0" d="M42.5,-1C48.5,-1 54.5,-7 54.5,-13"/>
<path fill="#fffff0" stroke="#fffff0" d="M54.5,-25C54.5,-31 48.5,-37 42.5,-37"/>
<path fill="#fffff0" stroke="#fffff0" d="M11.5,-37C5.5,-37 -0.5,-31 -0.5,-25"/>
<path fill="#fffff0" stroke="#fffff0" d="M-0.5,-13C-0.5,-7 5.5,-1 11.5,-1"/>
<polyline fill="none" stroke="black" points="11.5,-1 42.5,-1 "/>
<path fill="none" stroke="black" d="M42.5,-1C48.5,-1 54.5,-7 54.5,-13"/>
<polyline fill="none" stroke="black" points="54.5,-13 54.5,-25 "/>
<path fill="none" stroke="black" d="M54.5,-25C54.5,-31 48.5,-37 42.5,-37"/>
<polyline fill="none" stroke="black" points="42.5,-37 11.5,-37 "/>
<path fill="none" stroke="black" d="M11.5,-37C5.5,-37 -0.5,-31 -0.5,-25"/>
<polyline fill="none" stroke="black" points="-0.5,-25 -0.5,-13 "/>
<path fill="none" stroke="black" d="M-0.5,-13C-0.5,-7 5.5,-1 11.5,-1"/>
<text text-anchor="middle" x="27" y="-25.8" font-family="FreeSans" font-size="8.00">Node[68]</text>
<polyline fill="none" stroke="black" points="-0.5,-19 54.5,-19 "/>
<text text-anchor="middle" x="27" y="-7.8" font-family="FreeSans" font-size="8.00"> </text>
</g>
<!-- N67&#45;&gt;N68 -->
<g id="edge2" class="edge"><title>N67&#45;&gt;N68</title>
<path fill="none" stroke="black" d="M27,-94.8759C27,-80.7014 27,-60.806 27,-44.944"/>
<polygon fill="black" stroke="black" points="27,-37.0685 30.3751,-44.5685 27,-40.8185 27.0001,-44.5685 27.0001,-44.5685 27.0001,-44.5685 27,-40.8185 23.6251,-44.5685 27,-37.0685 27,-37.0685"/>
<text text-anchor="middle" x="81" y="-68.8" font-family="FreeSans" font-size="8.00">knowledge</text>
<text text-anchor="start" x="27" y="-58.8" font-family="FreeSans" font-size="8.00">&#39;name&#39; = &#39;Tobias&#39; : String</text>
</g>
</g>
</svg>
