<?xml version="1.0" encoding="UTF-8" standalone="no"?>
<!DOCTYPE svg PUBLIC "-//W3C//DTD SVG 1.1//EN"
 "http://www.w3.org/Graphics/SVG/1.1/DTD/svg11.dtd">
<!-- Generated by graphviz version 2.26.3 (20100126.1600)
 -->
<!-- Title: g Pages: 1 -->
<svg width="266pt" height="140pt"
 viewBox="0.00 0.00 266.00 140.00" xmlns="http://www.w3.org/2000/svg" xmlns:xlink="http://www.w3.org/1999/xlink">
<g id="graph1" class="graph" transform="scale(1 1) rotate(0) translate(4 136)">
<title>g</title>
<polygon fill="white" stroke="white" points="-4,5 -4,-136 263,-136 263,5 -4,5"/>
<!-- N0 -->
<g id="node1" class="node"><title>N0</title>
<polygon fill="#fffff0" stroke="#fffff0" points="12,-95 42,-95 54,-107 54,-119 42,-131 12,-131 0,-119 0,-107 12,-95"/>
<path fill="#fffff0" stroke="#fffff0" d="M42,-95C48,-95 54,-101 54,-107"/>
<path fill="#fffff0" stroke="#fffff0" d="M54,-119C54,-125 48,-131 42,-131"/>
<path fill="#fffff0" stroke="#fffff0" d="M12,-131C6,-131 0,-125 0,-119"/>
<path fill="#fffff0" stroke="#fffff0" d="M0,-107C0,-101 6,-95 12,-95"/>
<polyline fill="none" stroke="black" points="12,-95 42,-95 "/>
<path fill="none" stroke="black" d="M42,-95C48,-95 54,-101 54,-107"/>
<polyline fill="none" stroke="black" points="54,-107 54,-119 "/>
<path fill="none" stroke="black" d="M54,-119C54,-125 48,-131 42,-131"/>
<polyline fill="none" stroke="black" points="42,-131 12,-131 "/>
<path fill="none" stroke="black" d="M12,-131C6,-131 0,-125 0,-119"/>
<polyline fill="none" stroke="black" points="0,-119 0,-107 "/>
<path fill="none" stroke="black" d="M0,-107C0,-101 6,-95 12,-95"/>
<text text-anchor="middle" x="27" y="-119.8" font-family="FreeSans" font-size="8.00">Node[0]</text>
<polyline fill="none" stroke="black" points="0,-113 54,-113 "/>
<text text-anchor="middle" x="27" y="-101.8" font-family="FreeSans" font-size="8.00"> </text>
</g>
<!-- N1 -->
<g id="node2" class="node"><title>N1</title>
<polygon fill="#fffff0" stroke="#fffff0" points="17,-6 105,-6 117,-18 117,-30 105,-42 17,-42 5,-30 5,-18 17,-6"/>
<path fill="#fffff0" stroke="#fffff0" d="M105,-6C111,-6 117,-12 117,-18"/>
<path fill="#fffff0" stroke="#fffff0" d="M117,-30C117,-36 111,-42 105,-42"/>
<path fill="#fffff0" stroke="#fffff0" d="M17,-42C11,-42 5,-36 5,-30"/>
<path fill="#fffff0" stroke="#fffff0" d="M5,-18C5,-12 11,-6 17,-6"/>
<polyline fill="none" stroke="black" points="17,-6 105,-6 "/>
<path fill="none" stroke="black" d="M105,-6C111,-6 117,-12 117,-18"/>
<polyline fill="none" stroke="black" points="117,-18 117,-30 "/>
<path fill="none" stroke="black" d="M117,-30C117,-36 111,-42 105,-42"/>
<polyline fill="none" stroke="black" points="105,-42 17,-42 "/>
<path fill="none" stroke="black" d="M17,-42C11,-42 5,-36 5,-30"/>
<polyline fill="none" stroke="black" points="5,-30 5,-18 "/>
<path fill="none" stroke="black" d="M5,-18C5,-12 11,-6 17,-6"/>
<text text-anchor="middle" x="61" y="-30.8" font-family="FreeSans" font-size="8.00">Node[1]</text>
<polyline fill="none" stroke="black" points="5,-24 117,-24 "/>
<text text-anchor="start" x="13" y="-12.8" font-family="FreeSans" font-size="8.00">&#39;name&#39; = &#39;you&#39; : String</text>
</g>
<!-- N2 -->
<g id="node3" class="node"><title>N2</title>
<polygon fill="#fffff0" stroke="#fffff0" points="157.5,-1 246.5,-1 258.5,-13 258.5,-35 246.5,-47 157.5,-47 145.5,-35 145.5,-13 157.5,-1"/>
<path fill="#fffff0" stroke="#fffff0" d="M246.5,-1C252.5,-1 258.5,-7 258.5,-13"/>
<path fill="#fffff0" stroke="#fffff0" d="M258.5,-35C258.5,-41 252.5,-47 246.5,-47"/>
<path fill="#fffff0" stroke="#fffff0" d="M157.5,-47C151.5,-47 145.5,-41 145.5,-35"/>
<path fill="#fffff0" stroke="#fffff0" d="M145.5,-13C145.5,-7 151.5,-1 157.5,-1"/>
<polyline fill="none" stroke="black" points="157.5,-1 246.5,-1 "/>
<path fill="none" stroke="black" d="M246.5,-1C252.5,-1 258.5,-7 258.5,-13"/>
<polyline fill="none" stroke="black" points="258.5,-13 258.5,-35 "/>
<path fill="none" stroke="black" d="M258.5,-35C258.5,-41 252.5,-47 246.5,-47"/>
<polyline fill="none" stroke="black" points="246.5,-47 157.5,-47 "/>
<path fill="none" stroke="black" d="M157.5,-47C151.5,-47 145.5,-41 145.5,-35"/>
<polyline fill="none" stroke="black" points="145.5,-35 145.5,-13 "/>
<path fill="none" stroke="black" d="M145.5,-13C145.5,-7 151.5,-1 157.5,-1"/>
<text text-anchor="middle" x="202" y="-35.8" font-family="FreeSans" font-size="8.00">Node[2]</text>
<polyline fill="none" stroke="black" points="145.5,-29 258.5,-29 "/>
<text text-anchor="start" x="153.5" y="-17.8" font-family="FreeSans" font-size="8.00">&#39;age&#39; = 25 : long</text>
<text text-anchor="start" x="153.5" y="-7.8" font-family="FreeSans" font-size="8.00">&#39;name&#39; = &#39;him&#39; : String</text>
</g>
<!-- N3 -->
<g id="node4" class="node"><title>N3</title>
<polygon fill="#fffff0" stroke="#fffff0" points="94.5,-95 169.5,-95 181.5,-107 181.5,-119 169.5,-131 94.5,-131 82.5,-119 82.5,-107 94.5,-95"/>
<path fill="#fffff0" stroke="#fffff0" d="M169.5,-95C175.5,-95 181.5,-101 181.5,-107"/>
<path fill="#fffff0" stroke="#fffff0" d="M181.5,-119C181.5,-125 175.5,-131 169.5,-131"/>
<path fill="#fffff0" stroke="#fffff0" d="M94.5,-131C88.5,-131 82.5,-125 82.5,-119"/>
<path fill="#fffff0" stroke="#fffff0" d="M82.5,-107C82.5,-101 88.5,-95 94.5,-95"/>
<polyline fill="none" stroke="black" points="94.5,-95 169.5,-95 "/>
<path fill="none" stroke="black" d="M169.5,-95C175.5,-95 181.5,-101 181.5,-107"/>
<polyline fill="none" stroke="black" points="181.5,-107 181.5,-119 "/>
<path fill="none" stroke="black" d="M181.5,-119C181.5,-125 175.5,-131 169.5,-131"/>
<polyline fill="none" stroke="black" points="169.5,-131 94.5,-131 "/>
<path fill="none" stroke="black" d="M94.5,-131C88.5,-131 82.5,-125 82.5,-119"/>
<polyline fill="none" stroke="black" points="82.5,-119 82.5,-107 "/>
<path fill="none" stroke="black" d="M82.5,-107C82.5,-101 88.5,-95 94.5,-95"/>
<text text-anchor="middle" x="132" y="-119.8" font-family="FreeSans" font-size="8.00">Node[3]</text>
<polyline fill="none" stroke="black" points="82.5,-113 181.5,-113 "/>
<text text-anchor="start" x="90.5" y="-101.8" font-family="FreeSans" font-size="8.00">&#39;name&#39; = &#39;I&#39; : String</text>
</g>
<!-- N3&#45;&gt;N1 -->
<g id="edge4" class="edge"><title>N3&#45;&gt;N1</title>
<path fill="none" stroke="black" d="M117.632,-94.9895C106.925,-81.5674 92.1844,-63.0903 80.4264,-48.3514"/>
<polygon fill="black" stroke="black" points="75.5902,-42.2892 82.9058,-46.0474 77.9288,-45.2206 80.2674,-48.1521 80.2674,-48.1521 80.2674,-48.1521 77.9288,-45.2206 77.6291,-50.2569 75.5902,-42.2892 75.5902,-42.2892"/>
<text text-anchor="middle" x="111" y="-68.8" font-family="FreeSans" font-size="8.00">know</text>
</g>
<!-- N3&#45;&gt;N2 -->
<g id="edge2" class="edge"><title>N3&#45;&gt;N2</title>
<path fill="none" stroke="black" d="M146.166,-94.9895C155.589,-83.0087 168.18,-67.0001 179.02,-53.2178"/>
<polygon fill="black" stroke="black" points="183.859,-47.0644 181.876,-55.046 181.541,-50.012 179.223,-52.9595 179.223,-52.9595 179.223,-52.9595 181.541,-50.012 176.57,-50.873 183.859,-47.0644 183.859,-47.0644"/>
<text text-anchor="middle" x="178" y="-68.8" font-family="FreeSans" font-size="8.00">know</text>
</g>
</g>
</svg>
