<?xml version="1.0" encoding="UTF-8" standalone="no"?>
<!DOCTYPE svg PUBLIC "-//W3C//DTD SVG 1.1//EN"
 "http://www.w3.org/Graphics/SVG/1.1/DTD/svg11.dtd">
<!-- Generated by graphviz version 2.26.3 (20100126.1600)
 -->
<!-- Title: g Pages: 1 -->
<svg width="387pt" height="216pt"
 viewBox="0.00 0.00 387.00 216.00" xmlns="http://www.w3.org/2000/svg" xmlns:xlink="http://www.w3.org/1999/xlink">
<g id="graph1" class="graph" transform="scale(1 1) rotate(0) translate(4 212)">
<title>g</title>
<polygon fill="white" stroke="white" points="-4,5 -4,-212 384,-212 384,5 -4,5"/>
<!-- A Relationship -->
<g id="node1" class="node"><title>A Relationship</title>
<polygon fill="#c1ffc1" stroke="#c1ffc1" points="199,-208 141,-208 129,-196 129,-184 141,-172 199,-172 211,-184 211,-196 199,-208"/>
<path fill="#c1ffc1" stroke="#c1ffc1" d="M141,-208C135,-208 129,-202 129,-196"/>
<path fill="#c1ffc1" stroke="#c1ffc1" d="M129,-184C129,-178 135,-172 141,-172"/>
<path fill="#c1ffc1" stroke="#c1ffc1" d="M199,-172C205,-172 211,-178 211,-184"/>
<path fill="#c1ffc1" stroke="#c1ffc1" d="M211,-196C211,-202 205,-208 199,-208"/>
<polyline fill="none" stroke="black" points="199,-208 141,-208 "/>
<path fill="none" stroke="black" d="M141,-208C135,-208 129,-202 129,-196"/>
<polyline fill="none" stroke="black" points="129,-196 129,-184 "/>
<path fill="none" stroke="black" d="M129,-184C129,-178 135,-172 141,-172"/>
<polyline fill="none" stroke="black" points="141,-172 199,-172 "/>
<path fill="none" stroke="black" d="M199,-172C205,-172 211,-178 211,-184"/>
<polyline fill="none" stroke="black" points="211,-184 211,-196 "/>
<path fill="none" stroke="black" d="M211,-196C211,-202 205,-208 199,-208"/>
<text text-anchor="middle" x="170" y="-187.5" font-family="FreeSans" font-size="10.00">A Relationship</text>
</g>
<!-- Start node -->
<g id="node3" class="node"><title>Start node</title>
<polygon fill="#c6e2ff" stroke="#c6e2ff" points="56,-122 12,-122 2.36848e-14,-110 1.18424e-14,-98 12,-86 56,-86 68,-98 68,-110 56,-122"/>
<path fill="#c6e2ff" stroke="#c6e2ff" d="M12,-122C6,-122 2.96059e-14,-116 2.36848e-14,-110"/>
<path fill="#c6e2ff" stroke="#c6e2ff" d="M1.18424e-14,-98C5.92119e-15,-92 6,-86 12,-86"/>
<path fill="#c6e2ff" stroke="#c6e2ff" d="M56,-86C62,-86 68,-92 68,-98"/>
<path fill="#c6e2ff" stroke="#c6e2ff" d="M68,-110C68,-116 62,-122 56,-122"/>
<polyline fill="none" stroke="black" points="56,-122 12,-122 "/>
<path fill="none" stroke="black" d="M12,-122C6,-122 2.96059e-14,-116 2.36848e-14,-110"/>
<polyline fill="none" stroke="black" points="2.36848e-14,-110 1.18424e-14,-98 "/>
<path fill="none" stroke="black" d="M1.18424e-14,-98C5.92119e-15,-92 6,-86 12,-86"/>
<polyline fill="none" stroke="black" points="12,-86 56,-86 "/>
<path fill="none" stroke="black" d="M56,-86C62,-86 68,-92 68,-98"/>
<polyline fill="none" stroke="black" points="68,-98 68,-110 "/>
<path fill="none" stroke="black" d="M68,-110C68,-116 62,-122 56,-122"/>
<text text-anchor="middle" x="34" y="-101.5" font-family="FreeSans" font-size="10.00">Start node</text>
</g>
<!-- A Relationship&#45;&gt;Start node -->
<g id="edge2" class="edge"><title>A Relationship&#45;&gt;Start node</title>
<path fill="none" stroke="black" d="M139.327,-171.929C129.872,-166.27 119.462,-159.948 110,-154 95.8657,-145.116 80.4465,-135.044 67.2131,-126.279"/>
<polygon fill="black" stroke="black" points="60.9076,-122.093 69.0226,-123.43 64.0317,-124.167 67.1558,-126.241 67.1558,-126.241 67.1558,-126.241 64.0317,-124.167 65.289,-129.053 60.9076,-122.093 60.9076,-122.093"/>
<text text-anchor="middle" x="123.5" y="-144.5" font-family="FreeSans" font-size="10.00">has a</text>
</g>
<!-- End node -->
<g id="node5" class="node"><title>End node</title>
<polygon fill="#c6e2ff" stroke="#c6e2ff" points="147,-122 109,-122 97,-110 97,-98 109,-86 147,-86 159,-98 159,-110 147,-122"/>
<path fill="#c6e2ff" stroke="#c6e2ff" d="M109,-122C103,-122 97,-116 97,-110"/>
<path fill="#c6e2ff" stroke="#c6e2ff" d="M97,-98C97,-92 103,-86 109,-86"/>
<path fill="#c6e2ff" stroke="#c6e2ff" d="M147,-86C153,-86 159,-92 159,-98"/>
<path fill="#c6e2ff" stroke="#c6e2ff" d="M159,-110C159,-116 153,-122 147,-122"/>
<polyline fill="none" stroke="black" points="147,-122 109,-122 "/>
<path fill="none" stroke="black" d="M109,-122C103,-122 97,-116 97,-110"/>
<polyline fill="none" stroke="black" points="97,-110 97,-98 "/>
<path fill="none" stroke="black" d="M97,-98C97,-92 103,-86 109,-86"/>
<polyline fill="none" stroke="black" points="109,-86 147,-86 "/>
<path fill="none" stroke="black" d="M147,-86C153,-86 159,-92 159,-98"/>
<polyline fill="none" stroke="black" points="159,-98 159,-110 "/>
<path fill="none" stroke="black" d="M159,-110C159,-116 153,-122 147,-122"/>
<text text-anchor="middle" x="128" y="-101.5" font-family="FreeSans" font-size="10.00">End node</text>
</g>
<!-- A Relationship&#45;&gt;End node -->
<g id="edge4" class="edge"><title>A Relationship&#45;&gt;End node</title>
<path fill="none" stroke="black" d="M159.494,-171.86C156.331,-166.198 152.925,-159.892 150,-154 146.061,-146.066 142.068,-137.265 138.584,-129.286"/>
<polygon fill="black" stroke="black" points="135.544,-122.238 141.613,-127.788 137.029,-125.682 138.514,-129.125 138.514,-129.125 138.514,-129.125 137.029,-125.682 135.415,-130.462 135.544,-122.238 135.544,-122.238"/>
<text text-anchor="middle" x="163.5" y="-144.5" font-family="FreeSans" font-size="10.00">has a</text>
</g>
<!-- Relationship type -->
<g id="node7" class="node"><title>Relationship type</title>
<polygon fill="#c6e2ff" stroke="#c6e2ff" points="274,-122 200,-122 188,-110 188,-98 200,-86 274,-86 286,-98 286,-110 274,-122"/>
<path fill="#c6e2ff" stroke="#c6e2ff" d="M200,-122C194,-122 188,-116 188,-110"/>
<path fill="#c6e2ff" stroke="#c6e2ff" d="M188,-98C188,-92 194,-86 200,-86"/>
<path fill="#c6e2ff" stroke="#c6e2ff" d="M274,-86C280,-86 286,-92 286,-98"/>
<path fill="#c6e2ff" stroke="#c6e2ff" d="M286,-110C286,-116 280,-122 274,-122"/>
<polyline fill="none" stroke="black" points="274,-122 200,-122 "/>
<path fill="none" stroke="black" d="M200,-122C194,-122 188,-116 188,-110"/>
<polyline fill="none" stroke="black" points="188,-110 188,-98 "/>
<path fill="none" stroke="black" d="M188,-98C188,-92 194,-86 200,-86"/>
<polyline fill="none" stroke="black" points="200,-86 274,-86 "/>
<path fill="none" stroke="black" d="M274,-86C280,-86 286,-92 286,-98"/>
<polyline fill="none" stroke="black" points="286,-98 286,-110 "/>
<path fill="none" stroke="black" d="M286,-110C286,-116 280,-122 274,-122"/>
<text text-anchor="middle" x="237" y="-101.5" font-family="FreeSans" font-size="10.00">Relationship type</text>
</g>
<!-- A Relationship&#45;&gt;Relationship type -->
<g id="edge6" class="edge"><title>A Relationship&#45;&gt;Relationship type</title>
<path fill="none" stroke="black" d="M184.209,-171.762C194.069,-159.105 207.311,-142.108 218.066,-128.303"/>
<polygon fill="black" stroke="black" points="222.812,-122.212 220.865,-130.203 220.507,-125.17 218.202,-128.129 218.202,-128.129 218.202,-128.129 220.507,-125.17 215.54,-126.054 222.812,-122.212 222.812,-122.212"/>
<text text-anchor="middle" x="221.5" y="-144.5" font-family="FreeSans" font-size="10.00">has a</text>
</g>
<!-- Properties -->
<g id="node9" class="node"><title>Properties</title>
<polygon fill="#c6e2ff" stroke="#c6e2ff" points="367,-122 327,-122 315,-110 315,-98 327,-86 367,-86 379,-98 379,-110 367,-122"/>
<path fill="#c6e2ff" stroke="#c6e2ff" d="M327,-122C321,-122 315,-116 315,-110"/>
<path fill="#c6e2ff" stroke="#c6e2ff" d="M315,-98C315,-92 321,-86 327,-86"/>
<path fill="#c6e2ff" stroke="#c6e2ff" d="M367,-86C373,-86 379,-92 379,-98"/>
<path fill="#c6e2ff" stroke="#c6e2ff" d="M379,-110C379,-116 373,-122 367,-122"/>
<polyline fill="none" stroke="black" points="367,-122 327,-122 "/>
<path fill="none" stroke="black" d="M327,-122C321,-122 315,-116 315,-110"/>
<polyline fill="none" stroke="black" points="315,-110 315,-98 "/>
<path fill="none" stroke="black" d="M315,-98C315,-92 321,-86 327,-86"/>
<polyline fill="none" stroke="black" points="327,-86 367,-86 "/>
<path fill="none" stroke="black" d="M367,-86C373,-86 379,-92 379,-98"/>
<polyline fill="none" stroke="black" points="379,-98 379,-110 "/>
<path fill="none" stroke="black" d="M379,-110C379,-116 373,-122 367,-122"/>
<text text-anchor="middle" x="347" y="-101.5" font-family="FreeSans" font-size="10.00">Properties</text>
</g>
<!-- A Relationship&#45;&gt;Properties -->
<g id="edge8" class="edge"><title>A Relationship&#45;&gt;Properties</title>
<path fill="none" stroke="black" d="M207.105,-171.972C236.667,-157.608 277.937,-137.556 307.988,-122.955"/>
<polygon fill="black" stroke="black" points="314.987,-119.554 309.717,-125.867 311.615,-121.193 308.242,-122.832 308.242,-122.832 308.242,-122.832 311.615,-121.193 306.767,-119.796 314.987,-119.554 314.987,-119.554"/>
<text text-anchor="middle" x="292" y="-144.5" font-family="FreeSans" font-size="10.00">can have</text>
</g>
<!-- Name -->
<g id="node11" class="node"><title>Name</title>
<polygon fill="#c6e2ff" stroke="#c6e2ff" points="252,-36 222,-36 210,-24 210,-12 222,-1.46056e-14 252,-6.71068e-15 264,-12 264,-24 252,-36"/>
<path fill="#c6e2ff" stroke="#c6e2ff" d="M222,-36C216,-36 210,-30 210,-24"/>
<path fill="#c6e2ff" stroke="#c6e2ff" d="M210,-12C210,-6 216,-1.61846e-14 222,-1.46056e-14"/>
<path fill="#c6e2ff" stroke="#c6e2ff" d="M252,-6.71068e-15C258,-5.1317e-15 264,-6 264,-12"/>
<path fill="#c6e2ff" stroke="#c6e2ff" d="M264,-24C264,-30 258,-36 252,-36"/>
<polyline fill="none" stroke="black" points="252,-36 222,-36 "/>
<path fill="none" stroke="black" d="M222,-36C216,-36 210,-30 210,-24"/>
<polyline fill="none" stroke="black" points="210,-24 210,-12 "/>
<path fill="none" stroke="black" d="M210,-12C210,-6 216,-1.61846e-14 222,-1.46056e-14"/>
<polyline fill="none" stroke="black" points="222,-1.46056e-14 252,-6.71068e-15 "/>
<path fill="none" stroke="black" d="M252,-6.71068e-15C258,-5.1317e-15 264,-6 264,-12"/>
<polyline fill="none" stroke="black" points="264,-12 264,-24 "/>
<path fill="none" stroke="black" d="M264,-24C264,-30 258,-36 252,-36"/>
<text text-anchor="middle" x="237" y="-15.5" font-family="FreeSans" font-size="10.00">Name</text>
</g>
<!-- Relationship type&#45;&gt;Name -->
<g id="edge10" class="edge"><title>Relationship type&#45;&gt;Name</title>
<path fill="none" stroke="black" d="M237,-85.7616C237,-73.5615 237,-57.3273 237,-43.8076"/>
<polygon fill="black" stroke="black" points="237,-36.2121 240.375,-43.7121 237,-39.9621 237,-43.7121 237,-43.7121 237,-43.7121 237,-39.9621 233.625,-43.7121 237,-36.2121 237,-36.2121"/>
<text text-anchor="middle" x="287.5" y="-58.5" font-family="FreeSans" font-size="10.00">uniquely identified by</text>
</g>
</g>
</svg>
