<?xml version="1.0" encoding="UTF-8" standalone="no"?>
<!DOCTYPE svg PUBLIC "-//W3C//DTD SVG 1.1//EN"
 "http://www.w3.org/Graphics/SVG/1.1/DTD/svg11.dtd">
<!-- Generated by graphviz version 2.26.3 (20100126.1600)
 -->
<!-- Title: g Pages: 1 -->
<svg width="448pt" height="44pt"
 viewBox="0.00 0.00 448.00 44.00" xmlns="http://www.w3.org/2000/svg" xmlns:xlink="http://www.w3.org/1999/xlink">
<g id="graph1" class="graph" transform="scale(1 1) rotate(0) translate(4 40)">
<title>g</title>
<polygon fill="white" stroke="white" points="-4,5 -4,-40 445,-40 445,5 -4,5"/>
<!-- START -->
<g id="node1" class="node"><title>START</title>
<polygon fill="#fffff0" stroke="#fffff0" points="42,-36 12,-36 1.42109e-14,-24 7.10543e-15,-12 12,-1.46056e-14 42,-6.71068e-15 54,-12 54,-24 42,-36"/>
<path fill="#fffff0" stroke="#fffff0" d="M12,-36C6,-36 1.77636e-14,-30 1.42109e-14,-24"/>
<path fill="#fffff0" stroke="#fffff0" d="M7.10543e-15,-12C3.55271e-15,-6 6,-1.61846e-14 12,-1.46056e-14"/>
<path fill="#fffff0" stroke="#fffff0" d="M42,-6.71068e-15C48,-5.1317e-15 54,-6 54,-12"/>
<path fill="#fffff0" stroke="#fffff0" d="M54,-24C54,-30 48,-36 42,-36"/>
<polyline fill="none" stroke="black" points="42,-36 12,-36 "/>
<path fill="none" stroke="black" d="M12,-36C6,-36 1.77636e-14,-30 1.42109e-14,-24"/>
<polyline fill="none" stroke="black" points="1.42109e-14,-24 7.10543e-15,-12 "/>
<path fill="none" stroke="black" d="M7.10543e-15,-12C3.55271e-15,-6 6,-1.61846e-14 12,-1.46056e-14"/>
<polyline fill="none" stroke="black" points="12,-1.46056e-14 42,-6.71068e-15 "/>
<path fill="none" stroke="black" d="M42,-6.71068e-15C48,-5.1317e-15 54,-6 54,-12"/>
<polyline fill="none" stroke="black" points="54,-12 54,-24 "/>
<path fill="none" stroke="black" d="M54,-24C54,-30 48,-36 42,-36"/>
</g>
<!-- MIDDLE -->
<g id="node2" class="node"><title>MIDDLE</title>
<polygon fill="#fff68f" stroke="#fff68f" points="236,-36 206,-36 194,-24 194,-12 206,-1.46056e-14 236,-6.71068e-15 248,-12 248,-24 236,-36"/>
<path fill="#fff68f" stroke="#fff68f" d="M206,-36C200,-36 194,-30 194,-24"/>
<path fill="#fff68f" stroke="#fff68f" d="M194,-12C194,-6 200,-1.61846e-14 206,-1.46056e-14"/>
<path fill="#fff68f" stroke="#fff68f" d="M236,-6.71068e-15C242,-5.1317e-15 248,-6 248,-12"/>
<path fill="#fff68f" stroke="#fff68f" d="M248,-24C248,-30 242,-36 236,-36"/>
<polyline fill="none" stroke="black" points="236,-36 206,-36 "/>
<path fill="none" stroke="black" d="M206,-36C200,-36 194,-30 194,-24"/>
<polyline fill="none" stroke="black" points="194,-24 194,-12 "/>
<path fill="none" stroke="black" d="M194,-12C194,-6 200,-1.61846e-14 206,-1.46056e-14"/>
<polyline fill="none" stroke="black" points="206,-1.46056e-14 236,-6.71068e-15 "/>
<path fill="none" stroke="black" d="M236,-6.71068e-15C242,-5.1317e-15 248,-6 248,-12"/>
<polyline fill="none" stroke="black" points="248,-12 248,-24 "/>
<path fill="none" stroke="black" d="M248,-24C248,-30 242,-36 236,-36"/>
<text text-anchor="middle" x="221" y="-15.5" font-family="FreeSans" font-size="10.00">Node</text>
</g>
<!-- START&#45;&gt;MIDDLE -->
<g id="edge4" class="edge"><title>START&#45;&gt;MIDDLE</title>
<path fill="none" stroke="black" d="M54.384,-18C88.9025,-18 148.28,-18 186.042,-18"/>
<polygon fill="black" stroke="black" points="193.755,-18 186.255,-21.3751 190.005,-18 186.255,-18.0001 186.255,-18.0001 186.255,-18.0001 190.005,-18 186.255,-14.6251 193.755,-18 193.755,-18"/>
<text text-anchor="middle" x="124" y="-22" font-family="FreeSans" font-size="10.00">incoming relationship</text>
</g>
<!-- END -->
<g id="node3" class="node"><title>END</title>
<polygon fill="#fffff0" stroke="#fffff0" points="428,-36 398,-36 386,-24 386,-12 398,-1.46056e-14 428,-6.71068e-15 440,-12 440,-24 428,-36"/>
<path fill="#fffff0" stroke="#fffff0" d="M398,-36C392,-36 386,-30 386,-24"/>
<path fill="#fffff0" stroke="#fffff0" d="M386,-12C386,-6 392,-1.61846e-14 398,-1.46056e-14"/>
<path fill="#fffff0" stroke="#fffff0" d="M428,-6.71068e-15C434,-5.1317e-15 440,-6 440,-12"/>
<path fill="#fffff0" stroke="#fffff0" d="M440,-24C440,-30 434,-36 428,-36"/>
<polyline fill="none" stroke="black" points="428,-36 398,-36 "/>
<path fill="none" stroke="black" d="M398,-36C392,-36 386,-30 386,-24"/>
<polyline fill="none" stroke="black" points="386,-24 386,-12 "/>
<path fill="none" stroke="black" d="M386,-12C386,-6 392,-1.61846e-14 398,-1.46056e-14"/>
<polyline fill="none" stroke="black" points="398,-1.46056e-14 428,-6.71068e-15 "/>
<path fill="none" stroke="black" d="M428,-6.71068e-15C434,-5.1317e-15 440,-6 440,-12"/>
<polyline fill="none" stroke="black" points="440,-12 440,-24 "/>
<path fill="none" stroke="black" d="M440,-24C440,-30 434,-36 428,-36"/>
</g>
<!-- MIDDLE&#45;&gt;END -->
<g id="edge2" class="edge"><title>MIDDLE&#45;&gt;END</title>
<path fill="none" stroke="black" d="M248.102,-18C282.168,-18 340.698,-18 378.085,-18"/>
<polygon fill="black" stroke="black" points="385.726,-18 378.226,-21.3751 381.976,-18 378.226,-18.0001 378.226,-18.0001 378.226,-18.0001 381.976,-18 378.226,-14.6251 385.726,-18 385.726,-18"/>
<text text-anchor="middle" x="317" y="-22" font-family="FreeSans" font-size="10.00">outgoing relationship</text>
</g>
</g>
</svg>
