<?xml version="1.0" encoding="UTF-8" standalone="no"?>
<!DOCTYPE svg PUBLIC "-//W3C//DTD SVG 1.1//EN"
 "http://www.w3.org/Graphics/SVG/1.1/DTD/svg11.dtd">
<!-- Generated by graphviz version 2.26.3 (20100126.1600)
 -->
<!-- Title: g Pages: 1 -->
<svg width="152pt" height="302pt"
 viewBox="0.00 0.00 152.00 302.00" xmlns="http://www.w3.org/2000/svg" xmlns:xlink="http://www.w3.org/1999/xlink">
<g id="graph1" class="graph" transform="scale(1 1) rotate(0) translate(4 298)">
<title>g</title>
<polygon fill="white" stroke="white" points="-4,5 -4,-298 149,-298 149,5 -4,5"/>
<!-- / -->
<g id="node1" class="node"><title>/</title>
<polygon fill="#fff68f" stroke="#fff68f" points="83,-294 53,-294 41,-282 41,-270 53,-258 83,-258 95,-270 95,-282 83,-294"/>
<path fill="#fff68f" stroke="#fff68f" d="M53,-294C47,-294 41,-288 41,-282"/>
<path fill="#fff68f" stroke="#fff68f" d="M41,-270C41,-264 47,-258 53,-258"/>
<path fill="#fff68f" stroke="#fff68f" d="M83,-258C89,-258 95,-264 95,-270"/>
<path fill="#fff68f" stroke="#fff68f" d="M95,-282C95,-288 89,-294 83,-294"/>
<polyline fill="none" stroke="black" points="83,-294 53,-294 "/>
<path fill="none" stroke="black" d="M53,-294C47,-294 41,-288 41,-282"/>
<polyline fill="none" stroke="black" points="41,-282 41,-270 "/>
<path fill="none" stroke="black" d="M41,-270C41,-264 47,-258 53,-258"/>
<polyline fill="none" stroke="black" points="53,-258 83,-258 "/>
<path fill="none" stroke="black" d="M83,-258C89,-258 95,-264 95,-270"/>
<polyline fill="none" stroke="black" points="95,-270 95,-282 "/>
<path fill="none" stroke="black" d="M95,-282C95,-288 89,-294 83,-294"/>
<text text-anchor="middle" x="68" y="-273.5" font-family="FreeSans" font-size="10.00">/</text>
</g>
<!-- A -->
<g id="node3" class="node"><title>A</title>
<polygon fill="#fffff0" stroke="#fffff0" points="83,-220 53,-220 41,-208 41,-196 53,-184 83,-184 95,-196 95,-208 83,-220"/>
<path fill="#fffff0" stroke="#fffff0" d="M53,-220C47,-220 41,-214 41,-208"/>
<path fill="#fffff0" stroke="#fffff0" d="M41,-196C41,-190 47,-184 53,-184"/>
<path fill="#fffff0" stroke="#fffff0" d="M83,-184C89,-184 95,-190 95,-196"/>
<path fill="#fffff0" stroke="#fffff0" d="M95,-208C95,-214 89,-220 83,-220"/>
<polyline fill="none" stroke="black" points="83,-220 53,-220 "/>
<path fill="none" stroke="black" d="M53,-220C47,-220 41,-214 41,-208"/>
<polyline fill="none" stroke="black" points="41,-208 41,-196 "/>
<path fill="none" stroke="black" d="M41,-196C41,-190 47,-184 53,-184"/>
<polyline fill="none" stroke="black" points="53,-184 83,-184 "/>
<path fill="none" stroke="black" d="M83,-184C89,-184 95,-190 95,-196"/>
<polyline fill="none" stroke="black" points="95,-196 95,-208 "/>
<path fill="none" stroke="black" d="M95,-208C95,-214 89,-220 83,-220"/>
<text text-anchor="middle" x="68" y="-199.5" font-family="FreeSans" font-size="10.00">A</text>
</g>
<!-- /&#45;&gt;A -->
<g id="edge2" class="edge"><title>/&#45;&gt;A</title>
<path fill="none" stroke="black" d="M68,-257.708C68,-248.657 68,-237.579 68,-227.693"/>
<polygon fill="black" stroke="black" points="68,-220.082 71.3751,-227.582 68,-223.832 68.0001,-227.582 68.0001,-227.582 68.0001,-227.582 68,-223.832 64.6251,-227.582 68,-220.082 68,-220.082"/>
</g>
<!-- B -->
<g id="node5" class="node"><title>B</title>
<polygon fill="#fffff0" stroke="#fffff0" points="42,-134 12,-134 1.42109e-14,-122 7.10543e-15,-110 12,-98 42,-98 54,-110 54,-122 42,-134"/>
<path fill="#fffff0" stroke="#fffff0" d="M12,-134C6,-134 1.77636e-14,-128 1.42109e-14,-122"/>
<path fill="#fffff0" stroke="#fffff0" d="M7.10543e-15,-110C3.55271e-15,-104 6,-98 12,-98"/>
<path fill="#fffff0" stroke="#fffff0" d="M42,-98C48,-98 54,-104 54,-110"/>
<path fill="#fffff0" stroke="#fffff0" d="M54,-122C54,-128 48,-134 42,-134"/>
<polyline fill="none" stroke="black" points="42,-134 12,-134 "/>
<path fill="none" stroke="black" d="M12,-134C6,-134 1.77636e-14,-128 1.42109e-14,-122"/>
<polyline fill="none" stroke="black" points="1.42109e-14,-122 7.10543e-15,-110 "/>
<path fill="none" stroke="black" d="M7.10543e-15,-110C3.55271e-15,-104 6,-98 12,-98"/>
<polyline fill="none" stroke="black" points="12,-98 42,-98 "/>
<path fill="none" stroke="black" d="M42,-98C48,-98 54,-104 54,-110"/>
<polyline fill="none" stroke="black" points="54,-110 54,-122 "/>
<path fill="none" stroke="black" d="M54,-122C54,-128 48,-134 42,-134"/>
<text text-anchor="middle" x="27" y="-113.5" font-family="FreeSans" font-size="10.00">B</text>
</g>
<!-- A&#45;&gt;B -->
<g id="edge4" class="edge"><title>A&#45;&gt;B</title>
<path fill="none" stroke="black" d="M59.305,-183.762C53.3799,-171.333 45.4591,-154.719 38.9436,-141.052"/>
<polygon fill="black" stroke="black" points="35.6825,-134.212 41.9566,-139.53 37.2963,-137.597 38.9101,-140.982 38.9101,-140.982 38.9101,-140.982 37.2963,-137.597 35.8636,-142.435 35.6825,-134.212 35.6825,-134.212"/>
<text text-anchor="middle" x="57" y="-156.5" font-family="FreeSans" font-size="10.00">file</text>
</g>
<!-- C -->
<g id="node7" class="node"><title>C</title>
<polygon fill="#fffff0" stroke="#fffff0" points="132,-134 102,-134 90,-122 90,-110 102,-98 132,-98 144,-110 144,-122 132,-134"/>
<path fill="#fffff0" stroke="#fffff0" d="M102,-134C96,-134 90,-128 90,-122"/>
<path fill="#fffff0" stroke="#fffff0" d="M90,-110C90,-104 96,-98 102,-98"/>
<path fill="#fffff0" stroke="#fffff0" d="M132,-98C138,-98 144,-104 144,-110"/>
<path fill="#fffff0" stroke="#fffff0" d="M144,-122C144,-128 138,-134 132,-134"/>
<polyline fill="none" stroke="black" points="132,-134 102,-134 "/>
<path fill="none" stroke="black" d="M102,-134C96,-134 90,-128 90,-122"/>
<polyline fill="none" stroke="black" points="90,-122 90,-110 "/>
<path fill="none" stroke="black" d="M90,-110C90,-104 96,-98 102,-98"/>
<polyline fill="none" stroke="black" points="102,-98 132,-98 "/>
<path fill="none" stroke="black" d="M132,-98C138,-98 144,-104 144,-110"/>
<polyline fill="none" stroke="black" points="144,-110 144,-122 "/>
<path fill="none" stroke="black" d="M144,-122C144,-128 138,-134 132,-134"/>
<text text-anchor="middle" x="117" y="-113.5" font-family="FreeSans" font-size="10.00">C</text>
</g>
<!-- A&#45;&gt;C -->
<g id="edge6" class="edge"><title>A&#45;&gt;C</title>
<path fill="none" stroke="black" d="M78.3916,-183.762C85.4728,-171.333 94.9392,-154.719 102.726,-141.052"/>
<polygon fill="black" stroke="black" points="106.623,-134.212 105.843,-142.399 104.767,-137.47 102.91,-140.729 102.91,-140.729 102.91,-140.729 104.767,-137.47 99.978,-139.058 106.623,-134.212 106.623,-134.212"/>
<text text-anchor="middle" x="102" y="-156.5" font-family="FreeSans" font-size="10.00">file</text>
</g>
<!-- D -->
<g id="node9" class="node"><title>D</title>
<polygon fill="#fffff0" stroke="#fffff0" points="87,-36 57,-36 45,-24 45,-12 57,-1.46056e-14 87,-6.71068e-15 99,-12 99,-24 87,-36"/>
<path fill="#fffff0" stroke="#fffff0" d="M57,-36C51,-36 45,-30 45,-24"/>
<path fill="#fffff0" stroke="#fffff0" d="M45,-12C45,-6 51,-1.61846e-14 57,-1.46056e-14"/>
<path fill="#fffff0" stroke="#fffff0" d="M87,-6.71068e-15C93,-5.1317e-15 99,-6 99,-12"/>
<path fill="#fffff0" stroke="#fffff0" d="M99,-24C99,-30 93,-36 87,-36"/>
<polyline fill="none" stroke="black" points="87,-36 57,-36 "/>
<path fill="none" stroke="black" d="M57,-36C51,-36 45,-30 45,-24"/>
<polyline fill="none" stroke="black" points="45,-24 45,-12 "/>
<path fill="none" stroke="black" d="M45,-12C45,-6 51,-1.61846e-14 57,-1.46056e-14"/>
<polyline fill="none" stroke="black" points="57,-1.46056e-14 87,-6.71068e-15 "/>
<path fill="none" stroke="black" d="M87,-6.71068e-15C93,-5.1317e-15 99,-6 99,-12"/>
<polyline fill="none" stroke="black" points="99,-12 99,-24 "/>
<path fill="none" stroke="black" d="M99,-24C99,-30 93,-36 87,-36"/>
<text text-anchor="middle" x="72" y="-15.5" font-family="FreeSans" font-size="10.00">D</text>
</g>
<!-- B&#45;&gt;D -->
<g id="edge10" class="edge"><title>B&#45;&gt;D</title>
<path fill="none" stroke="mediumblue" d="M18.8023,-97.8922C14.2287,-84.9565 10.7635,-67.5215 18,-54 22.5274,-45.5405 30.0179,-38.7255 37.9993,-33.3971"/>
<polygon fill="mediumblue" stroke="mediumblue" points="44.7648,-29.2673 40.1216,-36.0557 41.564,-31.2211 38.3632,-33.175 38.3632,-33.175 38.3632,-33.175 41.564,-31.2211 36.6048,-30.2942 44.7648,-29.2673 44.7648,-29.2673"/>
<text text-anchor="middle" x="50" y="-71" font-family="FreeSans" font-size="10.00" fill="mediumblue">symbolic link </text>
<text text-anchor="middle" x="50" y="-58" font-family="FreeSans" font-size="10.00" fill="mediumblue">{name: &quot;E&quot;}</text>
</g>
<!-- C&#45;&gt;D -->
<g id="edge8" class="edge"><title>C&#45;&gt;D</title>
<path fill="none" stroke="black" d="M108.536,-97.5669C101.452,-82.1392 91.2767,-59.9803 83.4626,-42.963"/>
<polygon fill="black" stroke="black" points="80.2742,-36.0193 86.471,-41.4267 81.839,-39.4272 83.4039,-42.8351 83.4039,-42.8351 83.4039,-42.8351 81.839,-39.4272 80.3368,-44.2435 80.2742,-36.0193 80.2742,-36.0193"/>
<text text-anchor="middle" x="106" y="-64.5" font-family="FreeSans" font-size="10.00">file</text>
</g>
</g>
</svg>
