<?xml version="1.0" encoding="UTF-8" standalone="no"?>
<!DOCTYPE svg PUBLIC "-//W3C//DTD SVG 1.1//EN"
 "http://www.w3.org/Graphics/SVG/1.1/DTD/svg11.dtd">
<!-- Generated by graphviz version 2.26.3 (20100126.1600)
 -->
<!-- Title: g Pages: 1 -->
<svg width="427pt" height="410pt"
 viewBox="0.00 0.00 427.00 410.00" xmlns="http://www.w3.org/2000/svg" xmlns:xlink="http://www.w3.org/1999/xlink">
<g id="graph1" class="graph" transform="scale(1 1) rotate(0) translate(4 406)">
<title>g</title>
<polygon fill="white" stroke="white" points="-4,5 -4,-406 424,-406 424,5 -4,5"/>
<!-- Graph Database -->
<g id="node1" class="node"><title>Graph Database</title>
<polygon fill="#c1ffc1" stroke="#c1ffc1" points="121,-402 51,-402 39,-390 39,-378 51,-366 121,-366 133,-378 133,-390 121,-402"/>
<path fill="#c1ffc1" stroke="#c1ffc1" d="M51,-402C45,-402 39,-396 39,-390"/>
<path fill="#c1ffc1" stroke="#c1ffc1" d="M39,-378C39,-372 45,-366 51,-366"/>
<path fill="#c1ffc1" stroke="#c1ffc1" d="M121,-366C127,-366 133,-372 133,-378"/>
<path fill="#c1ffc1" stroke="#c1ffc1" d="M133,-390C133,-396 127,-402 121,-402"/>
<polyline fill="none" stroke="black" points="121,-402 51,-402 "/>
<path fill="none" stroke="black" d="M51,-402C45,-402 39,-396 39,-390"/>
<polyline fill="none" stroke="black" points="39,-390 39,-378 "/>
<path fill="none" stroke="black" d="M39,-378C39,-372 45,-366 51,-366"/>
<polyline fill="none" stroke="black" points="51,-366 121,-366 "/>
<path fill="none" stroke="black" d="M121,-366C127,-366 133,-372 133,-378"/>
<polyline fill="none" stroke="black" points="133,-378 133,-390 "/>
<path fill="none" stroke="black" d="M133,-390C133,-396 127,-402 121,-402"/>
<text text-anchor="middle" x="86" y="-381.5" font-family="FreeSans" font-size="10.00">Graph Database</text>
</g>
<!-- Graph -->
<g id="node2" class="node"><title>Graph</title>
<polygon fill="aquamarine" stroke="aquamarine" points="195,-316 165,-316 153,-304 153,-292 165,-280 195,-280 207,-292 207,-304 195,-316"/>
<path fill="aquamarine" stroke="aquamarine" d="M165,-316C159,-316 153,-310 153,-304"/>
<path fill="aquamarine" stroke="aquamarine" d="M153,-292C153,-286 159,-280 165,-280"/>
<path fill="aquamarine" stroke="aquamarine" d="M195,-280C201,-280 207,-286 207,-292"/>
<path fill="aquamarine" stroke="aquamarine" d="M207,-304C207,-310 201,-316 195,-316"/>
<polyline fill="none" stroke="black" points="195,-316 165,-316 "/>
<path fill="none" stroke="black" d="M165,-316C159,-316 153,-310 153,-304"/>
<polyline fill="none" stroke="black" points="153,-304 153,-292 "/>
<path fill="none" stroke="black" d="M153,-292C153,-286 159,-280 165,-280"/>
<polyline fill="none" stroke="black" points="165,-280 195,-280 "/>
<path fill="none" stroke="black" d="M195,-280C201,-280 207,-286 207,-292"/>
<polyline fill="none" stroke="black" points="207,-292 207,-304 "/>
<path fill="none" stroke="black" d="M207,-304C207,-310 201,-316 195,-316"/>
<text text-anchor="middle" x="180" y="-295.5" font-family="FreeSans" font-size="10.00">Graph</text>
</g>
<!-- Graph Database&#45;&gt;Graph -->
<g id="edge8" class="edge"><title>Graph Database&#45;&gt;Graph</title>
<path fill="none" stroke="mediumblue" d="M105.935,-365.762C120.018,-352.877 139.018,-335.494 154.248,-321.56"/>
<polygon fill="mediumblue" stroke="mediumblue" points="160.094,-316.212 156.838,-323.765 157.327,-318.743 154.56,-321.275 154.56,-321.275 154.56,-321.275 157.327,-318.743 152.282,-318.785 160.094,-316.212 160.094,-316.212"/>
<text text-anchor="middle" x="162" y="-338.5" font-family="FreeSans" font-size="10.00" fill="mediumblue">manages</text>
</g>
<!-- Indexes -->
<g id="node3" class="node"><title>Indexes</title>
<polygon fill="aquamarine" stroke="aquamarine" points="42,-316 12,-316 1.42109e-14,-304 7.10543e-15,-292 12,-280 42,-280 54,-292 54,-304 42,-316"/>
<path fill="aquamarine" stroke="aquamarine" d="M12,-316C6,-316 1.77636e-14,-310 1.42109e-14,-304"/>
<path fill="aquamarine" stroke="aquamarine" d="M7.10543e-15,-292C3.55271e-15,-286 6,-280 12,-280"/>
<path fill="aquamarine" stroke="aquamarine" d="M42,-280C48,-280 54,-286 54,-292"/>
<path fill="aquamarine" stroke="aquamarine" d="M54,-304C54,-310 48,-316 42,-316"/>
<polyline fill="none" stroke="black" points="42,-316 12,-316 "/>
<path fill="none" stroke="black" d="M12,-316C6,-316 1.77636e-14,-310 1.42109e-14,-304"/>
<polyline fill="none" stroke="black" points="1.42109e-14,-304 7.10543e-15,-292 "/>
<path fill="none" stroke="black" d="M7.10543e-15,-292C3.55271e-15,-286 6,-280 12,-280"/>
<polyline fill="none" stroke="black" points="12,-280 42,-280 "/>
<path fill="none" stroke="black" d="M42,-280C48,-280 54,-286 54,-292"/>
<polyline fill="none" stroke="black" points="54,-292 54,-304 "/>
<path fill="none" stroke="black" d="M54,-304C54,-310 48,-316 42,-316"/>
<text text-anchor="middle" x="27" y="-295.5" font-family="FreeSans" font-size="10.00">Indexes</text>
</g>
<!-- Graph Database&#45;&gt;Indexes -->
<g id="edge14" class="edge"><title>Graph Database&#45;&gt;Indexes</title>
<path fill="none" stroke="mediumblue" d="M62.7854,-365.718C57.097,-360.443 51.3892,-354.375 47,-348 41.8856,-340.571 37.7856,-331.641 34.6619,-323.396"/>
<polygon fill="mediumblue" stroke="mediumblue" points="32.0665,-316.08 37.7547,-322.02 33.3202,-319.614 34.5739,-323.148 34.5739,-323.148 34.5739,-323.148 33.3202,-319.614 31.3931,-324.276 32.0665,-316.08 32.0665,-316.08"/>
<text text-anchor="middle" x="70" y="-338.5" font-family="FreeSans" font-size="10.00" fill="mediumblue">manages</text>
</g>
<!-- Relationships -->
<g id="node4" class="node"><title>Relationships</title>
<polygon fill="#c6e2ff" stroke="#c6e2ff" points="155,-208 101,-208 89,-196 89,-184 101,-172 155,-172 167,-184 167,-196 155,-208"/>
<path fill="#c6e2ff" stroke="#c6e2ff" d="M101,-208C95,-208 89,-202 89,-196"/>
<path fill="#c6e2ff" stroke="#c6e2ff" d="M89,-184C89,-178 95,-172 101,-172"/>
<path fill="#c6e2ff" stroke="#c6e2ff" d="M155,-172C161,-172 167,-178 167,-184"/>
<path fill="#c6e2ff" stroke="#c6e2ff" d="M167,-196C167,-202 161,-208 155,-208"/>
<polyline fill="none" stroke="black" points="155,-208 101,-208 "/>
<path fill="none" stroke="black" d="M101,-208C95,-208 89,-202 89,-196"/>
<polyline fill="none" stroke="black" points="89,-196 89,-184 "/>
<path fill="none" stroke="black" d="M89,-184C89,-178 95,-172 101,-172"/>
<polyline fill="none" stroke="black" points="101,-172 155,-172 "/>
<path fill="none" stroke="black" d="M155,-172C161,-172 167,-178 167,-184"/>
<polyline fill="none" stroke="black" points="167,-184 167,-196 "/>
<path fill="none" stroke="black" d="M167,-196C167,-202 161,-208 155,-208"/>
<text text-anchor="middle" x="128" y="-187.5" font-family="FreeSans" font-size="10.00">Relationships</text>
</g>
<!-- Graph&#45;&gt;Relationships -->
<g id="edge12" class="edge"><title>Graph&#45;&gt;Relationships</title>
<path fill="none" stroke="black" d="M152.715,-281.839C145.822,-276.414 139.194,-269.741 135,-262 127.429,-248.024 125.633,-230.269 125.752,-215.888"/>
<polygon fill="black" stroke="black" points="125.991,-208.291 129.129,-215.893 125.873,-212.039 125.755,-215.787 125.755,-215.787 125.755,-215.787 125.873,-212.039 122.382,-215.681 125.991,-208.291 125.991,-208.291"/>
<text text-anchor="middle" x="171.5" y="-241.5" font-family="FreeSans" font-size="10.00">records data in</text>
</g>
<!-- Nodes -->
<g id="node6" class="node"><title>Nodes</title>
<polygon fill="#c6e2ff" stroke="#c6e2ff" points="161,-122 131,-122 119,-110 119,-98 131,-86 161,-86 173,-98 173,-110 161,-122"/>
<path fill="#c6e2ff" stroke="#c6e2ff" d="M131,-122C125,-122 119,-116 119,-110"/>
<path fill="#c6e2ff" stroke="#c6e2ff" d="M119,-98C119,-92 125,-86 131,-86"/>
<path fill="#c6e2ff" stroke="#c6e2ff" d="M161,-86C167,-86 173,-92 173,-98"/>
<path fill="#c6e2ff" stroke="#c6e2ff" d="M173,-110C173,-116 167,-122 161,-122"/>
<polyline fill="none" stroke="black" points="161,-122 131,-122 "/>
<path fill="none" stroke="black" d="M131,-122C125,-122 119,-116 119,-110"/>
<polyline fill="none" stroke="black" points="119,-110 119,-98 "/>
<path fill="none" stroke="black" d="M119,-98C119,-92 125,-86 131,-86"/>
<polyline fill="none" stroke="black" points="131,-86 161,-86 "/>
<path fill="none" stroke="black" d="M161,-86C167,-86 173,-92 173,-98"/>
<polyline fill="none" stroke="black" points="173,-98 173,-110 "/>
<path fill="none" stroke="black" d="M173,-110C173,-116 167,-122 161,-122"/>
<text text-anchor="middle" x="146" y="-101.5" font-family="FreeSans" font-size="10.00">Nodes</text>
</g>
<!-- Graph&#45;&gt;Nodes -->
<g id="edge10" class="edge"><title>Graph&#45;&gt;Nodes</title>
<path fill="none" stroke="black" d="M199.912,-279.88C204.422,-274.604 208.589,-268.495 211,-262 216.568,-247 213.085,-241.864 211,-226 205.845,-186.772 209.075,-173.485 188,-140 185.116,-135.418 181.466,-131.108 177.526,-127.173"/>
<polygon fill="black" stroke="black" points="172.019,-122.048 179.809,-124.687 174.765,-124.603 177.51,-127.158 177.51,-127.158 177.51,-127.158 174.765,-124.603 175.211,-129.629 172.019,-122.048 172.019,-122.048"/>
<text text-anchor="middle" x="244.5" y="-187.5" font-family="FreeSans" font-size="10.00">records data in</text>
</g>
<!-- Indexes&#45;&gt;Relationships -->
<g id="edge18" class="edge"><title>Indexes&#45;&gt;Relationships</title>
<path fill="none" stroke="black" d="M40.1483,-279.726C51.3492,-264.661 68.2491,-243.071 85,-226 89.2193,-221.7 93.9111,-217.376 98.6003,-213.29"/>
<polygon fill="black" stroke="black" points="104.503,-208.262 100.982,-215.695 101.648,-210.694 98.7936,-213.125 98.7936,-213.125 98.7936,-213.125 101.648,-210.694 96.605,-210.556 104.503,-208.262 104.503,-208.262"/>
<text text-anchor="middle" x="102.5" y="-241.5" font-family="FreeSans" font-size="10.00">map to</text>
</g>
<!-- Indexes&#45;&gt;Nodes -->
<g id="edge16" class="edge"><title>Indexes&#45;&gt;Nodes</title>
<path fill="none" stroke="black" d="M24.0256,-279.762C20.7693,-253.777 18.4472,-205.537 39,-172 43.5041,-164.65 82.5621,-140.833 112.199,-123.454"/>
<polygon fill="black" stroke="black" points="118.742,-119.631 113.969,-126.329 115.504,-121.523 112.266,-123.414 112.266,-123.414 112.266,-123.414 115.504,-121.523 110.564,-120.5 118.742,-119.631 118.742,-119.631"/>
<text text-anchor="middle" x="56.5" y="-187.5" font-family="FreeSans" font-size="10.00">map to</text>
</g>
<!-- Properties -->
<g id="node8" class="node"><title>Properties</title>
<polygon fill="#c6e2ff" stroke="#c6e2ff" points="86,-36 46,-36 34,-24 34,-12 46,-1.5099e-14 86,-6.21725e-15 98,-12 98,-24 86,-36"/>
<path fill="#c6e2ff" stroke="#c6e2ff" d="M46,-36C40,-36 34,-30 34,-24"/>
<path fill="#c6e2ff" stroke="#c6e2ff" d="M34,-12C34,-6 40,-1.64313e-14 46,-1.5099e-14"/>
<path fill="#c6e2ff" stroke="#c6e2ff" d="M86,-6.21725e-15C92,-4.88498e-15 98,-6 98,-12"/>
<path fill="#c6e2ff" stroke="#c6e2ff" d="M98,-24C98,-30 92,-36 86,-36"/>
<polyline fill="none" stroke="black" points="86,-36 46,-36 "/>
<path fill="none" stroke="black" d="M46,-36C40,-36 34,-30 34,-24"/>
<polyline fill="none" stroke="black" points="34,-24 34,-12 "/>
<path fill="none" stroke="black" d="M34,-12C34,-6 40,-1.64313e-14 46,-1.5099e-14"/>
<polyline fill="none" stroke="black" points="46,-1.5099e-14 86,-6.21725e-15 "/>
<path fill="none" stroke="black" d="M86,-6.21725e-15C92,-4.88498e-15 98,-6 98,-12"/>
<polyline fill="none" stroke="black" points="98,-12 98,-24 "/>
<path fill="none" stroke="black" d="M98,-24C98,-30 92,-36 86,-36"/>
<text text-anchor="middle" x="66" y="-15.5" font-family="FreeSans" font-size="10.00">Properties</text>
</g>
<!-- Indexes&#45;&gt;Properties -->
<g id="edge20" class="edge"><title>Indexes&#45;&gt;Properties</title>
<path fill="none" stroke="black" d="M19.9685,-279.93C18.0411,-274.271 16.1639,-267.948 15,-262 4.5702,-208.699 -3.95258,-192.98 8,-140 16.0798,-104.186 35.9667,-66.5521 50.1989,-42.7164"/>
<polygon fill="black" stroke="black" points="54.2315,-36.0761 53.2232,-44.2385 52.285,-39.2814 50.3384,-42.4866 50.3384,-42.4866 50.3384,-42.4866 52.285,-39.2814 47.4537,-40.7347 54.2315,-36.0761 54.2315,-36.0761"/>
<text text-anchor="middle" x="32" y="-144.5" font-family="FreeSans" font-size="10.00">map from</text>
</g>
<!-- Relationships&#45;&gt;Nodes -->
<g id="edge2" class="edge"><title>Relationships&#45;&gt;Nodes</title>
<path fill="none" stroke="black" d="M131.817,-171.762C134.371,-159.562 137.769,-143.327 140.598,-129.808"/>
<polygon fill="black" stroke="black" points="142.188,-122.212 143.955,-130.244 141.42,-125.883 140.652,-129.553 140.652,-129.553 140.652,-129.553 141.42,-125.883 137.348,-128.862 142.188,-122.212 142.188,-122.212"/>
<text text-anchor="middle" x="160" y="-144.5" font-family="FreeSans" font-size="10.00">organize</text>
</g>
<!-- Relationships&#45;&gt;Properties -->
<g id="edge6" class="edge"><title>Relationships&#45;&gt;Properties</title>
<path fill="none" stroke="black" d="M111.453,-171.807C100.669,-158.871 87.2899,-140.561 80,-122 70.0787,-96.7387 66.9634,-65.6606 66.0926,-44.0894"/>
<polygon fill="black" stroke="black" points="65.8592,-36.3195 69.4579,-43.7148 65.9719,-40.0678 66.0845,-43.8161 66.0845,-43.8161 66.0845,-43.8161 65.9719,-40.0678 62.711,-43.9175 65.8592,-36.3195 65.8592,-36.3195"/>
<text text-anchor="middle" x="92" y="-101.5" font-family="FreeSans" font-size="10.00">have</text>
</g>
<!-- Nodes&#45;&gt;Properties -->
<g id="edge4" class="edge"><title>Nodes&#45;&gt;Properties</title>
<path fill="none" stroke="black" d="M129.034,-85.7616C117.155,-72.9914 101.164,-55.8013 88.2612,-41.9308"/>
<polygon fill="black" stroke="black" points="82.9415,-36.2121 90.5209,-39.4048 85.4956,-38.9578 88.0498,-41.7035 88.0498,-41.7035 88.0498,-41.7035 85.4956,-38.9578 85.5787,-44.0023 82.9415,-36.2121 82.9415,-36.2121"/>
<text text-anchor="middle" x="123" y="-58.5" font-family="FreeSans" font-size="10.00">have</text>
</g>
<!-- Traversal -->
<g id="node17" class="node"><title>Traversal</title>
<polygon fill="#c6e2ff" stroke="#c6e2ff" points="328,-402 294,-402 282,-390 282,-378 294,-366 328,-366 340,-378 340,-390 328,-402"/>
<path fill="#c6e2ff" stroke="#c6e2ff" d="M294,-402C288,-402 282,-396 282,-390"/>
<path fill="#c6e2ff" stroke="#c6e2ff" d="M282,-378C282,-372 288,-366 294,-366"/>
<path fill="#c6e2ff" stroke="#c6e2ff" d="M328,-366C334,-366 340,-372 340,-378"/>
<path fill="#c6e2ff" stroke="#c6e2ff" d="M340,-390C340,-396 334,-402 328,-402"/>
<polyline fill="none" stroke="black" points="328,-402 294,-402 "/>
<path fill="none" stroke="black" d="M294,-402C288,-402 282,-396 282,-390"/>
<polyline fill="none" stroke="black" points="282,-390 282,-378 "/>
<path fill="none" stroke="black" d="M282,-378C282,-372 288,-366 294,-366"/>
<polyline fill="none" stroke="black" points="294,-366 328,-366 "/>
<path fill="none" stroke="black" d="M328,-366C334,-366 340,-372 340,-378"/>
<polyline fill="none" stroke="black" points="340,-378 340,-390 "/>
<path fill="none" stroke="black" d="M340,-390C340,-396 334,-402 328,-402"/>
<text text-anchor="middle" x="311" y="-381.5" font-family="FreeSans" font-size="10.00">Traversal</text>
</g>
<!-- Traversal&#45;&gt;Graph -->
<g id="edge22" class="edge"><title>Traversal&#45;&gt;Graph</title>
<path fill="none" stroke="black" d="M281.88,-374.607C265.257,-368.476 244.507,-359.476 228,-348 217.626,-340.788 207.687,-331.08 199.571,-322.138"/>
<polygon fill="black" stroke="black" points="194.515,-316.406 202.008,-319.798 196.996,-319.218 199.477,-322.03 199.477,-322.03 199.477,-322.03 196.996,-319.218 196.945,-324.263 194.515,-316.406 194.515,-316.406"/>
<text text-anchor="middle" x="251.5" y="-338.5" font-family="FreeSans" font-size="10.00">navigates</text>
</g>
<!-- Paths -->
<g id="node20" class="node"><title>Paths</title>
<polygon fill="#c6e2ff" stroke="#c6e2ff" points="334,-262 304,-262 292,-250 292,-238 304,-226 334,-226 346,-238 346,-250 334,-262"/>
<path fill="#c6e2ff" stroke="#c6e2ff" d="M304,-262C298,-262 292,-256 292,-250"/>
<path fill="#c6e2ff" stroke="#c6e2ff" d="M292,-238C292,-232 298,-226 304,-226"/>
<path fill="#c6e2ff" stroke="#c6e2ff" d="M334,-226C340,-226 346,-232 346,-238"/>
<path fill="#c6e2ff" stroke="#c6e2ff" d="M346,-250C346,-256 340,-262 334,-262"/>
<polyline fill="none" stroke="black" points="334,-262 304,-262 "/>
<path fill="none" stroke="black" d="M304,-262C298,-262 292,-256 292,-250"/>
<polyline fill="none" stroke="black" points="292,-250 292,-238 "/>
<path fill="none" stroke="black" d="M292,-238C292,-232 298,-226 304,-226"/>
<polyline fill="none" stroke="black" points="304,-226 334,-226 "/>
<path fill="none" stroke="black" d="M334,-226C340,-226 346,-232 346,-238"/>
<polyline fill="none" stroke="black" points="346,-238 346,-250 "/>
<path fill="none" stroke="black" d="M346,-250C346,-256 340,-262 334,-262"/>
<text text-anchor="middle" x="319" y="-241.5" font-family="FreeSans" font-size="10.00">Paths</text>
</g>
<!-- Traversal&#45;&gt;Paths -->
<g id="edge24" class="edge"><title>Traversal&#45;&gt;Paths</title>
<path fill="none" stroke="black" d="M307.36,-365.759C306.391,-360.093 305.481,-353.809 305,-348 302.788,-321.275 307.748,-290.9 312.364,-269.908"/>
<polygon fill="black" stroke="black" points="314.101,-262.349 315.711,-270.414 313.261,-266.003 312.421,-269.658 312.421,-269.658 312.421,-269.658 313.261,-266.003 309.132,-268.903 314.101,-262.349 314.101,-262.349"/>
<text text-anchor="middle" x="326.5" y="-338.5" font-family="FreeSans" font-size="10.00">identifies</text>
</g>
<!-- Algorithm -->
<g id="node22" class="node"><title>Algorithm</title>
<polygon fill="#c6e2ff" stroke="#c6e2ff" points="407,-316 369,-316 357,-304 357,-292 369,-280 407,-280 419,-292 419,-304 407,-316"/>
<path fill="#c6e2ff" stroke="#c6e2ff" d="M369,-316C363,-316 357,-310 357,-304"/>
<path fill="#c6e2ff" stroke="#c6e2ff" d="M357,-292C357,-286 363,-280 369,-280"/>
<path fill="#c6e2ff" stroke="#c6e2ff" d="M407,-280C413,-280 419,-286 419,-292"/>
<path fill="#c6e2ff" stroke="#c6e2ff" d="M419,-304C419,-310 413,-316 407,-316"/>
<polyline fill="none" stroke="black" points="407,-316 369,-316 "/>
<path fill="none" stroke="black" d="M369,-316C363,-316 357,-310 357,-304"/>
<polyline fill="none" stroke="black" points="357,-304 357,-292 "/>
<path fill="none" stroke="black" d="M357,-292C357,-286 363,-280 369,-280"/>
<polyline fill="none" stroke="black" points="369,-280 407,-280 "/>
<path fill="none" stroke="black" d="M407,-280C413,-280 419,-286 419,-292"/>
<polyline fill="none" stroke="black" points="419,-292 419,-304 "/>
<path fill="none" stroke="black" d="M419,-304C419,-310 413,-316 407,-316"/>
<text text-anchor="middle" x="388" y="-295.5" font-family="FreeSans" font-size="10.00">Algorithm</text>
</g>
<!-- Traversal&#45;&gt;Algorithm -->
<g id="edge26" class="edge"><title>Traversal&#45;&gt;Algorithm</title>
<path fill="none" stroke="black" d="M335.916,-365.795C342.481,-360.432 349.313,-354.301 355,-348 361.928,-340.324 368.452,-331.068 373.841,-322.618"/>
<polygon fill="black" stroke="black" points="377.906,-316.06 376.824,-324.213 375.931,-319.247 373.955,-322.435 373.955,-322.435 373.955,-322.435 375.931,-319.247 371.086,-320.657 377.906,-316.06 377.906,-316.06"/>
<text text-anchor="middle" x="389.5" y="-338.5" font-family="FreeSans" font-size="10.00">expresses</text>
</g>
<!-- Paths&#45;&gt;Nodes -->
<g id="edge28" class="edge"><title>Paths&#45;&gt;Nodes</title>
<path fill="none" stroke="black" d="M321.069,-225.855C321.899,-210.263 320.74,-187.852 310,-172 280.987,-129.179 219.54,-113.278 180.648,-107.404"/>
<polygon fill="black" stroke="black" points="173.186,-106.358 181.082,-104.057 176.9,-106.879 180.614,-107.4 180.614,-107.4 180.614,-107.4 176.9,-106.879 180.145,-110.742 173.186,-106.358 173.186,-106.358"/>
<text text-anchor="middle" x="333" y="-187.5" font-family="FreeSans" font-size="10.00">order</text>
</g>
</g>
</svg>
