<?xml version="1.0" encoding="UTF-8" standalone="no"?>
<!DOCTYPE svg PUBLIC "-//W3C//DTD SVG 1.1//EN"
 "http://www.w3.org/Graphics/SVG/1.1/DTD/svg11.dtd">
<!-- Generated by graphviz version 2.26.3 (20100126.1600)
 -->
<!-- Title: g Pages: 1 -->
<svg width="229pt" height="140pt"
 viewBox="0.00 0.00 229.00 140.00" xmlns="http://www.w3.org/2000/svg" xmlns:xlink="http://www.w3.org/1999/xlink">
<g id="graph1" class="graph" transform="scale(1 1) rotate(0) translate(4 136)">
<title>g</title>
<polygon fill="white" stroke="white" points="-4,5 -4,-136 226,-136 226,5 -4,5"/>
<!-- N1 -->
<g id="node1" class="node"><title>N1</title>
<polygon fill="#fffff0" stroke="#fffff0" points="12,-95 128,-95 140,-107 140,-119 128,-131 12,-131 0,-119 0,-107 12,-95"/>
<path fill="#fffff0" stroke="#fffff0" d="M128,-95C134,-95 140,-101 140,-107"/>
<path fill="#fffff0" stroke="#fffff0" d="M140,-119C140,-125 134,-131 128,-131"/>
<path fill="#fffff0" stroke="#fffff0" d="M12,-131C6,-131 0,-125 0,-119"/>
<path fill="#fffff0" stroke="#fffff0" d="M0,-107C0,-101 6,-95 12,-95"/>
<polyline fill="none" stroke="black" points="12,-95 128,-95 "/>
<path fill="none" stroke="black" d="M128,-95C134,-95 140,-101 140,-107"/>
<polyline fill="none" stroke="black" points="140,-107 140,-119 "/>
<path fill="none" stroke="black" d="M140,-119C140,-125 134,-131 128,-131"/>
<polyline fill="none" stroke="black" points="128,-131 12,-131 "/>
<path fill="none" stroke="black" d="M12,-131C6,-131 0,-125 0,-119"/>
<polyline fill="none" stroke="black" points="0,-119 0,-107 "/>
<path fill="none" stroke="black" d="M0,-107C0,-101 6,-95 12,-95"/>
<text text-anchor="middle" x="70" y="-119.8" font-family="FreeSans" font-size="8.00">Node[1]</text>
<polyline fill="none" stroke="black" points="0,-113 140,-113 "/>
<text text-anchor="start" x="8" y="-101.8" font-family="FreeSans" font-size="8.00">&#39;message&#39; = &#39;Hello, &#39; : String</text>
</g>
<!-- N2 -->
<g id="node3" class="node"><title>N2</title>
<polygon fill="#fffff0" stroke="#fffff0" points="13.5,-1 126.5,-1 138.5,-13 138.5,-25 126.5,-37 13.5,-37 1.5,-25 1.5,-13 13.5,-1"/>
<path fill="#fffff0" stroke="#fffff0" d="M126.5,-1C132.5,-1 138.5,-7 138.5,-13"/>
<path fill="#fffff0" stroke="#fffff0" d="M138.5,-25C138.5,-31 132.5,-37 126.5,-37"/>
<path fill="#fffff0" stroke="#fffff0" d="M13.5,-37C7.5,-37 1.5,-31 1.5,-25"/>
<path fill="#fffff0" stroke="#fffff0" d="M1.5,-13C1.5,-7 7.5,-1 13.5,-1"/>
<polyline fill="none" stroke="black" points="13.5,-1 126.5,-1 "/>
<path fill="none" stroke="black" d="M126.5,-1C132.5,-1 138.5,-7 138.5,-13"/>
<polyline fill="none" stroke="black" points="138.5,-13 138.5,-25 "/>
<path fill="none" stroke="black" d="M138.5,-25C138.5,-31 132.5,-37 126.5,-37"/>
<polyline fill="none" stroke="black" points="126.5,-37 13.5,-37 "/>
<path fill="none" stroke="black" d="M13.5,-37C7.5,-37 1.5,-31 1.5,-25"/>
<polyline fill="none" stroke="black" points="1.5,-25 1.5,-13 "/>
<path fill="none" stroke="black" d="M1.5,-13C1.5,-7 7.5,-1 13.5,-1"/>
<text text-anchor="middle" x="70" y="-25.8" font-family="FreeSans" font-size="8.00">Node[2]</text>
<polyline fill="none" stroke="black" points="1.5,-19 138.5,-19 "/>
<text text-anchor="start" x="9.5" y="-7.8" font-family="FreeSans" font-size="8.00">&#39;message&#39; = &#39;World!&#39; : String</text>
</g>
<!-- N1&#45;&gt;N2 -->
<g id="edge2" class="edge"><title>N1&#45;&gt;N2</title>
<path fill="none" stroke="black" d="M70,-94.8759C70,-80.7014 70,-60.806 70,-44.944"/>
<polygon fill="black" stroke="black" points="70,-37.0685 73.3751,-44.5685 70,-40.8185 70.0001,-44.5685 70.0001,-44.5685 70.0001,-44.5685 70,-40.8185 66.6251,-44.5685 70,-37.0685 70,-37.0685"/>
<text text-anchor="middle" x="145.5" y="-68.8" font-family="FreeSans" font-size="8.00">KNOWS</text>
<text text-anchor="start" x="70" y="-58.8" font-family="FreeSans" font-size="8.00">&#39;message&#39; = &#39;brave Neo4j &#39; : String</text>
</g>
</g>
</svg>
