<?xml version="1.0" encoding="UTF-8" standalone="no"?>
<!DOCTYPE svg PUBLIC "-//W3C//DTD SVG 1.1//EN"
 "http://www.w3.org/Graphics/SVG/1.1/DTD/svg11.dtd">
<!-- Generated by graphviz version 2.26.3 (20100126.1600)
 -->
<!-- Title: g Pages: 1 -->
<svg width="290pt" height="326pt"
 viewBox="0.00 0.00 290.00 326.00" xmlns="http://www.w3.org/2000/svg" xmlns:xlink="http://www.w3.org/1999/xlink">
<g id="graph1" class="graph" transform="scale(1 1) rotate(0) translate(4 322)">
<title>g</title>
<polygon fill="white" stroke="white" points="-4,5 -4,-322 287,-322 287,5 -4,5"/>
<!-- root -->
<g id="node1" class="node"><title>root</title>
<polygon fill="#fffff0" stroke="#fffff0" points="90,-318 60,-318 48,-306 48,-294 60,-282 90,-282 102,-294 102,-306 90,-318"/>
<path fill="#fffff0" stroke="#fffff0" d="M60,-318C54,-318 48,-312 48,-306"/>
<path fill="#fffff0" stroke="#fffff0" d="M48,-294C48,-288 54,-282 60,-282"/>
<path fill="#fffff0" stroke="#fffff0" d="M90,-282C96,-282 102,-288 102,-294"/>
<path fill="#fffff0" stroke="#fffff0" d="M102,-306C102,-312 96,-318 90,-318"/>
<polyline fill="none" stroke="black" points="90,-318 60,-318 "/>
<path fill="none" stroke="black" d="M60,-318C54,-318 48,-312 48,-306"/>
<polyline fill="none" stroke="black" points="48,-306 48,-294 "/>
<path fill="none" stroke="black" d="M48,-294C48,-288 54,-282 60,-282"/>
<polyline fill="none" stroke="black" points="60,-282 90,-282 "/>
<path fill="none" stroke="black" d="M90,-282C96,-282 102,-288 102,-294"/>
<polyline fill="none" stroke="black" points="102,-294 102,-306 "/>
<path fill="none" stroke="black" d="M102,-306C102,-312 96,-318 90,-318"/>
<text text-anchor="middle" x="75" y="-297.5" font-family="FreeSans" font-size="10.00">root</text>
</g>
<!-- neo -->
<g id="node2" class="node"><title>neo</title>
<polygon fill="#fffff0" stroke="#fffff0" points="104,-232 46,-232 34,-220 34,-208 46,-196 104,-196 116,-208 116,-220 104,-232"/>
<path fill="#fffff0" stroke="#fffff0" d="M46,-232C40,-232 34,-226 34,-220"/>
<path fill="#fffff0" stroke="#fffff0" d="M34,-208C34,-202 40,-196 46,-196"/>
<path fill="#fffff0" stroke="#fffff0" d="M104,-196C110,-196 116,-202 116,-208"/>
<path fill="#fffff0" stroke="#fffff0" d="M116,-220C116,-226 110,-232 104,-232"/>
<polyline fill="none" stroke="black" points="104,-232 46,-232 "/>
<path fill="none" stroke="black" d="M46,-232C40,-232 34,-226 34,-220"/>
<polyline fill="none" stroke="black" points="34,-220 34,-208 "/>
<path fill="none" stroke="black" d="M34,-208C34,-202 40,-196 46,-196"/>
<polyline fill="none" stroke="black" points="46,-196 104,-196 "/>
<path fill="none" stroke="black" d="M104,-196C110,-196 116,-202 116,-208"/>
<polyline fill="none" stroke="black" points="116,-208 116,-220 "/>
<path fill="none" stroke="black" d="M116,-220C116,-226 110,-232 104,-232"/>
<text text-anchor="middle" x="75" y="-211.5" font-family="FreeSans" font-size="10.00">Mr Andersson</text>
</g>
<!-- root&#45;&gt;neo -->
<g id="edge2" class="edge"><title>root&#45;&gt;neo</title>
<path fill="none" stroke="black" d="M75,-281.762C75,-269.562 75,-253.327 75,-239.808"/>
<polygon fill="black" stroke="black" points="75,-232.212 78.3751,-239.712 75,-235.962 75.0001,-239.712 75.0001,-239.712 75.0001,-239.712 75,-235.962 71.6251,-239.712 75,-232.212 75,-232.212"/>
<text text-anchor="middle" x="88.5" y="-254.5" font-family="FreeSans" font-size="10.00">ROOT</text>
</g>
<!-- morpheus -->
<g id="node3" class="node"><title>morpheus</title>
<polygon fill="#fffff0" stroke="#fffff0" points="95,-134 55,-134 43,-122 43,-110 55,-98 95,-98 107,-110 107,-122 95,-134"/>
<path fill="#fffff0" stroke="#fffff0" d="M55,-134C49,-134 43,-128 43,-122"/>
<path fill="#fffff0" stroke="#fffff0" d="M43,-110C43,-104 49,-98 55,-98"/>
<path fill="#fffff0" stroke="#fffff0" d="M95,-98C101,-98 107,-104 107,-110"/>
<path fill="#fffff0" stroke="#fffff0" d="M107,-122C107,-128 101,-134 95,-134"/>
<polyline fill="none" stroke="black" points="95,-134 55,-134 "/>
<path fill="none" stroke="black" d="M55,-134C49,-134 43,-128 43,-122"/>
<polyline fill="none" stroke="black" points="43,-122 43,-110 "/>
<path fill="none" stroke="black" d="M43,-110C43,-104 49,-98 55,-98"/>
<polyline fill="none" stroke="black" points="55,-98 95,-98 "/>
<path fill="none" stroke="black" d="M95,-98C101,-98 107,-104 107,-110"/>
<polyline fill="none" stroke="black" points="107,-110 107,-122 "/>
<path fill="none" stroke="black" d="M107,-122C107,-128 101,-134 95,-134"/>
<text text-anchor="middle" x="75" y="-113.5" font-family="FreeSans" font-size="10.00">Morpheus</text>
</g>
<!-- neo&#45;&gt;morpheus -->
<g id="edge4" class="edge"><title>neo&#45;&gt;morpheus</title>
<path fill="none" stroke="black" d="M75,-195.567C75,-180.415 75,-158.77 75,-141.88"/>
<polygon fill="black" stroke="black" points="75,-134.019 78.3751,-141.519 75,-137.769 75.0001,-141.519 75.0001,-141.519 75.0001,-141.519 75,-137.769 71.6251,-141.519 75,-134.019 75,-134.019"/>
<text text-anchor="middle" x="93.5" y="-169" font-family="FreeSans" font-size="10.00">KNOWS</text>
<text text-anchor="middle" x="93.5" y="-156" font-family="FreeSans" font-size="10.00">age=3</text>
</g>
<!-- trinity -->
<g id="node4" class="node"><title>trinity</title>
<polygon fill="#fffff0" stroke="#fffff0" points="42,-36 12,-36 1.42109e-14,-24 7.10543e-15,-12 12,-1.46056e-14 42,-6.71068e-15 54,-12 54,-24 42,-36"/>
<path fill="#fffff0" stroke="#fffff0" d="M12,-36C6,-36 1.77636e-14,-30 1.42109e-14,-24"/>
<path fill="#fffff0" stroke="#fffff0" d="M7.10543e-15,-12C3.55271e-15,-6 6,-1.61846e-14 12,-1.46056e-14"/>
<path fill="#fffff0" stroke="#fffff0" d="M42,-6.71068e-15C48,-5.1317e-15 54,-6 54,-12"/>
<path fill="#fffff0" stroke="#fffff0" d="M54,-24C54,-30 48,-36 42,-36"/>
<polyline fill="none" stroke="black" points="42,-36 12,-36 "/>
<path fill="none" stroke="black" d="M12,-36C6,-36 1.77636e-14,-30 1.42109e-14,-24"/>
<polyline fill="none" stroke="black" points="1.42109e-14,-24 7.10543e-15,-12 "/>
<path fill="none" stroke="black" d="M7.10543e-15,-12C3.55271e-15,-6 6,-1.61846e-14 12,-1.46056e-14"/>
<polyline fill="none" stroke="black" points="12,-1.46056e-14 42,-6.71068e-15 "/>
<path fill="none" stroke="black" d="M42,-6.71068e-15C48,-5.1317e-15 54,-6 54,-12"/>
<polyline fill="none" stroke="black" points="54,-12 54,-24 "/>
<path fill="none" stroke="black" d="M54,-24C54,-30 48,-36 42,-36"/>
<text text-anchor="middle" x="27" y="-15.5" font-family="FreeSans" font-size="10.00">Trinity</text>
</g>
<!-- morpheus&#45;&gt;trinity -->
<g id="edge6" class="edge"><title>morpheus&#45;&gt;trinity</title>
<path fill="none" stroke="black" d="M42.9049,-99.7246C35.7264,-94.4639 29.0475,-87.9017 25,-80 19.3752,-69.019 19.1852,-55.4498 20.6922,-43.808"/>
<polygon fill="black" stroke="black" points="21.9608,-36.1117 24.071,-44.0607 21.3509,-39.8117 20.741,-43.5118 20.741,-43.5118 20.741,-43.5118 21.3509,-39.8117 17.4109,-42.9629 21.9608,-36.1117 21.9608,-36.1117"/>
<text text-anchor="middle" x="44.5" y="-71" font-family="FreeSans" font-size="10.00">KNOWS</text>
<text text-anchor="middle" x="44.5" y="-58" font-family="FreeSans" font-size="10.00">age=90</text>
</g>
<!-- cypher -->
<g id="node5" class="node"><title>cypher</title>
<polygon fill="#fffff0" stroke="#fffff0" points="143,-36 113,-36 101,-24 101,-12 113,-1.46056e-14 143,-6.71068e-15 155,-12 155,-24 143,-36"/>
<path fill="#fffff0" stroke="#fffff0" d="M113,-36C107,-36 101,-30 101,-24"/>
<path fill="#fffff0" stroke="#fffff0" d="M101,-12C101,-6 107,-1.61846e-14 113,-1.46056e-14"/>
<path fill="#fffff0" stroke="#fffff0" d="M143,-6.71068e-15C149,-5.1317e-15 155,-6 155,-12"/>
<path fill="#fffff0" stroke="#fffff0" d="M155,-24C155,-30 149,-36 143,-36"/>
<polyline fill="none" stroke="black" points="143,-36 113,-36 "/>
<path fill="none" stroke="black" d="M113,-36C107,-36 101,-30 101,-24"/>
<polyline fill="none" stroke="black" points="101,-24 101,-12 "/>
<path fill="none" stroke="black" d="M101,-12C101,-6 107,-1.61846e-14 113,-1.46056e-14"/>
<polyline fill="none" stroke="black" points="113,-1.46056e-14 143,-6.71068e-15 "/>
<path fill="none" stroke="black" d="M143,-6.71068e-15C149,-5.1317e-15 155,-6 155,-12"/>
<polyline fill="none" stroke="black" points="155,-12 155,-24 "/>
<path fill="none" stroke="black" d="M155,-24C155,-30 149,-36 143,-36"/>
<text text-anchor="middle" x="128" y="-15.5" font-family="FreeSans" font-size="10.00">Cypher</text>
</g>
<!-- morpheus&#45;&gt;cypher -->
<g id="edge8" class="edge"><title>morpheus&#45;&gt;cypher</title>
<path fill="none" stroke="black" d="M79.9255,-97.9137C83.8208,-85.147 89.9442,-67.9084 98,-54 100.355,-49.9344 103.174,-45.871 106.128,-42.0158"/>
<polygon fill="black" stroke="black" points="110.834,-36.1586 108.767,-44.1192 108.485,-39.082 106.136,-42.0054 106.136,-42.0054 106.136,-42.0054 108.485,-39.082 103.505,-39.8916 110.834,-36.1586 110.834,-36.1586"/>
<text text-anchor="middle" x="116.5" y="-64.5" font-family="FreeSans" font-size="10.00">KNOWS</text>
</g>
<!-- agent -->
<g id="node6" class="node"><title>agent</title>
<polygon fill="#fffff0" stroke="#fffff0" points="222,-134 170,-134 158,-122 158,-110 170,-98 222,-98 234,-110 234,-122 222,-134"/>
<path fill="#fffff0" stroke="#fffff0" d="M170,-134C164,-134 158,-128 158,-122"/>
<path fill="#fffff0" stroke="#fffff0" d="M158,-110C158,-104 164,-98 170,-98"/>
<path fill="#fffff0" stroke="#fffff0" d="M222,-98C228,-98 234,-104 234,-110"/>
<path fill="#fffff0" stroke="#fffff0" d="M234,-122C234,-128 228,-134 222,-134"/>
<polyline fill="none" stroke="black" points="222,-134 170,-134 "/>
<path fill="none" stroke="black" d="M170,-134C164,-134 158,-128 158,-122"/>
<polyline fill="none" stroke="black" points="158,-122 158,-110 "/>
<path fill="none" stroke="black" d="M158,-110C158,-104 164,-98 170,-98"/>
<polyline fill="none" stroke="black" points="170,-98 222,-98 "/>
<path fill="none" stroke="black" d="M222,-98C228,-98 234,-104 234,-110"/>
<polyline fill="none" stroke="black" points="234,-110 234,-122 "/>
<path fill="none" stroke="black" d="M234,-122C234,-128 228,-134 222,-134"/>
<text text-anchor="middle" x="196" y="-113.5" font-family="FreeSans" font-size="10.00">Agent Smith</text>
</g>
<!-- agent&#45;&gt;cypher -->
<g id="edge10" class="edge"><title>agent&#45;&gt;cypher</title>
<path fill="none" stroke="black" d="M177.557,-91.8168C174.654,-87.8949 171.717,-83.8556 169,-80 158.742,-65.4432 147.629,-48.564 139.564,-36.0962"/>
<polygon fill="black" stroke="black" points="182.052,-97.84 174.862,-93.8484 179.809,-94.8348 177.566,-91.8296 177.566,-91.8296 177.566,-91.8296 179.809,-94.8348 180.271,-89.8108 182.052,-97.84 182.052,-97.84"/>
<text text-anchor="middle" x="187.5" y="-64.5" font-family="FreeSans" font-size="10.00">KNOWS</text>
</g>
<!-- architect -->
<g id="node7" class="node"><title>architect</title>
<polygon fill="#fffff0" stroke="#fffff0" points="270,-36 214,-36 202,-24 202,-12 214,-1.56319e-14 270,-5.68434e-15 282,-12 282,-24 270,-36"/>
<path fill="#fffff0" stroke="#fffff0" d="M214,-36C208,-36 202,-30 202,-24"/>
<path fill="#fffff0" stroke="#fffff0" d="M202,-12C202,-6 208,-1.66978e-14 214,-1.56319e-14"/>
<path fill="#fffff0" stroke="#fffff0" d="M270,-5.68434e-15C276,-4.61853e-15 282,-6 282,-12"/>
<path fill="#fffff0" stroke="#fffff0" d="M282,-24C282,-30 276,-36 270,-36"/>
<polyline fill="none" stroke="black" points="270,-36 214,-36 "/>
<path fill="none" stroke="black" d="M214,-36C208,-36 202,-30 202,-24"/>
<polyline fill="none" stroke="black" points="202,-24 202,-12 "/>
<path fill="none" stroke="black" d="M202,-12C202,-6 208,-1.66978e-14 214,-1.56319e-14"/>
<polyline fill="none" stroke="black" points="214,-1.56319e-14 270,-5.68434e-15 "/>
<path fill="none" stroke="black" d="M270,-5.68434e-15C276,-4.61853e-15 282,-6 282,-12"/>
<polyline fill="none" stroke="black" points="282,-12 282,-24 "/>
<path fill="none" stroke="black" d="M282,-24C282,-30 276,-36 270,-36"/>
<text text-anchor="middle" x="242" y="-15.5" font-family="FreeSans" font-size="10.00">The Architect</text>
</g>
<!-- agent&#45;&gt;architect -->
<g id="edge12" class="edge"><title>agent&#45;&gt;architect</title>
<path fill="none" stroke="black" d="M204.652,-97.5669C211.894,-82.1392 222.295,-59.9803 230.283,-42.963"/>
<polygon fill="black" stroke="black" points="233.542,-36.0193 233.41,-44.2427 231.949,-39.4139 230.355,-42.8086 230.355,-42.8086 230.355,-42.8086 231.949,-39.4139 227.3,-41.3745 233.542,-36.0193 233.542,-36.0193"/>
<text text-anchor="middle" x="250" y="-64.5" font-family="FreeSans" font-size="10.00">CODED_BY</text>
</g>
</g>
</svg>
