<?xml version="1.0" encoding="UTF-8" standalone="no"?>
<!DOCTYPE svg PUBLIC "-//W3C//DTD SVG 1.1//EN"
 "http://www.w3.org/Graphics/SVG/1.1/DTD/svg11.dtd">
<!-- Generated by graphviz version 2.26.3 (20100126.1600)
 -->
<!-- Title: g Pages: 1 -->
<svg width="124pt" height="130pt"
 viewBox="0.00 0.00 124.00 130.00" xmlns="http://www.w3.org/2000/svg" xmlns:xlink="http://www.w3.org/1999/xlink">
<g id="graph1" class="graph" transform="scale(1 1) rotate(0) translate(4 126)">
<title>g</title>
<polygon fill="white" stroke="white" points="-4,5 -4,-126 121,-126 121,5 -4,5"/>
<!-- N91 -->
<g id="node1" class="node"><title>N91</title>
<polygon fill="#fffff0" stroke="#fffff0" points="11.5,-1 104.5,-1 116.5,-13 116.5,-25 104.5,-37 11.5,-37 -0.5,-25 -0.5,-13 11.5,-1"/>
<path fill="#fffff0" stroke="#fffff0" d="M104.5,-1C110.5,-1 116.5,-7 116.5,-13"/>
<path fill="#fffff0" stroke="#fffff0" d="M116.5,-25C116.5,-31 110.5,-37 104.5,-37"/>
<path fill="#fffff0" stroke="#fffff0" d="M11.5,-37C5.5,-37 -0.5,-31 -0.5,-25"/>
<path fill="#fffff0" stroke="#fffff0" d="M-0.5,-13C-0.5,-7 5.5,-1 11.5,-1"/>
<polyline fill="none" stroke="black" points="11.5,-1 104.5,-1 "/>
<path fill="none" stroke="black" d="M104.5,-1C110.5,-1 116.5,-7 116.5,-13"/>
<polyline fill="none" stroke="black" points="116.5,-13 116.5,-25 "/>
<path fill="none" stroke="black" d="M116.5,-25C116.5,-31 110.5,-37 104.5,-37"/>
<polyline fill="none" stroke="black" points="104.5,-37 11.5,-37 "/>
<path fill="none" stroke="black" d="M11.5,-37C5.5,-37 -0.5,-31 -0.5,-25"/>
<polyline fill="none" stroke="black" points="-0.5,-25 -0.5,-13 "/>
<path fill="none" stroke="black" d="M-0.5,-13C-0.5,-7 5.5,-1 11.5,-1"/>
<text text-anchor="middle" x="58" y="-25.8" font-family="FreeSans" font-size="8.00">Node[91]</text>
<polyline fill="none" stroke="black" points="-0.5,-19 116.5,-19 "/>
<text text-anchor="start" x="7.5" y="-7.8" font-family="FreeSans" font-size="8.00">&#39;name&#39; = &#39;Sara&#39; : String</text>
</g>
<!-- N92 -->
<g id="node2" class="node"><title>N92</title>
<polygon fill="#fffff0" stroke="#fffff0" points="15,-85 101,-85 113,-97 113,-109 101,-121 15,-121 3,-109 3,-97 15,-85"/>
<path fill="#fffff0" stroke="#fffff0" d="M101,-85C107,-85 113,-91 113,-97"/>
<path fill="#fffff0" stroke="#fffff0" d="M113,-109C113,-115 107,-121 101,-121"/>
<path fill="#fffff0" stroke="#fffff0" d="M15,-121C9,-121 3,-115 3,-109"/>
<path fill="#fffff0" stroke="#fffff0" d="M3,-97C3,-91 9,-85 15,-85"/>
<polyline fill="none" stroke="black" points="15,-85 101,-85 "/>
<path fill="none" stroke="black" d="M101,-85C107,-85 113,-91 113,-97"/>
<polyline fill="none" stroke="black" points="113,-97 113,-109 "/>
<path fill="none" stroke="black" d="M113,-109C113,-115 107,-121 101,-121"/>
<polyline fill="none" stroke="black" points="101,-121 15,-121 "/>
<path fill="none" stroke="black" d="M15,-121C9,-121 3,-115 3,-109"/>
<polyline fill="none" stroke="black" points="3,-109 3,-97 "/>
<path fill="none" stroke="black" d="M3,-97C3,-91 9,-85 15,-85"/>
<text text-anchor="middle" x="58" y="-109.8" font-family="FreeSans" font-size="8.00">Node[92]</text>
<polyline fill="none" stroke="black" points="3,-103 113,-103 "/>
<text text-anchor="start" x="11" y="-91.8" font-family="FreeSans" font-size="8.00">&#39;name&#39; = &#39;Joe&#39; : String</text>
</g>
<!-- N92&#45;&gt;N91 -->
<g id="edge2" class="edge"><title>N92&#45;&gt;N91</title>
<path fill="none" stroke="black" d="M58,-84.7733C58,-73.1053 58,-57.7874 58,-44.8699"/>
<polygon fill="black" stroke="black" points="58,-37.1912 61.3751,-44.6911 58,-40.9412 58.0001,-44.6912 58.0001,-44.6912 58.0001,-44.6912 58,-40.9412 54.6251,-44.6912 58,-37.1912 58,-37.1912"/>
<text text-anchor="middle" x="72" y="-58.8" font-family="FreeSans" font-size="8.00">knows</text>
</g>
</g>
</svg>
