<?xml version="1.0" encoding="UTF-8" standalone="no"?>
<!DOCTYPE svg PUBLIC "-//W3C//DTD SVG 1.1//EN"
 "http://www.w3.org/Graphics/SVG/1.1/DTD/svg11.dtd">
<!-- Generated by graphviz version 2.26.3 (20100126.1600)
 -->
<!-- Title: g Pages: 1 -->
<svg width="372pt" height="234pt"
 viewBox="0.00 0.00 372.00 234.00" xmlns="http://www.w3.org/2000/svg" xmlns:xlink="http://www.w3.org/1999/xlink">
<g id="graph1" class="graph" transform="scale(1 1) rotate(0) translate(4 230)">
<title>g</title>
<polygon fill="white" stroke="white" points="-4,5 -4,-230 369,-230 369,5 -4,5"/>
<!-- N66 -->
<g id="node1" class="node"><title>N66</title>
<polygon fill="#fffff0" stroke="#fffff0" points="131,-189 233,-189 245,-201 245,-213 233,-225 131,-225 119,-213 119,-201 131,-189"/>
<path fill="#fffff0" stroke="#fffff0" d="M233,-189C239,-189 245,-195 245,-201"/>
<path fill="#fffff0" stroke="#fffff0" d="M245,-213C245,-219 239,-225 233,-225"/>
<path fill="#fffff0" stroke="#fffff0" d="M131,-225C125,-225 119,-219 119,-213"/>
<path fill="#fffff0" stroke="#fffff0" d="M119,-201C119,-195 125,-189 131,-189"/>
<polyline fill="none" stroke="black" points="131,-189 233,-189 "/>
<path fill="none" stroke="black" d="M233,-189C239,-189 245,-195 245,-201"/>
<polyline fill="none" stroke="black" points="245,-201 245,-213 "/>
<path fill="none" stroke="black" d="M245,-213C245,-219 239,-225 233,-225"/>
<polyline fill="none" stroke="black" points="233,-225 131,-225 "/>
<path fill="none" stroke="black" d="M131,-225C125,-225 119,-219 119,-213"/>
<polyline fill="none" stroke="black" points="119,-213 119,-201 "/>
<path fill="none" stroke="black" d="M119,-201C119,-195 125,-189 131,-189"/>
<text text-anchor="middle" x="182" y="-213.8" font-family="FreeSans" font-size="8.00">Node[66]</text>
<polyline fill="none" stroke="black" points="119,-207 245,-207 "/>
<text text-anchor="start" x="127" y="-195.8" font-family="FreeSans" font-size="8.00">&#39;name&#39; = &#39;source&#39; : String</text>
</g>
<!-- N68 -->
<g id="node3" class="node"><title>N68</title>
<polygon fill="#fffff0" stroke="#fffff0" points="11.5,-95 112.5,-95 124.5,-107 124.5,-119 112.5,-131 11.5,-131 -0.5,-119 -0.5,-107 11.5,-95"/>
<path fill="#fffff0" stroke="#fffff0" d="M112.5,-95C118.5,-95 124.5,-101 124.5,-107"/>
<path fill="#fffff0" stroke="#fffff0" d="M124.5,-119C124.5,-125 118.5,-131 112.5,-131"/>
<path fill="#fffff0" stroke="#fffff0" d="M11.5,-131C5.5,-131 -0.5,-125 -0.5,-119"/>
<path fill="#fffff0" stroke="#fffff0" d="M-0.5,-107C-0.5,-101 5.5,-95 11.5,-95"/>
<polyline fill="none" stroke="black" points="11.5,-95 112.5,-95 "/>
<path fill="none" stroke="black" d="M112.5,-95C118.5,-95 124.5,-101 124.5,-107"/>
<polyline fill="none" stroke="black" points="124.5,-107 124.5,-119 "/>
<path fill="none" stroke="black" d="M124.5,-119C124.5,-125 118.5,-131 112.5,-131"/>
<polyline fill="none" stroke="black" points="112.5,-131 11.5,-131 "/>
<path fill="none" stroke="black" d="M11.5,-131C5.5,-131 -0.5,-125 -0.5,-119"/>
<polyline fill="none" stroke="black" points="-0.5,-119 -0.5,-107 "/>
<path fill="none" stroke="black" d="M-0.5,-107C-0.5,-101 5.5,-95 11.5,-95"/>
<text text-anchor="middle" x="62" y="-119.8" font-family="FreeSans" font-size="8.00">Node[68]</text>
<polyline fill="none" stroke="black" points="-0.5,-113 124.5,-113 "/>
<text text-anchor="start" x="7.5" y="-101.8" font-family="FreeSans" font-size="8.00">&#39;name&#39; = &#39;middle&#39; : String</text>
</g>
<!-- N66&#45;&gt;N68 -->
<g id="edge2" class="edge"><title>N66&#45;&gt;N68</title>
<path fill="none" stroke="black" d="M118.823,-190.769C99.5018,-184.635 81.5944,-177.353 75,-170 67.4202,-161.548 63.9823,-149.601 62.5138,-138.825"/>
<polygon fill="black" stroke="black" points="61.7616,-131.253 65.8616,-138.383 62.1323,-134.985 62.5031,-138.717 62.5031,-138.717 62.5031,-138.717 62.1323,-134.985 59.1446,-139.05 61.7616,-131.253 61.7616,-131.253"/>
<text text-anchor="middle" x="117.5" y="-162.8" font-family="FreeSans" font-size="8.00">CONNECTED</text>
<text text-anchor="start" x="75" y="-152.8" font-family="FreeSans" font-size="8.00">&#39;capacity&#39; = 1 : long</text>
</g>
<!-- N67 -->
<g id="node5" class="node"><title>N67</title>
<polygon fill="#fffff0" stroke="#fffff0" points="137,-1 227,-1 239,-13 239,-25 227,-37 137,-37 125,-25 125,-13 137,-1"/>
<path fill="#fffff0" stroke="#fffff0" d="M227,-1C233,-1 239,-7 239,-13"/>
<path fill="#fffff0" stroke="#fffff0" d="M239,-25C239,-31 233,-37 227,-37"/>
<path fill="#fffff0" stroke="#fffff0" d="M137,-37C131,-37 125,-31 125,-25"/>
<path fill="#fffff0" stroke="#fffff0" d="M125,-13C125,-7 131,-1 137,-1"/>
<polyline fill="none" stroke="black" points="137,-1 227,-1 "/>
<path fill="none" stroke="black" d="M227,-1C233,-1 239,-7 239,-13"/>
<polyline fill="none" stroke="black" points="239,-13 239,-25 "/>
<path fill="none" stroke="black" d="M239,-25C239,-31 233,-37 227,-37"/>
<polyline fill="none" stroke="black" points="227,-37 137,-37 "/>
<path fill="none" stroke="black" d="M137,-37C131,-37 125,-31 125,-25"/>
<polyline fill="none" stroke="black" points="125,-25 125,-13 "/>
<path fill="none" stroke="black" d="M125,-13C125,-7 131,-1 137,-1"/>
<text text-anchor="middle" x="182" y="-25.8" font-family="FreeSans" font-size="8.00">Node[67]</text>
<polyline fill="none" stroke="black" points="125,-19 239,-19 "/>
<text text-anchor="start" x="133" y="-7.8" font-family="FreeSans" font-size="8.00">&#39;name&#39; = &#39;sink&#39; : String</text>
</g>
<!-- N66&#45;&gt;N67 -->
<g id="edge4" class="edge"><title>N66&#45;&gt;N67</title>
<path fill="none" stroke="black" d="M182,-188.974C182,-155.511 182,-83.6834 182,-44.9786"/>
<polygon fill="black" stroke="black" points="182,-37.2479 185.375,-44.7478 182,-40.9979 182,-44.7479 182,-44.7479 182,-44.7479 182,-40.9979 178.625,-44.7479 182,-37.2479 182,-37.2479"/>
<text text-anchor="middle" x="224.5" y="-115.8" font-family="FreeSans" font-size="8.00">CONNECTED</text>
<text text-anchor="start" x="182" y="-105.8" font-family="FreeSans" font-size="8.00">&#39;capacity&#39; = 1 : long</text>
</g>
<!-- N66&#45;&gt;N67 -->
<g id="edge6" class="edge"><title>N66&#45;&gt;N67</title>
<path fill="none" stroke="black" d="M217.163,-188.842C237.869,-176.033 262.241,-156.757 274,-132 281.246,-116.744 281.246,-109.256 274,-94 263.436,-71.7575 242.689,-53.9388 223.568,-41.2601"/>
<polygon fill="black" stroke="black" points="217.163,-37.1585 225.299,-38.3608 220.321,-39.1807 223.479,-41.203 223.479,-41.203 223.479,-41.203 220.321,-39.1807 221.659,-44.0452 217.163,-37.1585 217.163,-37.1585"/>
<text text-anchor="middle" x="321.5" y="-115.8" font-family="FreeSans" font-size="8.00">CONNECTED</text>
<text text-anchor="start" x="279" y="-105.8" font-family="FreeSans" font-size="8.00">&#39;capacity&#39; = 2 : long</text>
</g>
<!-- N68&#45;&gt;N67 -->
<g id="edge8" class="edge"><title>N68&#45;&gt;N67</title>
<path fill="none" stroke="black" d="M61.7616,-94.7465C62.5573,-82.4051 65.5804,-66.5033 75,-56 81.4299,-48.8304 98.6151,-41.7282 117.38,-35.6924"/>
<polygon fill="black" stroke="black" points="124.914,-33.3475 118.756,-38.7988 121.334,-34.4619 117.753,-35.5763 117.753,-35.5763 117.753,-35.5763 121.334,-34.4619 116.75,-32.3537 124.914,-33.3475 124.914,-33.3475"/>
<text text-anchor="middle" x="117.5" y="-68.8" font-family="FreeSans" font-size="8.00">CONNECTED</text>
<text text-anchor="start" x="75" y="-58.8" font-family="FreeSans" font-size="8.00">&#39;capacity&#39; = 3 : long</text>
</g>
</g>
</svg>
