<?xml version="1.0" encoding="UTF-8" standalone="no"?>
<!DOCTYPE svg PUBLIC "-//W3C//DTD SVG 1.1//EN"
 "http://www.w3.org/Graphics/SVG/1.1/DTD/svg11.dtd">
<!-- Generated by graphviz version 2.26.3 (20100126.1600)
 -->
<!-- Title: g Pages: 1 -->
<svg width="257pt" height="410pt"
 viewBox="0.00 0.00 257.00 410.00" xmlns="http://www.w3.org/2000/svg" xmlns:xlink="http://www.w3.org/1999/xlink">
<g id="graph1" class="graph" transform="scale(1 1) rotate(0) translate(4 406)">
<title>g</title>
<polygon fill="white" stroke="white" points="-4,5 -4,-406 254,-406 254,5 -4,5"/>
<!-- N1 -->
<g id="node1" class="node"><title>N1</title>
<polygon fill="#fffff0" stroke="#fffff0" points="114,-281 206,-281 218,-293 218,-305 206,-317 114,-317 102,-305 102,-293 114,-281"/>
<path fill="#fffff0" stroke="#fffff0" d="M206,-281C212,-281 218,-287 218,-293"/>
<path fill="#fffff0" stroke="#fffff0" d="M218,-305C218,-311 212,-317 206,-317"/>
<path fill="#fffff0" stroke="#fffff0" d="M114,-317C108,-317 102,-311 102,-305"/>
<path fill="#fffff0" stroke="#fffff0" d="M102,-293C102,-287 108,-281 114,-281"/>
<polyline fill="none" stroke="black" points="114,-281 206,-281 "/>
<path fill="none" stroke="black" d="M206,-281C212,-281 218,-287 218,-293"/>
<polyline fill="none" stroke="black" points="218,-293 218,-305 "/>
<path fill="none" stroke="black" d="M218,-305C218,-311 212,-317 206,-317"/>
<polyline fill="none" stroke="black" points="206,-317 114,-317 "/>
<path fill="none" stroke="black" d="M114,-317C108,-317 102,-311 102,-305"/>
<polyline fill="none" stroke="black" points="102,-305 102,-293 "/>
<path fill="none" stroke="black" d="M102,-293C102,-287 108,-281 114,-281"/>
<text text-anchor="middle" x="160" y="-305.8" font-family="FreeSans" font-size="8.00">Node[1]</text>
<polyline fill="none" stroke="black" points="102,-299 218,-299 "/>
<text text-anchor="start" x="110" y="-287.8" font-family="FreeSans" font-size="8.00">&#39;name&#39; = &#39;Lars&#39; : String</text>
</g>
<!-- N6 -->
<g id="node3" class="node"><title>N6</title>
<polygon fill="#fffff0" stroke="#fffff0" points="115.5,-169 204.5,-169 216.5,-181 216.5,-193 204.5,-205 115.5,-205 103.5,-193 103.5,-181 115.5,-169"/>
<path fill="#fffff0" stroke="#fffff0" d="M204.5,-169C210.5,-169 216.5,-175 216.5,-181"/>
<path fill="#fffff0" stroke="#fffff0" d="M216.5,-193C216.5,-199 210.5,-205 204.5,-205"/>
<path fill="#fffff0" stroke="#fffff0" d="M115.5,-205C109.5,-205 103.5,-199 103.5,-193"/>
<path fill="#fffff0" stroke="#fffff0" d="M103.5,-181C103.5,-175 109.5,-169 115.5,-169"/>
<polyline fill="none" stroke="black" points="115.5,-169 204.5,-169 "/>
<path fill="none" stroke="black" d="M204.5,-169C210.5,-169 216.5,-175 216.5,-181"/>
<polyline fill="none" stroke="black" points="216.5,-181 216.5,-193 "/>
<path fill="none" stroke="black" d="M216.5,-193C216.5,-199 210.5,-205 204.5,-205"/>
<polyline fill="none" stroke="black" points="204.5,-205 115.5,-205 "/>
<path fill="none" stroke="black" d="M115.5,-205C109.5,-205 103.5,-199 103.5,-193"/>
<polyline fill="none" stroke="black" points="103.5,-193 103.5,-181 "/>
<path fill="none" stroke="black" d="M103.5,-181C103.5,-175 109.5,-169 115.5,-169"/>
<text text-anchor="middle" x="160" y="-193.8" font-family="FreeSans" font-size="8.00">Node[6]</text>
<polyline fill="none" stroke="black" points="103.5,-187 216.5,-187 "/>
<text text-anchor="start" x="111.5" y="-175.8" font-family="FreeSans" font-size="8.00">&#39;name&#39; = &#39;Dirk&#39; : String</text>
</g>
<!-- N1&#45;&gt;N6 -->
<g id="edge2" class="edge"><title>N1&#45;&gt;N6</title>
<path fill="none" stroke="black" d="M160,-280.505C160,-261.994 160,-233.364 160,-212.66"/>
<polygon fill="black" stroke="black" points="160,-205.15 163.375,-212.65 160,-208.9 160,-212.65 160,-212.65 160,-212.65 160,-208.9 156.625,-212.65 160,-205.15 160,-205.15"/>
<text text-anchor="middle" x="175.5" y="-240.8" font-family="FreeSans" font-size="8.00">KNOWS</text>
</g>
<!-- N5 -->
<g id="node11" class="node"><title>N5</title>
<polygon fill="#fffff0" stroke="#fffff0" points="112.5,-85 207.5,-85 219.5,-97 219.5,-109 207.5,-121 112.5,-121 100.5,-109 100.5,-97 112.5,-85"/>
<path fill="#fffff0" stroke="#fffff0" d="M207.5,-85C213.5,-85 219.5,-91 219.5,-97"/>
<path fill="#fffff0" stroke="#fffff0" d="M219.5,-109C219.5,-115 213.5,-121 207.5,-121"/>
<path fill="#fffff0" stroke="#fffff0" d="M112.5,-121C106.5,-121 100.5,-115 100.5,-109"/>
<path fill="#fffff0" stroke="#fffff0" d="M100.5,-97C100.5,-91 106.5,-85 112.5,-85"/>
<polyline fill="none" stroke="black" points="112.5,-85 207.5,-85 "/>
<path fill="none" stroke="black" d="M207.5,-85C213.5,-85 219.5,-91 219.5,-97"/>
<polyline fill="none" stroke="black" points="219.5,-97 219.5,-109 "/>
<path fill="none" stroke="black" d="M219.5,-109C219.5,-115 213.5,-121 207.5,-121"/>
<polyline fill="none" stroke="black" points="207.5,-121 112.5,-121 "/>
<path fill="none" stroke="black" d="M112.5,-121C106.5,-121 100.5,-115 100.5,-109"/>
<polyline fill="none" stroke="black" points="100.5,-109 100.5,-97 "/>
<path fill="none" stroke="black" d="M100.5,-97C100.5,-91 106.5,-85 112.5,-85"/>
<text text-anchor="middle" x="160" y="-109.8" font-family="FreeSans" font-size="8.00">Node[5]</text>
<polyline fill="none" stroke="black" points="100.5,-103 219.5,-103 "/>
<text text-anchor="start" x="108.5" y="-91.8" font-family="FreeSans" font-size="8.00">&#39;name&#39; = &#39;Peter&#39; : String</text>
</g>
<!-- N6&#45;&gt;N5 -->
<g id="edge12" class="edge"><title>N6&#45;&gt;N5</title>
<path fill="none" stroke="black" d="M160,-168.773C160,-157.105 160,-141.787 160,-128.87"/>
<polygon fill="black" stroke="black" points="160,-121.191 163.375,-128.691 160,-124.941 160,-128.691 160,-128.691 160,-128.691 160,-124.941 156.625,-128.691 160,-121.191 160,-121.191"/>
<text text-anchor="middle" x="175.5" y="-142.8" font-family="FreeSans" font-size="8.00">KNOWS</text>
</g>
<!-- N2 -->
<g id="node4" class="node"><title>N2</title>
<polygon fill="#fffff0" stroke="#fffff0" points="48.5,-1 141.5,-1 153.5,-13 153.5,-25 141.5,-37 48.5,-37 36.5,-25 36.5,-13 48.5,-1"/>
<path fill="#fffff0" stroke="#fffff0" d="M141.5,-1C147.5,-1 153.5,-7 153.5,-13"/>
<path fill="#fffff0" stroke="#fffff0" d="M153.5,-25C153.5,-31 147.5,-37 141.5,-37"/>
<path fill="#fffff0" stroke="#fffff0" d="M48.5,-37C42.5,-37 36.5,-31 36.5,-25"/>
<path fill="#fffff0" stroke="#fffff0" d="M36.5,-13C36.5,-7 42.5,-1 48.5,-1"/>
<polyline fill="none" stroke="black" points="48.5,-1 141.5,-1 "/>
<path fill="none" stroke="black" d="M141.5,-1C147.5,-1 153.5,-7 153.5,-13"/>
<polyline fill="none" stroke="black" points="153.5,-13 153.5,-25 "/>
<path fill="none" stroke="black" d="M153.5,-25C153.5,-31 147.5,-37 141.5,-37"/>
<polyline fill="none" stroke="black" points="141.5,-37 48.5,-37 "/>
<path fill="none" stroke="black" d="M48.5,-37C42.5,-37 36.5,-31 36.5,-25"/>
<polyline fill="none" stroke="black" points="36.5,-25 36.5,-13 "/>
<path fill="none" stroke="black" d="M36.5,-13C36.5,-7 42.5,-1 48.5,-1"/>
<text text-anchor="middle" x="95" y="-25.8" font-family="FreeSans" font-size="8.00">Node[2]</text>
<polyline fill="none" stroke="black" points="36.5,-19 153.5,-19 "/>
<text text-anchor="start" x="44.5" y="-7.8" font-family="FreeSans" font-size="8.00">&#39;name&#39; = &#39;Sara&#39; : String</text>
</g>
<!-- N3 -->
<g id="node5" class="node"><title>N3</title>
<polygon fill="#fffff0" stroke="#fffff0" points="154.5,-365 237.5,-365 249.5,-377 249.5,-389 237.5,-401 154.5,-401 142.5,-389 142.5,-377 154.5,-365"/>
<path fill="#fffff0" stroke="#fffff0" d="M237.5,-365C243.5,-365 249.5,-371 249.5,-377"/>
<path fill="#fffff0" stroke="#fffff0" d="M249.5,-389C249.5,-395 243.5,-401 237.5,-401"/>
<path fill="#fffff0" stroke="#fffff0" d="M154.5,-401C148.5,-401 142.5,-395 142.5,-389"/>
<path fill="#fffff0" stroke="#fffff0" d="M142.5,-377C142.5,-371 148.5,-365 154.5,-365"/>
<polyline fill="none" stroke="black" points="154.5,-365 237.5,-365 "/>
<path fill="none" stroke="black" d="M237.5,-365C243.5,-365 249.5,-371 249.5,-377"/>
<polyline fill="none" stroke="black" points="249.5,-377 249.5,-389 "/>
<path fill="none" stroke="black" d="M249.5,-389C249.5,-395 243.5,-401 237.5,-401"/>
<polyline fill="none" stroke="black" points="237.5,-401 154.5,-401 "/>
<path fill="none" stroke="black" d="M154.5,-401C148.5,-401 142.5,-395 142.5,-389"/>
<polyline fill="none" stroke="black" points="142.5,-389 142.5,-377 "/>
<path fill="none" stroke="black" d="M142.5,-377C142.5,-371 148.5,-365 154.5,-365"/>
<text text-anchor="middle" x="196" y="-389.8" font-family="FreeSans" font-size="8.00">Node[3]</text>
<polyline fill="none" stroke="black" points="142.5,-383 249.5,-383 "/>
<text text-anchor="start" x="150.5" y="-371.8" font-family="FreeSans" font-size="8.00">&#39;name&#39; = &#39;Ed&#39; : String</text>
</g>
<!-- N3&#45;&gt;N1 -->
<g id="edge4" class="edge"><title>N3&#45;&gt;N1</title>
<path fill="none" stroke="black" d="M188.189,-364.773C183.094,-352.885 176.375,-337.208 170.775,-324.141"/>
<polygon fill="black" stroke="black" points="167.796,-317.191 173.853,-322.755 169.273,-320.638 170.751,-324.085 170.751,-324.085 170.751,-324.085 169.273,-320.638 167.649,-325.414 167.796,-317.191 167.796,-317.191"/>
<text text-anchor="middle" x="194.5" y="-338.8" font-family="FreeSans" font-size="8.00">KNOWS</text>
</g>
<!-- N4 -->
<g id="node7" class="node"><title>N4</title>
<polygon fill="#fffff0" stroke="#fffff0" points="12,-365 102,-365 114,-377 114,-389 102,-401 12,-401 0,-389 0,-377 12,-365"/>
<path fill="#fffff0" stroke="#fffff0" d="M102,-365C108,-365 114,-371 114,-377"/>
<path fill="#fffff0" stroke="#fffff0" d="M114,-389C114,-395 108,-401 102,-401"/>
<path fill="#fffff0" stroke="#fffff0" d="M12,-401C6,-401 0,-395 0,-389"/>
<path fill="#fffff0" stroke="#fffff0" d="M0,-377C0,-371 6,-365 12,-365"/>
<polyline fill="none" stroke="black" points="12,-365 102,-365 "/>
<path fill="none" stroke="black" d="M102,-365C108,-365 114,-371 114,-377"/>
<polyline fill="none" stroke="black" points="114,-377 114,-389 "/>
<path fill="none" stroke="black" d="M114,-389C114,-395 108,-401 102,-401"/>
<polyline fill="none" stroke="black" points="102,-401 12,-401 "/>
<path fill="none" stroke="black" d="M12,-401C6,-401 0,-395 0,-389"/>
<polyline fill="none" stroke="black" points="0,-389 0,-377 "/>
<path fill="none" stroke="black" d="M0,-377C0,-371 6,-365 12,-365"/>
<text text-anchor="middle" x="57" y="-389.8" font-family="FreeSans" font-size="8.00">Node[4]</text>
<polyline fill="none" stroke="black" points="0,-383 114,-383 "/>
<text text-anchor="start" x="8" y="-371.8" font-family="FreeSans" font-size="8.00">&#39;name&#39; = &#39;Lisa&#39; : String</text>
</g>
<!-- N4&#45;&gt;N1 -->
<g id="edge8" class="edge"><title>N4&#45;&gt;N1</title>
<path fill="none" stroke="black" d="M79.0961,-364.98C94.4686,-352.443 115.098,-335.619 131.677,-322.098"/>
<polygon fill="black" stroke="black" points="137.585,-317.28 133.906,-324.636 134.679,-319.65 131.773,-322.02 131.773,-322.02 131.773,-322.02 134.679,-319.65 129.64,-319.405 137.585,-317.28 137.585,-317.28"/>
<text text-anchor="middle" x="126.5" y="-338.8" font-family="FreeSans" font-size="8.00">KNOWS</text>
</g>
<!-- N7 -->
<g id="node9" class="node"><title>N7</title>
<polygon fill="#fffff0" stroke="#fffff0" points="14,-225 100,-225 112,-237 112,-249 100,-261 14,-261 2,-249 2,-237 14,-225"/>
<path fill="#fffff0" stroke="#fffff0" d="M100,-225C106,-225 112,-231 112,-237"/>
<path fill="#fffff0" stroke="#fffff0" d="M112,-249C112,-255 106,-261 100,-261"/>
<path fill="#fffff0" stroke="#fffff0" d="M14,-261C8,-261 2,-255 2,-249"/>
<path fill="#fffff0" stroke="#fffff0" d="M2,-237C2,-231 8,-225 14,-225"/>
<polyline fill="none" stroke="black" points="14,-225 100,-225 "/>
<path fill="none" stroke="black" d="M100,-225C106,-225 112,-231 112,-237"/>
<polyline fill="none" stroke="black" points="112,-237 112,-249 "/>
<path fill="none" stroke="black" d="M112,-249C112,-255 106,-261 100,-261"/>
<polyline fill="none" stroke="black" points="100,-261 14,-261 "/>
<path fill="none" stroke="black" d="M14,-261C8,-261 2,-255 2,-249"/>
<polyline fill="none" stroke="black" points="2,-249 2,-237 "/>
<path fill="none" stroke="black" d="M2,-237C2,-231 8,-225 14,-225"/>
<text text-anchor="middle" x="57" y="-249.8" font-family="FreeSans" font-size="8.00">Node[7]</text>
<polyline fill="none" stroke="black" points="2,-243 112,-243 "/>
<text text-anchor="start" x="10" y="-231.8" font-family="FreeSans" font-size="8.00">&#39;name&#39; = &#39;Joe&#39; : String</text>
</g>
<!-- N4&#45;&gt;N7 -->
<g id="edge6" class="edge"><title>N4&#45;&gt;N7</title>
<path fill="none" stroke="black" d="M57,-364.984C57,-340.652 57,-297.122 57,-269.178"/>
<polygon fill="black" stroke="black" points="57,-261.391 60.3751,-268.891 57,-265.141 57.0001,-268.891 57.0001,-268.891 57.0001,-268.891 57,-265.141 53.6251,-268.891 57,-261.391 57,-261.391"/>
<text text-anchor="middle" x="69" y="-338.8" font-family="FreeSans" font-size="8.00">LIKES</text>
</g>
<!-- N7&#45;&gt;N2 -->
<g id="edge14" class="edge"><title>N7&#45;&gt;N2</title>
<path fill="none" stroke="black" d="M60.1097,-224.669C66.8625,-184.863 82.8826,-90.4287 90.6406,-44.6978"/>
<polygon fill="black" stroke="black" points="91.9006,-37.27 93.9736,-45.2289 91.2734,-40.9672 90.6461,-44.6643 90.6461,-44.6643 90.6461,-44.6643 91.2734,-40.9672 87.3187,-44.0998 91.9006,-37.27 91.9006,-37.27"/>
<text text-anchor="middle" x="89.5" y="-142.8" font-family="FreeSans" font-size="8.00">KNOWS</text>
</g>
<!-- N5&#45;&gt;N2 -->
<g id="edge10" class="edge"><title>N5&#45;&gt;N2</title>
<path fill="none" stroke="black" d="M145.896,-84.7733C136.526,-72.665 124.115,-56.6261 113.895,-43.4181"/>
<polygon fill="black" stroke="black" points="109.077,-37.1912 116.336,-41.0573 111.371,-40.157 113.666,-43.1227 113.666,-43.1227 113.666,-43.1227 111.371,-40.157 110.997,-45.1882 109.077,-37.1912 109.077,-37.1912"/>
<text text-anchor="middle" x="144.5" y="-58.8" font-family="FreeSans" font-size="8.00">KNOWS</text>
</g>
</g>
</svg>
